<svg width="151" height="37" viewBox="0 0 151 37" fill="none" xmlns="http://www.w3.org/2000/svg">
<g clip-path="url(#clip0_42_862)">
<path d="M8.54136 6.1933L0.5 11.8578V19.909L8.54136 14.2444V6.1933Z" fill="#8800FF"/>
<path d="M16.5828 30.8355L24.6241 36.5V28.4489V25.1422V17.0911L16.5828 22.7556V30.8355Z" fill="#8800FF"/>
<path d="M8.54136 17.0911L0.5 22.7556V30.8355L8.54136 36.5L16.5827 30.8355L8.54136 25.1422V17.0911Z" fill="#8800FF"/>
<path d="M16.5827 0.5L8.54138 6.19329L16.5827 11.8578V19.9089L24.6241 14.2444V6.19329L16.5827 0.5Z" fill="#8800FF"/>
<path d="M48.6046 27.2412C47.8005 27.2412 47.0538 27.0974 46.3645 26.8099C45.704 26.5224 45.1583 26.091 44.785 25.5735C44.4116 25.0559 44.2106 24.3658 44.2106 23.5894C44.2106 22.8131 44.4116 22.123 44.785 21.6054C45.1583 21.0879 45.704 20.6853 46.3645 20.4265C47.025 20.1677 47.8005 20.024 48.6333 20.024H52.5966V19.1613C52.5966 18.3275 52.3668 17.6661 51.8786 17.1773C51.3904 16.6885 50.6724 16.4585 49.6959 16.4585C48.7195 16.4585 48.0302 16.6885 47.4846 17.1486C46.9389 17.6086 46.5943 18.2125 46.3932 18.9888L44.6126 18.4137C44.8137 17.7524 45.1009 17.1486 45.5317 16.631C45.9624 16.1134 46.5081 15.6533 47.1974 15.3371C47.8866 15.0208 48.7195 14.8482 49.6959 14.8482C51.1893 14.8482 52.3668 15.222 53.1997 15.9984C54.0325 16.7748 54.4346 17.8674 54.4346 19.2764V24.5958C54.4346 25.0847 54.6643 25.3147 55.0951 25.3147H56.1864V26.9249H54.5207C54.0038 26.9249 53.573 26.7811 53.2571 26.4936C52.9412 26.2061 52.7689 25.8035 52.7689 25.3147V25.1997H52.4817C52.3094 25.516 52.0796 25.8323 51.7637 26.1486C51.4765 26.4649 51.0744 26.7524 50.5575 26.9537C50.0406 27.1837 49.38 27.27 48.5759 27.27L48.6046 27.2412ZM48.8343 25.6022C49.9544 25.6022 50.8734 25.2572 51.5627 24.5958C52.2519 23.9345 52.5966 22.9856 52.5966 21.8067V21.5479H48.7195C47.9728 21.5479 47.341 21.7204 46.8527 22.0367C46.3645 22.353 46.1348 22.8706 46.1348 23.5032C46.1348 24.1358 46.3932 24.6821 46.8814 25.0271C47.3697 25.401 48.0302 25.5735 48.8343 25.5735V25.6022Z" fill="black"/>
<path d="M58.1393 26.8962V15.1645H59.9773V16.6022H60.322C60.523 16.0847 60.8389 15.7109 61.2697 15.4808C61.7005 15.2508 62.2749 15.1358 62.9641 15.1358H64.3426V16.861H62.8205C61.9877 16.861 61.2984 17.091 60.7815 17.5799C60.2645 18.0399 60.0061 18.7875 60.0061 19.7652V26.9249H58.1106L58.1393 26.8962Z" fill="black"/>
<path d="M71.3788 26.8962C70.7183 26.8962 70.2013 26.7236 69.828 26.3498C69.4834 25.976 69.2823 25.4872 69.2823 24.8259V16.8035H65.7499V15.1358H69.2823V10.9665H71.1778V15.1358H75.0262V16.8035H71.1778V24.5383C71.1778 25.0272 71.4075 25.2572 71.8671 25.2572H74.4805V26.8962H71.3501H71.3788Z" fill="black"/>
<path d="M79.1043 15.1646H77.2089V26.8962H79.1043V15.1646Z" fill="black"/>
<path d="M84.7045 26.8962V16.8035H81.1146V15.1358H84.7045V12.1454C84.7045 11.5128 84.8768 10.9952 85.2502 10.6214C85.6235 10.2476 86.1405 10.0751 86.801 10.0751H89.6729V11.7141H87.318C86.8297 11.7141 86.6 11.9441 86.6 12.4329V15.1358H92.43V16.8035H86.6V26.8962H84.7045Z" fill="black"/>
<path d="M94.3254 15.1646H92.4299V26.8962H94.3254V15.1646Z" fill="black"/>
<path d="M102.855 27.2412C101.706 27.2412 100.701 27.0112 99.8108 26.5224C98.9205 26.0335 98.2025 25.3434 97.6856 24.4233C97.1686 23.5032 96.9102 22.4393 96.9102 21.1741V20.9153C96.9102 19.6502 97.1686 18.5575 97.6856 17.6661C98.2025 16.7748 98.9205 16.0559 99.8108 15.5671C100.701 15.0783 101.735 14.8482 102.855 14.8482C103.975 14.8482 104.923 15.0495 105.727 15.4808C106.531 15.9121 107.134 16.4585 107.594 17.1486C108.053 17.8387 108.34 18.5863 108.455 19.3626L106.617 19.7364C106.531 19.1613 106.359 18.6438 106.043 18.1549C105.756 17.6661 105.325 17.2923 104.808 17.0048C104.291 16.7172 103.63 16.5735 102.855 16.5735C102.08 16.5735 101.362 16.746 100.759 17.091C100.155 17.4361 99.6672 17.9537 99.2938 18.615C98.9205 19.2764 98.7482 20.0527 98.7482 20.9728V21.1741C98.7482 22.0942 98.9205 22.8706 99.2938 23.5319C99.6385 24.1933 100.127 24.6821 100.759 25.0559C101.362 25.401 102.08 25.5735 102.855 25.5735C104.032 25.5735 104.923 25.2572 105.526 24.6533C106.129 24.0495 106.531 23.3019 106.675 22.3818L108.541 22.7843C108.369 23.5607 108.053 24.2795 107.594 24.9696C107.134 25.6597 106.502 26.2061 105.698 26.6374C104.894 27.0399 103.946 27.27 102.826 27.27L102.855 27.2412Z" fill="black"/>
<path d="M112.878 15.1646H110.983V26.8962H112.878V15.1646Z" fill="black"/>
<path d="M119.656 27.2412C118.852 27.2412 118.105 27.0974 117.416 26.8099C116.755 26.5224 116.209 26.091 115.836 25.5735C115.463 25.0559 115.262 24.3658 115.262 23.5894C115.262 22.8131 115.463 22.123 115.836 21.6054C116.209 21.0879 116.755 20.6853 117.416 20.4265C118.076 20.1677 118.852 20.024 119.684 20.024H123.648V19.1613C123.648 18.3275 123.418 17.6661 122.93 17.1773C122.442 16.6885 121.724 16.4585 120.747 16.4585C119.771 16.4585 119.081 16.6885 118.536 17.1486C117.99 17.6086 117.645 18.2125 117.444 18.9888L115.664 18.4137C115.865 17.7524 116.152 17.1486 116.583 16.631C117.014 16.1134 117.559 15.6533 118.249 15.3371C118.938 15.0208 119.771 14.8482 120.747 14.8482C122.24 14.8482 123.418 15.222 124.251 15.9984C125.084 16.7748 125.486 17.8674 125.486 19.2764V24.5958C125.486 25.0847 125.715 25.3147 126.146 25.3147H127.238V26.9249H125.572C125.055 26.9249 124.624 26.7811 124.308 26.4936C123.992 26.2061 123.82 25.8035 123.82 25.3147V25.1997H123.533C123.361 25.516 123.131 25.8323 122.815 26.1486C122.528 26.4649 122.126 26.7524 121.609 26.9537C121.092 27.1837 120.431 27.27 119.627 27.27L119.656 27.2412ZM119.885 25.6022C121.006 25.6022 121.925 25.2572 122.614 24.5958C123.303 23.9345 123.648 22.9856 123.648 21.8067V21.5479H119.771C119.024 21.5479 118.392 21.7204 117.904 22.0367C117.416 22.353 117.186 22.8706 117.186 23.5032C117.186 24.1358 117.444 24.6821 117.933 25.0271C118.421 25.401 119.081 25.5735 119.885 25.5735V25.6022Z" fill="black"/>
<path d="M129.19 26.8962V10.1038H131.086V26.9249H129.19V26.8962Z" fill="black"/>
<path d="M137.892 27.2412C137.06 27.2412 136.313 27.0975 135.624 26.8099C134.963 26.5224 134.417 26.0911 134.015 25.516C133.613 24.9409 133.441 24.2796 133.441 23.4457C133.441 22.6118 133.642 21.9792 134.015 21.4329C134.389 20.8866 134.934 20.484 135.624 20.1965C136.313 19.909 137.088 19.7652 137.979 19.7652H141.396V19.0463C141.396 18.4137 141.195 17.9249 140.822 17.5224C140.448 17.1198 139.845 16.9473 139.012 16.9473C138.18 16.9473 137.605 17.1486 137.203 17.5224C136.801 17.8962 136.514 18.385 136.399 18.9888L133.843 18.155C134.044 17.5224 134.331 16.9761 134.762 16.4585C135.193 15.9409 135.738 15.5384 136.456 15.2221C137.174 14.9058 138.036 14.762 139.041 14.762C140.592 14.762 141.798 15.1645 142.688 15.9409C143.579 16.7173 144.01 17.8387 144.01 19.3051V23.9633C144.01 24.4521 144.239 24.6821 144.67 24.6821H145.675V26.9537H143.722C143.148 26.9537 142.688 26.8099 142.315 26.5224C141.942 26.2348 141.769 25.8323 141.769 25.3435V25.286H141.367C141.281 25.516 141.109 25.7748 140.879 26.0911C140.649 26.4074 140.276 26.6949 139.788 26.9249C139.3 27.155 138.639 27.27 137.806 27.27L137.892 27.2412ZM138.352 24.9697C139.271 24.9697 140.018 24.7109 140.592 24.1933C141.166 23.6757 141.454 22.9856 141.454 22.0943V21.8642H138.18C137.576 21.8642 137.117 21.9792 136.744 22.238C136.37 22.4968 136.198 22.8706 136.198 23.3594C136.198 23.8483 136.399 24.2221 136.772 24.5384C137.146 24.8546 137.691 24.9697 138.352 24.9697Z" fill="black"/>
<path d="M148.662 13.5256C148.174 13.5256 147.743 13.353 147.37 13.0367C147.025 12.7204 146.824 12.2604 146.824 11.7141C146.824 11.1677 146.996 10.7364 147.37 10.3914C147.743 10.0751 148.145 9.90256 148.662 9.90256C149.179 9.90256 149.61 10.0751 149.983 10.3914C150.328 10.7077 150.5 11.1677 150.5 11.7141C150.5 12.2604 150.328 12.6917 149.983 13.0367C149.638 13.3818 149.208 13.5256 148.662 13.5256ZM147.283 26.8962V15.0208H150.041V26.8962H147.283Z" fill="black"/>
<path d="M79.1043 10.0463H77.2089V11.9441H79.1043V10.0463Z" fill="black"/>
<path d="M94.3254 10.0463H92.4299V11.9441H94.3254V10.0463Z" fill="black"/>
<path d="M112.878 10.0463H110.983V11.9441H112.878V10.0463Z" fill="black"/>
</g>
<defs>
<clipPath id="clip0_42_862">
<rect width="150" height="36" fill="white" transform="translate(0.5 0.5)"/>
</clipPath>
</defs>
</svg>
