<svg width="79" height="4" viewBox="0 0 79 4" fill="none" xmlns="http://www.w3.org/2000/svg">
<path d="M0.666667 2.0459C0.666667 2.78228 1.26362 3.37923 2 3.37923C2.73638 3.37923 3.33333 2.78228 3.33333 2.0459C3.33333 1.30952 2.73638 0.712565 2 0.712565C1.26362 0.712565 0.666667 1.30952 0.666667 2.0459ZM75.6667 2.04589C75.6667 2.78227 76.2636 3.37923 77 3.37923C77.7364 3.37923 78.3333 2.78227 78.3333 2.04589C78.3333 1.30951 77.7364 0.712558 77 0.712559C76.2636 0.712559 75.6667 1.30951 75.6667 2.04589ZM2 2.2959L77 2.29589L77 1.79589L2 1.7959L2 2.2959Z" fill="black"/>
</svg>
