<svg width="377" height="376" viewBox="0 0 377 376" fill="none" xmlns="http://www.w3.org/2000/svg">
<path d="M376.5 188C376.5 232.764 360.528 276.058 331.456 310.096C302.385 344.135 262.122 366.683 217.91 373.686C173.697 380.688 128.437 371.685 90.2703 348.297C52.1032 324.908 23.5341 288.668 9.70141 246.095C-4.13124 203.523 -2.31953 157.412 14.8107 116.056C31.9409 74.6998 63.2653 40.8132 103.15 20.491C143.034 0.168877 188.861 -5.2551 232.388 5.19471C275.914 15.6445 314.284 41.2823 340.595 77.4966L264.548 132.748C251.392 114.641 232.207 101.822 210.444 96.5975C188.681 91.3726 165.767 94.0846 145.825 104.246C125.883 114.407 110.22 131.35 101.655 152.028C93.0903 172.706 92.1844 195.762 99.1007 217.048C106.017 238.334 120.302 256.454 139.385 268.148C158.469 279.843 181.099 284.344 203.205 280.843C225.311 277.342 245.442 266.068 259.978 249.048C274.514 232.029 282.5 210.382 282.5 188H376.5Z" fill="#8800FF"/>
<path d="M376.129 176.191C376.376 180.121 376.5 184.058 376.5 187.996L282.5 187.998C282.5 186.029 282.438 184.061 282.314 182.096L376.129 176.191Z" fill="#D8ACFF"/>
<path d="M340.596 77.4977C361.565 106.36 373.889 140.592 376.129 176.197L282.315 182.099C281.195 164.296 275.032 147.179 264.548 132.748L340.596 77.4977Z" fill="#BE73FF"/>
</svg>
