<svg width="643" height="266" viewBox="0 0 643 266" fill="none" xmlns="http://www.w3.org/2000/svg">
<g opacity="0.9">
<g clip-path="url(#clip0_45_691)">
<path d="M47.3804 20.9763V24.9489H55.4515V28.8957H47.3804V35.0894H42.2083V17.0269H56.5486V20.9763H47.3804Z" fill="black"/>
<path d="M64.0443 21.0795H58.4283V17.0269H74.8058V21.0795H69.2162V35.0894H64.0443V21.0795Z" fill="black"/>
<path d="M88.5445 35.0894L84.757 29.489L81.0218 35.0894H75.1185L81.7794 25.9549L75.406 17.0269H81.2307L84.8878 22.2403L88.4922 17.0269H94.0822L87.7085 25.7486L94.5 35.0894H88.5445Z" fill="black"/>
<path d="M10.0999 39H17.9031V31.2947H10.0999V39Z" fill="black"/>
<path d="M24.8262 20.6432H10.0999V28.3511H24.8262H27.5043V20.6458H24.8262V20.6432Z" fill="black"/>
<path d="M10.0999 9.99977V17.7051H34.272V9.99977H10.0999Z" fill="black"/>
<path d="M0.5 28.3511H8.30056V20.6432H0.5V28.3511Z" fill="black"/>
</g>
<path d="M199.701 8.33042C198.793 4.35763 196.522 1.12714 196.216 0.599609C195.723 1.34092 193.916 4.19334 192.988 7.3585C191.991 10.8859 191.843 14.0164 192.189 17.0995C192.534 20.1825 193.827 23.3476 193.827 23.3476C194.518 25.0114 195.555 26.7919 196.226 27.6668C197.213 26.3802 199.484 22.54 200.194 17.528C200.589 14.7429 200.599 12.3032 199.701 8.33042ZM196.216 26.6771C195.772 25.8368 195.081 24.2364 195.012 21.7641C194.992 19.3749 195.95 17.3301 196.226 16.9015C196.473 17.3301 197.302 19.1106 197.401 21.5503C197.46 23.9405 196.67 25.82 196.216 26.6771ZM199.434 15.0725C199.405 16.5878 199.227 18.1872 198.99 19.1433C199.079 17.4954 198.882 15.1715 198.497 13.3573C198.121 11.5441 197.055 8.51154 196.197 7.11008C195.407 8.44523 194.439 11.067 193.926 13.3405C193.423 15.6168 193.403 18.3683 193.403 19.1937C193.265 18.498 192.929 16.0177 193.028 13.5226C193.107 11.4649 193.581 9.35183 193.847 8.37991C194.854 5.13259 195.989 3.05613 196.197 2.72655C196.414 3.05613 197.845 5.61063 198.585 8.29775C199.326 10.9839 199.474 13.5552 199.434 15.0725Z" fill="black"/>
<path d="M197.746 28.5921H190.866V33.221C190.876 33.2151 190.886 33.2082 190.886 33.2022C192.505 31.5771 195.14 31.5771 196.759 33.2022C198.378 34.8284 198.378 37.464 196.759 39.0892C196.749 39.0961 196.749 39.102 196.739 39.108C196.739 39.109 196.739 39.109 196.739 39.11C196.73 39.1179 196.72 39.1238 196.71 39.1317C195.101 40.741 192.978 41.5467 190.866 41.5467C188.744 41.5467 186.621 40.7351 185.002 39.1119C182.15 36.2506 181.814 31.8245 183.986 28.5921C184.282 28.1556 184.617 27.7399 185.002 27.3539C186.621 25.7298 188.744 24.9182 190.866 24.9182V13.7856C182.712 13.7856 176.098 20.4149 176.098 28.5921C176.098 36.7683 182.712 43.3975 190.866 43.3975C195.121 43.3975 198.951 41.5942 201.646 38.7111V28.5921H197.746Z" fill="black"/>
<path d="M210.372 40.7571C210.372 41.7933 210.244 43.4006 208.171 43.4006H205.722C203.659 43.4006 203.531 41.7933 203.531 40.7571V31.2398C203.531 30.2025 203.659 28.5952 205.722 28.5952H208.171C210.244 28.5952 210.372 30.2025 210.372 31.2398V33.3331H207.41V30.9191C207.41 30.6657 207.223 30.4332 206.947 30.4332C206.779 30.4332 206.483 30.5381 206.483 30.9191V41.0154C206.483 41.3954 206.779 41.5013 206.947 41.5013C207.223 41.5013 207.41 41.2688 207.41 41.0154V37.775H206.966V36.1459H210.372V40.7571Z" fill="black"/>
<path d="M214.814 37.8383L215.317 30.4391H215.485L215.999 37.8383H214.814ZM211.547 43.4006H214.439L214.705 39.4674H216.097L216.374 43.4006H219.266L217.726 28.5952H213.087L211.547 43.4006Z" fill="black"/>
<path d="M220.362 41.5399L223.195 30.4391H220.658V28.5952H226.225V30.4351L223.402 41.5023H226.403V43.4006H220.362V41.5399Z" fill="black"/>
<path d="M230.747 36.519V30.4312H231.122C231.447 30.4312 231.674 30.7053 231.674 31.1715V35.7787C231.674 36.2439 231.447 36.519 231.122 36.519H230.747ZM227.785 43.4006H230.747V38.3669H232.435C234.498 38.3669 234.626 36.7595 234.626 35.7233V31.2398C234.626 30.2025 234.498 28.5952 232.435 28.5952H227.785V43.4006Z" fill="black"/>
<path d="M239.098 36.0766V30.4322H239.483C239.799 30.4322 240.026 30.7063 240.026 31.1715V35.3363C240.026 35.8015 239.799 36.0766 239.483 36.0766H239.098ZM243.362 43.4006L241.911 37.6265C242.957 37.2039 242.977 36.23 242.977 35.8292V31.2398C242.977 30.2025 242.859 28.5952 240.786 28.5952H236.146V43.4006H239.098V37.9225H239.315L240.322 43.4006H243.362Z" fill="black"/>
<path d="M248.831 41.0154C248.831 41.2697 248.643 41.5023 248.367 41.5023C248.199 41.5023 247.903 41.3964 247.903 41.0154V30.9191C247.903 30.5381 248.199 30.4332 248.367 30.4332C248.643 30.4332 248.831 30.6657 248.831 30.9191V41.0154ZM244.951 40.7571C244.951 41.7933 245.08 43.4006 247.153 43.4006H249.591C251.664 43.4006 251.792 41.7933 251.792 40.7571V31.2398C251.792 30.2025 251.664 28.5952 249.591 28.5952H247.153C245.08 28.5952 244.951 30.2025 244.951 31.2398V40.7571Z" fill="black"/>
<path d="M261.062 28.5952H264.902V43.4006H261.95V34.115H261.841L260.321 43.4006H257.962L256.442 34.115H256.333V43.4006H253.382V28.5952H257.222L259.137 39.0013L261.062 28.5952Z" fill="black"/>
<path fill-rule="evenodd" clip-rule="evenodd" d="M441.702 28.4085H438.523V16.7073H441.517V18.0172C441.89 17.2301 442.824 16.5335 444.04 16.4445C446.099 16.3569 447.5 17.493 447.5 19.9375V28.4085H444.228V19.5884C444.228 18.5414 444.228 17.6668 443.48 17.493C443.199 17.4054 442.731 17.493 442.357 17.7544C441.89 18.1924 441.702 18.7152 441.702 19.5884V28.4085ZM386.427 22.5572C386.427 24.7403 386.427 26.4868 386.053 27.3614C385.772 27.7966 385.491 28.0594 384.836 28.0594C384.275 28.0594 383.901 27.7966 383.714 27.36C383.247 26.4868 383.247 24.7403 383.247 22.5572C383.247 20.4617 383.247 18.629 383.713 17.7544C383.901 17.3177 384.275 17.0563 384.836 17.0563C385.491 17.0563 385.772 17.3177 386.053 17.7544C386.52 18.6276 386.427 20.4603 386.427 22.5572ZM387.642 17.493C386.893 16.8811 385.958 16.4445 384.836 16.4445C383.714 16.4445 382.873 16.8825 382.031 17.493C380.721 18.5414 379.879 20.4617 379.879 22.5572C379.879 24.7403 380.721 26.5744 382.031 27.6228C382.873 28.2332 383.714 28.6699 384.836 28.6699C385.958 28.6699 386.895 28.2332 387.643 27.6228C389.045 26.5744 389.794 24.7403 389.794 22.5572C389.794 20.4617 389.044 18.5414 387.642 17.493ZM420.284 32.8623V36.0048H419.63C419.256 34.6949 418.694 33.5603 417.197 33.4727C416.262 33.3865 415.421 33.9107 415.328 34.6949C415.234 35.482 415.514 36.1786 417.197 37.0546C419.349 38.1879 421.033 38.7121 421.033 41.0704C421.033 43.6025 418.694 44.8262 416.73 44.8262H412.988V40.46H413.643C414.112 42.7293 414.859 44.1268 416.637 44.2144C417.759 44.2144 418.6 43.6025 418.6 42.4679C418.6 41.3318 417.852 40.6338 416.076 39.673C414.112 38.5383 412.896 37.8389 412.896 36.2676C412.896 34.1721 414.486 32.8623 417.011 32.8623H420.284ZM424.399 28.4085V19.9375C424.399 17.493 422.997 16.3569 420.939 16.4445C419.536 16.5321 418.694 17.4054 418.32 18.1034C417.852 16.8811 416.823 16.3569 415.326 16.4445C414.112 16.5321 413.176 17.2301 412.801 18.0172V16.7073H409.902V28.407H413.082V19.5899C413.082 18.7166 413.176 18.1924 413.738 17.7558C414.112 17.4944 414.486 17.4068 414.766 17.4944C415.514 17.6682 415.514 18.5428 415.514 19.5899V28.4099H418.694V19.5008C418.694 18.7138 418.881 18.1896 419.349 17.753C419.724 17.4915 420.098 17.4039 420.377 17.4915C421.126 17.6653 421.219 18.54 421.219 19.587V28.407H424.399V28.4085ZM391.944 28.4085H395.218V14.2614H391.944V28.4085ZM402.98 17.6682C403.635 18.5414 403.635 20.6355 403.635 22.2958C403.635 24.0423 403.73 26.313 402.981 27.2724C402.7 27.6228 402.419 27.7966 401.952 27.7966C401.298 27.7966 400.924 27.0986 400.738 25.9625C400.643 24.9155 400.643 23.6056 400.643 22.2082C400.643 19.8513 400.829 17.2301 402.047 17.2301C402.513 17.2301 402.699 17.4054 402.98 17.6682ZM406.817 28.4085V14.2614H403.542V17.5806C403.262 16.9687 402.607 16.5321 401.672 16.5321C399.334 16.5321 397.464 18.8028 397.37 22.2958C397.276 24.6541 398.118 28.5837 401.391 28.5837C402.7 28.5837 403.449 27.8842 403.73 27.2724V28.4085H406.817ZM432.256 21.4225L431.227 22.033C430.199 22.6448 430.012 23.4318 429.918 24.3037C429.824 25.0031 429.824 25.6135 429.918 26.662C430.011 27.6228 430.666 27.7966 431.227 27.6228C431.882 27.36 432.256 26.2254 432.256 25.0031V21.4225ZM434.126 17.0563C434.969 17.4944 435.529 18.191 435.529 19.7637V28.4085H432.443V27.0986C432.07 28.0594 431.04 28.6699 429.637 28.6699C428.515 28.6699 426.551 28.147 426.551 25.4397C426.551 22.9062 428.328 22.3834 430.293 21.5963C432.07 20.8983 432.256 20.8107 432.256 20.1127V18.191C432.256 17.4054 431.789 17.0563 430.852 17.0563C430.48 17.1439 429.824 17.3177 429.824 17.7544C429.73 18.2786 430.385 18.2786 430.48 19.0642C430.573 20.2879 429.543 20.7231 428.609 20.6369C427.953 20.6369 427.205 20.2879 427.112 19.327C427.019 17.7544 428.888 16.4445 431.508 16.4445C432.724 16.4445 433.472 16.7073 434.126 17.0563ZM385.958 37.7513L384.93 38.3631C383.901 38.9749 383.714 39.7606 383.62 40.6338C383.528 41.3318 383.528 42.0313 383.62 42.9907C383.62 44.0392 384.275 44.2144 384.836 43.9515C385.584 43.6901 385.958 42.6431 385.958 41.3318V37.7513ZM387.829 33.3851C388.671 33.9093 389.138 34.5211 389.138 36.0924V44.8248H386.148V43.5149C385.773 44.3882 384.745 44.9986 383.342 44.9986C382.126 44.9986 380.255 44.5634 380.255 41.8561C380.255 39.3239 382.033 38.7997 383.902 38.0127C385.773 37.2285 385.96 37.1408 385.96 36.529V34.6073C385.96 33.7355 385.492 33.3865 384.557 33.4727C384.183 33.4727 383.529 33.6479 383.529 34.0845C383.435 34.6963 384.09 34.6963 384.183 35.482C384.276 36.6166 383.248 37.0532 382.312 37.0532C381.658 36.9656 380.91 36.6166 380.815 35.6558C380.722 34.1721 382.593 32.8608 385.211 32.8608C386.429 32.8608 387.176 33.0361 387.831 33.3865L387.829 33.3851ZM410.464 36.3552C410.464 33.9107 409.061 32.687 407.003 32.8623C405.975 32.9484 405.132 33.3851 404.665 33.9969V30.5915H401.483V38.6259C401.483 41.5932 399.238 44.3882 396.993 44.3006C395.404 44.3006 395.03 43.1659 394.842 41.9437C394.562 40.1972 394.562 38.1893 394.749 36.0048C394.937 34.6087 395.311 33.4727 396.433 33.4727C397.275 33.4727 397.368 33.9969 396.994 34.3459C396.62 34.7839 396.059 35.2192 396.339 36.18C396.62 37.2285 398.396 37.4023 399.239 36.618C399.893 35.9186 399.8 34.7825 399.333 34.0845C398.77 33.2113 397.836 32.8623 396.433 32.8623C394.656 32.8623 391.289 34.3459 391.289 39.0611C391.289 44.1268 394.749 45 396.713 45C398.958 45 400.921 43.1659 401.483 41.6808V44.8248H404.663V36.0048C404.663 35.133 404.85 34.6087 405.319 34.1707C405.693 33.9093 406.16 33.8217 406.441 33.9093C407.19 34.0845 407.19 34.9577 407.19 36.0048V44.8248H410.463L410.464 36.3552ZM377.728 14V18.978H377.073C376.513 16.5335 375.297 14.698 373.614 14.6118C372.491 14.5242 371.836 15.1346 371.275 16.0079C370.714 17.0563 370.433 19.2394 370.433 21.8577C370.433 24.3037 370.527 26.1377 370.808 27.4476C370.994 28.0594 371.461 29.0189 372.677 29.0189C373.333 29.0189 373.8 28.8451 374.081 28.4961C374.547 27.9718 374.642 26.9234 374.642 26.2254V23.867C374.642 22.9938 374.362 22.471 373.893 22.2082C373.52 22.033 372.958 22.033 372.679 21.9453V21.3349H377.915V33.8231H377.261C376.98 32.8623 376.794 32.1628 376.325 31.3772C375.859 30.5915 375.016 29.7183 373.614 29.7183C372.117 29.6307 370.994 30.5039 370.994 31.8138C370.994 33.5603 372.117 33.9969 374.174 35.0454C376.138 36.0924 378.665 36.967 378.665 40.022C378.665 42.9907 375.951 44.8262 372.865 44.8262H367.909V38.7997H368.562C369.404 43.3411 371.461 44.1268 372.865 44.1268C374.642 44.1268 375.483 43.0783 375.483 41.5946C375.39 39.673 373.986 38.9749 372.023 38.0141C369.218 36.5304 367.909 35.831 367.909 33.3865C368.002 31.2896 369.778 29.9811 371.742 29.4569C367.628 29.0189 366.412 25.5273 366.505 21.7715C366.505 18.0172 368.843 14 373.426 14H377.728Z" fill="black"/>
<g clip-path="url(#clip1_45_691)">
<path d="M63.74 116.067C65.3022 109.884 65.3023 109.884 65.3023 109.884C64.6812 110.232 63.3704 110.15 62.8195 110.144C42.7869 110.045 42.7869 110.045 42.7869 110.045C44.2434 110.817 44.6224 111.86 44.1633 113.836C39.9631 130.635 39.9631 130.635 39.9631 130.635C39.122 133.874 38.3741 135.294 37.0447 135.283C35.9401 135.283 35.3893 134.651 34.3672 133.082C27.3403 120.354 27.3403 120.354 27.3403 120.354C41.5938 110.052 41.5938 110.052 41.5938 110.052C28.853 109.983 28.853 109.983 28.853 109.983C30.6398 111.027 30.8866 112.537 29.0225 113.876C19.3585 121.562 19.3585 121.562 19.3585 121.562C21.427 113.472 21.427 113.472 21.427 113.472C22 111.474 23.4028 110.451 24.6601 109.947C10.9309 109.89 10.9309 109.89 10.9309 109.89C12.3954 110.631 12.7892 111.701 12.345 113.703C8.11664 130.526 8.11664 130.526 8.11664 130.526C7.66824 132.253 7.19858 134.27 4.50089 135.358C18.0912 135.408 18.0912 135.408 18.0912 135.408C16.4306 134.379 16.442 133.042 16.8495 131.348C18.7259 124.081 18.7259 124.081 18.7259 124.081C24.3033 135.467 24.3033 135.467 24.3033 135.467C30.587 135.46 30.587 135.46 30.587 135.46C49.9149 135.521 49.9149 135.521 49.9149 135.521C48.4118 134.219 48.359 132.754 48.9284 130.645C50.4795 124.547 50.4795 124.547 50.4795 124.547C54.8749 124.554 54.8749 124.554 54.8749 124.554C56.9525 124.561 57.7054 124.999 58.6237 125.967C60.1106 119.949 60.1106 119.949 60.1106 119.949C59.4923 120.287 58.1358 120.213 57.6432 120.192C51.5897 120.189 51.5897 120.189 51.5897 120.189C53.0405 114.436 53.0405 114.436 53.0405 114.436C60.0793 114.482 60.0793 114.482 60.0793 114.482C62.1033 114.528 62.9236 115.04 63.7373 116.077L63.74 116.067Z" fill="black"/>
<path d="M79.7099 131.729C74.1043 131.662 70.8939 127.596 70.8341 123.185C70.7627 118.276 74.5957 113.339 81.0962 113.346C83.1376 113.385 85.3353 113.701 88.162 114.981C89.481 109.901 89.481 109.901 89.481 109.901C87.64 109.424 85.2394 109.137 82.3943 109.141C69.3709 109.087 61.0964 116.748 61.2231 124.371C61.3071 130.11 65.915 135.901 76.4357 135.936C79.5343 135.918 82.5834 135.797 85.1208 135.264C86.3627 130.481 86.3627 130.481 86.3627 130.481C84.3381 131.129 81.7646 131.718 79.7099 131.729Z" fill="black"/>
<path d="M8.9028 131.888C13.4444 114.169 13.4444 114.169 13.4444 114.169C14.0269 112.04 13.8084 111.312 13.1951 110.528C14.3602 110.816 15.0966 111.68 14.4344 114.196C9.89706 131.983 9.89706 131.983 9.89706 131.983C9.34063 134.097 8.55558 134.849 6.97114 134.807C7.97583 134.273 8.61233 133.202 8.9131 131.891L8.9028 131.888Z" fill="white"/>
<path d="M40.5954 131.801C45.1423 114.061 45.1423 114.061 45.1423 114.061C45.7139 111.974 45.4749 111.24 44.8702 110.38C46.045 110.715 46.763 111.608 46.1062 114.103C41.5663 131.9 41.5663 131.9 41.5663 131.9C41.0251 134.041 40.4137 134.764 38.845 134.705C39.815 134.261 40.1693 133.42 40.5954 131.801Z" fill="white"/>
<path d="M53.6545 112.144C60.0944 112.189 60.0944 112.189 60.0944 112.189C61.9801 112.197 63.5536 112.617 63.5321 114.147C62.835 113.51 62.0597 113.091 59.8713 113.126C53.3786 113.077 53.3786 113.077 53.3786 113.077L53.6545 112.144Z" fill="white"/>
<path d="M50.7084 123.268C50.9568 122.315 50.9568 122.315 50.9568 122.315C54.7961 122.363 54.7961 122.363 54.7961 122.363C56.6672 122.346 58.2428 122.799 58.2394 124.301C57.5496 123.678 56.7642 123.256 54.5757 123.291C50.7084 123.268 50.7084 123.268 50.7084 123.268Z" fill="white"/>
<path d="M62.389 124.396C62.2825 115.933 71.4922 111.319 77.319 110.732C72.2824 112.044 63.3921 116.055 63.4598 124.375C63.5642 132.386 72.0163 134.707 77.8844 135.091C71.3967 135.586 62.4848 132.901 62.389 124.396Z" fill="white"/>
<path d="M27.565 134.596C26.251 134.527 25.3789 132.927 25.3789 132.927C25.4302 133.108 25.4302 133.108 25.4302 133.108C20.5054 123.124 20.5054 123.124 20.5054 123.124C30.6612 115.147 30.6612 115.147 30.6612 115.147C32.7009 113.602 33.4428 111.297 31.2966 110.523C32.0609 111.782 31.6404 113.23 29.8964 114.561C19.3315 122.852 19.3315 122.852 19.3315 122.852C25.0958 134.603 25.0958 134.603 25.0958 134.603C26.2045 134.58 26.2045 134.58 26.2045 134.58L27.565 134.596Z" fill="white"/>
</g>
<g clip-path="url(#clip2_45_691)">
<path d="M252.004 103.205C248.173 108.687 235.199 110.001 221.882 110.001C211.195 110.001 203.333 111.818 197.34 115.356C191.35 118.891 188.5 123.34 188.5 131.028V155.754C188.5 155.999 188.723 156.134 188.996 155.803C193.383 150.48 206.905 146.602 220.825 146.602C231.18 146.602 238.378 145.423 243.355 142.461C249.888 138.575 252.5 131.806 252.5 122.485V103.255C252.5 103.009 252.25 102.854 252.004 103.205Z" fill="black"/>
<path d="M247.7 130.732C247.485 130.577 247.209 130.677 246.904 131.095C245.611 132.877 244.559 133.542 243.781 133.542C243.17 133.542 242.882 133.059 243.164 132.198C243.358 131.601 243.775 130.873 244.165 129.878C244.544 128.909 244.371 128.154 243.737 127.7C243.258 127.358 242.382 127.121 241.856 126.846C242.271 125.892 241.751 124.906 240.664 124.906C239.647 124.906 238.971 125.737 238.971 126.606C238.971 127.27 239.35 127.8 240.085 128.084C238.24 131.762 236.348 133.583 235.146 133.583C234.48 133.583 234.315 132.98 234.632 132.116C234.908 131.361 235.79 129.886 235.998 129.161C236.201 128.452 236.072 127.806 235.399 127.396C235.023 127.165 234.48 126.998 234.13 126.825C234.444 125.991 234.103 124.865 232.917 124.865C231.932 124.865 231.222 125.661 231.239 126.6C231.251 127.299 231.65 127.794 232.32 128.028C231.885 128.596 231.222 128.868 230.707 128.903C230.414 128.92 230.179 128.895 230.002 128.804C229.835 128.716 229.694 128.587 229.5 128.195C229.015 127.214 228.281 126.694 227.041 126.694C226.151 126.694 225.231 126.983 224.247 127.653C223.51 128.154 222.869 128.783 222.108 129.784C221.353 130.773 220.854 131.411 220.29 131.99C219.432 132.868 218.686 133.372 218.072 133.527C217.725 133.612 217.443 133.553 217.305 133.346C217.164 133.135 217.193 132.807 217.355 132.4C217.728 131.458 218.88 129.755 219.174 128.666C219.456 127.61 219.021 126.735 217.849 126.735C216.647 126.735 215.366 127.329 214.056 128.482C214.282 127.522 213.947 126.893 213.304 126.735C212.126 126.451 210.698 127.235 209.361 128.707C208.383 129.781 207.214 131.247 206.209 132.166C205.193 133.094 204.458 133.316 203.73 133.234C202.073 133.044 201.526 130.109 199.981 129.123C201.958 129.123 204.229 128.596 205.848 127.654C207.728 126.556 208.207 125.892 209.875 124.265C211.315 122.86 212.572 122.052 214.203 121.78C214.588 121.719 214.77 121.619 214.787 121.367C214.804 121.16 214.661 120.99 214.329 120.949C212.76 120.756 210.739 121.148 208.994 122.169C207.099 123.281 205.883 124.619 203.812 126.234C203.033 126.843 202.39 127.276 201.511 127.624C200.824 127.896 199.993 128.069 199.352 128.054C200.028 126.723 200.774 125.222 201.347 124.118C203.142 124.129 204.241 122.936 204.241 121.953C204.241 121.183 203.58 120.65 202.684 120.65C201.547 120.65 200.592 121.224 199.84 122.213C195.759 121.841 192.857 123.436 191.852 126.179C191.74 126.483 191.687 126.682 191.696 126.828C191.705 126.954 191.761 127.045 191.861 127.092C191.958 127.138 192.075 127.15 192.193 127.1C192.313 127.05 192.396 126.948 192.528 126.746C193.788 124.809 195.707 123.852 198.794 124.098C198.5 124.501 197.684 125.979 196.717 127.832C195.93 127.674 195.113 127.794 194.89 128.534C194.722 129.099 195.072 129.678 195.768 129.693C194.479 132.034 193.298 134.334 192.968 134.972C192.66 135.572 192.804 135.941 193.35 135.909C193.961 135.874 195.045 135.552 195.533 135.248C195.921 135.002 196.065 134.809 196.382 134.15C196.99 132.892 197.751 131.361 198.433 129.942C199.059 130.387 199.282 132.122 199.746 133.328C200.422 135.087 201.397 135.789 202.74 135.789C204.173 135.789 205.181 135.271 206.479 133.743C208.633 131.209 209.773 129.503 210.839 128.721C211.162 128.481 211.362 128.423 211.485 128.481C211.685 128.575 211.615 128.836 211.453 129.169C210.663 130.829 208.709 134.408 208.486 134.896C208.216 135.49 208.345 135.824 208.833 135.789C209.217 135.763 209.373 135.728 209.867 135.581C210.343 135.444 210.895 135.256 211.189 134.785C211.45 134.37 211.532 134.118 211.691 133.776C212.091 132.924 212.258 132.52 212.951 131.402C214.188 129.415 215.675 128.429 216.315 128.596C216.509 128.645 216.594 128.836 216.518 129.146C216.471 129.33 216.362 129.529 216.192 129.845C215.422 131.247 214.491 132.503 214.267 133.761C214.053 134.958 214.72 135.789 215.877 135.789C217.458 135.789 219.268 134.56 221.165 132.418C220.778 134.381 221.838 135.78 223.871 135.78C225.149 135.78 226.418 135.303 227.596 134.188C228.698 133.146 229.488 131.657 229.717 130.065C230.608 130.325 232.073 129.717 233.105 128.47C233.592 128.763 233.645 129.046 233.451 129.564C233.19 130.258 232.928 130.682 232.394 131.648C231.859 132.617 231.618 133.383 231.695 134.168C231.786 135.098 232.464 135.789 233.586 135.789C236.095 135.789 238.437 133.524 240.978 128.487C241.795 128.818 241.95 129.216 241.824 129.816C241.698 130.413 241.395 130.913 240.946 131.783C240.502 132.64 240.282 133.179 240.282 133.928C240.282 134.99 240.96 135.795 242.285 135.795C244.024 135.795 246.043 134.171 247.512 131.829C247.885 131.232 247.929 130.896 247.7 130.732ZM226.894 131.206C226.016 133.319 225.055 134.27 224.288 134.288C223.51 134.309 223.248 133.439 224.042 131.361C224.72 129.579 225.892 128.174 226.768 128.151C227.458 128.134 227.89 128.818 226.894 131.206Z" fill="white"/>
<path d="M245.584 124.375C245.899 124.299 246.06 124.033 246.057 123.769C246.055 123.465 245.834 123.161 245.414 123.161H244.639L244.553 123.246V124.999L244.639 125.086H244.782L244.871 124.999V124.402H245.203L245.778 125.057L245.849 125.086H246.025L246.113 124.999V124.984L246.09 124.925L245.584 124.375ZM245.326 124.293V124.296L245.32 124.283H245.332L245.326 124.293ZM244.871 124.094V123.465H245.414C245.631 123.465 245.731 123.62 245.731 123.772C245.731 123.857 245.702 123.939 245.646 123.995C245.587 124.059 245.499 124.094 245.394 124.094L244.871 124.094Z" fill="white" stroke="white" stroke-width="0.264302" stroke-miterlimit="10"/>
<path d="M245.258 122.104C243.878 122.104 243.249 123.158 243.249 124.138C243.249 125.116 243.878 126.172 245.258 126.172C246.586 126.172 247.28 125.148 247.28 124.138C247.28 123.129 246.586 122.104 245.258 122.104ZM245.258 125.801C244.28 125.801 243.622 125.133 243.622 124.138C243.622 123.143 244.28 122.479 245.258 122.479C246.237 122.479 246.895 123.143 246.895 124.138C246.895 125.133 246.237 125.801 245.258 125.801Z" fill="white"/>
<path d="M245.258 122.104C243.878 122.104 243.249 123.158 243.249 124.138C243.249 125.116 243.878 126.172 245.258 126.172C246.586 126.172 247.28 125.148 247.28 124.138C247.28 123.129 246.586 122.104 245.258 122.104ZM245.258 125.801C244.28 125.801 243.622 125.133 243.622 124.138C243.622 123.143 244.28 122.479 245.258 122.479C246.237 122.479 246.895 123.143 246.895 124.138C246.895 125.133 246.237 125.801 245.258 125.801Z" stroke="white" stroke-width="0.19597" stroke-miterlimit="10"/>
<path d="M228.416 120.252C228.418 120.357 228.399 120.398 228.384 120.413C228.377 120.421 228.348 120.448 228.245 120.48L228.19 120.497V121.012L228.281 121.004L228.381 120.987V122.52H228.901V120.167H228.413L228.416 120.252Z" fill="white"/>
<path d="M231.542 121.271C231.648 121.171 231.7 121.031 231.7 120.855C231.7 120.609 231.598 120.416 231.389 120.282C231.219 120.173 231.01 120.118 230.769 120.118C230.525 120.118 230.317 120.173 230.152 120.282C229.944 120.416 229.838 120.609 229.838 120.855C229.838 120.952 229.861 121.045 229.9 121.127L229.994 121.271C229.85 121.394 229.776 121.563 229.776 121.78C229.776 121.909 229.803 122.026 229.855 122.125C230.002 122.403 230.311 122.544 230.769 122.544C230.901 122.544 231.028 122.533 231.145 122.509C231.33 122.468 231.483 122.383 231.592 122.26C231.706 122.134 231.765 121.97 231.765 121.78C231.765 121.631 231.721 121.496 231.639 121.379L231.542 121.271ZM230.467 121.596C230.555 121.552 230.655 121.531 230.769 121.531C230.884 121.531 230.987 121.553 231.072 121.596C231.204 121.657 231.219 121.73 231.219 121.78C231.219 121.83 231.204 121.906 231.075 121.967C230.895 122.052 230.637 122.052 230.467 121.967C230.337 121.906 230.323 121.83 230.323 121.78C230.323 121.73 230.337 121.657 230.467 121.596ZM230.384 120.826C230.384 120.779 230.384 120.642 230.769 120.642C230.957 120.642 231.081 120.68 231.136 120.759L231.142 120.765L231.157 120.826C231.157 120.87 231.157 121.011 230.769 121.011C230.384 121.011 230.384 120.87 230.384 120.826Z" fill="white"/>
<path d="M234.198 120.808C234.198 120.586 234.109 120.407 233.93 120.279C233.777 120.173 233.589 120.118 233.372 120.118C233.228 120.118 233.102 120.135 232.993 120.167C232.858 120.214 232.752 120.264 232.67 120.322C232.599 120.369 232.514 120.445 232.408 120.562L232.361 120.612L232.714 121.083L232.779 120.987C232.937 120.752 233.122 120.641 233.343 120.641C233.633 120.641 233.633 120.773 233.633 120.829C233.633 120.914 233.601 120.928 233.589 120.934C233.475 120.984 233.313 120.981 233.014 120.972L232.928 120.97V121.508H233.014C233.146 121.506 233.255 121.502 233.346 121.502C233.775 121.502 233.775 121.677 233.775 121.742C233.775 121.873 233.73 122.023 233.398 122.023C233.246 122.023 233.114 121.999 233.005 121.952C232.902 121.905 232.787 121.824 232.661 121.715L232.585 121.645L232.309 122.137L232.361 122.181C232.641 122.418 232.961 122.538 233.31 122.543L233.351 122.546C233.61 122.546 233.827 122.49 233.995 122.379C234.206 122.242 234.315 122.034 234.315 121.756C234.315 121.516 234.236 121.334 234.074 121.214C234.156 121.115 234.198 120.98 234.198 120.808" fill="white"/>
<path d="M236.742 121.379L236.645 121.274C236.75 121.171 236.806 121.031 236.806 120.855C236.806 120.609 236.7 120.416 236.492 120.282C236.321 120.173 236.113 120.118 235.872 120.118C235.628 120.118 235.422 120.173 235.255 120.282C235.046 120.416 234.941 120.609 234.941 120.855C234.941 120.952 234.964 121.045 235.002 121.127L235.096 121.271C234.952 121.394 234.879 121.563 234.879 121.777C234.879 121.909 234.905 122.023 234.958 122.125C235.105 122.403 235.414 122.547 235.872 122.547C236.004 122.547 236.131 122.532 236.248 122.509C236.433 122.468 236.586 122.383 236.695 122.26C236.809 122.131 236.868 121.97 236.868 121.777C236.868 121.631 236.827 121.496 236.742 121.379ZM235.569 121.596C235.658 121.555 235.757 121.531 235.872 121.531C235.987 121.531 236.089 121.555 236.175 121.596C236.307 121.657 236.321 121.73 236.321 121.78C236.321 121.83 236.307 121.906 236.175 121.967C235.998 122.052 235.74 122.052 235.569 121.967C235.44 121.906 235.425 121.83 235.425 121.78C235.425 121.73 235.44 121.657 235.569 121.596ZM235.487 120.826C235.487 120.779 235.487 120.642 235.872 120.642C236.06 120.642 236.183 120.68 236.242 120.762L236.245 120.764L236.26 120.825C236.26 120.869 236.26 121.01 235.872 121.01C235.487 121.01 235.487 120.87 235.487 120.826Z" fill="white"/>
<path d="M218.433 121.124C218.334 121.095 218.172 121.068 217.937 121.048C217.699 121.027 217.617 120.995 217.59 120.978L217.534 120.872L217.575 120.755C217.625 120.708 217.728 120.685 217.878 120.685C218.131 120.691 218.345 120.767 218.533 120.925L218.612 120.989L218.874 120.477L218.815 120.436C218.548 120.249 218.228 120.152 217.86 120.152C217.605 120.152 217.393 120.223 217.229 120.363C217.061 120.506 216.979 120.697 216.979 120.931C216.979 121.106 217.023 121.247 217.108 121.349C217.24 121.504 217.47 121.595 217.787 121.618C218.092 121.635 218.136 121.645 218.142 121.645C218.298 121.68 218.298 121.759 218.298 121.791L218.21 121.937C218.131 121.993 218.01 122.013 217.846 122.011C217.611 122.008 217.411 121.923 217.229 121.756L217.146 121.677L216.9 122.207L216.949 122.248C217.176 122.438 217.484 122.532 217.869 122.532C218.183 122.532 218.433 122.461 218.609 122.321C218.786 122.183 218.877 121.99 218.877 121.753C218.877 121.569 218.824 121.42 218.721 121.305C218.639 121.218 218.542 121.159 218.433 121.124Z" fill="white"/>
<path d="M220.375 121.569H221.207V121.045H220.375V120.709H221.615L221.621 120.176H219.803V122.52H221.639V121.961H220.376L220.375 121.569Z" fill="white"/>
<path d="M222.455 122.52H223.031V120.176H222.455V122.52Z" fill="white"/>
<path d="M223.589 120.709H224.271V122.52H224.847V120.709H225.528V120.176H223.589V120.709Z" fill="white"/>
</g>
<g clip-path="url(#clip3_45_691)">
<path fill-rule="evenodd" clip-rule="evenodd" d="M376.5 126.036L384.169 118.351L388.459 122.578L386.982 124.059L384.382 121.382L382.97 122.791L385.505 125.402L384.099 126.882L381.493 124.272L379.596 126.178L382.267 128.854L380.79 130.263L376.5 126.036Z" fill="black"/>
<path fill-rule="evenodd" clip-rule="evenodd" d="M390.007 124.129L391.909 126.106L389.162 131.885L393.457 127.587L395.076 129.209L387.336 136.894L385.576 135.059L388.252 129.138L383.957 133.508L382.338 131.885L390.007 124.129Z" fill="black"/>
<path fill-rule="evenodd" clip-rule="evenodd" d="M409.145 143.307L411.047 145.213L408.234 150.992L412.524 146.693L414.143 148.315L406.474 156L404.643 154.165L407.39 148.244L403.024 152.614L401.405 150.992L409.145 143.307Z" fill="black"/>
<path fill-rule="evenodd" clip-rule="evenodd" d="M389.026 138.582L396.695 130.826L398.314 132.448C400.145 134.283 401.198 135.692 399.508 137.385C398.451 138.445 397.606 138.795 396.412 137.948L396.341 138.019C397.257 138.937 397.044 139.641 395.921 140.767L394.727 141.963C394.373 142.318 393.953 142.809 393.882 143.372L392.264 141.75C392.334 141.187 392.754 140.691 393.108 140.412L394.444 139.073C395.005 138.511 394.586 137.451 394.231 137.172L393.948 136.818L390.64 140.133L389.021 138.582H389.026ZM395.076 135.692C395.921 136.539 396.695 136.752 397.469 135.976C398.243 135.271 398.031 134.496 397.186 133.578L395.076 135.692Z" fill="black"/>
<path fill-rule="evenodd" clip-rule="evenodd" d="M402.042 147.184C400.211 149.02 398.521 148.315 397.398 147.184C396.341 146.13 395.638 144.437 397.469 142.531L400.778 139.287C402.609 137.451 404.294 138.09 405.422 139.216C406.474 140.341 407.182 142.034 405.351 143.869L402.042 147.184ZM398.663 144.579C398.314 144.929 398.314 145.496 398.734 145.917C399.088 146.338 399.72 146.272 399.999 145.988L404.152 141.826C404.506 141.542 404.506 140.909 404.081 140.559C403.732 140.133 403.095 140.133 402.816 140.488L398.663 144.579Z" fill="black"/>
<path fill-rule="evenodd" clip-rule="evenodd" d="M436.377 126.035L428.566 118.208L412.737 133.999L414.351 135.621L428.566 121.382L433.21 126.035L412.524 146.693L414.143 148.315L436.377 126.035Z" fill="black"/>
<path fill-rule="evenodd" clip-rule="evenodd" d="M414.351 135.621L409.57 130.755L425.328 114.964L417.518 107.071L401.688 122.933L403.307 124.555L417.518 110.311L422.091 114.964L406.332 130.755L412.737 137.244L414.351 135.621Z" fill="black"/>
<path fill-rule="evenodd" clip-rule="evenodd" d="M403.307 124.555L398.451 119.689L414.285 103.898L406.474 96L384.169 118.35L385.788 119.902L406.474 99.2443L411.047 103.898L395.284 119.689L401.688 126.106L403.307 124.555Z" fill="black"/>
<path fill-rule="evenodd" clip-rule="evenodd" d="M435.39 136.047C434.475 136.047 433.772 135.342 433.772 134.354C433.772 133.365 434.475 132.661 435.39 132.661C436.235 132.661 436.939 133.365 436.939 134.354C436.939 135.342 436.235 136.047 435.39 136.047ZM435.39 136.473C436.519 136.473 437.5 135.484 437.5 134.359C437.5 133.163 436.514 132.245 435.39 132.245C434.197 132.245 433.281 133.163 433.281 134.359C433.281 135.489 434.197 136.473 435.39 136.473ZM434.546 135.555H434.966V134.496H435.249L435.881 135.555H436.301L435.669 134.496C436.089 134.425 436.301 134.212 436.301 133.862C436.301 133.37 436.018 133.158 435.456 133.158H434.541V135.555H434.546ZM434.966 133.512H435.385C435.598 133.512 435.876 133.512 435.876 133.796C435.876 134.151 435.664 134.151 435.385 134.151H434.966V133.518V133.512Z" fill="black"/>
</g>
<g clip-path="url(#clip4_45_691)">
<path d="M47.0001 258C62.1879 258 74.5001 245.912 74.5001 231C74.5001 216.088 62.1879 204 47.0001 204C31.8123 204 19.5001 216.088 19.5001 231C19.5001 245.912 31.8123 258 47.0001 258Z" fill="black"/>
<path d="M46.534 228.428C48.3597 224.01 44.9451 222.81 42.7222 222.81H35.3583C35.9694 223.223 35.8701 223.77 35.7479 224.108L31.4548 237.57C31.2868 238.103 30.6451 238.665 30.3014 238.748H36.2597C35.9312 238.688 35.4653 238.23 35.6333 237.608L37.1916 232.74C37.1993 232.74 44.3646 233.693 46.534 228.428ZM40.7437 224.048C41.5229 224.048 43.6847 224.153 42.2868 228.165C40.8278 232.38 37.5889 231.51 37.5889 231.51L39.9722 224.048H40.7437Z" fill="white"/>
<path d="M51.3006 238.756H55.3111C54.0277 238.351 52.1333 237.158 51.377 236.311C51.9881 235.658 52.7444 234.833 52.8819 233.161H50.8041C50.8041 233.161 51.2013 233.386 51.2013 233.866C51.2013 234.308 51.018 234.923 50.6666 235.351C50.0555 234.466 49.4062 233.453 49.177 231.968C49.9944 231.571 51.1402 231.136 52.0493 230.356C52.9125 229.613 53.1111 228.908 53.1263 228.451V228.391C53.1263 227.911 52.9354 227.461 52.584 227.123C51.9805 226.538 51.0333 226.298 50.0326 226.478C49.2305 226.628 48.5506 227.048 48.2069 227.356C47 228.473 46.8472 230.311 46.8472 231.143C46.8472 231.346 46.8548 231.496 46.8625 231.586C46.7937 231.616 46.6715 231.661 46.6715 231.661C45.7854 231.983 43.425 232.598 42.5847 234.503C42.4777 234.743 42.325 235.268 42.325 235.876C42.325 236.401 42.4395 236.986 42.7833 237.518C43.3791 238.433 44.3875 239.011 46.0069 238.981C47.7638 238.951 49.4979 237.773 49.8034 237.556C50.1013 237.833 50.8881 238.561 51.3006 238.756ZM51.3006 228.106C51.0944 229.388 49.3986 230.686 48.9861 230.858C48.9097 230.138 48.9479 228.998 49.559 228.068C49.9638 227.453 50.5062 227.183 50.9416 227.333C51.293 227.453 51.3312 227.768 51.3006 228.106ZM48.9479 236.686C48.7111 236.828 47.7791 237.293 46.9083 237.376C46.0986 237.451 44.7541 237.143 44.7618 235.553C44.7618 234.196 46.2666 233.198 47.084 232.853C47.4125 234.166 48.1534 235.651 48.9479 236.686Z" fill="white"/>
<path d="M63.4847 224.063C65.868 223.501 67.8312 225.331 68.0069 225.458L68.6868 223.336C67.7472 223.058 60.9104 220.786 56.0749 226.201C53.1034 229.531 52.3777 236.356 56.1437 238.186C60.177 240.143 64.6305 237.886 64.959 237.728L66.7999 231.968C66.9986 231.271 67.4492 230.821 68.2437 230.528H61.8423C62.7742 230.911 62.7055 231.601 62.6367 231.886L60.7958 237.646C60.5513 237.691 55.4027 238.951 58.2826 230.108C58.9166 228.211 60.6506 224.731 63.4847 224.063Z" fill="white"/>
</g>
<path d="M259.313 220.497H226.862C225.853 220.609 225.297 221.217 225.199 222.326V240.689C225.296 241.797 225.85 242.403 226.853 242.518H259.321C260.324 242.403 260.878 241.797 260.975 240.689V222.326C260.878 221.217 260.322 220.609 259.313 220.497Z" fill="#E6E6E6"/>
<path d="M257.689 229.048C257.138 228.449 256.398 228.064 255.593 227.888C255.362 227.827 255.098 227.784 254.805 227.772C253.739 227.676 252.37 228.096 251.734 228.622L251.889 224.322H249.297V237.634H251.705V236.9C252.259 237.34 253.15 237.851 254.507 237.851C254.56 237.851 254.611 237.851 254.66 237.85C254.695 237.851 254.73 237.851 254.766 237.851C255.903 237.851 256.87 237.406 257.665 236.517C258.461 235.626 258.86 234.359 258.86 232.713C258.86 231.12 258.469 229.899 257.689 229.048ZM255.6 235.114C255.198 235.595 254.711 235.835 254.139 235.835C253.395 235.835 252.798 235.496 252.35 234.818C252.03 234.34 251.87 233.602 251.87 232.603C251.87 231.635 252.076 230.913 252.488 230.438C252.9 229.963 253.416 229.725 254.037 229.725C254.671 229.725 255.19 229.969 255.596 230.456C256.001 230.943 256.205 231.738 256.205 232.839C256.205 233.875 256.003 234.632 255.6 235.114ZM245.121 232.058C245.121 233.438 245.057 234.305 244.928 234.66C244.799 235.014 244.559 235.311 244.208 235.549C243.858 235.789 243.461 235.908 243.019 235.908C242.632 235.908 242.312 235.819 242.06 235.64C241.808 235.462 241.634 235.219 241.539 234.914C241.443 234.608 241.396 233.778 241.396 232.421V227.99H238.805V234.092C238.805 235 238.922 235.711 239.155 236.226C239.389 236.741 239.767 237.14 240.289 237.425C240.812 237.709 241.402 237.851 242.06 237.851C242.158 237.851 242.256 237.848 242.353 237.841C242.357 237.841 242.358 237.841 242.36 237.84C244.01 237.793 244.868 237.057 245.306 236.571V237.633H247.712V227.99H245.121V232.058ZM236.667 228.935C236.424 228.597 236.063 228.318 235.584 228.1C235.15 227.903 234.669 227.796 234.14 227.777C234.131 227.776 234.123 227.776 234.114 227.775C233.022 227.718 231.625 228.032 230.973 228.649V224.322H228.382V237.633H230.973V232.803C230.973 231.992 231.052 231.379 231.208 230.965C231.366 230.55 231.613 230.239 231.951 230.033C232.289 229.828 232.673 229.725 233.104 229.725C233.478 229.725 233.791 229.805 234.039 229.966C234.288 230.126 234.462 230.343 234.56 230.615C234.658 230.888 234.708 231.529 234.708 232.539V237.633H237.299V231.977C237.299 231.111 237.254 230.472 237.164 230.061C237.076 229.649 236.909 229.274 236.667 228.935Z" fill="black"/>
<path d="M222.057 229.52C221.957 229.1 221.779 228.723 221.525 228.393C221.269 228.062 220.892 227.789 220.394 227.576C219.896 227.363 219.346 227.257 218.745 227.257C217.655 227.195 215.885 227.605 215.35 228.439V227.485H212.819V237.628H215.544V233.035C215.544 231.901 215.614 231.124 215.753 230.704C215.892 230.284 216.149 229.946 216.524 229.692C216.899 229.437 217.323 229.309 217.795 229.309C218.163 229.309 218.478 229.399 218.74 229.577C219.002 229.755 219.192 230.005 219.308 230.327C219.424 230.649 219.482 231.357 219.482 232.451V237.628H222.208V231.325C222.208 230.541 222.158 229.94 222.057 229.52ZM209.071 227.295C208.265 227.397 207.494 228.037 207.157 228.445V227.486H204.625V237.628H207.351V234.496C207.351 232.77 207.427 231.637 207.579 231.096C207.73 230.554 207.939 230.181 208.204 229.973C208.469 229.766 208.793 229.663 209.174 229.663C209.569 229.663 209.995 229.809 210.454 230.102L211.299 227.762C210.723 227.425 210.125 227.257 209.504 227.257C209.354 227.257 209.21 227.27 209.071 227.295ZM197.956 227.256C196.947 227.256 196.034 227.475 195.216 227.915C194.398 228.354 193.766 228.991 193.32 229.825C192.874 230.659 192.65 231.522 192.65 232.413C192.65 233.579 192.874 234.567 193.32 235.378C193.766 236.191 194.417 236.807 195.274 237.226C196.131 237.646 197.031 237.857 197.975 237.857C199.501 237.857 200.767 237.353 201.772 236.343C202.778 235.334 203.28 234.062 203.28 232.527C203.28 231.006 202.783 229.747 201.787 228.751C200.791 227.755 199.514 227.256 197.956 227.256ZM199.755 234.868C199.273 235.403 198.677 235.67 197.965 235.67C197.254 235.67 196.656 235.403 196.171 234.868C195.686 234.333 195.444 233.562 195.444 232.556C195.444 231.551 195.686 230.78 196.171 230.245C196.656 229.711 197.254 229.443 197.965 229.443C198.677 229.443 199.273 229.711 199.755 230.245C200.237 230.78 200.478 231.544 200.478 232.537C200.478 233.556 200.237 234.333 199.755 234.868ZM189.195 223.837C188.665 223.696 187.527 223.626 185.782 223.626H181.174V237.628H184.045V232.346H185.917C187.217 232.346 188.209 232.28 188.895 232.146C189.4 232.038 189.895 231.816 190.384 231.482C190.872 231.148 191.274 230.688 191.591 230.102C191.908 229.517 192.066 228.793 192.066 227.934C192.066 226.82 191.791 225.911 191.242 225.207C190.692 224.504 190.01 224.046 189.195 223.837ZM188.783 229.061C188.567 229.373 188.268 229.603 187.886 229.749C187.505 229.895 186.748 229.968 185.616 229.968H184.045V225.995H185.432C186.467 225.995 187.156 226.027 187.498 226.091C187.964 226.174 188.348 226.381 188.653 226.712C188.956 227.043 189.108 227.463 189.108 227.972C189.108 228.386 189 228.749 188.783 229.061Z" fill="black"/>
<g clip-path="url(#clip5_45_691)">
<path d="M437.5 232.181L406.586 239.722L376.5 232.136V266L406.57 258.42L437.5 265.943V232.181Z" fill="black"/>
<path d="M380.316 237.454C380.171 237.454 380.098 237.526 380.098 237.598V260.705C380.098 260.849 380.186 260.921 380.332 260.849L382.677 260.345C382.75 260.345 382.761 260.283 382.761 260.211L382.761 252.077C382.761 251.933 382.835 251.871 382.98 251.861L383.917 251.801C385.489 251.704 387.036 250.462 387.036 248.592V241.675C387.108 240.089 385.944 238.683 384.342 238.323L383.022 238.035L380.316 237.454ZM432.193 237.474C431.662 237.455 430.995 237.567 430.176 237.725C427.697 238.234 426.751 238.705 426.751 241.802V243.457C426.751 248.863 431.195 250.596 431.195 254.341V256.794C431.166 257.668 430.785 257.824 430.176 257.727C429.448 257.656 429.156 257.441 429.156 256.002V252.224C429.156 251.936 428.911 251.938 427.77 251.938C426.781 251.938 426.705 251.915 426.705 252.203V256.29C426.705 259.819 427.916 260.147 430.176 260.65C433.306 261.376 433.937 260.322 433.937 257.081V254.629C433.937 248.791 429.4 247.424 429.4 243.529C429.4 243.097 429.327 242.09 429.4 241.586C429.4 240.792 429.739 240.576 430.394 240.504C430.977 240.36 431.341 240.72 431.341 241.586V245.118C431.341 245.334 431.85 245.334 432.724 245.334C433.452 245.334 433.864 245.334 433.864 245.118V240.426C433.864 238.196 433.36 237.517 432.193 237.474ZM425.368 238.994C425.344 238.99 425.315 238.99 425.281 238.994L420.485 240.015C420.412 240.015 420.339 240.087 420.339 240.159L420.355 258.161C420.355 258.236 420.428 258.308 420.5 258.308L425.239 259.387C425.384 259.387 425.458 259.315 425.457 259.171L425.442 256.579C425.441 256.507 425.442 256.435 425.296 256.435L423.003 256.025C422.857 256.025 422.857 255.953 422.857 255.881V250.251C422.857 250.18 422.93 250.107 423.003 250.107L424.706 250.005C424.852 250.005 424.898 249.933 424.898 249.789V247.423C424.898 247.345 424.834 247.285 424.706 247.29L423.003 247.352C422.93 247.352 422.857 247.28 422.857 247.136V242.465C422.857 242.393 422.93 242.321 423.003 242.321L425.32 241.938C425.393 241.938 425.466 241.866 425.466 241.794V239.171C425.466 239.064 425.439 239.008 425.368 238.994ZM388.62 239.241C388.509 239.219 388.363 239.252 388.354 239.384L388.354 258.909C388.362 259.019 388.437 259.069 388.552 259.05L390.533 258.66C390.679 258.588 390.679 258.516 390.679 258.444L390.664 250.253C390.664 250.181 390.736 250.109 390.882 250.109H391.61C392.088 250.109 392.372 250.442 392.411 250.9L392.442 258.031C392.459 258.183 392.576 258.217 392.733 258.183L394.559 257.793C394.632 257.721 394.633 257.649 394.632 257.577L394.661 251.184C394.588 250.177 394.443 249.345 393.351 248.842C394.37 248.41 394.529 247.585 394.529 246.646V242.394C394.529 241.099 394.019 240.449 392.775 240.161L388.62 239.241ZM382.968 240.695L383.411 240.782C384.259 240.961 384.763 241.679 384.763 242.47V248.001C384.763 248.649 384.283 249.265 383.557 249.311L382.968 249.349C382.895 249.354 382.75 249.277 382.75 249.205L382.75 244.934L382.765 240.839C382.765 240.759 382.847 240.677 382.968 240.695ZM416.914 240.823C416.888 240.817 416.857 240.817 416.818 240.825L414.812 241.248C414.739 241.248 414.666 241.32 414.666 241.392V256.952C414.666 257.024 414.739 257.097 414.812 257.097L418.916 257.973C419.01 258.015 419.116 257.942 419.116 257.87V255.516C419.116 255.444 419.092 255.387 418.97 255.372L417.157 255.077C417.084 255.077 417.011 255.005 417.011 254.933V240.967C417.011 240.908 416.99 240.84 416.914 240.823ZM396.396 240.937C396.314 240.951 396.273 241.045 396.273 241.099V257.248C396.273 257.32 396.345 257.392 396.491 257.392L398.314 256.96C398.387 256.96 398.46 256.888 398.46 256.816V241.574C398.46 241.505 398.437 241.43 398.314 241.358L396.491 240.955C396.455 240.937 396.423 240.933 396.396 240.937ZM400.371 241.792C400.226 241.792 400.153 241.819 400.153 241.963V256.385C400.153 256.528 400.226 256.6 400.371 256.528L401.869 256.241C401.942 256.241 402.015 256.169 402.015 256.025V248.833C402.017 248.833 402.021 248.762 402.088 248.762H402.161C402.214 248.762 402.234 248.824 402.234 248.833L403.939 255.593C403.939 255.737 404.011 255.737 404.157 255.737L405.443 255.449C405.516 255.449 405.589 255.377 405.589 255.299V243.042C405.589 242.97 405.516 242.898 405.443 242.898L404.09 242.61C404.018 242.538 403.872 242.61 403.872 242.754V248.53C403.872 248.602 403.836 248.647 403.732 248.647C403.614 248.646 403.584 248.604 403.564 248.53L403.496 248.315L402.088 242.296C402.067 242.216 402.033 242.172 401.942 242.152L400.371 241.792ZM411.614 242.035C411.493 242.036 411.365 242.054 411.228 242.09L410.282 242.306C410.282 242.313 409.196 242.507 408.395 242.695C407.152 242.983 407.113 243.543 407.094 244.845V248.935V253.621C407.094 254.701 407.351 255.516 408.446 255.732L411.156 256.308C412.393 256.596 413.048 255.57 413.048 254.341V249.03C413.048 248.886 412.975 248.814 412.903 248.814H410.496C410.423 248.814 410.35 248.887 410.35 248.959V251.013C410.35 251.085 410.423 251.157 410.496 251.157L410.937 251.172V253.549C410.937 253.77 410.792 253.992 410.573 253.979L409.715 253.908C409.496 253.908 409.22 253.621 409.205 253.334V253.045V252.758V244.809C409.317 244.357 409.532 244.35 409.694 244.27L410.355 244.198C410.621 244.198 410.843 244.357 410.843 244.645V246.465C410.847 246.639 410.918 246.694 411.035 246.69L412.76 246.626C412.906 246.621 412.906 246.482 412.906 246.411L412.903 243.967C412.902 242.828 412.457 242.025 411.614 242.035ZM390.89 242.134L391.578 242.326C392.143 242.525 392.369 242.942 392.369 243.378C392.413 244.812 392.425 246.34 392.329 247.584C392.272 247.914 391.947 248.137 391.582 248.137H390.966C390.744 248.137 390.671 248.076 390.671 247.918V245.135V242.349C390.671 242.206 390.786 242.113 390.89 242.134Z" fill="white"/>
<path d="M379.105 223.136C381.306 234.81 395.701 242.062 411.192 239.163C426.761 236.333 437.481 224.515 435.28 212.768C433.076 201.022 418.685 193.843 403.187 196.669C387.695 199.571 376.901 211.39 379.105 223.136Z" fill="#E6E6E6"/>
<path d="M417.964 191C417.54 191.001 417.119 191.065 416.708 191.201C415.614 191.563 414.722 192.385 414.138 193.617C413.992 193.84 414.066 194.13 414.284 194.347C414.503 194.492 414.779 194.539 414.998 194.394C415.436 194.032 415.874 193.815 416.458 193.591C419.015 192.722 421.795 193.938 423.101 196.567C423.101 196.643 423.248 196.715 423.321 196.715H423.467C423.619 196.643 423.692 196.495 423.692 196.35C423.663 196.132 423.579 195.915 423.545 195.77C422.967 193.942 421.674 192.288 420.068 191.491C419.384 191.174 418.671 190.999 417.964 191ZM397.739 191.124C394.093 191.092 390.972 194.512 390.685 198.765V199.412C390.685 199.634 390.831 199.706 390.977 199.778H391.05C391.195 199.778 391.269 199.634 391.342 199.49C392.144 196.027 395.432 193.575 399.156 193.725C399.958 193.725 400.833 193.868 401.636 194.228C401.855 194.3 402.074 194.228 402.22 194.012C402.438 193.724 402.365 193.431 402.22 193.215C401.052 191.919 399.52 191.2 397.912 191.128C397.854 191.126 397.796 191.124 397.739 191.124Z" fill="black"/>
<path d="M430.047 208.328C429.755 208.184 429.537 208.4 429.683 208.616C430.265 209.845 430.25 211.644 428.353 211.644C426.24 211.644 423.471 209.048 419.749 209.048C417.123 209.048 414.209 210.853 413.917 214.886C412.163 212.22 409.06 210.421 405.342 210.421C398.487 210.421 393.602 218.636 387.91 218.636C385.433 218.636 384.689 216.475 385.199 214.814C385.272 214.526 384.98 214.31 384.762 214.526C382.788 216.043 382.133 218.636 382.133 221.161C382.133 228.006 389.224 233.844 398.632 233.844C407.6 233.844 415.214 228.51 415.505 220.723C417.326 223.32 420.405 224.834 423.544 224.834C428.574 224.834 433.326 221.305 433.326 215.317C433.326 212.583 431.868 209.408 430.047 208.328Z" fill="black"/>
<path d="M419.365 200.388C418.344 200.377 417.56 201.569 417.709 203.079C417.793 204.742 418.9 206.176 420.067 206.241C421.161 206.306 421.955 205.076 421.798 203.485C421.642 201.901 420.685 200.463 419.518 200.398C419.466 200.392 419.415 200.388 419.365 200.388ZM399.43 202.147C398.112 202.21 397.241 203.65 397.447 205.518C397.655 207.311 398.962 208.838 400.278 208.775C401.593 208.784 402.407 207.256 402.2 205.391C401.92 203.594 400.745 202.155 399.43 202.147Z" fill="black"/>
</g>
<g clip-path="url(#clip6_45_691)">
<path fill-rule="evenodd" clip-rule="evenodd" d="M589.196 105.516C587.985 104.839 586.689 104.308 585.453 103.974C584.216 103.64 583.039 103.503 581.891 103.511C580.743 103.52 579.624 103.674 578.592 103.977C577.561 104.281 576.614 104.734 575.757 105.371C574.899 106.008 574.128 106.831 573.554 107.646C572.981 108.46 572.607 109.266 572.412 110.286C572.217 111.306 572.202 112.541 572.493 113.662C572.785 114.784 573.383 115.792 573.883 116.5C574.383 117.209 574.783 117.621 575.248 117.947C574.522 118.235 573.837 118.65 573.365 119.076C572.892 119.501 572.631 119.935 572.405 120.399C572.179 120.861 571.989 121.35 571.9 121.77C571.812 122.187 571.825 122.535 571.859 122.843C571.893 123.151 571.946 123.422 572.069 123.75C572.191 124.078 572.38 124.465 572.616 124.805C572.851 125.145 573.134 125.441 573.349 125.672C573.563 125.904 573.71 126.075 573.857 126.246C573.464 126.337 573.09 126.52 572.814 126.761C572.539 127.002 572.364 127.301 572.186 127.575C572.01 127.85 571.833 128.1 571.697 128.38C571.561 128.661 571.466 128.972 571.423 129.251C571.381 129.53 571.39 129.778 571.401 130.007C571.413 130.236 571.427 130.443 571.52 130.693C571.611 130.945 571.783 131.239 571.974 131.513C572.165 131.788 572.376 132.042 572.775 132.318C573.174 132.594 573.761 132.892 574.395 133.149C575.031 133.407 575.714 133.625 576.483 133.785C577.253 133.943 578.109 134.044 578.988 134.107C579.867 134.171 580.768 134.197 581.917 134.212C583.065 134.227 584.462 134.23 585.777 134.174C587.091 134.117 588.325 134.001 589.291 133.855C590.257 133.71 590.954 133.535 591.576 133.352C592.198 133.167 592.747 132.974 593.175 132.771C593.603 132.567 593.912 132.353 594.208 132.131C594.505 131.907 594.789 131.672 595.057 131.352C595.324 131.031 595.575 130.627 595.786 130.182C595.998 129.737 596.169 129.252 596.261 128.607C596.353 127.962 596.364 127.156 596.243 126.534C596.122 125.912 595.87 125.474 595.662 125.044C595.454 124.614 595.29 124.194 595.052 123.811C594.814 123.428 594.499 123.085 594.149 122.786C593.799 122.489 593.415 122.236 593.016 122.05C592.619 121.864 592.207 121.744 591.785 121.635C591.365 121.529 590.934 121.433 590.151 121.372C589.37 121.311 588.238 121.283 587.033 121.332C585.829 121.381 584.551 121.504 583.307 121.548C582.061 121.593 580.849 121.559 580.017 121.558C579.187 121.558 578.738 121.588 578.337 121.513C577.937 121.44 577.582 121.26 577.339 121.061C577.096 120.861 576.963 120.641 576.871 120.454C576.78 120.266 576.728 120.111 576.795 119.897C576.862 119.684 577.05 119.411 577.273 119.298C577.496 119.184 577.755 119.23 578.009 119.35C578.262 119.47 578.513 119.667 579.121 119.804C579.73 119.94 580.696 120.015 581.844 120.083C582.992 120.152 584.32 120.214 585.497 120.012C586.672 119.809 587.695 119.341 588.632 118.723C589.569 118.106 590.422 117.341 591.026 116.494C591.63 115.648 591.984 114.72 592.178 114.063C592.372 113.406 592.406 113.018 592.353 112.637H584.963C584.934 113.64 584.711 114.651 584.38 115.389C584.048 116.127 583.609 116.59 583.178 116.885C582.747 117.179 582.325 117.304 581.847 116.993C581.368 116.682 580.835 115.936 580.486 114.958C580.138 113.979 579.977 112.767 580 111.517C580.023 110.266 580.231 108.977 580.523 108.098C580.816 107.22 581.196 106.752 581.533 106.494C581.871 106.237 582.168 106.187 582.432 106.174C582.697 106.161 582.927 106.183 583.137 106.258C583.346 106.333 583.536 106.461 583.693 106.618C583.851 106.775 583.976 106.963 584.132 107.373C584.288 107.784 584.474 108.419 584.635 109.092C584.795 109.766 584.93 110.478 585.028 111.195H592.385C592.259 110.42 592.135 109.647 591.88 108.96C591.626 108.272 591.241 107.67 590.858 107.068C591.14 106.79 591.457 106.546 591.787 106.344C592.119 106.141 592.466 105.982 592.7 105.912C592.932 105.842 593.051 105.86 593.147 105.923C593.112 106.048 593.062 106.17 592.998 106.26C592.933 106.351 592.857 106.412 592.768 106.74C592.678 107.068 592.576 107.662 592.623 108.287C592.67 108.912 592.868 109.568 593.34 110.071C593.812 110.574 594.56 110.927 595.131 111.09C595.702 111.253 596.096 111.227 596.461 111.177C596.827 111.126 597.163 111.05 597.467 110.905C597.773 110.76 598.046 110.547 598.303 110.303C598.56 110.059 598.802 109.785 599.008 109.252C599.214 108.72 599.384 107.932 599.35 107.216C599.317 106.498 599.081 105.853 598.835 105.403C598.589 104.953 598.334 104.702 598.069 104.461C597.805 104.22 597.531 103.993 597.212 103.793C596.892 103.593 596.526 103.421 596.133 103.275C595.74 103.128 595.321 103.006 594.78 103.002C594.239 102.997 593.574 103.11 592.975 103.296C592.375 103.482 591.84 103.743 591.215 104.118C590.589 104.493 589.87 104.984 589.187 105.517L589.196 105.516ZM577.84 129.127C578.045 129.434 578.615 129.726 579.363 129.915C580.109 130.103 581.032 130.187 582.087 130.21C583.141 130.233 584.328 130.196 585.298 130.188C586.27 130.181 587.027 130.204 587.758 130.153C588.487 130.103 589.19 129.98 589.641 129.858C590.092 129.736 590.292 129.615 590.428 129.469C590.564 129.322 590.634 129.149 590.602 128.964C590.572 128.78 590.437 128.584 590.295 128.437C590.153 128.289 590 128.19 589.719 128.101C589.436 128.013 589.023 127.938 588.588 127.874C588.152 127.81 587.693 127.758 586.746 127.712C585.798 127.665 584.361 127.624 583.293 127.61C582.226 127.595 581.527 127.609 580.839 127.658C580.152 127.708 579.473 127.795 578.994 127.888C578.514 127.981 578.235 128.08 578.016 128.29C577.796 128.501 577.636 128.821 577.842 129.129" fill="black"/>
<path fill-rule="evenodd" clip-rule="evenodd" d="M568.979 140.486C568.886 141.102 568.906 141.935 568.959 142.483C569.013 143.03 569.1 143.289 569.193 143.532C569.287 143.774 569.389 143.997 569.553 144.227C569.718 144.456 569.944 144.69 570.182 144.908C570.421 145.126 570.67 145.326 571.066 145.502C571.46 145.677 572.001 145.825 572.649 145.874C573.298 145.922 574.051 145.872 574.721 145.782C575.39 145.692 575.974 145.564 576.543 145.384V141.667L574.531 141.833V145.104C573.95 145.21 573.331 145.096 572.77 144.733C572.209 144.37 571.705 143.759 571.408 143C571.112 142.24 571.025 141.333 571.113 140.534C571.202 139.735 571.468 139.042 571.682 138.618C571.894 138.194 572.055 138.037 572.238 137.907C572.614 137.627 573.1 137.52 573.565 137.52C573.803 137.516 574.036 137.529 574.27 137.624C574.504 137.718 574.74 137.895 574.936 138.086C575.132 138.276 575.288 138.481 575.407 138.706L576.076 137.261C575.558 137.112 575.026 137.009 574.482 136.956C573.938 136.901 573.38 136.894 572.854 136.964C572.33 137.034 571.838 137.185 571.394 137.381C570.951 137.578 570.555 137.824 570.247 138.113C569.936 138.403 569.713 138.738 569.496 139.106C569.279 139.473 569.073 139.871 568.978 140.487L568.979 140.486ZM542.566 140.486C542.473 141.102 542.492 141.935 542.546 142.483C542.599 143.03 542.687 143.289 542.78 143.532C542.875 143.774 542.975 143.997 543.139 144.227C543.304 144.456 543.53 144.69 543.769 144.908C544.007 145.126 544.256 145.326 544.652 145.502C545.047 145.677 545.588 145.825 546.236 145.874C546.884 145.922 547.638 145.872 548.307 145.782C548.977 145.692 549.56 145.564 550.129 145.384V141.667L548.117 141.833V145.104C547.537 145.21 546.918 145.096 546.357 144.733C545.796 144.37 545.291 143.759 544.995 143C544.698 142.24 544.611 141.333 544.7 140.534C544.788 139.735 545.054 139.042 545.268 138.618C545.481 138.194 545.641 138.037 545.825 137.907C546.201 137.627 546.687 137.52 547.151 137.52C547.39 137.516 547.622 137.529 547.856 137.624C548.09 137.718 548.327 137.895 548.523 138.086C548.718 138.276 548.874 138.481 548.993 138.706L549.663 137.261C549.145 137.112 548.613 137.009 548.069 136.956C547.524 136.901 546.966 136.894 546.441 136.964C545.916 137.034 545.424 137.185 544.981 137.381C544.538 137.578 544.142 137.824 543.833 138.113C543.523 138.403 543.299 138.738 543.082 139.106C542.867 139.473 542.659 139.871 542.564 140.487H542.566V140.486ZM587.827 145.977L588.661 145.68V139.679C589.051 140.139 589.428 140.611 589.985 141.344C590.541 142.077 591.276 143.074 591.856 143.885C592.434 144.698 592.854 145.326 593.257 145.967L595.151 145.665V137.232L594.317 137.493V143.62C593.701 142.916 593.117 142.184 592.495 141.313C591.873 140.443 591.212 139.437 590.738 138.711C590.265 137.985 589.977 137.542 589.694 137.095L587.825 137.546V145.977H587.827ZM600.72 138.005L596.247 145.872L603.097 145.901L603.436 145.149C602.649 145.181 601.863 145.212 601.143 145.221C600.423 145.23 599.772 145.216 599.12 145.204L603.612 137.27H597.131L596.775 138.004H600.718L600.72 138.005ZM614.154 145.948C615.102 145.936 616.048 145.924 616.923 145.919C617.797 145.915 618.601 145.916 619.404 145.919L619.614 145.191C618.995 145.245 618.376 145.3 617.832 145.323C617.29 145.348 616.822 145.341 616.354 145.335C616.349 144.218 616.345 143.1 616.343 141.746C616.342 140.393 616.343 138.801 616.343 137.209L614.153 137.485V145.948H614.154ZM619.98 145.973C620.411 145.941 620.833 145.866 621.241 145.733C621.576 144.814 621.906 143.917 622.228 143.05H625.296L626.271 146L628.502 145.71L625.55 137.263C624.977 137.412 624.411 137.528 623.856 137.606C623.201 139.118 622.545 140.63 621.898 142.024C621.253 143.419 620.617 144.695 619.981 145.973H619.98ZM625.126 142.535L623.89 139.255L622.438 142.536H625.125L625.126 142.535ZM551.383 140.307C551.289 140.795 551.315 141.335 551.344 141.814C551.375 142.292 551.408 142.708 551.499 143.087C551.589 143.465 551.736 143.802 551.919 144.103C552.101 144.405 552.32 144.671 552.538 144.876C552.757 145.082 552.975 145.229 553.211 145.363C553.446 145.497 553.697 145.617 554.108 145.712C554.519 145.806 555.091 145.874 555.624 145.874C556.158 145.874 556.651 145.806 557.067 145.698C557.483 145.59 557.821 145.442 558.131 145.279C558.441 145.114 558.723 144.934 558.975 144.684C559.487 144.177 559.92 143.338 560.071 142.582C560.144 142.195 560.129 141.835 560.13 141.474C560.13 141.112 560.15 140.749 560.094 140.354C560.037 139.961 559.907 139.536 559.742 139.142C559.577 138.751 559.377 138.391 559.116 138.101C558.854 137.811 558.53 137.592 558.175 137.4C557.821 137.208 557.434 137.041 556.98 136.965C556.526 136.889 556.005 136.901 555.52 136.953C555.036 137.005 554.586 137.093 554.239 137.202C553.892 137.308 553.648 137.433 553.408 137.561C553.168 137.688 552.934 137.818 552.685 138.049C552.434 138.281 552.168 138.613 551.93 138.999C551.69 139.385 551.476 139.821 551.383 140.31V140.307ZM554.038 139.083C554.178 138.446 554.323 138.25 554.49 138.087C554.657 137.924 554.843 137.795 555.053 137.718C555.262 137.642 555.493 137.619 555.75 137.641C556.006 137.664 556.288 137.732 556.515 137.886C556.743 138.04 556.916 138.279 557.072 138.536C557.228 138.792 557.365 139.066 557.457 139.492C557.549 139.917 557.595 140.495 557.622 141.098C557.648 141.702 557.656 142.333 557.618 142.838C557.578 143.343 557.494 143.719 557.376 144.058C557.258 144.396 557.11 144.698 556.899 144.915C556.688 145.131 556.415 145.264 556.092 145.302C555.769 145.34 555.397 145.284 555.149 145.189C554.9 145.094 554.774 144.96 554.648 144.829C554.521 144.7 554.392 144.573 554.265 144.305C554.14 144.036 554.018 143.623 553.912 143.195C553.805 142.766 553.715 142.32 553.738 141.559C553.761 140.797 553.897 139.72 554.038 139.083ZM577.726 140.307C577.633 140.795 577.659 141.335 577.688 141.814C577.717 142.292 577.752 142.708 577.842 143.087C577.932 143.465 578.079 143.802 578.262 144.103C578.444 144.405 578.663 144.671 578.881 144.876C579.1 145.082 579.319 145.229 579.554 145.363C579.789 145.497 580.04 145.617 580.451 145.712C580.862 145.806 581.434 145.874 581.968 145.874C582.501 145.874 582.995 145.806 583.41 145.698C583.826 145.59 584.164 145.442 584.474 145.279C584.785 145.114 585.066 144.934 585.318 144.684C585.83 144.177 586.263 143.338 586.414 142.582C586.487 142.195 586.472 141.835 586.474 141.474C586.474 141.112 586.494 140.749 586.437 140.354C586.38 139.961 586.251 139.536 586.085 139.142C585.92 138.751 585.72 138.391 585.459 138.101C585.197 137.811 584.873 137.592 584.519 137.4C584.164 137.208 583.777 137.041 583.323 136.965C582.869 136.889 582.348 136.901 581.864 136.953C581.379 137.005 580.93 137.093 580.583 137.202C580.236 137.308 579.991 137.433 579.751 137.561C579.511 137.688 579.277 137.818 579.028 138.049C578.779 138.281 578.511 138.613 578.273 138.999C578.033 139.385 577.819 139.821 577.726 140.31V140.307ZM580.381 139.083C580.522 138.446 580.667 138.25 580.833 138.087C581 137.924 581.186 137.795 581.396 137.718C581.605 137.642 581.836 137.619 582.093 137.641C582.35 137.664 582.631 137.732 582.859 137.886C583.086 138.04 583.259 138.279 583.415 138.536C583.571 138.792 583.709 139.066 583.8 139.492C583.892 139.917 583.938 140.495 583.965 141.098C583.993 141.702 583.999 142.333 583.961 142.838C583.921 143.343 583.835 143.719 583.719 144.058C583.603 144.396 583.453 144.698 583.242 144.915C583.031 145.131 582.758 145.264 582.435 145.302C582.113 145.34 581.74 145.284 581.491 145.189C581.241 145.094 581.118 144.96 580.989 144.829C580.862 144.7 580.734 144.573 580.609 144.305C580.483 144.036 580.361 143.623 580.256 143.195C580.149 142.766 580.058 142.32 580.081 141.559C580.104 140.797 580.24 139.72 580.381 139.083ZM604.055 140.307C603.962 140.795 603.988 141.335 604.017 141.814C604.048 142.292 604.081 142.708 604.171 143.087C604.262 143.465 604.408 143.802 604.592 144.103C604.774 144.405 604.992 144.671 605.211 144.876C605.429 145.082 605.648 145.229 605.883 145.363C606.119 145.497 606.369 145.617 606.781 145.712C607.192 145.806 607.764 145.874 608.297 145.874C608.83 145.874 609.324 145.806 609.74 145.698C610.156 145.59 610.494 145.442 610.804 145.279C611.114 145.114 611.395 144.934 611.648 144.684C612.16 144.177 612.592 143.338 612.744 142.582C612.817 142.195 612.802 141.835 612.803 141.474C612.803 141.112 612.823 140.749 612.767 140.354C612.71 139.961 612.58 139.536 612.415 139.142C612.25 138.751 612.05 138.391 611.788 138.101C611.527 137.811 611.203 137.592 610.848 137.4C610.494 137.208 610.107 137.041 609.653 136.965C609.199 136.889 608.678 136.901 608.193 136.953C607.709 137.005 607.259 137.093 606.912 137.202C606.565 137.308 606.321 137.433 606.081 137.561C605.841 137.688 605.607 137.818 605.358 138.049C605.107 138.281 604.841 138.613 604.601 138.999C604.361 139.385 604.147 139.821 604.054 140.31L604.055 140.307ZM606.71 139.083C606.851 138.446 606.996 138.25 607.163 138.087C607.329 137.924 607.516 137.795 607.725 137.718C607.935 137.642 608.166 137.619 608.422 137.641C608.679 137.664 608.96 137.732 609.188 137.886C609.416 138.04 609.589 138.279 609.745 138.536C609.9 138.792 610.038 139.066 610.13 139.492C610.221 139.917 610.267 140.495 610.295 141.098C610.321 141.702 610.328 142.333 610.29 142.838C610.251 143.343 610.165 143.719 610.049 144.058C609.931 144.396 609.783 144.698 609.572 144.915C609.361 145.131 609.087 145.264 608.765 145.302C608.442 145.34 608.069 145.284 607.822 145.189C607.572 145.094 607.447 144.96 607.32 144.829C607.193 144.7 607.065 144.573 606.94 144.305C606.814 144.036 606.692 143.623 606.587 143.195C606.48 142.766 606.389 142.32 606.412 141.559C606.435 140.797 606.571 139.72 606.712 139.083H606.71ZM563.694 145.559L561.492 145.933V137.331C561.783 137.298 562.073 137.275 562.495 137.256C562.917 137.238 563.467 137.224 564.059 137.226C564.65 137.226 565.282 137.244 565.742 137.298C566.202 137.351 566.489 137.441 566.754 137.606C567.017 137.77 567.257 138.007 567.332 138.069C567.406 138.132 567.319 138.017 567.362 138.109C567.405 138.202 567.581 138.501 567.68 138.805C567.781 139.11 567.805 139.421 567.772 139.726C567.738 140.031 567.645 140.329 567.5 140.598C567.354 140.868 567.157 141.111 566.923 141.309L566.291 141.746L568.475 145.582L566.118 145.918C565.887 145.405 565.639 144.901 565.299 144.239C564.958 143.577 564.521 142.757 564.265 142.35C564.01 141.943 563.935 141.948 563.869 141.954C563.804 141.96 563.749 141.969 563.695 141.984V145.558L563.694 145.559ZM563.694 137.872C563.784 137.851 563.877 137.84 564.034 137.837C564.192 137.836 564.415 137.842 564.631 137.892C564.846 137.943 565.056 138.036 565.185 138.145C565.317 138.255 565.369 138.382 565.402 138.511C565.436 138.641 565.448 138.77 565.451 139.046C565.454 139.322 565.448 139.742 565.451 140.002C565.453 140.263 565.464 140.367 565.454 140.469C565.439 140.652 565.369 140.847 565.219 141.028C564.979 141.307 564.693 141.405 564.406 141.409H563.694V137.875" fill="black"/>
</g>
<g clip-path="url(#clip7_45_691)">
<mask id="mask0_45_691" style="mask-type:luminance" maskUnits="userSpaceOnUse" x="523" y="-3" width="125" height="67">
<path d="M523.05 63.5898H647.321V-2.76823H523.05V63.5898Z" fill="white"/>
</mask>
<g mask="url(#mask0_45_691)">
<path d="M556.901 15.495L543.461 10.1673C540.573 11.7694 538.213 13.6238 536.296 15.495C538.213 17.3625 540.573 19.216 543.461 20.8228L556.901 15.495Z" fill="black"/>
<path d="M528.88 4.3847C528.88 4.3847 530.303 9.07476 534.973 14.127C537.043 12.5136 539.538 11.0437 542.503 9.7832L528.88 4.3847Z" fill="black"/>
<path d="M528.88 26.6025C528.88 26.6025 530.303 21.9153 534.973 16.8612C537.043 18.4745 539.538 19.9408 542.503 21.2031L528.88 26.6025Z" fill="black"/>
<path d="M597.257 42.3407H593.455V38.1189H596.325V39.3878H597.287V35.9098H596.325V37.1619H593.455V33.1394H597.108V34.5488H598.055V31.7011H597.092V32.1675H590.398V32.9904H591.619V42.4655H590.398V43.2977H598.219V40.881H597.257V42.3407ZM638.628 32.1675V32.9904H639.867V40.0478L634.19 32.1675H631.343V32.9904H632.522L632.912 33.548V42.4655H631.676V43.2977H635.18V42.4655H633.94V34.9677L640.04 43.483H640.897V32.9904H642.12V32.1675H638.628ZM624.49 31.9664C621.476 31.9664 619.021 34.56 619.021 37.7494C619.021 40.9266 621.476 43.5119 624.49 43.5119C627.482 43.5119 629.913 40.9183 629.913 37.7307C629.913 34.5516 627.482 31.9664 624.49 31.9664ZM624.49 42.4348C622.453 42.4348 621.036 40.4993 621.036 37.7307C621.036 34.9687 622.466 33.0435 624.508 33.0435C626.505 33.0435 627.9 34.9687 627.9 37.7307C627.9 40.4993 626.499 42.4348 624.49 42.4348ZM581.515 40.1689L577.819 32.1675H574.754V32.9904H575.992V42.4655H574.754V43.2977H578.26V42.4655H577.023V34.7443L581.116 43.6143L585.004 34.9398V42.4655H583.783V43.2977H588.064V42.4655H586.836V32.9904H588.064V32.1675H585.151L581.515 40.1689ZM607.552 42.3407H603.942V32.9904H605.169V32.1675H600.88V32.9904H602.105V42.4655H600.88V43.2977H608.516V40.881H607.552V42.3407ZM616.96 42.3407H613.341V32.9904H614.564V32.1675H610.28V32.9904H611.508V42.4655H610.28V43.2977H617.917V40.881H616.96V42.3407ZM564.976 32.9904H566.381L564.022 36.9357L561.487 32.9904H562.76V32.1675H558.327V32.9904H559.317L562.655 38.1943V42.4655H561.432V43.2977H565.713V42.4655H564.474V38.0966L567.561 32.9904H568.45V32.1675H564.976V32.9904ZM542.515 37.4217C543.557 37.121 544.529 36.298 544.529 34.9817C544.529 33.2716 543.278 32.1675 541.336 32.1675H536.296V32.9904H537.519V42.4655H536.296V43.2977H541.624C543.68 43.2977 545.052 42.1127 545.052 40.3448C545.052 38.5965 543.815 37.7084 542.515 37.4217ZM539.356 33.1394H540.702C541.417 33.1394 542.614 33.3889 542.614 35.0469C542.614 36.4246 541.608 37.0437 540.613 37.0437H539.356V33.1394ZM540.763 42.3407H539.356V38.0054H540.763C542.226 38.0054 543.171 38.8907 543.171 40.2601C543.171 41.7933 541.877 42.3407 540.763 42.3407ZM553.996 32.9904H555.24V40.0478L549.557 32.1675H546.72V32.9904H547.893L548.28 33.548V42.4692H547.04V43.2977H550.546V42.4692H549.311V34.9677L555.413 43.483H556.266V32.9904H557.49V32.1675H553.996V32.9904Z" fill="black"/>
</g>
</g>
<path d="M613.659 222.97C610.701 223.495 609.124 225.727 609.124 229.601C609.124 233.54 611.227 236.167 614.316 236.167C615.828 236.167 617.142 235.641 619.902 234.263C619.902 237.48 619.902 237.48 619.902 237.48C616.551 239.056 614.579 239.45 611.95 239.45C608.993 239.45 606.89 238.727 605.246 236.955C603.538 235.248 602.618 233.015 602.618 230.455C602.618 224.874 606.824 221 612.936 221C616.945 221 619.771 222.904 619.771 225.596C619.771 227.369 618.457 228.616 616.551 228.616C615.565 228.616 614.776 228.288 613.659 227.697" fill="black"/>
<path d="M598.871 230.455C601.566 227.106 602.552 225.727 602.552 224.086C602.552 222.444 601.237 221 599.397 221C598.346 221 597.36 221.591 596.9 222.116C596.9 229.01 596.9 229.01 596.9 229.01C592.496 234.919 592.496 234.919 592.496 234.919C592.496 221.525 592.496 221.525 592.496 221.525C588.29 221.525 588.29 221.525 588.29 221.525C581.324 233.015 581.324 233.015 581.324 233.015C581.324 221.525 581.324 221.525 581.324 221.525C578.958 221.525 578.958 221.525 578.958 221.525C572.583 222.97 572.583 222.97 572.583 222.97C572.583 224.611 572.583 224.611 572.583 224.611C576.066 224.939 576.066 224.939 576.066 224.939C576.066 239.187 576.066 239.187 576.066 239.187C580.469 239.187 580.469 239.187 580.469 239.187C587.173 228.157 587.173 228.157 587.173 228.157C587.173 239.187 587.173 239.187 587.173 239.187C592.102 239.187 592.102 239.187 592.102 239.187" fill="black"/>
<path d="M559.241 236.955C559.767 236.955 559.898 236.955 560.227 236.955C563.776 236.955 565.748 234.788 565.748 230.455C565.748 226.843 564.17 224.874 561.213 224.874C560.818 224.874 560.227 224.939 559.241 225.136V236.955ZM559.241 244.702C562.133 245.359 562.133 245.359 562.133 245.359C562.133 247 562.133 247 562.133 247C550.763 247 550.763 247 550.763 247C550.763 245.359 550.763 245.359 550.763 245.359C553.392 244.702 553.392 244.702 553.392 244.702C553.392 224.874 553.392 224.874 553.392 224.874C550.5 224.874 550.5 224.874 550.5 224.874C550.5 223.232 550.5 223.232 550.5 223.232C557.401 221.131 557.401 221.131 557.401 221.131C559.241 221.131 559.241 221.131 559.241 221.131C559.241 223.495 559.241 223.495 559.241 223.495C562.461 221.525 563.579 221.197 565.287 221.197C569.099 221.197 571.991 224.742 571.991 229.667C571.991 235.313 568.114 239.187 562.199 239.187C561.541 239.187 560.424 239.121 559.241 239.056" fill="black"/>
</g>
<defs>
<clipPath id="clip0_45_691">
<rect width="94" height="29" fill="white" transform="translate(0.5 10)"/>
</clipPath>
<clipPath id="clip1_45_691">
<rect width="85" height="27" fill="white" transform="translate(4.5 109)"/>
</clipPath>
<clipPath id="clip2_45_691">
<rect width="64" height="53" fill="white" transform="translate(188.5 103)"/>
</clipPath>
<clipPath id="clip3_45_691">
<rect width="61" height="60" fill="white" transform="translate(376.5 96)"/>
</clipPath>
<clipPath id="clip4_45_691">
<rect width="55" height="54" fill="white" transform="translate(19.5 204)"/>
</clipPath>
<clipPath id="clip5_45_691">
<rect width="61" height="75" fill="white" transform="translate(376.5 191)"/>
</clipPath>
<clipPath id="clip6_45_691">
<rect width="86" height="43" fill="white" transform="translate(542.5 103)"/>
</clipPath>
<clipPath id="clip7_45_691">
<rect width="114" height="40" fill="white" transform="translate(528.5 4)"/>
</clipPath>
</defs>
</svg>
