<svg width="301" height="300" viewBox="0 0 301 300" fill="none" xmlns="http://www.w3.org/2000/svg">
<path d="M217.156 141.562C216.109 143.655 209.977 141.562 209.977 141.562L201.752 142.491L143.182 115.647C117.125 134.104 103.921 170.61 114.083 203.859C124.668 238.482 128.617 246.348 130.221 248.593C131.825 250.837 145.543 255.052 145.796 258.597C145.858 259.482 118.298 260.226 117.63 257.74C116.702 254.277 110.207 229.579 86.8343 230.581C60.1888 231.721 52.2821 250.036 52.5319 251.304C52.8467 252.897 65.1313 256.437 65.1313 259.357C65.1313 260.242 34.55 261.496 34.55 259.485C34.55 255.685 50.4202 205.974 53.7424 189.916C58.8424 165.265 57.9983 122.356 76.9979 92.6601C73.5698 87.0633 71.8979 81.157 74.6122 76.0543C79.8073 66.283 96.4753 63.7941 107.807 63.2676C147.584 36.5866 201.544 27.1683 210.583 59.6061C218.809 89.1559 193.273 94.6848 168.197 103.623C169.267 109.094 172.388 113.95 176.923 117.194C186.794 124.37 200.552 134.541 208.031 137.382C215.509 140.224 218.204 139.47 217.156 141.562Z" fill="#8800FF"/>
<path d="M206.733 260.226C239.297 260.226 265.694 233.828 265.694 201.264C265.694 168.701 239.297 142.303 206.733 142.303C174.17 142.303 147.772 168.701 147.772 201.264C147.772 233.828 174.17 260.226 206.733 260.226Z" fill="#FBF6FF"/>
<path d="M206.738 261.044C192.908 261.044 179.504 256.25 168.813 247.475C158.121 238.701 150.803 226.493 148.104 212.927C145.405 199.362 147.493 185.282 154.013 173.084C160.532 160.886 171.078 151.326 183.857 146.032C196.635 140.739 210.852 140.04 224.088 144.055C237.323 148.07 248.757 156.549 256.442 168.05C264.125 179.549 267.584 193.358 266.229 207.122C264.873 220.886 258.786 233.754 249.006 243.534C243.47 249.102 236.882 253.517 229.626 256.523C222.371 259.527 214.592 261.065 206.738 261.044ZM206.738 143.118C174.675 143.118 148.591 169.202 148.591 201.266C148.591 233.328 174.669 259.415 206.738 259.415C238.806 259.415 264.888 233.328 264.888 201.266C264.888 169.202 238.796 143.118 206.738 143.118Z" fill="black"/>
<path d="M206.738 201.264L199.864 142.705C212.519 141.22 225.317 143.875 236.338 150.273C247.358 156.671 256.01 166.467 260.996 178.194L206.738 201.264Z" fill="#FBF6FF"/>
<path d="M206.768 202.094C206.581 202.094 206.399 202.029 206.254 201.911C206.107 201.791 206.008 201.626 205.97 201.443C205.933 201.258 205.96 201.066 206.047 200.901C206.134 200.735 206.275 200.603 206.449 200.529L212.276 198.051C212.474 197.97 212.696 197.97 212.894 198.053C213.092 198.134 213.25 198.29 213.334 198.486C213.418 198.683 213.421 198.905 213.341 199.104C213.263 199.304 213.109 199.463 212.914 199.55L207.086 202.028C206.986 202.071 206.878 202.092 206.768 202.094Z" fill="black"/>
<path d="M219.201 196.805C219.014 196.805 218.832 196.74 218.688 196.622C218.543 196.502 218.442 196.337 218.406 196.154C218.369 195.969 218.396 195.779 218.483 195.612C218.57 195.446 218.712 195.315 218.885 195.242L225.738 192.33C225.837 192.284 225.945 192.257 226.055 192.252C226.164 192.249 226.272 192.267 226.376 192.306C226.478 192.345 226.571 192.404 226.65 192.48C226.728 192.557 226.791 192.648 226.835 192.749C226.877 192.849 226.899 192.959 226.899 193.068C226.899 193.178 226.877 193.286 226.833 193.386C226.79 193.487 226.727 193.578 226.649 193.655C226.569 193.73 226.475 193.79 226.373 193.827L219.522 196.74C219.42 196.782 219.312 196.805 219.201 196.805Z" fill="black"/>
<path d="M232.917 190.976C232.73 190.976 232.548 190.909 232.403 190.791C232.257 190.672 232.158 190.507 232.121 190.323C232.083 190.138 232.11 189.948 232.197 189.781C232.286 189.616 232.427 189.485 232.599 189.411L239.405 186.519C239.504 186.471 239.61 186.445 239.72 186.441C239.829 186.438 239.939 186.456 240.041 186.495C240.144 186.534 240.237 186.592 240.315 186.669C240.395 186.745 240.458 186.837 240.5 186.938C240.543 187.038 240.566 187.148 240.564 187.257C240.564 187.367 240.542 187.475 240.5 187.575C240.456 187.676 240.393 187.767 240.314 187.844C240.236 187.919 240.141 187.978 240.039 188.016L233.237 190.91C233.136 190.953 233.027 190.974 232.917 190.976Z" fill="black"/>
<path d="M246.488 185.205C246.3 185.203 246.119 185.139 245.973 185.02C245.829 184.902 245.729 184.735 245.691 184.552C245.654 184.368 245.682 184.177 245.769 184.011C245.856 183.846 245.999 183.714 246.171 183.64L253.367 180.579C253.464 180.537 253.571 180.516 253.677 180.514C253.785 180.513 253.89 180.534 253.991 180.573C254.09 180.613 254.18 180.673 254.256 180.748C254.333 180.823 254.394 180.912 254.435 181.011C254.477 181.11 254.499 181.215 254.501 181.323C254.501 181.429 254.481 181.536 254.441 181.635C254.402 181.734 254.342 181.825 254.267 181.9C254.192 181.977 254.102 182.038 254.004 182.08L246.809 185.139C246.707 185.181 246.599 185.203 246.488 185.205Z" fill="black"/>
<path d="M260.996 179.009C260.835 179.009 260.679 178.962 260.546 178.874C260.412 178.787 260.307 178.661 260.244 178.514C255.327 166.947 246.795 157.286 235.925 150.977C225.056 144.666 212.435 142.048 199.953 143.514C199.845 143.526 199.737 143.517 199.634 143.488C199.53 143.459 199.433 143.409 199.349 143.342C199.178 143.208 199.068 143.01 199.043 142.794C199.019 142.578 199.08 142.361 199.215 142.191C199.35 142.02 199.547 141.91 199.763 141.885C212.594 140.393 225.564 143.092 236.735 149.579C247.907 156.066 256.68 165.993 261.744 177.876C261.828 178.074 261.831 178.299 261.75 178.499C261.669 178.698 261.512 178.859 261.314 178.943C261.213 178.986 261.105 179.009 260.996 179.009Z" fill="black"/>
<path d="M206.738 201.265L156.411 170.536C161.132 162.807 167.57 156.268 175.226 151.428C182.882 146.588 191.55 143.576 200.558 142.627L206.738 201.265Z" fill="#FBF6FF"/>
<path d="M168.003 178.429C167.855 178.429 167.708 178.387 167.58 178.311L161.411 174.535C161.315 174.481 161.231 174.409 161.163 174.322C161.097 174.237 161.048 174.136 161.021 174.031C160.992 173.925 160.986 173.815 161.001 173.706C161.018 173.598 161.055 173.494 161.112 173.4C161.169 173.307 161.244 173.226 161.334 173.163C161.423 173.098 161.523 173.053 161.631 173.029C161.738 173.005 161.849 173.004 161.955 173.023C162.063 173.043 162.165 173.085 162.257 173.145L168.438 176.92C168.59 177.013 168.707 177.153 168.772 177.318C168.836 177.483 168.845 177.664 168.797 177.835C168.749 178.006 168.647 178.156 168.506 178.264C168.365 178.371 168.192 178.429 168.014 178.429H168.003Z" fill="black"/>
<path d="M181.879 186.905C181.73 186.903 181.583 186.861 181.456 186.785L174.82 182.73C174.724 182.676 174.64 182.604 174.572 182.517C174.506 182.43 174.457 182.331 174.428 182.226C174.401 182.12 174.395 182.01 174.41 181.901C174.427 181.793 174.464 181.689 174.521 181.595C174.578 181.502 174.653 181.421 174.742 181.356C174.832 181.293 174.932 181.248 175.039 181.224C175.147 181.2 175.256 181.199 175.364 181.218C175.472 181.238 175.574 181.28 175.666 181.34L182.311 185.393C182.464 185.484 182.582 185.624 182.648 185.79C182.713 185.957 182.723 186.14 182.674 186.311C182.626 186.483 182.522 186.633 182.38 186.741C182.237 186.848 182.063 186.906 181.885 186.905H181.879Z" fill="black"/>
<path d="M194.663 194.708C194.513 194.708 194.366 194.667 194.24 194.588L187.9 190.718C187.715 190.605 187.583 190.424 187.532 190.214C187.481 190.004 187.516 189.782 187.63 189.597C187.742 189.414 187.924 189.282 188.134 189.231C188.342 189.18 188.564 189.215 188.749 189.327L195.086 193.199C195.238 193.29 195.355 193.43 195.419 193.595C195.485 193.76 195.494 193.943 195.446 194.114C195.398 194.283 195.296 194.435 195.154 194.541C195.013 194.649 194.84 194.708 194.663 194.708Z" fill="black"/>
<path d="M206.738 202.08C206.59 202.08 206.443 202.038 206.315 201.96L200.138 198.19C200.047 198.133 199.967 198.061 199.904 197.974C199.841 197.887 199.796 197.79 199.771 197.686C199.745 197.581 199.741 197.473 199.757 197.368C199.775 197.262 199.811 197.161 199.868 197.07C199.924 196.978 199.997 196.899 200.083 196.836C200.17 196.773 200.267 196.728 200.372 196.702C200.476 196.678 200.584 196.674 200.689 196.69C200.795 196.707 200.896 196.744 200.987 196.8L205.756 199.713L205.159 194.013C205.136 193.797 205.201 193.581 205.337 193.411C205.474 193.243 205.672 193.135 205.888 193.113C206.104 193.09 206.32 193.153 206.489 193.291C206.657 193.428 206.765 193.626 206.788 193.842L207.562 201.169C207.572 201.283 207.56 201.399 207.526 201.507C207.49 201.616 207.431 201.715 207.355 201.801C207.278 201.885 207.184 201.954 207.079 201.999C206.975 202.045 206.861 202.069 206.747 202.068L206.738 202.08Z" fill="black"/>
<path d="M205.221 187.724C205.019 187.725 204.824 187.65 204.672 187.515C204.522 187.38 204.428 187.194 204.407 186.993L203.622 179.543C203.612 179.436 203.621 179.328 203.652 179.225C203.682 179.121 203.733 179.025 203.801 178.943C203.868 178.859 203.951 178.79 204.045 178.737C204.14 178.686 204.245 178.655 204.351 178.643C204.458 178.632 204.566 178.643 204.669 178.673C204.773 178.703 204.869 178.754 204.951 178.821C205.121 178.958 205.229 179.156 205.251 179.372L206.036 186.822C206.058 187.037 205.995 187.251 205.859 187.419C205.724 187.587 205.527 187.695 205.313 187.718L205.221 187.724Z" fill="black"/>
<path d="M203.609 172.423C203.406 172.425 203.211 172.35 203.061 172.216C202.911 172.081 202.815 171.897 202.794 171.696L202.007 164.229C201.984 164.013 202.049 163.797 202.185 163.627C202.322 163.459 202.52 163.351 202.736 163.329C202.952 163.306 203.168 163.371 203.337 163.507C203.505 163.644 203.613 163.842 203.636 164.058L204.423 171.525C204.434 171.631 204.425 171.739 204.395 171.841C204.363 171.943 204.314 172.039 204.246 172.123C204.179 172.206 204.096 172.275 204.002 172.326C203.907 172.377 203.805 172.41 203.699 172.42L203.609 172.423Z" fill="black"/>
<path d="M156.412 171.351C156.262 171.35 156.116 171.309 155.987 171.233C155.896 171.177 155.816 171.104 155.753 171.017C155.69 170.93 155.645 170.832 155.62 170.729C155.594 170.624 155.59 170.516 155.606 170.409C155.623 170.304 155.66 170.202 155.717 170.111C160.502 162.275 167.03 155.646 174.791 150.74C182.552 145.833 191.339 142.781 200.471 141.818C200.578 141.807 200.687 141.816 200.789 141.847C200.893 141.878 200.989 141.928 201.073 141.996C201.155 142.064 201.226 142.147 201.277 142.241C201.328 142.336 201.361 142.44 201.371 142.547C201.383 142.653 201.373 142.762 201.343 142.865C201.311 142.968 201.26 143.064 201.193 143.147C201.125 143.231 201.043 143.3 200.948 143.352C200.854 143.403 200.749 143.435 200.642 143.446C191.759 144.382 183.211 147.351 175.661 152.124C168.11 156.897 161.761 163.346 157.106 170.969C157.033 171.087 156.931 171.183 156.809 171.251C156.686 171.318 156.55 171.353 156.412 171.351Z" fill="black"/>
<path d="M134.621 108.783L229.644 152.664L226.05 160.25L222.426 155.019L214.61 157.796L209.157 150.801L201.842 154.814L195.477 147.922L186.321 152.139L180.768 144.939L170.688 148.847L165.75 141.134L156.414 145.042L150.939 136.709L140.652 140.927L136.231 132.185L125.963 136.709L122.551 128.483L134.621 108.783Z" fill="#FBF6FF"/>
<path d="M226.05 161.064C225.918 161.064 225.789 161.031 225.672 160.969C225.557 160.908 225.456 160.819 225.383 160.711L222.111 155.994L214.881 158.565C214.719 158.62 214.544 158.625 214.38 158.577C214.215 158.528 214.071 158.428 213.966 158.293L208.94 151.846L202.233 155.518C202.073 155.607 201.888 155.638 201.71 155.608C201.53 155.578 201.365 155.49 201.242 155.356L195.27 148.899L186.653 152.878C186.485 152.955 186.297 152.973 186.117 152.929C185.939 152.886 185.78 152.782 185.667 152.637L180.483 145.919L170.984 149.607C170.809 149.675 170.615 149.68 170.437 149.622C170.258 149.564 170.105 149.445 170.004 149.287L165.435 142.149L156.728 145.794C156.554 145.867 156.359 145.876 156.177 145.821C155.996 145.765 155.84 145.648 155.735 145.49L150.629 137.719L140.962 141.676C140.772 141.754 140.561 141.757 140.369 141.686C140.178 141.614 140.02 141.473 139.928 141.291L135.856 133.235L126.294 137.45C126.194 137.493 126.086 137.514 125.978 137.514C125.869 137.514 125.762 137.493 125.661 137.45C125.561 137.41 125.469 137.349 125.393 137.273C125.316 137.196 125.255 137.106 125.214 137.005L121.802 128.778C121.752 128.659 121.732 128.531 121.742 128.402C121.751 128.274 121.792 128.15 121.859 128.04L133.932 108.34C134.036 108.17 134.198 108.044 134.389 107.986C134.58 107.928 134.785 107.942 134.966 108.025L229.986 151.923C230.082 151.968 230.171 152.032 230.243 152.11C230.315 152.19 230.372 152.283 230.408 152.383C230.445 152.484 230.46 152.592 230.456 152.698C230.451 152.806 230.424 152.911 230.379 153.009L226.785 160.608C226.725 160.737 226.631 160.848 226.514 160.929C226.397 161.011 226.26 161.061 226.118 161.073L226.05 161.064ZM222.426 154.206C222.558 154.206 222.687 154.237 222.803 154.299C222.92 154.359 223.019 154.447 223.094 154.555L225.917 158.626L228.555 153.057L134.939 109.825L123.463 128.553L126.397 135.629L135.897 131.438C136.088 131.354 136.304 131.347 136.501 131.417C136.697 131.488 136.859 131.632 136.953 131.818L141.024 139.888L150.614 135.957C150.788 135.886 150.983 135.877 151.164 135.933C151.344 135.989 151.5 136.106 151.604 136.264L156.704 144.03L165.419 140.382C165.596 140.307 165.794 140.298 165.977 140.355C166.16 140.412 166.317 140.532 166.421 140.694L170.997 147.849L180.456 144.179C180.621 144.116 180.801 144.109 180.971 144.158C181.14 144.207 181.289 144.31 181.395 144.45L186.552 151.135L195.116 147.192C195.272 147.12 195.447 147.099 195.615 147.133C195.785 147.166 195.938 147.253 196.055 147.379L201.989 153.804L208.766 150.09C208.935 149.998 209.133 149.968 209.322 150.007C209.511 150.046 209.681 150.151 209.799 150.304L214.881 156.833L222.144 154.251C222.234 154.219 222.33 154.203 222.426 154.206Z" fill="black"/>
<path d="M132.944 102.963L122.024 96.992C121.138 96.5067 120.1 96.3741 119.12 96.6207C118.14 96.8673 117.289 97.4748 116.737 98.3219L101.119 122.316C100.813 122.787 100.609 123.318 100.52 123.874C100.432 124.43 100.462 124.998 100.608 125.541C100.753 126.084 101.012 126.591 101.366 127.028C101.72 127.465 102.162 127.823 102.664 128.078L114.753 134.226C115.658 134.688 116.704 134.789 117.68 134.51C118.656 134.23 119.49 133.59 120.013 132.719L134.461 108.563C134.741 108.099 134.924 107.582 134.999 107.046C135.075 106.509 135.04 105.962 134.898 105.439C134.757 104.916 134.51 104.427 134.174 104.001C133.839 103.576 133.42 103.223 132.944 102.963ZM128.191 109.005L117.47 127.394C117.32 127.652 117.12 127.878 116.882 128.058C116.645 128.238 116.374 128.37 116.085 128.446C115.796 128.522 115.496 128.54 115.2 128.499C114.904 128.458 114.62 128.359 114.362 128.208L107.962 124.449C107.7 124.295 107.471 124.09 107.29 123.846C107.109 123.602 106.979 123.324 106.907 123.028C106.835 122.733 106.824 122.426 106.873 122.126C106.922 121.826 107.031 121.539 107.194 121.282L118.542 103.343C118.855 102.851 119.346 102.498 119.913 102.358C120.479 102.218 121.078 102.301 121.585 102.591L127.358 105.897C127.617 106.046 127.845 106.245 128.027 106.482C128.209 106.719 128.343 106.989 128.421 107.278C128.498 107.567 128.518 107.868 128.478 108.165C128.439 108.461 128.341 108.747 128.191 109.005Z" fill="#FBF6FF"/>
<path d="M116.561 135.472C115.806 135.472 115.061 135.292 114.389 134.948L102.295 128.8C101.691 128.493 101.158 128.063 100.732 127.536C100.305 127.01 99.9941 126.4 99.819 125.745C99.644 125.091 99.6086 124.407 99.7152 123.738C99.8219 123.069 100.068 122.43 100.438 121.863L116.056 97.8687C116.722 96.8532 117.746 96.1252 118.924 95.8291C120.102 95.533 121.348 95.6903 122.415 96.2699L133.335 102.241C133.904 102.553 134.405 102.977 134.807 103.486C135.209 103.996 135.504 104.582 135.674 105.208C135.845 105.834 135.887 106.489 135.799 107.132C135.711 107.775 135.494 108.394 135.161 108.951L120.713 133.108C120.285 133.827 119.677 134.423 118.949 134.837C118.221 135.252 117.398 135.47 116.561 135.472ZM120.108 97.315C119.575 97.3137 119.05 97.4455 118.581 97.6985C118.111 97.9517 117.713 98.318 117.421 98.7644L101.803 122.758C101.558 123.134 101.396 123.557 101.325 124C101.254 124.443 101.278 124.896 101.394 125.329C101.51 125.762 101.716 126.166 101.998 126.514C102.281 126.863 102.633 127.148 103.033 127.351L115.122 133.498C115.845 133.863 116.678 133.941 117.456 133.717C118.233 133.493 118.898 132.984 119.316 132.291L133.763 108.134C133.985 107.764 134.13 107.353 134.189 106.926C134.248 106.499 134.22 106.064 134.107 105.648C133.994 105.232 133.798 104.843 133.531 104.504C133.264 104.165 132.931 103.884 132.553 103.677L121.634 97.7059C121.166 97.4489 120.641 97.3146 120.108 97.315ZM115.494 129.343C114.947 129.342 114.41 129.196 113.939 128.92L107.538 125.16C107.183 124.951 106.872 124.672 106.626 124.34C106.38 124.008 106.203 123.631 106.105 123.229C106.008 122.828 105.992 122.411 106.059 122.003C106.125 121.595 106.273 121.205 106.494 120.856L117.845 102.917C118.267 102.245 118.934 101.763 119.705 101.572C120.475 101.38 121.29 101.495 121.978 101.891L127.754 105.189C128.107 105.391 128.417 105.661 128.665 105.983C128.913 106.305 129.096 106.673 129.201 107.066C129.306 107.459 129.333 107.869 129.279 108.272C129.226 108.675 129.093 109.063 128.889 109.415L118.167 127.804C117.964 128.156 117.693 128.463 117.37 128.709C117.046 128.955 116.677 129.133 116.284 129.234C116.029 129.301 115.768 129.335 115.505 129.335L115.494 129.343ZM120.447 103.11C120.202 103.11 119.961 103.172 119.746 103.291C119.532 103.409 119.351 103.581 119.221 103.788L107.872 121.724C107.768 121.889 107.698 122.073 107.666 122.265C107.634 122.457 107.641 122.654 107.687 122.843C107.733 123.033 107.817 123.211 107.933 123.368C108.049 123.524 108.195 123.656 108.364 123.754L114.764 127.514C114.929 127.61 115.111 127.674 115.301 127.7C115.49 127.726 115.683 127.715 115.868 127.666C116.053 127.618 116.227 127.533 116.379 127.418C116.531 127.302 116.66 127.158 116.756 126.993L127.483 108.595C127.579 108.429 127.641 108.245 127.665 108.055C127.69 107.864 127.677 107.67 127.626 107.485C127.576 107.3 127.489 107.126 127.371 106.974C127.254 106.822 127.107 106.695 126.94 106.6L121.167 103.294C120.951 103.171 120.707 103.104 120.458 103.102L120.447 103.11Z" fill="black"/>
<path d="M115.505 129.335C114.958 129.334 114.421 129.188 113.95 128.911L107.549 125.152C107.193 124.942 106.883 124.663 106.637 124.332C106.391 124 106.214 123.622 106.116 123.221C106.019 122.819 106.003 122.402 106.07 121.995C106.136 121.587 106.284 121.197 106.504 120.847L117.855 102.909C118.278 102.237 118.945 101.755 119.716 101.563C120.486 101.372 121.301 101.487 121.989 101.883L127.754 105.189C128.107 105.391 128.417 105.661 128.665 105.983C128.913 106.305 129.096 106.673 129.201 107.066C129.307 107.459 129.333 107.868 129.28 108.271C129.226 108.675 129.093 109.063 128.889 109.415L118.168 127.804C117.964 128.155 117.693 128.463 117.37 128.709C117.046 128.954 116.677 129.133 116.284 129.234C116.029 129.301 115.768 129.334 115.505 129.335ZM120.458 103.102C120.213 103.101 119.972 103.164 119.757 103.282C119.543 103.401 119.362 103.572 119.231 103.78L107.883 121.716C107.779 121.88 107.709 122.064 107.677 122.257C107.645 122.449 107.652 122.646 107.698 122.835C107.744 123.025 107.827 123.203 107.944 123.359C108.06 123.516 108.206 123.647 108.374 123.746L114.775 127.505C114.94 127.602 115.122 127.665 115.312 127.691C115.501 127.718 115.694 127.706 115.879 127.658C116.064 127.609 116.238 127.525 116.39 127.409C116.542 127.294 116.671 127.149 116.767 126.984L127.483 108.595C127.579 108.429 127.641 108.245 127.665 108.054C127.69 107.864 127.677 107.67 127.626 107.485C127.576 107.299 127.489 107.126 127.371 106.974C127.254 106.822 127.107 106.695 126.94 106.6L121.167 103.294C120.951 103.171 120.707 103.104 120.458 103.102Z" fill="black"/>
<path d="M199.864 142.705C192.92 143.538 186.176 145.578 179.936 148.733L186.509 156.011L202.6 162.033L199.864 142.705Z" fill="#FBF6FF"/>
<path d="M179.936 149.548C179.753 149.548 179.576 149.486 179.432 149.373C179.29 149.259 179.188 149.101 179.146 148.924C179.104 148.746 179.122 148.56 179.198 148.394C179.275 148.228 179.404 148.092 179.566 148.009C185.891 144.811 192.728 142.743 199.766 141.899C199.982 141.873 200.2 141.934 200.371 142.069C200.542 142.203 200.651 142.4 200.678 142.616C200.704 142.832 200.642 143.049 200.509 143.22C200.374 143.391 200.177 143.502 199.961 143.528C193.114 144.348 186.463 146.359 180.307 149.469C180.191 149.524 180.064 149.551 179.936 149.548Z" fill="black"/>
<path d="M202.026 157.398C201.824 157.398 201.629 157.324 201.479 157.189C201.327 157.054 201.233 156.868 201.212 156.667L199.74 142.713C199.718 142.497 199.782 142.281 199.919 142.112C200.055 141.944 200.253 141.836 200.469 141.814C200.685 141.791 200.901 141.855 201.071 141.992C201.239 142.128 201.347 142.326 201.369 142.542L202.841 156.496C202.851 156.603 202.842 156.711 202.812 156.813C202.781 156.915 202.731 157.011 202.664 157.095C202.596 157.177 202.514 157.246 202.419 157.297C202.325 157.348 202.223 157.381 202.116 157.392L202.026 157.398Z" fill="black"/>
<path d="M192.428 96.5822C197.388 95.0597 200.28 90.1416 198.885 85.5972C197.49 81.053 192.338 78.6035 187.377 80.126C182.415 81.6485 179.525 86.5665 180.918 91.1108C182.313 95.655 187.466 98.1047 192.428 96.5822Z" fill="#FBF6FF"/>
<path d="M189.453 97.8308C185.208 97.8308 181.365 95.3118 180.144 91.3355C179.778 90.1257 179.672 88.8527 179.831 87.599C179.99 86.3453 180.411 85.139 181.067 84.0587C182.429 81.7782 184.596 80.0919 187.142 79.3332C192.524 77.6829 198.143 80.3781 199.665 85.3425C200.03 86.5521 200.138 87.8252 199.979 89.0789C199.82 90.3326 199.4 91.5389 198.744 92.6193C197.385 94.9008 195.216 96.5876 192.671 97.3449C191.628 97.6667 190.544 97.8303 189.453 97.8308ZM190.361 80.4759C189.431 80.4765 188.507 80.6165 187.619 80.8911C185.459 81.5267 183.618 82.9521 182.462 84.8838C181.923 85.7696 181.575 86.759 181.443 87.7878C181.311 88.8165 181.397 89.8616 181.694 90.8552C182.954 94.9617 187.665 97.1739 192.185 95.7869C194.343 95.1488 196.184 93.7227 197.342 91.7915C197.88 90.9056 198.228 89.9162 198.36 88.8875C198.492 87.8588 198.407 86.8139 198.11 85.8203C197.103 82.5468 193.908 80.4759 190.361 80.4759Z" fill="black"/>
<path d="M191.864 83.9345C197.998 82.0523 201.478 75.6668 199.639 69.6723C197.8 63.6777 191.336 60.3441 185.203 62.2263C179.069 64.1085 175.588 70.4939 177.427 76.4885C179.267 82.4831 185.731 85.8167 191.864 83.9345Z" fill="#FBF6FF"/>
<path d="M188.37 85.2614C186.387 85.2603 184.433 84.7848 182.672 83.8743C181.239 83.1444 179.97 82.1343 178.937 80.904C177.903 79.6737 177.129 78.2483 176.657 76.7124C176.186 75.1766 176.028 73.5617 176.193 71.9637C176.358 70.3656 176.841 68.817 177.617 67.4099C179.189 64.5308 181.83 62.3859 184.97 61.4385C191.522 59.4272 198.455 63.0101 200.423 69.4238C202.389 75.8375 198.663 82.691 192.111 84.7022C190.899 85.0739 189.639 85.2624 188.37 85.2614ZM185.442 63.0047C182.714 63.8282 180.42 65.691 179.052 68.1915C178.382 69.4079 177.962 70.7468 177.819 72.1284C177.677 73.5102 177.813 74.9067 178.221 76.2347C178.628 77.5626 179.298 78.795 180.192 79.8584C181.086 80.9219 182.184 81.7947 183.423 82.425C185.961 83.7342 188.913 83.9907 191.639 83.1388C197.339 81.3936 200.577 75.4494 198.872 69.8961C197.168 64.3427 191.148 61.2431 185.453 62.991L185.442 63.0047Z" fill="black"/>
<path d="M184.687 87.3723C185.342 87.3723 185.873 86.8411 185.873 86.186C185.873 85.531 185.342 85 184.687 85C184.031 85 183.5 85.531 183.5 86.186C183.5 86.8411 184.031 87.3723 184.687 87.3723Z" fill="black"/>
<path d="M194.686 78.3723C195.342 78.3723 195.873 77.8412 195.873 77.1862C195.873 76.5311 195.342 76 194.686 76C194.031 76 193.5 76.5311 193.5 77.1862C193.5 77.8412 194.031 78.3723 194.686 78.3723Z" fill="black"/>
<path d="M174.11 56.2949C174.11 56.2949 160.691 67.6133 168.009 79.0945C168.009 79.0945 152.652 73.1911 157.95 62.744C162.792 53.2061 174.11 56.2949 174.11 56.2949Z" fill="#FBF6FF"/>
<path d="M168.01 79.9192C167.909 79.9198 167.812 79.9014 167.719 79.8649C167.363 79.7292 159.001 76.4532 156.637 70.3108C155.654 67.7566 155.852 65.0913 157.226 62.3853C162.31 52.3615 174.206 55.4775 174.325 55.51C174.469 55.5492 174.598 55.6266 174.7 55.7338C174.802 55.8412 174.874 55.9743 174.905 56.1189C174.937 56.2636 174.929 56.4142 174.883 56.5548C174.835 56.6952 174.751 56.8201 174.637 56.916C172.415 58.9156 170.516 61.2489 169.01 63.8319C165.955 69.1953 165.851 74.1867 168.704 78.6679C168.782 78.7909 168.826 78.9328 168.83 79.0786C168.836 79.2244 168.802 79.3687 168.731 79.4967C168.661 79.6245 168.557 79.7313 168.431 79.8055C168.307 79.8799 168.163 79.9191 168.017 79.9192H168.01ZM169.909 56.6121C166.397 56.6121 161.441 57.6978 158.689 63.1263C157.532 65.4034 157.358 67.6264 158.167 69.7327C159.581 73.405 163.631 76.0161 166.163 77.3461C164.264 72.9192 164.752 68.0037 167.621 62.9905C168.941 60.7269 170.548 58.644 172.403 56.7939C171.574 56.6748 170.737 56.614 169.898 56.6121H169.909Z" fill="black"/>
<path d="M162.069 76.6515C161.912 76.6518 161.757 76.6059 161.624 76.5197C161.492 76.4334 161.387 76.3104 161.324 76.1657C159.326 71.6058 159.879 66.5301 162.927 61.4925C164.342 59.1732 166.092 57.0759 168.12 55.2687C168.201 55.1961 168.296 55.1406 168.399 55.1054C168.503 55.0703 168.612 55.056 168.72 55.0638C168.83 55.0716 168.935 55.101 169.032 55.1505C169.13 55.2 169.215 55.2686 169.286 55.352C169.356 55.4354 169.409 55.532 169.44 55.6361C169.473 55.7403 169.484 55.8498 169.473 55.9583C169.461 56.0667 169.428 56.1717 169.377 56.2674C169.325 56.363 169.253 56.447 169.167 56.5146C169.062 56.6069 158.501 65.667 162.816 75.5142C162.87 75.6383 162.893 75.7737 162.882 75.9084C162.87 76.0431 162.825 76.1729 162.752 76.286C162.677 76.3992 162.576 76.4921 162.458 76.5563C162.338 76.6206 162.206 76.6542 162.069 76.6542V76.6515Z" fill="black"/>
<path d="M133.001 71.3261C132.815 71.3261 132.635 71.2625 132.49 71.1459C132.346 71.0294 132.245 70.8669 132.206 70.6856C130.577 63.2648 114.039 63.9351 109.012 64.3152C108.796 64.3317 108.583 64.2618 108.418 64.1208C108.254 63.9798 108.152 63.7793 108.136 63.5633C108.119 63.3474 108.189 63.1337 108.33 62.9693C108.471 62.8049 108.672 62.7032 108.887 62.6867C115.757 62.1656 131.931 61.8723 133.796 70.3299C133.823 70.449 133.822 70.5725 133.794 70.6913C133.766 70.8099 133.712 70.9209 133.636 71.016C133.56 71.1111 133.463 71.1879 133.353 71.2406C133.243 71.2934 133.123 71.3207 133.001 71.3207V71.3261Z" fill="black"/>
<path d="M117.671 89.9781C113.133 89.1123 99.6293 86.5717 97.9925 91.1479C95.6691 97.6621 102.743 104.703 105.345 106.168C107.332 107.287 116.189 108.196 115.874 111.103C115.632 113.329 112.649 112.661 112.649 112.661C112.649 112.661 114.71 113.779 113.844 115.758C112.978 117.737 110.074 116.732 110.074 116.732C110.074 116.732 112.245 118.597 111.113 119.924C109.981 121.251 108.67 119.208 105.232 119.11C104.089 119.08 103.18 119.143 103.18 119.143C103.18 119.143 84.8258 105.21 77.3698 93.3573L117.671 89.9781Z" fill="#8800FF"/>
<path d="M110.231 121.198C109.626 121.153 109.034 120.994 108.488 120.728C107.458 120.252 106.344 119.982 105.21 119.933C104.124 119.903 103.245 119.963 103.237 119.963C103.042 119.975 102.849 119.918 102.694 119.8C101.939 119.227 84.1364 105.643 76.6858 93.8003C76.5707 93.6175 76.5328 93.3964 76.5806 93.1856C76.6285 92.9749 76.7581 92.7919 76.9409 92.6767C77.1238 92.5615 77.3449 92.5237 77.5556 92.5715C77.7664 92.6194 77.9495 92.7489 78.0647 92.9318C84.9019 103.789 101.282 116.651 103.443 118.321C103.815 118.304 104.482 118.285 105.259 118.304C106.589 118.358 107.897 118.668 109.11 119.219C110.253 119.686 110.304 119.626 110.497 119.398C111.059 118.736 109.561 117.363 109.544 117.349C109.459 117.28 109.389 117.195 109.338 117.098C109.287 117.002 109.255 116.896 109.246 116.787C109.237 116.678 109.249 116.568 109.283 116.464C109.317 116.36 109.372 116.264 109.443 116.181C109.515 116.099 109.603 116.032 109.701 115.984C109.8 115.936 109.907 115.909 110.016 115.903C110.125 115.898 110.234 115.914 110.337 115.952C110.44 115.99 110.534 116.047 110.614 116.122C111.64 117.013 113.032 118.926 111.74 120.451C111.563 120.683 111.335 120.871 111.073 121.001C110.811 121.13 110.523 121.198 110.231 121.198Z" fill="black"/>
<path d="M111.621 117.791C111.016 117.791 110.415 117.699 109.838 117.519C109.714 117.48 109.6 117.414 109.506 117.324C109.364 117.195 109.272 117.021 109.246 116.831C109.22 116.642 109.262 116.449 109.364 116.287C109.466 116.124 109.622 116.004 109.805 115.945C109.987 115.887 110.184 115.894 110.361 115.967C110.747 116.081 112.598 116.567 113.097 115.424C113.624 114.219 112.484 113.497 112.25 113.364C112.157 113.31 112.076 113.239 112.01 113.154C111.945 113.069 111.897 112.972 111.869 112.869C111.841 112.765 111.833 112.657 111.847 112.551C111.861 112.444 111.896 112.341 111.949 112.248C112.003 112.155 112.074 112.074 112.159 112.008C112.244 111.943 112.341 111.895 112.445 111.867C112.548 111.839 112.656 111.831 112.763 111.845C112.869 111.859 112.972 111.894 113.065 111.947C114.058 112.512 115.508 114.015 114.601 116.076C114.034 117.354 112.848 117.791 111.621 117.791Z" fill="black"/>
<path d="M113.605 113.573C113.235 113.572 112.866 113.536 112.503 113.464C112.344 113.435 112.198 113.36 112.082 113.247C111.953 113.122 111.869 112.958 111.843 112.78C111.817 112.602 111.85 112.42 111.938 112.264C112.026 112.107 112.164 111.983 112.329 111.913C112.495 111.842 112.679 111.829 112.853 111.874C113.314 111.961 114.248 112.023 114.731 111.67C114.833 111.594 114.916 111.495 114.973 111.382C115.031 111.268 115.063 111.144 115.065 111.016C115.125 110.46 114.308 109.559 110.082 108.416C109.978 108.388 109.882 108.34 109.797 108.275C109.712 108.209 109.641 108.128 109.588 108.035C109.534 107.942 109.5 107.839 109.486 107.733C109.473 107.627 109.48 107.519 109.508 107.416C109.536 107.313 109.584 107.216 109.649 107.131C109.715 107.046 109.796 106.975 109.889 106.922C109.982 106.868 110.084 106.834 110.191 106.82C110.297 106.806 110.405 106.814 110.508 106.842C113.86 107.751 116.93 108.905 116.683 111.185C116.656 111.538 116.554 111.881 116.383 112.191C116.212 112.501 115.976 112.77 115.692 112.981C115.075 113.391 114.345 113.598 113.605 113.573Z" fill="black"/>
<path d="M105.345 106.983C105.205 106.984 105.068 106.947 104.947 106.877C101.763 105.086 94.7897 97.6923 97.2272 90.8632C98.9155 86.1432 109.791 87.636 117.823 89.1667C118.035 89.2071 118.223 89.3301 118.344 89.5087C118.466 89.6875 118.512 89.9071 118.471 90.1195C118.431 90.3318 118.308 90.5194 118.129 90.6412C117.951 90.7629 117.731 90.8085 117.519 90.7681C115.347 90.3556 110.858 89.4952 106.711 89.3242C102.132 89.1342 99.3089 89.8671 98.7607 91.4115C96.5377 97.627 103.711 104.304 105.744 105.45C105.901 105.538 106.023 105.676 106.093 105.841C106.163 106.007 106.176 106.191 106.131 106.364C106.085 106.538 105.983 106.692 105.841 106.802C105.699 106.912 105.525 106.972 105.345 106.972V106.983Z" fill="black"/>
<path d="M110.293 108.438C110.139 108.437 109.988 108.392 109.858 108.309C109.727 108.225 109.624 108.106 109.559 107.965C109.494 107.825 109.47 107.669 109.491 107.516C109.511 107.362 109.575 107.218 109.675 107.1C110.239 106.473 110.76 105.809 111.233 105.11C111.542 104.456 111.366 103.981 111.17 103.824C111.121 103.783 110.972 103.664 110.668 103.894C109.311 104.931 105.88 106.804 105.736 106.88C105.642 106.935 105.538 106.972 105.43 106.986C105.322 107 105.212 106.993 105.106 106.964C105.001 106.935 104.903 106.885 104.817 106.818C104.732 106.75 104.66 106.666 104.608 106.57C104.556 106.474 104.523 106.369 104.512 106.26C104.501 106.152 104.512 106.042 104.545 105.938C104.577 105.833 104.63 105.737 104.7 105.653C104.771 105.57 104.857 105.502 104.955 105.452C104.99 105.433 108.415 103.552 109.68 102.594C110.03 102.298 110.473 102.132 110.931 102.125C111.39 102.118 111.837 102.271 112.196 102.556C113.067 103.262 113.282 104.6 112.701 105.813C112.476 106.283 111.615 107.344 110.92 108.15C110.843 108.241 110.747 108.314 110.639 108.364C110.531 108.414 110.413 108.439 110.293 108.438Z" fill="black"/>
<path d="M145.397 114.567C145.23 114.567 145.068 114.515 144.932 114.42C144.796 114.324 144.692 114.19 144.635 114.034C144.578 113.878 144.57 113.708 144.612 113.547C144.654 113.386 144.744 113.242 144.87 113.134C153.608 105.732 166.796 103.091 167.352 102.975C167.559 102.945 167.771 102.997 167.94 103.119C168.111 103.241 168.227 103.424 168.266 103.63C168.305 103.836 168.263 104.049 168.149 104.224C168.035 104.4 167.858 104.525 167.654 104.573C167.52 104.598 154.316 107.255 145.91 114.374C145.766 114.496 145.585 114.564 145.397 114.567Z" fill="black"/>
<path d="M73.8033 69.0379C73.6305 69.0378 73.4622 68.9826 73.3228 68.8806C73.1491 68.7526 73.0333 68.5611 73.0008 68.3478C72.9682 68.1346 73.0215 67.9171 73.1491 67.7433C79.3918 59.2477 91.9914 58.9437 92.5233 58.9329C92.7393 58.9288 92.9479 59.0109 93.1035 59.1607C93.259 59.3107 93.3486 59.5162 93.3525 59.7322C93.3566 59.9481 93.2745 60.1569 93.1246 60.3123C92.9746 60.4678 92.7691 60.5574 92.5531 60.5614C92.4283 60.5614 80.2143 60.868 74.4628 68.704C74.3869 68.8078 74.2876 68.8921 74.173 68.9502C74.0584 69.0082 73.9317 69.0382 73.8033 69.0379Z" fill="black"/>
<path d="M71.3523 61.9108C71.1896 61.915 71.0292 61.8703 70.892 61.7825C70.7549 61.6948 70.6472 61.5679 70.5828 61.4182C70.5186 61.2686 70.5006 61.1032 70.5314 60.9433C70.5621 60.7832 70.64 60.6362 70.7552 60.521C75.611 55.4617 82.6979 52.5113 91.2233 51.9956C95.0793 51.7495 98.9511 52.0022 102.743 52.7474C102.849 52.7681 102.951 52.8101 103.042 52.8709C103.132 52.9318 103.21 53.0101 103.27 53.1014C103.329 53.1926 103.37 53.2951 103.389 53.4023C103.409 53.5097 103.406 53.6198 103.382 53.7262C103.358 53.8327 103.313 53.9332 103.25 54.0217C103.186 54.1103 103.105 54.1853 103.012 54.242C102.919 54.2989 102.816 54.3364 102.708 54.3524C102.6 54.3685 102.49 54.3626 102.384 54.3353C102.191 54.2918 82.991 50.1173 71.9304 61.6502C71.8563 61.73 71.7671 61.7942 71.6678 61.8391C71.5685 61.8838 71.4612 61.9082 71.3523 61.9108Z" fill="black"/>
<path d="M144.069 147.406C143.991 147.406 143.914 147.395 143.839 147.373L130.406 143.408C130.3 143.381 130.201 143.332 130.114 143.266C130.027 143.199 129.954 143.116 129.9 143.021C129.846 142.926 129.812 142.821 129.799 142.712C129.787 142.603 129.796 142.493 129.827 142.388C129.858 142.283 129.91 142.186 129.98 142.101C130.05 142.017 130.135 141.947 130.232 141.897C130.329 141.846 130.436 141.816 130.545 141.807C130.654 141.799 130.764 141.812 130.867 141.847L144.311 145.81C144.499 145.865 144.662 145.986 144.768 146.151C144.874 146.316 144.917 146.514 144.889 146.708C144.861 146.902 144.764 147.08 144.615 147.208C144.466 147.336 144.276 147.406 144.08 147.406H144.069Z" fill="black"/>
<path d="M155.44 155.125C155.368 155.125 155.296 155.115 155.225 155.095L137.716 150.334C137.612 150.307 137.516 150.258 137.431 150.193C137.347 150.127 137.276 150.046 137.223 149.953C137.17 149.86 137.135 149.758 137.122 149.652C137.108 149.546 137.116 149.438 137.144 149.335C137.172 149.231 137.221 149.135 137.286 149.05C137.351 148.966 137.433 148.895 137.526 148.842C137.619 148.789 137.721 148.755 137.827 148.741C137.933 148.728 138.041 148.735 138.144 148.763L155.644 153.523C155.834 153.574 156.001 153.693 156.112 153.858C156.221 154.023 156.268 154.221 156.242 154.417C156.217 154.614 156.119 154.794 155.971 154.924C155.821 155.055 155.63 155.127 155.431 155.125H155.44Z" fill="black"/>
</svg>
