<svg width="401" height="333" viewBox="0 0 401 333" fill="none" xmlns="http://www.w3.org/2000/svg">
<path d="M115.982 241.309H61.514C56.7222 241.309 52.8376 245.2 52.8376 250.001V251.375C52.8376 256.176 56.7222 260.068 61.514 260.068H115.982C120.774 260.068 124.658 256.176 124.658 251.375V250.001C124.658 245.2 120.774 241.309 115.982 241.309Z" fill="white"/>
<path d="M115.978 261.208H61.514C58.9124 261.203 56.4184 260.166 54.5789 258.323C52.7391 256.481 51.7044 253.981 51.7014 251.375V250.001C51.7044 247.396 52.7391 244.896 54.5789 243.053C56.4184 241.211 58.9124 240.173 61.514 240.171H115.978C118.58 240.173 121.075 241.209 122.916 243.051C124.756 244.894 125.791 247.394 125.794 250.001V251.375C125.791 253.983 124.756 256.483 122.916 258.325C121.075 260.168 118.58 261.206 115.978 261.208ZM61.514 242.446C59.5148 242.448 57.5981 243.246 56.1845 244.662C54.7708 246.078 53.9757 247.998 53.9737 250.001V251.375C53.9757 253.378 54.7708 255.299 56.1845 256.715C57.5981 258.131 59.5148 258.928 61.514 258.93H115.978C117.977 258.928 119.895 258.131 121.309 256.715C122.723 255.299 123.519 253.378 123.522 251.375V250.001C123.519 247.998 122.723 246.078 121.309 244.662C119.895 243.246 117.977 242.448 115.978 242.446H61.514Z" fill="black"/>
<path d="M93.5007 260.068H82.3283V312.856H93.5007V260.068Z" fill="white"/>
<path d="M93.5045 313.996H82.3171C82.0158 313.996 81.7268 313.876 81.5137 313.661C81.3008 313.449 81.181 313.159 81.181 312.856V260.068C81.181 259.765 81.3008 259.477 81.5137 259.263C81.7268 259.05 82.0158 258.93 82.3171 258.93H93.4933C93.7945 258.93 94.0836 259.05 94.2965 259.263C94.5096 259.477 94.6293 259.765 94.6293 260.068V312.856C94.6293 313.157 94.5112 313.445 94.3007 313.657C94.09 313.872 93.8039 313.992 93.5045 313.996ZM83.4648 311.719H92.3684V261.208H83.4534L83.4648 311.719Z" fill="black"/>
<path d="M118.224 331.199H57.6133L82.3285 312.856H93.5047L118.224 331.199Z" fill="white"/>
<path d="M118.224 332.338H57.6284C57.3893 332.338 57.1563 332.262 56.9623 332.122C56.7684 331.982 56.6235 331.783 56.5485 331.557C56.4734 331.329 56.4718 331.084 56.5439 330.856C56.6161 330.628 56.7584 330.427 56.9506 330.285L81.6696 311.943C81.8647 311.797 82.101 311.718 82.3437 311.718H93.5199C93.7639 311.718 94.0016 311.797 94.1977 311.943L118.913 330.285C119.105 330.427 119.247 330.626 119.319 330.854C119.392 331.082 119.39 331.327 119.316 331.555C119.241 331.781 119.097 331.98 118.904 332.12C118.71 332.26 118.478 332.336 118.239 332.338H118.224ZM61.0558 330.061H114.781L93.1296 313.996H82.6959L61.0558 330.061Z" fill="black"/>
<path d="M246.663 245.543H235.49V298.331H246.663V245.543Z" fill="white"/>
<path d="M246.683 299.471H235.49C235.19 299.471 234.9 299.351 234.686 299.136C234.475 298.924 234.355 298.634 234.355 298.331V245.543C234.355 245.24 234.475 244.952 234.686 244.738C234.9 244.525 235.19 244.405 235.49 244.405H246.683C246.983 244.405 247.273 244.525 247.484 244.738C247.698 244.952 247.818 245.24 247.818 245.543V298.331C247.818 298.634 247.698 298.924 247.484 299.136C247.273 299.351 246.983 299.471 246.683 299.471ZM236.642 297.193H245.545V246.682H236.628L236.642 297.193Z" fill="black"/>
<path d="M271.381 316.674L246.667 307.29L241.081 321.691L235.49 307.29L210.776 316.674L235.49 298.327H246.667L271.381 316.674Z" fill="white"/>
<path d="M241.077 322.829C240.848 322.829 240.626 322.758 240.436 322.628C240.248 322.498 240.102 322.314 240.02 322.1L234.84 308.754L211.177 317.737C210.922 317.831 210.64 317.831 210.384 317.737C210.128 317.641 209.914 317.457 209.782 317.216C209.652 316.976 209.612 316.696 209.668 316.429C209.726 316.161 209.88 315.925 210.098 315.76L234.816 297.414C235.012 297.27 235.248 297.194 235.49 297.194H246.683C246.925 297.194 247.161 297.27 247.357 297.414L272.057 315.76C272.275 315.925 272.427 316.161 272.485 316.429C272.543 316.696 272.503 316.976 272.371 317.216C272.241 317.457 272.027 317.641 271.771 317.737C271.515 317.831 271.233 317.831 270.977 317.737L247.315 308.754L242.137 322.1C242.055 322.314 241.909 322.498 241.719 322.628C241.531 322.758 241.307 322.829 241.077 322.829ZM235.49 306.132C235.72 306.132 235.944 306.203 236.134 306.333C236.324 306.463 236.468 306.647 236.552 306.861L241.095 318.53L245.641 306.861C245.753 306.595 245.963 306.383 246.227 306.265C246.491 306.148 246.789 306.136 247.061 306.233L264.103 312.682L246.303 299.471H235.866L218.04 312.682L235.082 306.233C235.212 306.181 235.35 306.154 235.49 306.152V306.132Z" fill="black"/>
<path d="M241.077 331.203C244.208 331.203 246.747 328.661 246.747 325.522C246.747 322.386 244.208 319.842 241.077 319.842C237.945 319.842 235.408 322.386 235.408 325.522C235.408 328.661 237.945 331.203 241.077 331.203Z" fill="white"/>
<path d="M210.776 329.34C213.906 329.34 216.445 326.796 216.445 323.66C216.445 320.523 213.906 317.98 210.776 317.98C207.645 317.98 205.106 320.523 205.106 323.66C205.106 326.796 207.645 329.34 210.776 329.34Z" fill="white"/>
<path d="M271.381 329.34C274.514 329.34 277.053 326.796 277.053 323.66C277.053 320.523 274.514 317.98 271.381 317.98C268.251 317.98 265.712 320.523 265.712 323.66C265.712 326.796 268.251 329.34 271.381 329.34Z" fill="white"/>
<path d="M241.077 332.338C239.728 332.338 238.411 331.938 237.289 331.187C236.168 330.436 235.294 329.37 234.778 328.122C234.263 326.872 234.129 325.5 234.391 324.175C234.654 322.851 235.304 321.633 236.256 320.677C237.209 319.722 238.425 319.073 239.746 318.809C241.069 318.544 242.441 318.681 243.686 319.197C244.932 319.714 245.995 320.589 246.745 321.713C247.494 322.837 247.894 324.156 247.894 325.508C247.894 327.319 247.177 329.056 245.897 330.337C244.62 331.617 242.885 332.338 241.077 332.338ZM241.077 320.98C240.178 320.98 239.3 321.248 238.553 321.749C237.805 322.248 237.221 322.959 236.877 323.792C236.534 324.623 236.444 325.538 236.62 326.422C236.795 327.305 237.227 328.116 237.863 328.753C238.499 329.39 239.308 329.825 240.19 330.001C241.071 330.175 241.985 330.085 242.817 329.741C243.646 329.396 244.356 328.813 244.856 328.064C245.355 327.315 245.621 326.434 245.621 325.534C245.621 324.327 245.144 323.169 244.29 322.314C243.438 321.461 242.283 320.98 241.077 320.98Z" fill="black"/>
<path d="M210.776 330.478C209.426 330.478 208.109 330.077 206.987 329.328C205.868 328.577 204.994 327.509 204.477 326.262C203.961 325.014 203.827 323.642 204.089 322.316C204.353 320.992 205.002 319.774 205.956 318.819C206.909 317.863 208.123 317.212 209.446 316.95C210.768 316.686 212.139 316.822 213.384 317.339C214.63 317.855 215.695 318.731 216.443 319.854C217.193 320.978 217.592 322.298 217.592 323.648C217.592 325.46 216.875 327.197 215.595 328.479C214.318 329.759 212.583 330.478 210.776 330.478ZM210.776 319.117C209.876 319.117 208.998 319.386 208.251 319.884C207.503 320.385 206.921 321.096 206.578 321.929C206.234 322.76 206.144 323.676 206.318 324.559C206.494 325.442 206.925 326.254 207.561 326.89C208.197 327.527 209.006 327.962 209.888 328.136C210.77 328.313 211.685 328.222 212.515 327.878C213.344 327.533 214.054 326.951 214.554 326.201C215.054 325.452 215.32 324.571 215.32 323.672C215.316 322.466 214.836 321.312 213.984 320.461C213.133 319.61 211.979 319.133 210.776 319.133V319.117Z" fill="black"/>
<path d="M271.381 330.478C270.034 330.478 268.717 330.077 267.595 329.328C266.474 328.577 265.6 327.509 265.084 326.262C264.568 325.014 264.433 323.642 264.696 322.316C264.958 320.992 265.608 319.774 266.562 318.819C267.515 317.863 268.731 317.212 270.052 316.95C271.375 316.686 272.745 316.822 273.99 317.339C275.237 317.855 276.301 318.731 277.051 319.854C277.8 320.978 278.198 322.298 278.198 323.648C278.198 325.46 277.48 327.197 276.203 328.479C274.924 329.759 273.19 330.478 271.381 330.478ZM271.381 319.117C270.484 319.117 269.604 319.386 268.856 319.884C268.111 320.385 267.527 321.096 267.183 321.929C266.839 322.76 266.749 323.676 266.925 324.559C267.099 325.442 267.533 326.254 268.169 326.89C268.804 327.527 269.614 327.962 270.496 328.136C271.377 328.313 272.291 328.222 273.12 327.878C273.952 327.533 274.662 326.951 275.162 326.201C275.659 325.452 275.927 324.571 275.927 323.672C275.923 322.466 275.441 321.312 274.59 320.461C273.738 319.61 272.585 319.133 271.381 319.133V319.117Z" fill="black"/>
<path d="M304.448 35.5119C330.999 41.7007 354.526 69.1802 340.897 133.508C333.928 166.386 301.713 268.993 240.706 274.324C159.497 281.423 159.773 239.845 159.769 222.72C159.769 194.952 174.483 193.229 197.536 163.256C220.587 133.284 219.727 15.7732 304.448 35.5119Z" fill="white"/>
<path d="M223.394 276.255C199.915 276.255 182.689 271.322 172.017 261.526C158.637 249.238 158.637 232.107 158.633 222.902V222.724C158.633 203.496 165.598 196.37 177.145 184.563C182.515 179.069 189.2 172.235 196.634 162.554C203.035 154.237 207.541 139.067 212.765 121.502C219.366 99.2969 226.844 74.1321 240.388 56.1273C256.206 35.0983 277.245 27.9877 304.706 34.3851C315.367 36.8705 329.928 43.7118 338.764 62.1947C347.222 79.8921 348.311 103.956 342.006 133.724C337.84 153.372 327.505 186.387 312.064 214.774C302.797 231.811 292.647 245.509 281.892 255.511C269.014 267.479 255.195 274.184 240.804 275.44C234.668 275.983 228.865 276.255 223.394 276.255ZM286.414 34.423C241.02 34.423 226.7 82.6126 214.942 122.162C209.64 139.943 205.094 155.303 198.433 163.958C190.919 173.737 184.192 180.635 178.767 186.163C167.249 197.926 160.902 204.433 160.906 222.73V222.908C160.906 232.396 160.906 248.245 173.551 259.852C186.197 271.458 208.773 275.975 240.608 273.193C266.456 270.918 289.841 250.917 310.069 213.701C325.392 185.53 335.651 152.769 339.783 133.257C345.982 103.994 344.953 80.4194 336.715 63.1887C328.271 45.518 314.371 38.9839 304.19 36.6275C298.369 35.2175 292.403 34.4804 286.414 34.4306V34.423Z" fill="black"/>
<path d="M330.076 75.0348C330.076 75.0348 339.389 33.5727 305.459 20.7209C271.529 7.86917 256.006 54.1122 256.006 54.1122C256.006 54.1122 225.629 67.6243 221.543 77.6114C217.456 87.5984 227.166 133.705 227.166 133.705C227.166 133.705 214.832 163.56 190.847 180.533C177.057 190.287 89.6341 216.417 89.6341 216.417C89.6341 216.417 63.559 205.918 61.514 204.888C59.469 203.861 38.9801 176.81 36.4275 177.322C33.8749 177.835 41.067 216.671 42.0857 217.695C43.1044 218.72 58.7001 225.638 58.7001 225.638L52.5686 226.662C52.5686 226.662 18.5709 212.828 17.0332 215.391C15.4957 217.957 40.5556 246.887 44.1307 248.431C47.7059 249.975 87.8427 242.026 87.8427 242.026C87.8427 242.026 162.742 294.009 237.641 256.627C301.497 224.753 310.625 155.887 310.625 155.887C310.625 155.887 339.685 142.747 346.426 126.863C353.459 110.278 330.076 75.0348 330.076 75.0348ZM242.755 91.6849C242.755 91.6849 239.176 86.8205 241.475 80.9278C243.774 75.0348 248.636 73.7562 248.636 73.7562L242.755 91.6849ZM328.133 113.712C326.853 118.834 318.419 120.879 318.419 120.879L324.321 100.647C324.321 100.647 329.414 108.589 328.133 113.712Z" fill="#8800FF"/>
<path d="M272.773 57.444C271.919 57.4418 271.069 57.314 270.254 57.0647C268.361 56.5031 267.057 55.3989 266.368 53.7899C264.746 49.9955 267.341 44.8122 267.455 44.596C267.519 44.458 267.611 44.3345 267.725 44.2325C267.837 44.1306 267.969 44.0525 268.113 44.003C268.257 43.9533 268.409 43.9331 268.561 43.9435C268.713 43.9539 268.861 43.9948 268.996 44.0637C269.132 44.1326 269.252 44.2281 269.352 44.3445C269.45 44.4609 269.524 44.5958 269.568 44.7415C269.614 44.8869 269.63 45.0401 269.614 45.1917C269.6 45.3433 269.554 45.4905 269.48 45.6243C268.857 46.8613 267.459 50.5761 268.455 52.8982C268.875 53.8658 269.674 54.5184 270.906 54.8827C276.587 56.5828 280.399 50.0447 280.437 49.9764C280.589 49.7144 280.837 49.523 281.129 49.4443C281.421 49.3657 281.73 49.4062 281.992 49.5572C282.254 49.7082 282.444 49.957 282.524 50.2492C282.602 50.5412 282.562 50.8527 282.41 51.1149C281.033 53.5205 277.464 57.444 272.773 57.444Z" fill="black"/>
<path d="M295.794 65.4694C294.942 65.4654 294.095 65.3376 293.279 65.0899C291.386 64.5245 290.081 63.4241 289.391 61.8153C287.774 58.0209 290.368 52.8376 290.476 52.6174C290.544 52.4843 290.638 52.3655 290.752 52.2683C290.864 52.1712 290.996 52.0973 291.138 52.0508C291.28 52.0046 291.43 51.9867 291.578 51.9983C291.728 52.01 291.872 52.0508 292.006 52.1185C292.138 52.1862 292.258 52.2796 292.353 52.3933C292.451 52.5069 292.525 52.6385 292.571 52.7807C292.617 52.9229 292.635 53.0727 292.623 53.2219C292.611 53.3709 292.571 53.5163 292.503 53.6495C291.882 54.8827 290.484 58.5825 291.482 60.9198C291.898 61.8912 292.701 62.54 293.927 62.9081C299.608 64.5966 303.308 58.2712 303.464 57.998C303.614 57.7364 303.862 57.5454 304.154 57.4671C304.446 57.3889 304.756 57.4296 305.016 57.5806C305.277 57.7316 305.467 57.9804 305.545 58.272C305.625 58.5638 305.583 58.8747 305.433 59.1365C304.054 61.5534 300.492 65.4694 295.794 65.4694Z" fill="black"/>
<path d="M289.655 83.698C288.415 83.7116 287.186 83.4795 286.034 83.015C285.007 82.5956 284.077 81.9693 283.302 81.1749C282.526 80.3806 281.92 79.4352 281.525 78.3971C281.431 78.1103 281.453 77.7976 281.588 77.5281C281.724 77.2583 281.962 77.0536 282.248 76.959C282.534 76.8645 282.846 76.8877 283.116 77.0235C283.384 77.1595 283.59 77.3969 283.684 77.6837C283.975 78.4165 284.411 79.0821 284.969 79.6399C285.525 80.1977 286.19 80.6361 286.922 80.928C289.459 81.9524 293.025 81.3416 297.241 79.1674C303.494 75.9422 305.921 71.8821 305.951 71.8402C306.109 71.5925 306.355 71.4152 306.641 71.3453C306.925 71.2754 307.226 71.3185 307.478 71.4655C307.732 71.6123 307.92 71.8519 308.002 72.1339C308.084 72.4159 308.054 72.7185 307.918 72.9787C307.808 73.1684 305.179 77.6344 298.291 81.1899C295.064 82.8594 292.174 83.698 289.655 83.698Z" fill="black"/>
<path d="M243.334 89.5678C243.334 89.5678 246.857 104.347 263.823 110.764C288.663 120.159 320.984 112.065 320.984 112.065L318.615 120.204C318.615 120.204 282.396 129.205 260.44 118.967C245.481 111.993 240.706 99.1869 240.706 99.1869L243.334 89.5678Z" fill="white"/>
<path d="M287.61 125.035C278.168 125.035 268.151 123.82 259.965 119.999C244.758 112.911 239.846 100.124 239.646 99.5851C239.562 99.3602 239.55 99.1145 239.614 98.8831L242.243 89.2642C242.311 89.0209 242.457 88.8066 242.659 88.6553C242.861 88.5039 243.107 88.4242 243.358 88.4286C243.61 88.4328 243.854 88.5211 244.05 88.6792C244.246 88.8374 244.386 89.0565 244.444 89.3023C244.49 89.4996 248.094 103.596 264.229 109.701C288.439 118.857 320.392 111.044 320.71 110.961C320.904 110.912 321.108 110.916 321.3 110.971C321.492 111.026 321.668 111.131 321.806 111.276C321.944 111.42 322.042 111.598 322.09 111.793C322.138 111.988 322.134 112.192 322.078 112.384L319.711 120.523C319.655 120.714 319.551 120.887 319.409 121.024C319.265 121.162 319.089 121.26 318.897 121.309C317.95 121.544 303.612 125.035 287.61 125.035ZM241.903 99.1109C242.767 101.111 247.898 111.864 260.918 117.935C280.695 127.16 312.804 120.367 317.726 119.248L319.367 113.61C310.477 115.479 301.421 116.44 292.338 116.478C283.058 116.478 272.777 115.363 263.437 111.83C251.087 107.159 245.637 98.2875 243.492 93.3509L241.903 99.1109Z" fill="black"/>
<path d="M260.376 108.237L270.016 111.69L267.577 125.152L252.874 118.971L260.376 108.237Z" fill="white"/>
<path d="M267.575 126.291C267.425 126.291 267.275 126.26 267.137 126.2L252.434 120.018C252.278 119.953 252.138 119.853 252.026 119.726C251.914 119.599 251.83 119.449 251.784 119.286C251.736 119.123 251.726 118.952 251.754 118.784C251.78 118.617 251.846 118.458 251.942 118.319L259.445 107.584C259.587 107.379 259.793 107.227 260.031 107.151C260.269 107.075 260.524 107.079 260.758 107.163L270.398 110.616C270.656 110.703 270.874 110.879 271.011 111.113C271.151 111.347 271.201 111.623 271.155 111.891L268.717 125.354C268.669 125.619 268.529 125.86 268.321 126.031C268.111 126.203 267.849 126.295 267.579 126.291H267.575ZM254.613 118.467L266.713 123.551L268.727 112.437L260.808 109.599L254.613 118.467Z" fill="black"/>
<path d="M255.013 119.863C255.013 119.863 223.054 148.792 223.172 191.222C223.172 191.222 234.994 205.868 248.652 232.146C248.652 232.146 253.907 201.345 270.03 185.192C270.03 185.192 252.358 147.392 264.526 123.862L255.013 119.863Z" fill="white"/>
<path d="M248.632 233.283C248.424 233.283 248.22 233.225 248.042 233.117C247.864 233.009 247.72 232.853 247.624 232.668C234.185 206.817 222.39 192.084 222.274 191.939C222.11 191.737 222.02 191.485 222.02 191.224C221.958 169.032 230.73 150.587 238.077 139.021C246.031 126.499 253.908 119.32 254.237 119.02C254.397 118.876 254.595 118.779 254.807 118.743C255.021 118.707 255.239 118.732 255.439 118.816L264.952 122.811C265.096 122.872 265.226 122.963 265.336 123.077C265.444 123.191 265.526 123.327 265.58 123.475C265.634 123.623 265.656 123.78 265.644 123.937C265.634 124.094 265.592 124.246 265.52 124.386C253.754 147.153 270.872 184.338 271.045 184.717C271.143 184.929 271.175 185.166 271.135 185.396C271.095 185.626 270.986 185.839 270.822 186.005C255.143 201.71 249.805 232.039 249.753 232.342C249.713 232.576 249.602 232.792 249.432 232.961C249.262 233.129 249.046 233.239 248.81 233.275C248.752 233.281 248.692 233.285 248.632 233.283ZM224.291 190.828C226.015 193.027 236.306 206.494 248.152 228.771C249.939 220.523 255.727 198.347 268.667 184.949C265.694 178.055 263.329 170.915 261.6 163.609C258.991 152.454 257.172 136.752 262.963 124.443L255.245 121.199C249.446 126.968 244.318 133.377 239.96 140.304C232.821 151.535 224.337 169.389 224.291 190.828Z" fill="black"/>
<path d="M255.553 117.184C255.277 117.186 255.013 117.088 254.803 116.909C254.595 116.731 254.459 116.482 254.419 116.21C254.379 115.939 254.439 115.662 254.587 115.43C254.737 115.199 254.963 115.03 255.227 114.953L269.69 110.601C269.834 110.55 269.988 110.53 270.14 110.541C270.292 110.551 270.442 110.593 270.578 110.663C270.714 110.732 270.836 110.829 270.934 110.947C271.032 111.065 271.105 111.201 271.149 111.348C271.193 111.495 271.207 111.649 271.191 111.801C271.173 111.954 271.125 112.101 271.051 112.235C270.976 112.369 270.876 112.486 270.754 112.579C270.632 112.672 270.494 112.74 270.344 112.779L255.881 117.135C255.775 117.166 255.663 117.183 255.553 117.184Z" fill="black"/>
<path d="M259.179 122.765C258.915 122.761 258.661 122.664 258.459 122.492C258.259 122.319 258.124 122.082 258.08 121.82C258.034 121.559 258.082 121.29 258.213 121.06C258.345 120.83 258.553 120.654 258.801 120.561L268.481 116.926C268.623 116.863 268.777 116.83 268.93 116.829C269.084 116.828 269.238 116.858 269.38 116.918C269.524 116.978 269.652 117.067 269.76 117.179C269.866 117.291 269.95 117.423 270.004 117.568C270.058 117.713 270.082 117.868 270.074 118.023C270.068 118.178 270.028 118.329 269.96 118.468C269.892 118.608 269.796 118.731 269.678 118.832C269.562 118.933 269.424 119.009 269.276 119.054L259.597 122.693C259.463 122.743 259.323 122.768 259.179 122.765Z" fill="black"/>
<path d="M241.081 137.671C240.816 137.676 240.558 137.588 240.35 137.423C240.144 137.258 240 137.026 239.946 136.766C239.892 136.506 239.93 136.236 240.054 136.001C240.176 135.767 240.378 135.583 240.622 135.481L262.328 125.995C262.603 125.874 262.915 125.868 263.197 125.979C263.477 126.089 263.703 126.306 263.823 126.583C263.943 126.86 263.949 127.173 263.839 127.454C263.729 127.735 263.513 127.961 263.235 128.082L241.527 137.568C241.387 137.632 241.235 137.667 241.081 137.671Z" fill="black"/>
<path d="M227.826 164.072C227.612 164.072 227.402 164.01 227.222 163.896C227.04 163.781 226.896 163.618 226.802 163.424C226.71 163.231 226.674 163.015 226.7 162.802C226.724 162.589 226.808 162.387 226.942 162.22C236.184 150.753 258.873 141.047 259.835 140.641C259.973 140.576 260.123 140.54 260.277 140.534C260.428 140.528 260.58 140.553 260.724 140.608C260.866 140.663 260.998 140.746 261.108 140.852C261.218 140.959 261.304 141.086 261.364 141.227C261.424 141.368 261.454 141.52 261.454 141.673C261.454 141.826 261.424 141.978 261.364 142.119C261.304 142.259 261.216 142.387 261.104 142.493C260.994 142.599 260.864 142.682 260.72 142.736C260.49 142.834 237.593 152.632 228.711 163.651C228.605 163.783 228.469 163.889 228.315 163.962C228.164 164.035 227.996 164.073 227.826 164.072Z" fill="black"/>
<path d="M223.202 190.065C222.998 190.065 222.798 190.009 222.622 189.906C222.448 189.802 222.304 189.652 222.206 189.474C222.108 189.296 222.06 189.093 222.066 188.889C222.072 188.685 222.134 188.486 222.242 188.316C233.753 170.212 260.36 159.06 261.49 158.593C261.628 158.536 261.776 158.507 261.926 158.508C262.074 158.508 262.222 158.538 262.36 158.596C262.497 158.653 262.621 158.738 262.727 158.844C262.833 158.95 262.915 159.075 262.973 159.213C263.029 159.352 263.059 159.5 263.057 159.65C263.057 159.799 263.027 159.947 262.969 160.085C262.913 160.223 262.829 160.348 262.723 160.453C262.617 160.559 262.491 160.642 262.354 160.699C262.084 160.809 235.278 172.049 224.159 189.538C224.057 189.698 223.915 189.832 223.748 189.924C223.58 190.017 223.392 190.065 223.202 190.065Z" fill="black"/>
<path d="M235.7 210.574C235.524 210.574 235.35 210.532 235.192 210.454C235.034 210.376 234.898 210.262 234.79 210.122C234.684 209.981 234.613 209.817 234.581 209.645C234.549 209.473 234.557 209.292 234.605 209.124C238.077 196.955 246.413 188.314 252.784 183.209C259.677 177.691 265.678 175.069 265.932 174.959C266.07 174.895 266.22 174.861 266.37 174.855C266.522 174.851 266.674 174.875 266.815 174.931C266.955 174.985 267.085 175.067 267.195 175.171C267.303 175.277 267.391 175.403 267.451 175.544C267.511 175.682 267.543 175.832 267.543 175.984C267.545 176.137 267.515 176.287 267.457 176.427C267.399 176.567 267.315 176.695 267.207 176.802C267.099 176.91 266.971 176.994 266.829 177.05C266.596 177.152 243.107 187.557 236.778 209.749C236.712 209.985 236.57 210.192 236.376 210.34C236.18 210.488 235.944 210.57 235.7 210.574Z" fill="black"/>
<path d="M228.194 133.929C228.012 133.929 227.832 133.884 227.67 133.8C227.406 133.662 227.208 133.425 227.116 133.141C227.026 132.857 227.048 132.549 227.182 132.282C233.741 119.525 239.554 99.0958 239.612 98.8909C239.694 98.6001 239.888 98.3537 240.15 98.2061C240.414 98.0585 240.724 98.0217 241.016 98.1036C241.305 98.1857 241.551 98.3798 241.697 98.6436C241.845 98.9071 241.883 99.2186 241.801 99.5094C241.739 99.7181 235.87 120.379 229.201 133.326C229.103 133.509 228.957 133.662 228.781 133.768C228.603 133.874 228.399 133.93 228.194 133.929Z" fill="black"/>
<path d="M293.215 166.809C292.961 166.807 292.715 166.723 292.517 166.567C292.318 166.408 292.176 166.19 292.116 165.944C292.054 165.697 292.078 165.437 292.18 165.206C292.284 164.974 292.461 164.783 292.685 164.664C296.775 162.517 308.566 155.755 308.686 155.687C308.948 155.536 309.258 155.495 309.549 155.574C309.841 155.652 310.089 155.844 310.241 156.106C310.391 156.368 310.431 156.679 310.353 156.972C310.275 157.264 310.083 157.513 309.821 157.664C309.701 157.732 297.873 164.513 293.749 166.679C293.585 166.765 293.401 166.809 293.215 166.809Z" fill="black"/>
<path d="M88.9486 242.446C88.6716 242.446 88.4045 242.344 88.1976 242.16C87.9905 241.976 87.8577 241.721 87.8242 241.447C87.7908 241.171 87.8587 240.892 88.0157 240.664C88.1724 240.435 88.4073 240.271 88.676 240.205C90.0317 239.867 122.053 231.967 133.365 231.967C133.666 231.967 133.955 232.087 134.168 232.3C134.381 232.514 134.501 232.802 134.501 233.105C134.501 233.407 134.381 233.696 134.168 233.91C133.955 234.122 133.666 234.243 133.365 234.243C122.344 234.243 89.5659 242.332 89.2363 242.412C89.1423 242.436 89.0456 242.448 88.9486 242.446Z" fill="black"/>
<path d="M324.512 100.769C324.434 100.769 324.359 100.761 324.283 100.746C324.135 100.716 323.997 100.657 323.873 100.573C323.749 100.489 323.643 100.381 323.561 100.256C323.479 100.131 323.423 99.9909 323.395 99.8439C323.367 99.6969 323.369 99.5459 323.399 99.3993L328.281 75.847C328.311 75.7006 328.371 75.5614 328.455 75.4378C328.539 75.314 328.647 75.2081 328.77 75.126C328.896 75.0439 329.034 74.9872 329.182 74.9593C329.328 74.9313 329.48 74.9325 329.626 74.9629C329.772 74.9934 329.91 75.0523 330.034 75.1364C330.158 75.2205 330.264 75.3283 330.346 75.4533C330.428 75.5784 330.484 75.7184 330.512 75.8654C330.54 76.0125 330.538 76.1635 330.508 76.3099L325.622 99.8621C325.57 100.118 325.43 100.348 325.228 100.513C325.026 100.678 324.774 100.768 324.512 100.769Z" fill="black"/>
<path d="M248.916 74.0372C248.736 74.0372 248.56 73.9945 248.4 73.9126C248.24 73.8307 248.1 73.7119 247.996 73.5661C247.89 73.4201 247.82 73.2513 247.792 73.0732C247.766 72.8952 247.78 72.7133 247.836 72.5422C251.223 62.2251 254.313 55.1826 254.343 55.1143C254.467 54.8409 254.693 54.6276 254.973 54.5204C255.253 54.4132 255.563 54.4211 255.837 54.542C256.11 54.663 256.326 54.8873 256.436 55.1665C256.546 55.4455 256.54 55.7568 256.422 56.0326C256.392 56.1045 253.344 63.0523 249.985 73.2517C249.911 73.4782 249.767 73.6757 249.578 73.8167C249.386 73.9575 249.154 74.0346 248.916 74.0372Z" fill="black"/>
<path d="M19.298 234.243C19.0523 234.243 18.813 234.162 18.6163 234.016C18.3021 233.776 10.9207 228.124 10.1557 219.149C10.1431 218.999 10.1599 218.848 10.2052 218.706C10.2506 218.564 10.3236 218.43 10.4201 218.316C10.5167 218.201 10.6348 218.107 10.7678 218.037C10.9009 217.969 11.0461 217.927 11.1954 217.913C11.3445 217.901 11.4948 217.917 11.6374 217.963C11.7801 218.009 11.9124 218.081 12.027 218.179C12.1415 218.275 12.2357 218.394 12.3047 218.528C12.3734 218.66 12.4154 218.806 12.428 218.954C13.1059 226.924 19.9191 232.142 20.0025 232.194C20.1932 232.338 20.3341 232.538 20.4053 232.766C20.4764 232.993 20.474 233.239 20.3987 233.465C20.3233 233.692 20.1786 233.888 19.9851 234.028C19.7916 234.168 19.5593 234.243 19.3208 234.243H19.298Z" fill="black"/>
<path d="M7.83035 232.041C7.55168 232.043 7.28201 231.943 7.0729 231.757C2.30473 227.557 0.60053 220.523 0.528563 220.226C0.461395 219.932 0.513768 219.621 0.674293 219.365C0.834818 219.109 1.0903 218.928 1.38456 218.86C1.67883 218.792 1.98788 218.844 2.24356 219.007C2.49924 219.167 2.68056 219.423 2.74792 219.718C2.74792 219.786 4.36497 226.351 8.5802 230.069C8.75372 230.223 8.87626 230.425 8.93183 230.649C8.98721 230.876 8.97281 231.112 8.89045 231.328C8.80809 231.545 8.66176 231.731 8.47105 231.861C8.28014 231.993 8.05404 232.061 7.82275 232.061L7.83035 232.041Z" fill="black"/>
<path d="M182.357 111.185L66.9563 111.185L66.9563 1.13866L182.357 1.13867L182.357 111.185Z" fill="white"/>
<path d="M182.357 1.02075e-05L66.9563 9.95264e-08C66.655 7.31391e-08 66.366 0.11998 66.1529 0.333488C65.9398 0.546997 65.82 0.836426 65.82 1.13846L65.82 111.178C65.82 111.48 65.9398 111.769 66.1529 111.983C66.366 112.196 66.655 112.316 66.9563 112.316L158.262 112.316C158.563 112.316 158.852 112.196 159.065 111.983C159.279 111.769 159.398 111.48 159.398 111.178C159.398 110.876 159.279 110.586 159.065 110.373C158.852 110.159 158.563 110.039 158.262 110.039L68.0923 110.039L68.0924 2.2767L181.219 2.27671L181.219 110.039L172.957 110.039C172.655 110.039 172.366 110.159 172.153 110.373C171.94 110.586 171.82 110.876 171.82 111.178C171.82 111.48 171.94 111.769 172.153 111.983C172.366 112.196 172.655 112.316 172.957 112.316L182.357 112.316C182.657 112.316 182.947 112.196 183.161 111.983C183.372 111.769 183.492 111.48 183.492 111.178L183.492 1.13847C183.492 0.836436 183.372 0.547007 183.161 0.333499C182.947 0.11999 182.657 1.02338e-05 182.357 1.02075e-05Z" fill="black"/>
<path d="M74.1156 9.39871L74.1156 100.322C74.1156 100.624 74.2353 100.913 74.4484 101.127C74.6615 101.34 74.9504 101.46 75.2518 101.46L151.9 101.46C152.201 101.46 152.491 101.34 152.704 101.127C152.917 100.913 153.036 100.624 153.036 100.322C153.036 100.02 152.917 99.7302 152.704 99.5167C152.491 99.3032 152.201 99.1835 151.9 99.1835L76.3879 99.1835L76.3879 9.39871C76.3879 9.09687 76.2682 8.80725 76.0551 8.59394C75.8422 8.38044 75.5531 8.26046 75.2518 8.26046C74.9504 8.26046 74.6615 8.38044 74.4484 8.59394C74.2353 8.80725 74.1156 9.09687 74.1156 9.39871Z" fill="black"/>
<path d="M82.5672 90.092L76.3259 90.092C76.0246 90.092 75.7356 90.212 75.5225 90.4255C75.3094 90.639 75.1898 90.9284 75.1898 91.2305C75.1898 91.5323 75.3094 91.8219 75.5225 92.0354C75.7356 92.2487 76.0246 92.3687 76.3259 92.3687L82.5672 92.3687C82.8686 92.3687 83.1575 92.2487 83.3706 92.0354C83.5837 91.8219 83.7034 91.5323 83.7034 91.2305C83.7034 90.9284 83.5837 90.639 83.3706 90.4255C83.1575 90.212 82.8686 90.092 82.5672 90.092Z" fill="black"/>
<path d="M82.5672 69.3627L76.3259 69.3627C76.0246 69.3627 75.7356 69.4826 75.5225 69.6961C75.3094 69.9097 75.1898 70.1991 75.1898 70.5011C75.1898 70.8029 75.3094 71.0926 75.5225 71.3061C75.7356 71.5194 76.0246 71.6393 76.3259 71.6393L82.5672 71.6393C82.8686 71.6393 83.1575 71.5194 83.3706 71.3061C83.5837 71.0926 83.7034 70.8029 83.7034 70.5011C83.7034 70.1991 83.5837 69.9097 83.3706 69.6961C83.1575 69.4826 82.8686 69.3627 82.5672 69.3627Z" fill="black"/>
<path d="M82.5672 48.6299L76.326 48.6299C76.0247 48.6299 75.7356 48.7497 75.5225 48.9632C75.3094 49.1767 75.1899 49.4663 75.1899 49.7681C75.1899 50.07 75.3094 50.3596 75.5225 50.5731C75.7356 50.7866 76.0247 50.9066 76.326 50.9066L82.5672 50.9066C82.8687 50.9066 83.1576 50.7866 83.3707 50.5731C83.5838 50.3596 83.7035 50.07 83.7035 49.7681C83.7035 49.4663 83.5838 49.1767 83.3707 48.9632C83.1576 48.7497 82.8687 48.6299 82.5672 48.6299Z" fill="black"/>
<path d="M82.5672 27.9007L76.326 27.9007C76.0247 27.9007 75.7356 28.0207 75.5225 28.2342C75.3094 28.4477 75.1899 28.7374 75.1899 29.0392C75.1899 29.341 75.3094 29.6306 75.5225 29.8441C75.7356 30.0577 76.0247 30.1774 76.326 30.1774L82.5672 30.1774C82.8687 30.1774 83.1576 30.0577 83.3707 29.8441C83.5838 29.6306 83.7035 29.341 83.7035 29.0392C83.7035 28.7374 83.5838 28.4477 83.3707 28.2342C83.1576 28.0207 82.8687 27.9007 82.5672 27.9007Z" fill="black"/>
<path d="M94.6484 14.6277C94.4551 14.6277 94.2647 14.6772 94.0958 14.7716C93.9267 14.8659 93.7846 15.0019 93.6826 15.1665L89.8954 21.2794L81.787 14.8705C81.6706 14.7714 81.5355 14.6966 81.3896 14.651C81.2438 14.6053 81.0901 14.5895 80.9382 14.6047C80.7861 14.6199 80.6385 14.6656 80.5046 14.7393C80.3704 14.8128 80.2527 14.9128 80.1581 15.0331C80.0636 15.1533 79.9942 15.2915 79.9542 15.4393C79.914 15.5871 79.9043 15.7416 79.9253 15.8932C79.946 16.0448 79.9972 16.1908 80.0758 16.3222C80.1543 16.4536 80.2585 16.5677 80.382 16.6579L89.4714 23.8673C89.5969 23.9668 89.7419 24.0385 89.8972 24.078C90.0523 24.1175 90.214 24.1235 90.3718 24.0958C90.5293 24.0684 90.6794 24.0077 90.8122 23.918C90.9447 23.8282 91.057 23.7113 91.1414 23.5751L94.1712 18.6992L96.6972 29.3238C96.7452 29.5243 96.8465 29.7079 96.9905 29.8554C97.1344 30.0028 97.3155 30.1081 97.5146 30.1604C97.7137 30.2127 97.9232 30.2097 98.1209 30.1518C98.3185 30.0941 98.4966 29.9835 98.6363 29.8321L103.651 24.4061L114.44 46.1369C114.542 46.3426 114.703 46.5124 114.903 46.6246C115.103 46.7365 115.332 46.7856 115.56 46.7652C115.788 46.7446 116.005 46.6556 116.181 46.5096C116.358 46.3636 116.486 46.1677 116.55 45.9472L121.519 28.7432L134.418 90.5929C134.475 90.8559 134.622 91.0901 134.835 91.2543C135.048 91.4183 135.312 91.5016 135.58 91.4894C135.848 91.4772 136.104 91.3701 136.301 91.1872C136.498 91.0043 136.624 90.7576 136.656 90.4904L139.94 61.8384L179.674 141.268C179.81 141.538 180.046 141.744 180.332 141.839C180.618 141.935 180.93 141.913 181.199 141.778C181.469 141.644 181.673 141.407 181.769 141.12C181.865 140.834 181.843 140.521 181.709 140.251L140.262 57.3914C140.152 57.1726 139.974 56.9952 139.756 56.8852C139.538 56.7755 139.289 56.7392 139.049 56.7817C138.808 56.8243 138.588 56.9437 138.42 57.1218C138.252 57.3 138.146 57.5275 138.118 57.7707L135.202 83.2165L122.814 23.78C122.762 23.5304 122.629 23.3055 122.434 23.1411C122.24 22.9766 121.996 22.8823 121.742 22.8731C121.488 22.8632 121.238 22.939 121.032 23.0882C120.826 23.2376 120.676 23.4517 120.606 23.6965L115.175 42.4904L104.95 21.894C104.868 21.729 104.747 21.5864 104.598 21.4783C104.449 21.3703 104.275 21.3002 104.093 21.2742C103.911 21.2479 103.725 21.2665 103.552 21.3282C103.378 21.3901 103.223 21.4931 103.098 21.6285L98.4166 26.698L95.7656 15.4966C95.7135 15.2789 95.5983 15.0814 95.4346 14.9288C95.2709 14.7764 95.066 14.6754 94.8453 14.6392C94.7803 14.6289 94.7143 14.6251 94.6484 14.6277Z" fill="black"/>
<path d="M183.293 124.352C183.019 124.349 182.755 124.443 182.547 124.619C182.337 124.794 182.199 125.039 182.155 125.308L179.842 139.727L166.476 130.332C166.356 130.228 166.216 130.151 166.064 130.104C165.912 130.058 165.753 130.044 165.595 130.063C165.438 130.083 165.286 130.135 165.15 130.216C165.014 130.298 164.896 130.407 164.805 130.537C164.713 130.667 164.65 130.815 164.619 130.971C164.588 131.127 164.59 131.288 164.625 131.443C164.659 131.598 164.726 131.744 164.821 131.872C164.915 131.999 165.036 132.106 165.174 132.184L180.028 142.623C180.186 142.733 180.368 142.801 180.56 142.821C180.752 142.841 180.946 142.811 181.124 142.735C181.301 142.66 181.455 142.54 181.573 142.387C181.693 142.235 181.769 142.055 181.799 141.864L184.402 125.665C184.426 125.517 184.42 125.366 184.386 125.221C184.35 125.075 184.288 124.938 184.2 124.816C184.112 124.695 184.002 124.592 183.874 124.514C183.746 124.436 183.606 124.383 183.458 124.36C183.402 124.353 183.346 124.35 183.293 124.352Z" fill="black"/>
</svg>
