<svg width="401" height="400" viewBox="0 0 401 400" fill="none" xmlns="http://www.w3.org/2000/svg">
<path d="M316.356 114.408C316.356 114.408 325.176 154.361 303.552 169.656C296.614 174.566 288.806 174.144 281.39 171.31C293.7 201.144 292.684 232.212 283.12 253.908C266.476 291.664 218.16 306.686 222.22 326.58C226.282 346.474 240.23 368.114 284.746 352.158C296.888 347.814 261.196 383.014 252.668 381.8C244.14 380.584 186.09 345.666 169.033 344.852C169.033 344.852 153.606 357.438 137.773 360.284C121.939 363.128 100.013 361.904 97.98 365.152C95.9476 368.4 110.972 378.188 111.379 381.82C111.785 385.45 78.8986 381.392 71.9962 358.658V357.036C73.6182 351.758 110.566 355.002 129.24 326.174C129.24 326.174 109.757 303.856 129.24 277.046C148.724 250.238 185.692 266.9 197.452 228.332C209.212 189.762 160.238 204.566 149.135 211.298C137.709 218.232 122.525 232.77 104.584 231.54C100.176 231.236 97.8088 229 95.8878 226.148C94.3416 223.844 93.409 221.222 94.493 220.356C95.8838 219.248 96.9718 221.286 98.6696 223.146C100.594 225.254 102.77 225.462 102.986 225.202C103.201 224.944 100.654 223.47 98.3428 220.202C96.4338 217.5 95.1028 215.112 96.3222 213.746C97.737 212.15 99.2314 214.94 101.455 217.032C103.846 219.32 107.194 219.424 107.473 219.212C108.007 218.814 104.918 217.686 102.93 215.398C100.941 213.112 99.897 210.386 101.128 209.338C102.065 208.54 104.62 210.198 107.473 212.15C109.745 213.706 113.012 214.506 116.145 214.272C135.007 212.86 149.378 170.079 164.367 168.755C164.367 168.755 103.763 152.886 122.737 114.245C131.843 95.6936 170.277 72.9976 230.18 111.36C239.244 117.134 247.618 123.927 255.138 131.605C261.516 135.65 276.172 143.593 290.452 141.867C305.432 140.05 303.452 121.745 303.452 121.745C303.452 121.745 291.656 116.062 300.264 105.976C300.264 105.976 295.186 90.5766 298.39 88.9746C301.476 87.4322 304.258 99.2526 304.258 99.2526C304.258 99.2526 308.358 96.7298 311.51 100.305C311.51 100.305 317.202 96.4588 319.286 105.976C320.988 113.643 316.356 114.408 316.356 114.408Z" fill="#8800FF"/>
<path d="M185.218 111.802C182.5 118.087 175.553 121.128 169.703 118.597C168.463 118.063 167.334 117.301 166.375 116.349C162.992 113.002 161.896 107.554 164.024 102.632C166.415 97.0526 172.142 94.0518 177.49 95.1874C178.194 95.3374 178.882 95.5564 179.543 95.841C185.397 98.3796 187.94 105.529 185.218 111.802Z" fill="#FBF6FF"/>
<path d="M174.019 120.701C172.374 120.7 170.746 120.362 169.237 119.709C167.676 119.028 166.274 118.029 165.12 116.777C163.966 115.525 163.085 114.047 162.533 112.436C161.358 109.089 161.501 105.42 162.932 102.174C165.909 95.2952 173.572 91.9636 180.025 94.7532C181.585 95.4342 182.986 96.432 184.14 97.6834C185.294 98.9348 186.175 100.412 186.728 102.022C187.903 105.371 187.76 109.041 186.329 112.288C184.941 115.556 182.362 118.175 179.116 119.613C177.51 120.324 175.775 120.695 174.019 120.701ZM175.238 96.156C171.078 96.156 166.989 98.7942 165.12 103.122C163.927 105.813 163.803 108.856 164.773 111.635C165.21 112.939 165.917 114.136 166.847 115.149C167.778 116.162 168.911 116.968 170.173 117.513C171.436 118.059 172.799 118.333 174.174 118.317C175.55 118.302 176.906 117.996 178.156 117.421C180.849 116.228 182.986 114.053 184.133 111.34C185.325 108.648 185.449 105.603 184.48 102.823C184.037 101.523 183.328 100.33 182.398 99.3182C181.468 98.307 180.338 97.5002 179.08 96.949C177.868 96.4236 176.56 96.1536 175.238 96.156Z" fill="black"/>
<path d="M177.49 95.1994L166.375 116.361C162.992 113.013 161.896 107.566 164.024 102.644C166.427 97.0844 172.142 94.0636 177.49 95.1994Z" fill="#8800FF"/>
<path d="M166.375 117.557C166.06 117.556 165.758 117.432 165.534 117.21C161.72 113.436 160.672 107.39 162.928 102.17C165.514 96.1918 171.743 92.7564 177.737 94.0318C177.917 94.0718 178.085 94.1526 178.228 94.268C178.371 94.3836 178.485 94.5304 178.563 94.6974C178.64 94.8644 178.677 95.0468 178.672 95.2308C178.667 95.4146 178.62 95.5948 178.534 95.7574L167.419 116.915C167.334 117.078 167.213 117.22 167.064 117.328C166.916 117.437 166.744 117.509 166.563 117.541C166.501 117.552 166.438 117.557 166.375 117.557ZM175.211 96.156C171.002 96.156 166.965 98.854 165.12 103.118C163.49 106.892 163.924 111.164 166.136 114.245L175.633 96.1638L175.211 96.156Z" fill="black"/>
<path d="M176.549 133.562C173.361 140.939 165.199 144.513 158.329 141.532C156.874 140.904 155.549 140.009 154.423 138.894C150.438 134.961 149.167 128.568 151.661 122.79C154.483 116.258 161.198 112.711 167.475 114.046C168.295 114.223 169.096 114.479 169.866 114.811C176.761 117.78 179.742 126.181 176.549 133.562Z" fill="#FBF6FF"/>
<path d="M163.398 143.788C161.491 143.788 159.605 143.397 157.855 142.64C150.386 139.408 147.114 130.286 150.562 122.315C152.168 118.529 155.152 115.494 158.911 113.822C160.706 113.004 162.652 112.572 164.625 112.553C166.597 112.534 168.551 112.929 170.362 113.713C172.172 114.496 173.798 115.65 175.134 117.101C176.47 118.552 177.487 120.267 178.12 122.136C179.45 126.022 179.283 130.265 177.653 134.036C176.023 137.806 173.047 140.834 169.304 142.528C167.444 143.353 165.433 143.782 163.398 143.788ZM164.813 114.962C163.11 114.97 161.427 115.331 159.871 116.022C156.666 117.449 154.123 120.04 152.757 123.271C149.832 130.046 152.546 137.738 158.803 140.444C160.313 141.089 161.941 141.412 163.583 141.394C165.225 141.375 166.845 141.015 168.34 140.336C171.545 138.91 174.088 136.319 175.454 133.087C176.87 129.877 177.013 126.248 175.852 122.937C175.322 121.382 174.474 119.955 173.363 118.747C172.251 117.538 170.9 116.573 169.396 115.915C167.949 115.288 166.39 114.964 164.813 114.962Z" fill="black"/>
<path d="M167.475 114.054L154.423 138.902C150.438 134.968 149.167 128.576 151.661 122.797C154.483 116.266 161.198 112.719 167.475 114.054Z" fill="#8800FF"/>
<path d="M154.423 140.097C154.108 140.097 153.806 139.973 153.583 139.751C149.163 135.367 147.951 128.373 150.566 122.323C153.567 115.377 160.78 111.408 167.722 112.882C167.902 112.922 168.07 113.003 168.213 113.118C168.356 113.234 168.47 113.381 168.548 113.548C168.625 113.715 168.662 113.897 168.657 114.081C168.652 114.265 168.605 114.445 168.519 114.608L155.468 139.456C155.384 139.623 155.263 139.767 155.113 139.879C154.964 139.99 154.79 140.065 154.607 140.097C154.546 140.101 154.484 140.101 154.423 140.097ZM164.785 114.966C159.764 114.966 154.945 118.183 152.75 123.272C150.757 127.879 151.351 133.115 154.16 136.822L165.626 114.99C165.367 114.99 165.076 114.966 164.797 114.966H164.785Z" fill="black"/>
<path d="M173.112 126.224C174.279 126.224 175.224 125.279 175.224 124.112C175.224 122.946 174.279 122 173.112 122C171.946 122 171 122.946 171 124.112C171 125.279 171.946 126.224 173.112 126.224Z" fill="black"/>
<path d="M172.612 110.224C173.779 110.224 174.724 109.279 174.724 108.112C174.724 106.946 173.779 106 172.612 106C171.446 106 170.5 106.946 170.5 108.112C170.5 109.279 171.446 110.224 172.612 110.224Z" fill="black"/>
<path d="M141.89 128.429C141.615 128.428 141.349 128.333 141.137 128.159C140.924 127.986 140.778 127.745 140.722 127.476C138.753 118.007 145.134 114.703 149.354 112.519C150.761 111.79 152.092 111.101 152.59 110.435C153.351 109.423 153.347 107.797 153.347 106.079C153.347 103.258 153.347 99.7426 156.934 97.6026C157.069 97.522 157.218 97.4686 157.373 97.4458C157.529 97.4228 157.687 97.4308 157.839 97.4692C157.992 97.5074 158.135 97.5754 158.261 97.669C158.387 97.7626 158.493 97.8802 158.574 98.015C158.655 98.1498 158.708 98.299 158.731 98.4544C158.754 98.6098 158.746 98.7682 158.707 98.9204C158.669 99.0726 158.601 99.216 158.507 99.342C158.414 99.468 158.296 99.5744 158.161 99.655C155.746 101.102 155.75 103.405 155.77 106.075C155.77 108.112 155.77 110.216 154.535 111.87C153.71 112.97 152.215 113.747 150.486 114.659C146.238 116.823 141.455 119.298 143.049 126.99C143.114 127.3 143.053 127.623 142.88 127.889C142.707 128.154 142.435 128.339 142.125 128.405C142.047 128.42 141.969 128.428 141.89 128.429Z" fill="black"/>
<path d="M186.309 125.352C186.309 125.352 185.648 135.251 179.108 142.592C172.568 149.933 159.648 150.583 159.648 150.583C159.648 150.583 177.554 163.16 186.955 152.543C198.066 139.99 186.309 125.352 186.309 125.352Z" fill="#FBF6FF"/>
<path d="M177.02 158.031C168.32 158.031 159.485 151.93 158.959 151.559C158.755 151.416 158.601 151.213 158.519 150.978C158.436 150.744 158.429 150.489 158.497 150.25C158.566 150.011 158.708 149.799 158.903 149.645C159.098 149.49 159.336 149.4 159.584 149.387C159.708 149.387 172.098 148.662 178.215 141.791C184.408 134.841 185.11 125.364 185.118 125.268C185.135 125.029 185.223 124.8 185.372 124.611C185.521 124.422 185.724 124.283 185.953 124.211C186.182 124.139 186.428 124.138 186.658 124.208C186.888 124.278 187.091 124.416 187.242 124.603C189.345 127.401 190.937 130.548 191.945 133.9C194.097 141.158 192.678 147.877 187.848 153.332C184.763 156.836 180.909 158.031 177.02 158.031ZM163.235 151.36C168.491 154.253 179.63 159.008 186.058 151.758C193.857 142.951 189.713 133.095 187.043 128.588C186.321 132.227 184.496 138.348 180.001 143.393C175.33 148.646 167.69 150.627 163.235 151.36Z" fill="black"/>
<path d="M166.917 155.676C166.6 155.695 166.288 155.587 166.051 155.376C165.813 155.165 165.669 154.869 165.65 154.552C165.631 154.235 165.739 153.923 165.949 153.685C166.16 153.448 166.457 153.304 166.774 153.285C166.873 153.285 176.713 151.985 182.539 145.581C188.916 138.579 188.82 132.075 188.82 132.011C188.81 131.694 188.926 131.386 189.144 131.155C189.361 130.923 189.661 130.788 189.978 130.778C190.295 130.768 190.603 130.884 190.834 131.101C191.066 131.318 191.201 131.618 191.211 131.935C191.211 132.238 191.371 139.424 184.309 147.187C177.873 154.265 167.503 155.604 167.065 155.656C167.016 155.666 166.967 155.673 166.917 155.676Z" fill="black"/>
<path d="M195.655 175.825C195.443 175.826 195.234 175.77 195.051 175.664C194.867 175.557 194.715 175.404 194.611 175.22C189.43 166.105 167.36 170.33 167.136 170.373C166.982 170.404 166.824 170.404 166.67 170.373C166.516 170.342 166.369 170.281 166.239 170.193C166.108 170.106 165.996 169.993 165.909 169.862C165.822 169.732 165.762 169.585 165.732 169.431C165.701 169.277 165.701 169.118 165.732 168.964C165.763 168.81 165.824 168.664 165.912 168.533C165.999 168.403 166.112 168.291 166.242 168.204C166.373 168.117 166.52 168.056 166.674 168.026C167.65 167.835 190.685 163.439 196.691 174.04C196.794 174.221 196.848 174.427 196.847 174.636C196.846 174.844 196.79 175.049 196.685 175.23C196.58 175.41 196.43 175.56 196.249 175.665C196.069 175.769 195.864 175.825 195.655 175.825Z" fill="black"/>
<path d="M281.55 172.593C281.302 172.593 281.06 172.516 280.858 172.374C280.656 172.231 280.504 172.029 280.422 171.796C272.53 149.534 255.712 135.008 255.542 134.864C255.422 134.763 255.324 134.638 255.252 134.499C255.18 134.359 255.138 134.206 255.124 134.05C255.112 133.893 255.13 133.736 255.178 133.586C255.226 133.437 255.304 133.298 255.406 133.179C255.508 133.059 255.632 132.961 255.772 132.889C255.912 132.818 256.064 132.774 256.22 132.762C256.378 132.749 256.534 132.768 256.684 132.816C256.834 132.864 256.972 132.941 257.092 133.043C257.268 133.191 274.564 148.108 282.678 170.995C282.73 171.143 282.752 171.3 282.744 171.457C282.736 171.614 282.696 171.767 282.628 171.909C282.562 172.051 282.466 172.178 282.35 172.283C282.232 172.388 282.096 172.469 281.948 172.521C281.82 172.568 281.686 172.593 281.55 172.593Z" fill="black"/>
<path d="M169.101 345.892H169.065C145.987 345.254 131.149 329.468 130.528 328.796C130.313 328.562 130.199 328.254 130.212 327.936C130.224 327.62 130.362 327.32 130.596 327.106C130.829 326.89 131.138 326.776 131.454 326.79C131.771 326.802 132.07 326.94 132.285 327.174C132.429 327.332 147.087 342.896 169.133 343.512C169.45 343.518 169.753 343.648 169.974 343.874C170.195 344.102 170.317 344.408 170.313 344.724C170.308 345.042 170.178 345.344 169.951 345.566C169.724 345.786 169.418 345.908 169.101 345.904V345.892Z" fill="black"/>
<path d="M92.4246 206.536C110.856 206.536 125.797 191.594 125.797 173.163C125.797 154.732 110.856 139.791 92.4246 139.791C73.9934 139.791 59.052 154.732 59.052 173.163C59.052 191.594 73.9934 206.536 92.4246 206.536Z" fill="#FBF6FF"/>
<path d="M92.3966 207.716C84.5302 207.706 76.9028 205.01 70.7752 200.078C64.6476 195.144 60.3868 188.268 58.697 180.585C57.0074 172.902 57.9898 164.873 61.4822 157.824C64.9746 150.775 70.7676 145.129 77.9038 141.819C85.04 138.509 93.0922 137.733 100.729 139.619C108.366 141.506 115.131 145.942 119.905 152.194C124.679 158.447 127.176 166.141 126.985 174.005C126.793 181.869 123.924 189.433 118.851 195.445C115.604 199.297 111.554 202.392 106.984 204.512C102.413 206.632 97.4346 207.726 92.3966 207.716ZM92.4486 141.002C87.0412 140.998 81.7202 142.357 76.977 144.954C72.234 147.55 68.222 151.301 65.3118 155.858C62.4014 160.415 60.687 165.633 60.3268 171.028C59.9666 176.423 60.972 181.822 63.2506 186.726C65.529 191.63 69.0068 195.88 73.3626 199.085C77.7184 202.288 82.8116 204.344 88.1714 205.058C93.5312 205.772 98.9848 205.126 104.028 203.174C109.071 201.224 113.542 198.034 117.026 193.899C120.977 189.213 123.508 183.496 124.319 177.421C125.131 171.345 124.189 165.165 121.605 159.606C119.022 154.048 114.903 149.344 109.736 146.048C104.568 142.752 98.566 141.001 92.4366 141.002H92.4486Z" fill="black"/>
<path d="M89.4717 190.144C89.3983 190.143 89.3249 190.137 89.2525 190.124C86.2847 189.573 83.5135 188.252 81.2157 186.294C78.9181 184.336 77.1743 181.81 76.1587 178.967C75.1429 176.124 74.8911 173.065 75.4279 170.094C75.9647 167.124 77.2717 164.346 79.2181 162.039C81.1645 159.731 83.6823 157.975 86.5199 156.945C89.3577 155.915 92.4157 155.648 95.3889 156.17C98.3623 156.692 101.146 157.986 103.463 159.921C105.78 161.856 107.549 164.365 108.593 167.197C108.651 167.345 108.679 167.504 108.676 167.663C108.672 167.822 108.636 167.979 108.571 168.124C108.506 168.27 108.412 168.4 108.296 168.509C108.179 168.618 108.042 168.702 107.893 168.757C107.743 168.812 107.584 168.836 107.425 168.829C107.266 168.822 107.11 168.783 106.966 168.714C106.823 168.646 106.694 168.549 106.588 168.43C106.482 168.312 106.401 168.173 106.349 168.022C105.447 165.586 103.921 163.429 101.924 161.767C99.9279 160.104 97.5303 158.995 94.9711 158.548C92.4117 158.102 89.7801 158.334 87.3387 159.222C84.8973 160.111 82.7313 161.623 81.0571 163.61C79.3831 165.597 78.2591 167.988 77.7973 170.544C77.3357 173.101 77.5525 175.734 78.4261 178.18C79.2999 180.627 80.7997 182.802 82.7763 184.488C84.7529 186.174 87.1371 187.312 89.6909 187.789C89.9843 187.843 90.2469 188.005 90.4269 188.243C90.6069 188.481 90.6915 188.778 90.6641 189.075C90.6367 189.372 90.4991 189.648 90.2785 189.849C90.0579 190.049 89.7701 190.161 89.4717 190.16V190.144Z" fill="black"/>
<path d="M293.382 85.101C311.812 85.101 326.754 70.1596 326.754 51.7284C326.754 33.2972 311.812 18.3558 293.382 18.3558C274.95 18.3558 260.008 33.2972 260.008 51.7284C260.008 70.1596 274.95 85.101 293.382 85.101Z" fill="#FBF6FF"/>
<path d="M293.358 86.2964C285.46 86.2868 277.804 83.5716 271.664 78.603C265.526 73.6346 261.274 66.7126 259.618 58.9902C257.964 51.268 259.004 43.2116 262.566 36.163C266.128 29.1146 272 23.4996 279.198 20.2532C286.398 17.0071 294.494 16.3257 302.134 18.3226C309.776 20.3196 316.502 24.8742 321.194 31.2278C325.884 37.5816 328.256 45.3508 327.916 53.241C327.574 61.1314 324.54 68.6668 319.318 74.5918C316.076 78.2812 312.082 81.2344 307.604 83.2532C303.126 85.272 298.268 86.3096 293.358 86.2964ZM293.426 19.5673C292.732 19.5673 292.042 19.5673 291.344 19.631C286.062 19.9627 280.942 21.5926 276.44 24.3764C271.938 27.16 268.192 31.0116 265.534 35.5894C262.876 40.1672 261.388 45.33 261.204 50.6202C261.018 55.9104 262.142 61.1646 264.474 65.9168C266.804 70.6692 270.272 74.773 274.57 77.8644C278.866 80.9558 283.86 82.9392 289.106 83.6392C294.354 84.3392 299.692 83.7338 304.65 81.8768C309.606 80.0198 314.028 76.9686 317.524 72.9936C321.612 68.351 324.276 62.6282 325.196 56.5108C326.114 50.3934 325.252 44.1406 322.708 38.5012C320.166 32.8618 316.05 28.0752 310.858 24.7142C305.664 21.3534 299.612 19.5608 293.426 19.5513V19.5673Z" fill="black"/>
<path d="M290.106 68.6378C290.024 68.6376 289.942 68.6296 289.862 68.6138C286.91 67.996 284.172 66.6148 281.92 64.6078C279.668 62.6008 277.982 60.0386 277.028 57.1764C276.076 54.3142 275.892 51.2524 276.492 48.2964C277.094 45.3404 278.458 42.5936 280.452 40.3302C282.446 38.0666 284.998 36.3656 287.856 35.3968C290.712 34.428 293.772 34.2254 296.732 34.8088C299.692 35.3924 302.446 36.742 304.722 38.7226C306.996 40.7034 308.712 43.2462 309.698 46.097C309.75 46.2454 309.772 46.4026 309.764 46.5598C309.756 46.7168 309.716 46.8708 309.648 47.0128C309.58 47.1546 309.484 47.2818 309.368 47.387C309.25 47.492 309.114 47.573 308.966 47.6254C308.818 47.6778 308.66 47.7004 308.504 47.692C308.346 47.6834 308.192 47.6442 308.05 47.5764C307.908 47.5084 307.782 47.4132 307.676 47.2962C307.57 47.1792 307.49 47.0424 307.438 46.8942C306.596 44.4664 305.14 42.2974 303.214 40.5974C301.506 39.0934 299.476 38.0014 297.282 37.4054C295.086 36.8096 292.782 36.7256 290.55 37.16C288.316 37.5946 286.214 38.536 284.402 39.9116C282.59 41.2874 281.118 43.0606 280.1 45.0948C279.082 47.1292 278.544 49.37 278.528 51.6448C278.512 53.9198 279.018 56.1678 280.008 58.216C281 60.264 282.446 62.0576 284.238 63.4582C286.032 64.8588 288.122 65.829 290.348 66.2944C290.636 66.3574 290.89 66.5236 291.062 66.7616C291.234 66.9994 291.312 67.2924 291.282 67.5844C291.252 67.8766 291.116 68.1474 290.898 68.3452C290.682 68.5432 290.4 68.6544 290.106 68.6576V68.6378Z" fill="black"/>
<path d="M302.304 343.31C320.736 343.31 335.676 328.368 335.676 309.938C335.676 291.506 320.736 276.564 302.304 276.564C283.874 276.564 268.932 291.506 268.932 309.938C268.932 328.368 283.874 343.31 302.304 343.31Z" fill="#FBF6FF"/>
<path d="M302.232 344.514C293.278 344.51 284.672 341.042 278.216 334.834C271.762 328.628 267.958 320.164 267.602 311.216C267.248 302.268 270.368 293.53 276.312 286.832C282.254 280.132 290.558 275.994 299.486 275.28C308.412 274.566 317.268 277.334 324.2 283.004C331.132 288.674 335.6 296.806 336.67 305.696C337.74 314.588 335.33 323.548 329.942 330.7C324.556 337.854 316.608 342.646 307.768 344.07C305.938 344.364 304.086 344.512 302.232 344.514ZM302.348 277.776C294.688 277.774 287.278 280.508 281.452 285.484C275.628 290.46 271.772 297.352 270.576 304.92C269.38 312.486 270.926 320.232 274.934 326.76C278.94 333.29 285.148 338.174 292.436 340.534C299.724 342.894 307.614 342.576 314.688 339.634C321.762 336.694 327.554 331.324 331.022 324.492C334.488 317.662 335.404 309.816 333.602 302.37C331.8 294.926 327.398 288.368 321.19 283.878C315.708 279.912 309.114 277.776 302.348 277.776Z" fill="black"/>
<path d="M300.526 327.094H300.392C297.394 326.76 294.536 325.646 292.104 323.862C289.672 322.08 287.75 319.69 286.53 316.932C285.308 314.174 284.832 311.144 285.148 308.144C285.466 305.144 286.562 302.28 288.33 299.838C290.1 297.394 292.478 295.458 295.228 294.22C297.978 292.984 301.006 292.49 304.008 292.788C307.008 293.086 309.878 294.166 312.332 295.92C314.786 297.674 316.736 300.04 317.99 302.784C318.062 302.928 318.102 303.084 318.112 303.244C318.122 303.404 318.098 303.564 318.044 303.716C317.99 303.866 317.906 304.004 317.798 304.122C317.69 304.24 317.558 304.336 317.412 304.402C317.266 304.468 317.11 304.504 316.948 304.508C316.788 304.512 316.63 304.484 316.48 304.426C316.332 304.366 316.196 304.278 316.08 304.166C315.966 304.054 315.876 303.92 315.814 303.772C314.734 301.408 313.054 299.368 310.94 297.858C308.826 296.346 306.352 295.416 303.766 295.158C301.18 294.902 298.572 295.328 296.202 296.394C293.832 297.462 291.784 299.13 290.262 301.236C288.738 303.342 287.794 305.81 287.524 308.394C287.252 310.98 287.664 313.59 288.718 315.966C289.772 318.342 291.43 320.4 293.526 321.934C295.624 323.468 298.088 324.426 300.67 324.71C300.988 324.728 301.284 324.87 301.498 325.106C301.71 325.342 301.82 325.652 301.802 325.97C301.786 326.288 301.644 326.584 301.406 326.796C301.17 327.008 300.86 327.118 300.542 327.102L300.526 327.094Z" fill="black"/>
<path d="M54.8796 161.068C54.7952 161.068 54.711 161.059 54.6286 161.04C54.319 160.973 54.0486 160.786 53.8768 160.52C53.705 160.254 53.6456 159.931 53.712 159.621C56.8204 145.015 65.3728 140.221 65.7354 140.022C66.014 139.87 66.3414 139.835 66.6454 139.925C66.9496 140.014 67.2058 140.221 67.3574 140.5C67.5092 140.778 67.544 141.106 67.4542 141.41C67.3646 141.714 67.1578 141.97 66.8792 142.122C66.7636 142.186 58.9086 146.693 56.0472 160.119C55.9906 160.387 55.8438 160.628 55.6314 160.8C55.4188 160.973 55.1534 161.067 54.8796 161.068Z" fill="black"/>
<path d="M45.3191 168.309C45.0081 168.309 44.7093 168.188 44.4861 167.972C44.2629 167.755 44.1327 167.46 44.1235 167.149C43.4101 143.676 59.2675 132.749 59.9251 132.298C60.0559 132.211 60.2027 132.15 60.3571 132.119C60.5115 132.088 60.6705 132.088 60.8251 132.118C60.9795 132.149 61.1265 132.209 61.2575 132.297C61.3887 132.384 61.5011 132.496 61.5889 132.627C61.6765 132.758 61.7375 132.905 61.7685 133.059C61.7993 133.214 61.7995 133.373 61.7691 133.527C61.7385 133.682 61.6779 133.829 61.5905 133.96C61.5033 134.091 61.3909 134.203 61.2601 134.291C61.0369 134.442 45.8451 145.027 46.5147 167.086C46.5193 167.243 46.4931 167.399 46.4375 167.546C46.3817 167.693 46.2977 167.827 46.1899 167.942C46.0823 168.056 45.9531 168.148 45.8097 168.212C45.6665 168.277 45.5119 168.312 45.3549 168.317L45.3191 168.309Z" fill="black"/>
<path d="M336.334 49.592H336.18C335.864 49.5514 335.58 49.3874 335.386 49.1362C335.192 48.8852 335.106 48.5674 335.146 48.253C335.888 42.0318 334.232 35.7618 330.516 30.7178C330.31 30.4748 330.208 30.1596 330.234 29.8416C330.26 29.5236 330.41 29.2288 330.654 29.0222C330.896 28.8154 331.212 28.7138 331.53 28.7396C331.848 28.7654 332.142 28.9166 332.35 29.1596C336.528 34.705 338.384 41.6576 337.53 48.548C337.494 48.838 337.35 49.1046 337.13 49.297C336.91 49.4894 336.628 49.5944 336.334 49.592Z" fill="black"/>
<path d="M343.34 52.7562C343.204 52.7552 343.07 52.731 342.942 52.6846C342.644 52.5782 342.4 52.3576 342.264 52.0714C342.128 51.7852 342.11 51.4568 342.216 51.1582C348.052 34.7508 335.804 21.3922 335.676 21.2688C335.46 21.0372 335.344 20.729 335.354 20.4118C335.364 20.0944 335.5 19.7942 335.73 19.577C335.962 19.3598 336.27 19.2434 336.588 19.2535C336.906 19.2636 337.206 19.3993 337.422 19.6308C339.874 22.4352 341.872 25.6042 343.348 29.024C346.7 36.6518 347.09 44.5666 344.468 51.9592C344.386 52.1924 344.234 52.3944 344.032 52.537C343.83 52.6798 343.588 52.7564 343.34 52.7562Z" fill="black"/>
<path d="M343.584 296.32C343.298 296.324 343.02 296.224 342.8 296.04C342.582 295.858 342.434 295.602 342.388 295.32C340.1 281.602 329.7 274.536 329.596 274.468C329.344 274.288 329.17 274.018 329.114 273.712C329.058 273.408 329.122 273.094 329.292 272.836C329.464 272.576 329.728 272.394 330.032 272.328C330.334 272.26 330.65 272.314 330.914 272.476C331.376 272.778 342.284 280.148 344.748 294.928C344.774 295.084 344.768 295.242 344.732 295.394C344.696 295.548 344.632 295.692 344.54 295.82C344.448 295.948 344.332 296.056 344.2 296.14C344.066 296.222 343.918 296.278 343.764 296.304C343.704 296.314 343.644 296.32 343.584 296.32Z" fill="black"/>
<path d="M355.464 306.422H355.352C355.196 306.408 355.044 306.362 354.904 306.29C354.766 306.216 354.642 306.116 354.542 305.994C354.442 305.874 354.366 305.734 354.32 305.584C354.274 305.434 354.258 305.276 354.272 305.12C356.264 283.686 340.048 267.92 339.882 267.766C339.682 267.542 339.574 267.252 339.578 266.952C339.582 266.654 339.698 266.366 339.904 266.15C340.108 265.932 340.388 265.798 340.686 265.776C340.984 265.756 341.28 265.846 341.516 266.032C342.22 266.706 358.752 282.734 356.66 305.342C356.63 305.638 356.492 305.914 356.27 306.114C356.05 306.314 355.762 306.424 355.464 306.422Z" fill="black"/>
<path d="M305.986 114.52C305.764 114.52 305.546 114.458 305.358 114.341C305.168 114.223 305.016 114.056 304.918 113.857C304.818 113.657 304.776 113.435 304.798 113.213C304.818 112.992 304.9 112.781 305.034 112.603C307.186 109.75 308.956 105.888 308.056 104.908C308.028 104.872 307.98 104.824 307.808 104.816C306.72 104.78 304.492 106.41 303.328 107.498C303.098 107.716 302.79 107.834 302.474 107.826C302.156 107.817 301.856 107.683 301.636 107.452C301.418 107.222 301.3 106.914 301.31 106.597C301.318 106.28 301.452 105.979 301.682 105.761C302.284 105.191 305.408 102.341 307.892 102.429C308.254 102.434 308.612 102.514 308.944 102.661C309.276 102.809 309.574 103.023 309.82 103.29C312.554 106.275 307.904 112.775 306.944 114.05C306.832 114.197 306.686 114.316 306.52 114.398C306.354 114.479 306.172 114.521 305.986 114.52Z" fill="black"/>
<path d="M312.244 114.536C309.992 114.536 308.366 112.324 307.744 108.379C307.72 108.224 307.726 108.065 307.764 107.913C307.8 107.76 307.866 107.616 307.96 107.489C308.052 107.362 308.168 107.255 308.302 107.173C308.436 107.091 308.586 107.036 308.74 107.012C308.896 106.988 309.054 106.994 309.206 107.031C309.36 107.068 309.504 107.135 309.63 107.227C309.758 107.32 309.864 107.436 309.946 107.57C310.028 107.704 310.084 107.853 310.108 108.008C310.358 109.602 311.116 112.284 312.382 112.137C313.132 111.499 312.51 106.478 311.084 101.815C310.99 101.512 311.022 101.184 311.17 100.904C311.32 100.623 311.574 100.414 311.876 100.321C312.18 100.228 312.508 100.259 312.788 100.408C313.068 100.556 313.278 100.81 313.372 101.114C314.048 103.334 316.126 110.774 314.4 113.412C314.212 113.716 313.956 113.973 313.654 114.164C313.352 114.354 313.01 114.473 312.654 114.512C312.518 114.528 312.38 114.536 312.244 114.536Z" fill="black"/>
<path d="M315.966 114.365C315.854 114.371 315.742 114.371 315.632 114.365C314.036 114.193 312.942 112.874 312.842 112.723C312.644 112.475 312.552 112.158 312.586 111.843C312.622 111.528 312.78 111.239 313.028 111.041C313.276 110.843 313.594 110.751 313.908 110.786C314.224 110.821 314.512 110.98 314.71 111.228C314.928 111.483 315.192 111.695 315.488 111.854C315.66 111.962 315.866 112.009 316.068 111.985C316.27 111.962 316.46 111.871 316.604 111.726C316.724 111.627 316.864 111.552 317.016 111.506C317.166 111.461 317.324 111.445 317.48 111.46C317.636 111.476 317.788 111.522 317.926 111.596C318.064 111.67 318.188 111.77 318.288 111.892C318.386 112.013 318.462 112.153 318.508 112.303C318.554 112.454 318.568 112.612 318.554 112.768C318.538 112.924 318.492 113.076 318.418 113.215C318.344 113.353 318.244 113.476 318.122 113.576C317.518 114.085 316.756 114.364 315.966 114.365Z" fill="black"/>
<path d="M306.446 104.816C306.22 104.816 306 104.753 305.81 104.634C305.62 104.515 305.468 104.345 305.37 104.143L303.846 101.042C303.77 100.9 303.72 100.744 303.706 100.583C303.69 100.422 303.708 100.259 303.756 100.105C303.806 99.9506 303.886 99.808 303.992 99.6856C304.098 99.5632 304.228 99.4638 304.372 99.393C304.518 99.3222 304.676 99.2818 304.838 99.274C305 99.2662 305.162 99.2914 305.314 99.348C305.466 99.4046 305.604 99.4914 305.72 99.603C305.838 99.7148 305.932 99.8492 305.994 99.998L307.502 103.094C307.638 103.379 307.658 103.706 307.556 104.005C307.452 104.304 307.234 104.549 306.952 104.689C306.794 104.769 306.622 104.812 306.446 104.816Z" fill="black"/>
</svg>
