<svg width="129" height="128" viewBox="0 0 129 128" fill="none" xmlns="http://www.w3.org/2000/svg">
<rect width="129" height="128" fill="#F5F5F5"/>
<g clip-path="url(#clip0_0_1)">
<rect width="1450" height="7556" transform="translate(-270 -5500)" fill="white"/>
<rect width="1310" height="1957" transform="translate(-200 -1769)" fill="#FBF6FF"/>
<rect width="16" height="300" transform="translate(56.5 -299)" fill="white"/>
<circle cx="64.5" cy="64" r="63.5" fill="white" stroke="#FBF6FF"/>
<path d="M75.1932 61.7497C72.683 64.9952 58.6786 72.6772 48.0245 76.3684C45.4043 77.276 42.9878 77.9425 40.9938 78.2447H40.9849C39.3394 78.492 37.9832 78.4891 37.039 78.166C36.3224 77.9143 35.6605 77.5276 35.0888 77.0277C30.103 72.7486 29.8332 59.971 39.1732 53.7649C44.5413 50.1978 48.4747 50.422 51.5908 51.1742C48.5141 47.3096 49.0001 42.6954 49.0001 41.5948C49.0001 40.1101 49.201 37.4854 49.804 37.4452C50.4071 37.405 50.0077 39.3132 50.3401 39.3462C50.6349 39.3748 50.7117 37.1674 51.388 37.2853C51.9374 37.3809 51.2719 39.4552 51.6015 39.4883C51.7802 39.5061 52.3483 37.6185 52.9103 37.899C53.4722 38.1795 52.2768 40.0565 52.7316 40.4307C52.9102 40.5791 53.7473 39.9502 53.9072 40.5719C53.9769 40.8399 53.0523 41.434 52.611 41.7949C52.1697 42.1558 51.9293 44.5643 55.2589 48.0537C57.1876 50.0754 59.0761 50.6972 60.3242 50.8624C62.8845 48.3074 63.4178 43.4834 64.3353 39.4008C65.485 34.2836 69.3488 32.9454 71.5554 33.0017C84.9072 33.3447 78.8306 57.0471 75.1932 61.7497Z" fill="#8800FF"/>
<path d="M83.9093 71.8866L83.9006 71.8366L82.3469 72.9253L71.7249 58.4469L77.562 53.8979L83.6708 70.4724C84.1177 71.2191 84.9912 70.3883 85.1477 70.8761C85.2487 71.1924 83.9093 71.8866 83.9093 71.8866Z" fill="#8800FF"/>
<path d="M59.3111 69.5396C59.3111 69.5396 65.7833 79.942 66.2847 80.4385C66.8672 81.021 71.7249 82.7209 71.7249 83.2908C71.7249 83.8611 64.5622 83.7377 64.5622 83.7377C64.2451 83.232 52.7816 73.9732 52.7816 73.9732L59.3111 69.5396Z" fill="#8800FF"/>
<path d="M24.7689 90.7128L58.3731 60.3667L58.8216 70.6207L88.0583 45.873L78.7533 42.2684L101.63 37.019L98.2042 57.8305L92.6483 50.1004L52.3537 85.9727L52.7816 73.9767L26.702 98.4136L24.7689 90.7128Z" fill="#FBF6FF"/>
<path d="M26.702 98.6818C26.6763 98.6818 26.6506 98.6779 26.6261 98.6701C26.5815 98.657 26.541 98.6322 26.5087 98.5987C26.4765 98.5652 26.4535 98.5239 26.4421 98.4787L24.5088 90.7789C24.4963 90.7313 24.4971 90.6808 24.5113 90.6337C24.5255 90.5865 24.5525 90.5438 24.5892 90.5112L58.1935 60.1684C58.2312 60.1346 58.2778 60.1121 58.3278 60.1036C58.3777 60.0952 58.4291 60.101 58.4758 60.1206C58.5226 60.1401 58.5629 60.1725 58.5919 60.2141C58.6211 60.2556 58.6378 60.3045 58.6402 60.3551L59.0645 70.0624L87.5399 45.9596L78.6566 42.5185C78.6032 42.4977 78.558 42.4604 78.5269 42.412C78.4963 42.3636 78.4822 42.3066 78.4861 42.2495C78.4905 42.1923 78.5128 42.1379 78.5498 42.0944C78.5872 42.0508 78.6372 42.0204 78.6931 42.0075L101.57 36.7572C101.613 36.7474 101.657 36.7483 101.7 36.7598C101.742 36.7713 101.781 36.7931 101.813 36.8232C101.845 36.8533 101.87 36.8908 101.884 36.9324C101.898 36.9741 101.901 37.0185 101.895 37.0619L98.4685 57.8769C98.4598 57.9293 98.4359 57.9779 98.3995 58.0167C98.3636 58.0554 98.3164 58.0825 98.2649 58.0945C98.213 58.1066 98.159 58.103 98.1095 58.0843C98.0599 58.0656 98.0167 58.0326 97.9861 57.9895L92.6046 50.5015L52.5324 86.1728C52.4932 86.2083 52.4445 86.2306 52.3924 86.2384C52.3403 86.2462 52.2871 86.2384 52.2395 86.2161C52.1919 86.1937 52.1518 86.1578 52.1245 86.1126C52.0971 86.0674 52.0836 86.0154 52.0857 85.963L52.4904 74.6175L26.8851 98.6094C26.8355 98.6556 26.7701 98.6818 26.702 98.6818ZM25.0681 90.8042L26.8548 97.9059L52.5984 73.7814C52.6372 73.745 52.6859 73.7207 52.7383 73.7124C52.7907 73.7037 52.8445 73.711 52.8929 73.7328C52.9412 73.7547 52.9819 73.7907 53.0098 73.8358C53.0377 73.881 53.0516 73.9335 53.0496 73.9869L52.644 85.3557L92.4696 49.9002C92.4977 49.8755 92.5308 49.8569 92.5667 49.8455C92.6027 49.8341 92.6406 49.8302 92.6775 49.8341C92.7149 49.8383 92.7508 49.8503 92.7834 49.8692C92.8155 49.8881 92.8436 49.9136 92.8655 49.944L98.0468 57.1498L101.303 37.3692L79.6671 42.3344L88.154 45.6229C88.1972 45.6396 88.2356 45.6673 88.2652 45.7033C88.2944 45.7394 88.3138 45.7824 88.3216 45.8283C88.3294 45.8742 88.325 45.9213 88.3095 45.965C88.2934 46.0087 88.2662 46.0475 88.2308 46.0776L58.994 70.8232C58.9557 70.8558 58.9091 70.8772 58.8594 70.8845C58.8097 70.8918 58.759 70.8849 58.713 70.8645C58.6671 70.8446 58.6276 70.8121 58.5992 70.7708C58.5709 70.729 58.5547 70.6804 58.5526 70.6304L58.1292 60.9456L25.0681 90.8042Z" fill="black"/>
<path d="M48.6927 83.5083C48.6409 84.291 40.2345 85.3846 40.1308 85.0741C40.0558 84.8502 40.6508 80.6225 40.9938 78.242H40.9849C39.3393 78.4893 37.9832 78.4869 37.0389 78.1633C36.3226 77.9126 35.6607 77.5269 35.0888 77.0279L34.7823 68.4668L44.9013 65.8709C46.2797 65.2902 51.4978 63.365 52.0865 67.1663C52.7655 71.5517 43.9419 81.4723 44.0464 81.7331C44.1509 81.994 48.7454 82.7286 48.6927 83.5083Z" fill="#8800FF"/>
<path d="M74.3149 84.7147L83.17 100.845L106.035 88.3803L98.0906 71.6675L74.3149 84.7147Z" fill="#FBF6FF"/>
<path d="M83.17 101.113C83.1219 101.113 83.0748 101.1 83.0335 101.076C82.9917 101.051 82.9582 101.016 82.9349 100.974L74.0798 84.8438C74.0458 84.7816 74.038 84.7082 74.0579 84.6402C74.0779 84.5717 74.124 84.5144 74.1862 84.4804L97.9619 71.4331C97.9939 71.4156 98.0294 71.4044 98.0659 71.401C98.1018 71.3976 98.1387 71.402 98.1732 71.4132C98.2082 71.4243 98.2403 71.4428 98.2675 71.4671C98.2947 71.4909 98.317 71.5205 98.3326 71.5536L106.277 88.2673C106.307 88.329 106.311 88.3995 106.29 88.4646C106.269 88.5297 106.224 88.5846 106.164 88.6171L83.2939 101.082C83.256 101.103 83.2133 101.113 83.17 101.113ZM74.6783 84.8214L83.2759 100.482L105.685 88.2673L97.9701 72.0394L74.6783 84.8214Z" fill="black"/>
<path d="M91.7423 88.6998C91.7233 88.6998 91.7044 88.6978 91.6859 88.6935L74.2585 84.9769C74.2225 84.9711 74.1885 84.9585 74.1574 84.939C74.1268 84.9196 74.1006 84.8938 74.0797 84.8642C74.0593 84.8341 74.0447 84.8001 74.0379 84.7646C74.0306 84.7287 74.0311 84.6922 74.0389 84.6563C74.0461 84.6208 74.0612 84.5873 74.0821 84.5577C74.103 84.528 74.1297 84.5028 74.1608 84.4838C74.1919 84.4649 74.2264 84.4522 74.2623 84.4469C74.2983 84.442 74.3352 84.444 74.3702 84.4537L91.5737 88.1217L97.8393 71.5731C97.852 71.5405 97.8709 71.5104 97.8947 71.4846C97.919 71.4589 97.9482 71.4385 97.9802 71.4239C98.0123 71.4093 98.0468 71.4016 98.0822 71.4006C98.1172 71.3991 98.1522 71.4055 98.1852 71.4176C98.2183 71.4302 98.2484 71.4492 98.2737 71.4735C98.2994 71.4973 98.3203 71.5264 98.3344 71.5585C98.349 71.5906 98.3567 71.625 98.3582 71.6605C98.3592 71.6955 98.3533 71.7305 98.3407 71.7635L91.9954 88.5263C91.9759 88.5774 91.941 88.6216 91.8958 88.6527C91.8506 88.6838 91.7972 88.7003 91.7423 88.6998Z" fill="black"/>
<path d="M90.6273 86.9692C90.5749 86.9692 90.5219 86.9633 90.4704 86.9531C90.2596 86.9079 90.0715 86.7899 89.9394 86.6198C89.645 86.2482 89.6717 85.7318 90.0074 85.4689C90.3436 85.2066 90.8484 85.296 91.1423 85.6676C91.2769 85.8352 91.3488 86.0451 91.3449 86.2603C91.3434 86.3672 91.3187 86.4722 91.272 86.5683C91.2259 86.6645 91.1593 86.7496 91.0767 86.8171C90.9489 86.9177 90.7901 86.9711 90.6273 86.9692ZM90.449 85.8532C90.4082 85.8522 90.3684 85.8654 90.3363 85.8897C90.2382 85.9674 90.2469 86.1491 90.3558 86.2866C90.4097 86.357 90.4864 86.4071 90.5729 86.4275C90.6011 86.4347 90.6302 86.4357 90.6584 86.4304C90.6871 86.4255 90.7138 86.4139 90.7376 86.3973C90.759 86.3784 90.7765 86.3546 90.7881 86.3283C90.7998 86.3021 90.8056 86.2735 90.8051 86.2443C90.8047 86.1554 90.7731 86.0689 90.7157 86.0004C90.6851 85.9591 90.6453 85.9241 90.6001 85.8994C90.5544 85.8741 90.5044 85.859 90.4524 85.8552L90.449 85.8532Z" fill="black"/>
<path d="M82.004 80.4952C82.004 80.4952 80.1137 75.0875 83.7452 72.9907C87.3767 70.8944 90.3383 75.9226 90.3383 75.9226L91.5665 75.2493C91.5665 75.2493 87.7251 68.8966 83.2467 72.0501C78.7684 75.2036 80.7996 81.1578 80.7996 81.1578L82.004 80.4952Z" fill="#FBF6FF"/>
<path d="M80.7996 81.4251C80.7665 81.4251 80.7335 81.4188 80.7024 81.4061C80.666 81.392 80.6329 81.3702 80.6062 81.342C80.579 81.3138 80.5586 81.2798 80.546 81.2429C80.2025 80.1211 80.0441 78.9508 80.0772 77.7785C80.1476 75.2245 81.1902 73.1695 83.0931 71.8296C84.2489 71.0149 85.4693 70.735 86.7198 70.9969C89.6513 71.6115 91.7092 74.9661 91.7962 75.1065C91.8146 75.1376 91.8268 75.1716 91.8316 75.2075C91.837 75.2435 91.8346 75.2799 91.8253 75.3144C91.8156 75.3494 91.7991 75.3819 91.7768 75.4106C91.7544 75.4388 91.7267 75.4626 91.6951 75.4796L90.4675 76.1534C90.4067 76.186 90.3358 76.1942 90.2688 76.1758C90.2022 76.1573 90.1454 76.1136 90.1104 76.0543C89.5964 75.2328 88.9609 74.4943 88.2254 73.8637C86.7397 72.6302 85.2774 72.4131 83.8826 73.2186C80.4882 75.1798 82.2415 80.3519 82.2595 80.4039C82.2804 80.4636 82.2794 80.5292 82.2566 80.5885C82.2337 80.6478 82.191 80.6968 82.1351 80.7274L80.9283 81.3886C80.8895 81.4115 80.8452 81.4241 80.7996 81.4251ZM85.823 71.44C84.9956 71.44 84.1838 71.7169 83.4012 72.2683C81.6216 73.5188 80.6835 75.3751 80.613 77.7766C80.5892 78.7837 80.7068 79.7888 80.9633 80.7629L81.6779 80.3689C81.4064 79.4483 81.2592 78.4946 81.2412 77.5346C81.2159 75.3197 82.0345 73.6689 83.6076 72.7595C85.1987 71.8413 86.9127 72.0851 88.5718 73.4654C89.2854 74.0756 89.9097 74.7834 90.4266 75.5675L91.1806 75.1546C90.6613 74.3908 88.8793 72.0001 86.6047 71.524C86.3477 71.4691 86.0858 71.4409 85.823 71.44Z" fill="black"/>
<path d="M69.9196 39.7892H69.8939C69.8229 39.7824 69.7578 39.7479 69.7126 39.6931C69.6675 39.6383 69.6456 39.5679 69.6524 39.4971C69.7355 38.6297 70.3039 36.9842 71.8644 36.9627C72.3701 36.9547 72.7845 37.1208 73.0891 37.4549C73.7586 38.1875 73.6313 39.4721 73.6255 39.5266C73.6216 39.5618 73.6109 39.5959 73.5939 39.627C73.5774 39.6581 73.5545 39.6856 73.5268 39.7079C73.4992 39.7301 73.4676 39.7468 73.4336 39.7568C73.4 39.7669 73.3641 39.7702 73.3291 39.7665C73.2941 39.7628 73.2596 39.7522 73.2285 39.7353C73.1975 39.7184 73.1702 39.6956 73.1479 39.6681C73.1256 39.6406 73.109 39.609 73.0988 39.575C73.0886 39.5411 73.0857 39.5055 73.0891 39.4703C73.0891 39.4596 73.1955 38.3688 72.6888 37.815C72.4891 37.597 72.2209 37.4951 71.8682 37.4987C70.3991 37.5192 70.1902 39.4641 70.1824 39.5534C70.1747 39.6178 70.1436 39.6773 70.0955 39.7207C70.0469 39.764 69.9847 39.7884 69.9196 39.7892Z" fill="black"/>
<path d="M77.5063 40.5121H77.4766C77.4416 40.5083 77.4076 40.4976 77.3765 40.4807C77.3459 40.4638 77.3182 40.441 77.2964 40.4135C77.2745 40.386 77.258 40.3545 77.2478 40.3207C77.2381 40.2868 77.2352 40.2514 77.2391 40.2164C77.2478 40.136 77.4174 38.3529 76.109 38.0634C75.7962 37.9938 75.5382 38.0366 75.322 38.1939C74.7652 38.5958 74.6569 39.5964 74.6564 39.6062C74.6491 39.6773 74.6142 39.7427 74.5593 39.788C74.5039 39.8333 74.4329 39.8549 74.362 39.8479C74.2906 39.8409 74.2255 39.806 74.1803 39.7507C74.1346 39.6955 74.1133 39.6246 74.1201 39.5535C74.1201 39.5026 74.2517 38.3028 75.0028 37.7606C75.3468 37.5113 75.7568 37.4372 76.2222 37.5399C77.6472 37.8544 77.857 39.466 77.7696 40.2744C77.7623 40.3394 77.7312 40.3994 77.6826 40.4431C77.634 40.4869 77.5714 40.5114 77.5063 40.5121Z" fill="black"/>
<path d="M74.4747 44.1754C74.4747 44.1754 72.9079 45.7835 71.0088 46.4169C69.7321 46.843 68.3062 46.8287 67.1057 45.5878C66.0262 44.472 65.914 43.2553 66.189 42.1743C66.6355 40.4073 68.123 39.0029 68.123 39.0029C68.123 39.0029 68.0259 41.4096 70.1378 42.814C71.4296 43.6604 72.9307 44.1317 74.4747 44.1754Z" fill="black"/>
<path d="M69.582 46.9343C68.5637 46.9343 67.6586 46.5439 66.9133 45.773C65.9057 44.7322 65.5734 43.4985 65.931 42.1102C66.3945 40.2887 67.8782 38.87 67.9409 38.8102C67.9797 38.7735 68.0283 38.7493 68.0808 38.7405C68.1337 38.7317 68.1876 38.7387 68.2362 38.7608C68.2843 38.7829 68.3256 38.8189 68.3533 38.8643C68.3815 38.9097 68.3951 38.9624 68.3927 39.0157C68.3927 39.038 68.3319 41.2928 70.2879 42.589C71.5359 43.4016 72.9827 43.857 74.4713 43.9059C74.5247 43.9046 74.5772 43.9193 74.6219 43.9481C74.6666 43.9768 74.7021 44.0183 74.7234 44.0672C74.7443 44.1161 74.7506 44.1702 74.7409 44.2227C74.7312 44.2751 74.7059 44.3234 74.6685 44.3615C74.6025 44.4285 73.0337 46.024 71.0953 46.6699C70.6085 46.839 70.0974 46.9283 69.582 46.9343ZM67.8971 39.641C67.4395 40.177 66.7287 41.1418 66.4489 42.2407C66.1433 43.4395 66.4295 44.5035 67.2986 45.4013C68.2552 46.3903 69.4746 46.6466 70.9238 46.1633C72.1495 45.7551 73.2465 44.9126 73.83 44.407C72.459 44.262 71.1419 43.7926 69.9886 43.0375C68.4446 42.0111 68.0152 40.4968 67.8971 39.641Z" fill="black"/>
<path d="M71.0088 46.4171C69.7321 46.8433 68.3062 46.8289 67.1057 45.5881C66.0262 44.4723 65.914 43.2556 66.189 42.1746C66.189 42.1746 68.8173 41.6752 69.2113 43.7558C69.2147 43.7558 71.6545 43.7496 71.0088 46.4171Z" fill="#FBF6FF"/>
<path d="M69.582 46.9342C68.5637 46.9342 67.6586 46.5438 66.9133 45.7729C65.9057 44.7321 65.5734 43.4984 65.931 42.1101C65.9441 42.0571 65.9733 42.0094 66.0146 41.9735C66.0559 41.9376 66.1069 41.9151 66.1613 41.9091C66.6403 41.8337 67.1286 41.8386 67.6056 41.9234C68.5714 42.1084 69.1986 42.6533 69.4299 43.5037C69.7875 43.544 70.5128 43.6994 70.9763 44.2872C71.3955 44.8188 71.4946 45.5575 71.2712 46.4822C71.2605 46.5267 71.2381 46.5676 71.207 46.601C71.1755 46.6345 71.1361 46.6594 71.0924 46.6733C70.6066 46.8409 70.0964 46.929 69.582 46.9342ZM66.4105 42.4148C66.1749 43.5422 66.4742 44.5463 67.3039 45.4012C68.2285 46.3571 69.3998 46.6287 70.7878 46.2052C70.9291 45.5192 70.8534 44.984 70.5609 44.6142C70.0974 44.0255 69.2317 44.0201 69.221 44.0201C69.1578 44.0212 69.0961 44 69.0471 43.9601C68.998 43.9202 68.965 43.8642 68.9528 43.8021C68.8129 43.058 68.3276 42.6015 67.5075 42.4442C67.1446 42.3808 66.7739 42.3708 66.4081 42.4148H66.4105Z" fill="black"/>
<path d="M69.2593 44.8503C69.1908 44.8504 69.1247 44.8243 69.0752 44.7773C69.0251 44.7302 68.9955 44.6659 68.9916 44.5975L68.943 43.7739C68.9391 43.7028 68.9634 43.633 69.011 43.5799C69.0582 43.5268 69.1247 43.4947 69.1961 43.4907C69.2671 43.4866 69.337 43.511 69.39 43.5584C69.4429 43.6058 69.475 43.6724 69.4794 43.7435L69.5275 44.5662C69.5294 44.6014 69.5246 44.6366 69.5129 44.6698C69.5012 44.7031 69.4833 44.7337 69.4599 44.76C69.4366 44.7863 69.4084 44.8077 69.3769 44.8231C69.3448 44.8384 69.3108 44.8474 69.2753 44.8494L69.2593 44.8503Z" fill="black"/>
<path d="M60.8174 51.2312C60.7433 51.2312 60.67 51.2312 60.5985 51.2205C60.5633 51.217 60.5292 51.2067 60.498 51.19C60.4668 51.1733 60.4392 51.1507 60.4167 51.1234C60.3714 51.0682 60.3499 50.9972 60.3569 50.9262C60.3639 50.8551 60.3988 50.7897 60.454 50.7444C60.5092 50.699 60.5802 50.6775 60.6512 50.6845C61.156 50.7345 61.8287 50.538 62.5425 50.3271C63.903 49.9296 65.4457 49.4785 66.2828 50.7086C66.3226 50.7678 66.3377 50.8405 66.3241 50.9106C66.3105 50.9808 66.2692 51.0426 66.2099 51.0825C66.1507 51.1224 66.0783 51.1372 66.0083 51.1235C65.9379 51.1099 65.8762 51.0689 65.8363 51.0097C65.218 50.102 63.9897 50.4612 62.689 50.8417C62.0181 51.0436 61.3766 51.2312 60.8174 51.2312Z" fill="black"/>
<path d="M56.6355 55.9779C56.5965 55.9776 56.5581 55.9688 56.5229 55.952C53.2032 54.4012 51.5764 51.6202 51.5085 51.5023C51.491 51.4717 51.4795 51.4381 51.4749 51.4032C51.4704 51.3683 51.4727 51.3328 51.4818 51.2988C51.491 51.2648 51.5067 51.2329 51.5281 51.205C51.5495 51.177 51.5763 51.1536 51.6068 51.136C51.6373 51.1184 51.671 51.107 51.7059 51.1024C51.7408 51.0978 51.7763 51.1001 51.8103 51.1093C51.8443 51.1184 51.8762 51.1341 51.9041 51.1556C51.932 51.177 51.9555 51.2038 51.9731 51.2343C51.9918 51.2655 53.5919 53.9902 56.7498 55.4661C56.8052 55.4918 56.8502 55.5358 56.8772 55.5906C56.9042 55.6455 56.9117 55.7079 56.8983 55.7676C56.885 55.8272 56.8516 55.8805 56.8038 55.9186C56.756 55.9568 56.6966 55.9774 56.6355 55.9771V55.9779Z" fill="black"/>
<path d="M52.0285 66.3647C51.9809 66.3648 51.9341 66.3522 51.893 66.3281C51.8518 66.3041 51.8178 66.2696 51.7945 66.228C51.2995 65.3428 50.5697 64.7603 49.6263 64.4985C47.7583 63.9795 45.5571 64.8184 44.6548 65.3347C44.6242 65.3523 44.5905 65.3637 44.5555 65.3683C44.5206 65.3728 44.485 65.3704 44.451 65.3613C44.417 65.3521 44.3851 65.3363 44.3571 65.3148C44.3291 65.2933 44.3057 65.2665 44.2881 65.236C44.2705 65.2054 44.2591 65.1717 44.2545 65.1367C44.2499 65.1017 44.2523 65.0662 44.2615 65.0322C44.2706 64.9981 44.2864 64.9662 44.308 64.9383C44.3294 64.9103 44.3562 64.8869 44.3868 64.8693C45.357 64.3145 47.7297 63.4158 49.7684 63.9822C50.8547 64.2841 51.6926 64.9514 52.2608 65.9663C52.2954 66.0284 52.3039 66.1017 52.2844 66.17C52.265 66.2383 52.2192 66.2962 52.1572 66.3308C52.1178 66.3527 52.0736 66.3644 52.0285 66.3647Z" fill="black"/>
<path d="M83.6397 73.6973C83.6397 73.6973 83.5673 74.3726 83.2001 74.4931C83.0825 74.5319 82.8328 74.3599 82.7016 74.0563C82.4247 73.414 82.4339 72.8281 82.7293 72.6907C82.9975 72.5653 83.2486 72.9647 83.2486 72.9647C83.2486 72.9647 83.1762 72.0955 83.4532 71.9347C83.6975 71.7929 84.0221 72.2583 84.0221 72.2583C84.0221 72.2583 84.0901 71.4542 84.3587 71.3648C84.5463 71.2988 84.811 71.5164 85.0617 72.1582C85.2172 72.5566 85.3994 73.0638 84.9728 73.2435C84.7047 73.3587 84.384 73.057 84.384 73.057C84.384 73.057 84.6313 73.8688 84.1231 74.0082C83.7962 74.0976 83.6397 73.6973 83.6397 73.6973Z" fill="#8800FF"/>
<path d="M47.6216 44.8499C47.5614 44.8497 47.5029 44.8293 47.4558 44.7918C47.4087 44.7544 47.3755 44.7022 47.3616 44.6436C46.9991 43.0884 46.9424 41.4776 47.1945 39.9008C47.2082 39.831 47.249 39.7695 47.3079 39.7298C47.3669 39.6901 47.4393 39.6754 47.509 39.689C47.5788 39.7027 47.6403 39.7435 47.68 39.8024C47.7197 39.8614 47.7343 39.9338 47.7207 40.0035C47.4882 41.5055 47.5431 43.0379 47.8824 44.5194C47.8907 44.5536 47.8921 44.5892 47.8866 44.624C47.8811 44.6588 47.8688 44.6922 47.8504 44.7222C47.8319 44.7522 47.8078 44.7784 47.7792 44.7991C47.7507 44.8197 47.7184 44.8346 47.6841 44.8428C47.6636 44.8474 47.6426 44.8497 47.6216 44.8499Z" fill="black"/>
<path d="M47.2929 47.833C47.2562 47.833 47.2199 47.8254 47.1862 47.8109C47.1526 47.7962 47.1223 47.7749 47.0972 47.7481C45.3489 45.8676 45.1462 42.4774 45.1381 42.3344C45.1342 42.2634 45.1587 42.1936 45.2062 42.1406C45.2537 42.0876 45.3203 42.0556 45.3914 42.0517C45.4266 42.0497 45.4618 42.0547 45.495 42.0664C45.5283 42.0781 45.559 42.0962 45.5852 42.1197C45.6382 42.1673 45.6702 42.2339 45.6741 42.3049C45.6741 42.338 45.8751 45.6461 47.4894 47.3828C47.5237 47.4211 47.5463 47.4685 47.5543 47.5194C47.5624 47.5702 47.5557 47.6223 47.535 47.6693C47.5143 47.7165 47.4804 47.7566 47.4374 47.785C47.3945 47.8134 47.3443 47.8288 47.2929 47.8294V47.833Z" fill="black"/>
<path d="M54.9864 86.7809C54.9311 86.7809 54.8772 86.7639 54.8321 86.7318C54.787 86.6998 54.7529 86.6546 54.7345 86.6021C54.7161 86.5501 54.7143 86.4938 54.7293 86.4403C54.7444 86.3869 54.7755 86.3398 54.8185 86.3048L58.2525 83.5429C58.3081 83.5016 58.3775 83.4831 58.4463 83.4919C58.515 83.5006 58.5777 83.5356 58.6211 83.5895C58.6646 83.6439 58.6855 83.7124 58.6793 83.7814C58.6732 83.8504 58.6406 83.9145 58.5884 83.9597L55.1544 86.7221C55.1067 86.7605 55.0475 86.7814 54.9864 86.7809Z" fill="black"/>
<path d="M49.5218 93.752C49.4667 93.752 49.413 93.735 49.3679 93.7034C49.3228 93.6724 49.2884 93.6277 49.2696 93.5757C49.2508 93.5242 49.2483 93.4678 49.2626 93.4144C49.2769 93.3614 49.3072 93.3138 49.3493 93.2784L57.6575 86.3102C57.6845 86.2878 57.7157 86.2708 57.7493 86.2602C57.7828 86.2495 57.8182 86.2456 57.8533 86.2485C57.8884 86.2519 57.9225 86.2616 57.9538 86.2781C57.985 86.2942 58.0128 86.3165 58.0354 86.3437C58.0581 86.3704 58.0752 86.4015 58.0858 86.435C58.0963 86.4691 58.1002 86.504 58.0971 86.5395C58.0941 86.5745 58.0841 86.6085 58.0679 86.6396C58.0516 86.6712 58.0294 86.6989 58.0023 86.7212L49.6942 93.6894C49.6458 93.7302 49.5848 93.752 49.5218 93.752Z" fill="black"/>
<path d="M25.6819 102.65C25.6273 102.65 25.574 102.634 25.529 102.603C25.484 102.572 25.4495 102.529 25.43 102.478C25.4106 102.427 25.4072 102.371 25.4203 102.318C25.4334 102.265 25.4623 102.217 25.5032 102.181L37.0542 92.0091C37.0807 91.9857 37.1114 91.9678 37.1448 91.9561C37.1781 91.9444 37.2134 91.9396 37.2487 91.942C37.284 91.944 37.3185 91.9527 37.3502 91.9683C37.382 91.9838 37.4104 92.0052 37.4339 92.0314C37.4574 92.0581 37.4754 92.0887 37.487 92.1223C37.4986 92.1553 37.5035 92.1908 37.5014 92.2262C37.4993 92.2612 37.4903 92.2957 37.4749 92.3278C37.4595 92.3593 37.438 92.388 37.4116 92.4113L25.8588 102.584C25.8098 102.627 25.7469 102.65 25.6819 102.65Z" fill="black"/>
<path d="M35.8231 96.039C35.7684 96.0395 35.7148 96.0234 35.6695 95.9923C35.6243 95.9617 35.5896 95.9175 35.5702 95.8665C35.5507 95.815 35.5474 95.7592 35.5607 95.7062C35.5739 95.6532 35.6032 95.6051 35.6444 95.5692L40.0388 91.719C40.0924 91.6719 40.1623 91.6486 40.2333 91.6535C40.3042 91.6578 40.3704 91.6909 40.4171 91.7443C40.4639 91.7978 40.4875 91.8677 40.4828 91.9386C40.478 92.0096 40.4452 92.0756 40.3917 92.1228L35.9973 95.9719C35.9491 96.0147 35.8873 96.0385 35.8231 96.039Z" fill="black"/>
<path d="M80.3405 64.7826C80.2861 64.7824 80.2327 64.7656 80.188 64.7343C80.1433 64.703 80.1093 64.6588 80.0903 64.6076C80.0714 64.5564 80.0684 64.5007 80.082 64.4479C80.0956 64.395 80.1253 64.3475 80.1666 64.3119L88.6418 57.0382C88.668 57.0133 88.6991 56.9939 88.7331 56.9813C88.7671 56.9688 88.8035 56.9633 88.84 56.9652C88.8759 56.9671 88.9114 56.9763 88.9439 56.9924C88.9765 57.0083 89.0056 57.0308 89.0294 57.0584C89.0528 57.086 89.0707 57.118 89.0814 57.1527C89.0926 57.1874 89.096 57.2239 89.0926 57.26C89.0887 57.2961 89.0775 57.3311 89.0601 57.3629C89.0426 57.3946 89.0188 57.4224 88.9901 57.4447L80.5159 64.7183C80.4668 64.76 80.4046 64.7829 80.3405 64.7826Z" fill="black"/>
<path d="M87.866 60.7366C87.8111 60.7367 87.7576 60.7198 87.7124 60.6883C87.6673 60.6567 87.6328 60.612 87.6138 60.5603C87.5954 60.5086 87.5929 60.4523 87.607 60.3992C87.6211 60.346 87.6517 60.2985 87.694 60.2631L92.901 55.8929C92.9277 55.869 92.9593 55.8507 92.9928 55.8391C93.0269 55.8275 93.0628 55.8228 93.0988 55.8254C93.1347 55.8279 93.1692 55.8377 93.2013 55.8539C93.2333 55.8702 93.2615 55.8928 93.2848 55.9202C93.3077 55.9477 93.3252 55.9795 93.3358 56.0138C93.3465 56.048 93.3499 56.0841 93.3465 56.1198C93.3426 56.1555 93.332 56.1901 93.3145 56.2215C93.2975 56.253 93.2741 56.2806 93.246 56.3029L88.0384 60.6732C87.9903 60.714 87.9291 60.7364 87.866 60.7366Z" fill="black"/>
</g>
<defs>
<clipPath id="clip0_0_1">
<rect width="1450" height="7556" fill="white" transform="translate(-270 -5500)"/>
</clipPath>
</defs>
</svg>
