<svg width="129" height="128" viewBox="0 0 129 128" fill="none" xmlns="http://www.w3.org/2000/svg">
<circle cx="64.5" cy="64" r="63.5" fill="white" stroke="#FBF6FF"/>
<path d="M90.1703 85.7156C90.1703 85.7156 96.5084 81.9974 100.468 74.6682C104.844 66.5711 106.476 54.4643 96.9906 46.9114C86.328 38.4215 78.3183 41.1976 73.462 46.1028C68.176 51.4419 68.1283 59.5982 62.6868 60.2785C56.14 61.0967 48.9102 63.279 48.6377 71.4669C48.2247 83.8765 59.2802 80.3328 59.2802 80.3328C59.2802 80.3328 57.9127 84.3516 54.4991 84.8276C51.0855 85.3036 46.9017 82.9675 46.6807 81.9802C46.3664 80.5594 45.3001 80.1821 45.1849 80.2203C44.5133 80.4459 45.8887 82.0174 44.9351 81.9344C44.3885 81.8877 44.4356 81.3182 44.4566 80.6629C44.481 79.9193 44.6234 79.5898 44.4085 79.4791C44.1632 79.3522 43.6461 79.7662 43.5912 80.3791C43.5152 81.2257 43.6741 81.7608 43.558 81.808C43.4942 81.8333 42.9912 81.2109 42.8139 80.6729C42.5974 80.0123 42.5249 79.6074 42.3267 79.6451C42.0035 79.7061 41.8455 80.1287 41.9774 81.1589C42.1014 82.1147 42.5118 82.6436 42.4027 82.7414C42.3433 82.7967 41.9599 82.492 41.6315 82.0518C41.2822 81.5844 41.318 81.4255 41.1268 81.4947C40.6849 81.6549 41.1565 83.9595 43.1598 84.6521C44.1989 85.0121 44.8757 84.8681 45.7883 85.0985C46.81 85.3603 47.8055 86.1358 49.2403 86.9595C51.9666 88.5182 58.6305 89.3685 62.7952 85.4767C66.9598 81.5843 67.1353 76.5039 67.1353 76.5039C67.1353 76.5039 69.6064 74.745 71.3663 73.3008C73.1258 71.8561 74.0601 69.4914 75.861 68.8905C75.861 68.8905 75.5939 71.6277 74.5509 73.7434C74.5509 73.7434 68.2943 77.6496 66.2692 82.5816C63.2702 89.8875 68.674 91.6636 68.674 91.6636C68.674 91.6636 69.0364 94.9035 78.0273 94.3326C87.0187 93.7612 96.6963 93.3515 96.9625 92.5517C97.1766 91.9116 95.7401 91.1404 95.7401 91.1404C95.9108 91.0789 96.0544 90.9596 96.1474 90.8037C96.2404 90.6477 96.2761 90.4641 96.249 90.2848C96.175 89.5703 92.7558 88.6193 91.7623 87.5094C90.9887 86.6547 91.0383 86.0504 90.1703 85.7156Z" fill="#8800FF"/>
<path d="M59.4884 68.3754C59.7682 66.8516 58.974 65.4288 57.7144 65.1975C56.4548 64.9662 55.2068 66.014 54.9269 67.5379C54.647 69.0612 55.4412 70.4844 56.7009 70.7158C57.9605 70.9471 59.2085 69.8992 59.4884 68.3754Z" fill="white"/>
<path d="M57.2764 70.9928C57.1422 70.9928 57.0083 70.9809 56.8764 70.9561C55.4731 70.6938 54.5815 69.1275 54.8906 67.463C55.0236 66.6908 55.4202 65.9888 56.0128 65.476C56.6031 64.9819 57.307 64.7778 57.9969 64.908C58.6867 65.0377 59.2719 65.476 59.6464 66.1485C60.0164 66.8391 60.1353 67.6366 59.9827 68.405C59.7032 69.9107 58.5357 70.9928 57.2764 70.9928ZM57.5934 65.3907C57.134 65.4007 56.693 65.5733 56.349 65.8781C55.8496 66.3121 55.5163 66.9059 55.4059 67.5579C55.15 68.9429 55.8521 70.2383 56.9716 70.4453C58.0912 70.6523 59.2116 69.6951 59.4674 68.31C59.5982 67.6614 59.4994 66.9875 59.188 66.4037C58.8911 65.87 58.4344 65.5218 57.9017 65.4231C57.8001 65.4026 57.6969 65.3916 57.5934 65.3907Z" fill="black"/>
<path d="M56.7178 70.0351C56.999 70.0351 57.2269 69.8071 57.2269 69.5262C57.2269 69.2448 56.999 69.0168 56.7178 69.0168C56.4366 69.0168 56.2087 69.2448 56.2087 69.5262C56.2087 69.8071 56.4366 70.0351 56.7178 70.0351Z" fill="black"/>
<path d="M55.8939 73.5498C56.2084 71.851 55.3254 70.2632 53.9217 70.0033C52.5179 69.7433 51.125 70.9099 50.8105 72.6088C50.496 74.3072 51.379 75.895 52.7827 76.1549C54.1864 76.4148 55.5793 75.2487 55.8939 73.5498Z" fill="white"/>
<path d="M53.1797 76.4444C53.0302 76.4449 52.8811 76.4311 52.7343 76.4034C51.9771 76.2637 51.337 75.7791 50.9222 75.0403C50.5263 74.2753 50.3969 73.4006 50.5544 72.5535C50.712 71.707 51.1475 70.9372 51.792 70.3658C52.4409 69.8225 53.2146 69.6008 53.9752 69.7415C55.5191 70.0267 56.4981 71.7499 56.1584 73.5923C56.0121 74.4437 55.5751 75.2177 54.9218 75.7824C54.4381 76.2031 53.8205 76.4378 53.1797 76.4444ZM53.5246 70.2208C53.0093 70.2313 52.5144 70.4235 52.1273 70.764C51.5773 71.2577 51.206 71.9192 51.0714 72.6456C50.9368 73.3724 51.0465 74.1231 51.3834 74.7809C51.7169 75.3808 52.2322 75.7729 52.833 75.884C53.4338 75.9947 54.0555 75.8139 54.5795 75.3732C55.1365 74.8877 55.5092 74.2252 55.6344 73.4974C55.9217 71.943 55.1314 70.4888 53.8713 70.2566C53.757 70.2351 53.6409 70.2241 53.5246 70.2241V70.2208Z" fill="black"/>
<path d="M53.2838 71.323C53.565 71.323 53.7929 71.095 53.7929 70.8136C53.7929 70.5327 53.565 70.3047 53.2838 70.3047C53.0026 70.3047 52.7747 70.5327 52.7747 70.8136C52.7747 71.095 53.0026 71.323 53.2838 71.323Z" fill="black"/>
<path d="M61.2173 63.9612C61.2173 63.9612 63.5201 68.8147 59.6594 73.845C55.7987 78.8749 53.5657 78.4146 53.5657 78.4146C53.5657 78.4146 59.283 81.975 63.6127 74.8953C67.6744 68.2543 61.2173 63.9612 61.2173 63.9612Z" fill="white"/>
<path d="M56.9445 79.556C55.714 79.556 54.5043 79.2393 53.4313 78.6374C53.3788 78.605 53.3394 78.5549 53.32 78.4967C53.3007 78.4381 53.3026 78.3746 53.3254 78.3174C53.3482 78.2602 53.3906 78.2125 53.4449 78.1834C53.4993 78.1543 53.5622 78.1452 53.6225 78.1581C53.6391 78.1581 55.7812 78.4705 59.4551 73.6848C61.3937 71.1585 61.7081 68.6836 61.6295 67.0534C61.5422 65.2782 60.9903 64.0844 60.9842 64.0739C60.9592 64.0219 60.9521 63.9632 60.9639 63.9069C60.9757 63.8504 61.0058 63.7995 61.0494 63.762C61.0931 63.7244 61.1479 63.7022 61.2054 63.6989C61.2629 63.6956 61.3199 63.7114 61.3675 63.7437C62.5093 64.568 63.4686 65.6192 64.1856 66.8316C65.2334 68.6383 66.029 71.5281 63.8362 75.0341C61.5003 78.7719 58.7975 79.556 56.9445 79.556ZM54.4923 78.5621C55.2741 78.8678 56.1052 79.0271 56.9445 79.0319H56.968C59.4656 79.0233 61.6278 77.5843 63.3944 74.7532C65.0379 72.1219 65.1547 69.5493 63.7437 67.1078C63.2156 66.2207 62.5511 65.4227 61.7745 64.7426C61.9856 65.48 62.111 66.2388 62.1482 67.0048C62.2356 68.7294 61.9098 71.344 59.8673 74.0053C57.3811 77.2385 55.535 78.2559 54.4888 78.5621H54.4923Z" fill="black"/>
<path d="M63.2248 75.7456C63.1718 75.7456 63.12 75.7294 63.0764 75.6994L59.9029 73.5164C59.8734 73.4973 59.8479 73.4725 59.8282 73.4439C59.8084 73.4148 59.7946 73.3819 59.7877 73.3476C59.7807 73.3132 59.7808 73.2779 59.7878 73.2436C59.7949 73.2088 59.8088 73.1763 59.8287 73.1472C59.8486 73.1186 59.8741 73.0938 59.9037 73.0752C59.9333 73.0561 59.9664 73.0433 60.001 73.0375C60.0357 73.0318 60.0711 73.0328 60.1053 73.0414C60.1394 73.0495 60.1716 73.0643 60.1998 73.0852L63.3733 75.2682C63.4193 75.2997 63.4539 75.3455 63.4722 75.3984C63.4905 75.4509 63.4914 75.5081 63.4748 75.5615C63.4582 75.6149 63.425 75.6617 63.38 75.6946C63.3351 75.728 63.2807 75.7456 63.2248 75.7456Z" fill="black"/>
<path d="M64.8912 70.7035H64.865L61.6985 70.3877C61.6641 70.3844 61.6307 70.3739 61.6002 70.3577C61.5697 70.3415 61.5427 70.3195 61.5208 70.2928C61.4989 70.2661 61.4824 70.2351 61.4724 70.2022C61.4623 70.1688 61.4589 70.1345 61.4623 70.0996C61.4657 70.0653 61.4758 70.0319 61.4921 70.0014C61.5084 69.9709 61.5305 69.9442 61.5572 69.9222C61.584 69.9003 61.6148 69.8836 61.6478 69.8736C61.6809 69.8636 61.7156 69.8602 61.7501 69.8636L64.9165 70.1798C64.9509 70.1812 64.9847 70.1898 65.0158 70.2046C65.047 70.2194 65.0751 70.2399 65.098 70.2656C65.1214 70.2909 65.139 70.3209 65.151 70.3534C65.1624 70.3858 65.1677 70.4202 65.1658 70.4545C65.1643 70.4888 65.1557 70.5227 65.141 70.5537C65.1262 70.5847 65.1057 70.6128 65.0804 70.6357C65.0546 70.6591 65.0248 70.6767 64.9924 70.6887C64.96 70.7001 64.9256 70.7054 64.8912 70.7035Z" fill="black"/>
<path d="M59.3607 79.082C59.3153 79.082 59.2707 79.0705 59.2312 79.0481C59.1917 79.0257 59.1586 78.9932 59.1354 78.9546L57.491 76.2169C57.4733 76.1874 57.4616 76.1545 57.4565 76.1206C57.4514 76.0863 57.4531 76.0515 57.4615 76.0181C57.4698 75.9847 57.4847 75.9532 57.5052 75.9255C57.5257 75.8979 57.5514 75.8745 57.5809 75.8569C57.6105 75.8392 57.6432 75.8273 57.6772 75.8225C57.7113 75.8173 57.7461 75.8192 57.7795 75.8273C57.8129 75.8359 57.8443 75.8507 57.872 75.8712C57.8996 75.8917 57.923 75.9174 57.9407 75.947L59.5851 78.6847C59.6091 78.7242 59.6221 78.7696 59.6227 78.8163C59.6234 78.8626 59.6117 78.9083 59.5889 78.9489C59.566 78.9889 59.5329 79.0228 59.4928 79.0462C59.4527 79.0696 59.4071 79.082 59.3607 79.082Z" fill="black"/>
<path d="M59.5301 80.4842C59.4662 80.4842 59.4046 80.4603 59.3569 80.4183C59.3091 80.3759 59.2785 80.3172 59.2708 80.2538C59.2631 80.1904 59.2788 80.1265 59.3149 80.074C59.3511 80.0215 59.4052 79.9838 59.4672 79.9681C59.4995 79.9605 62.776 79.1244 66.7151 76.475C66.7733 76.4363 66.8439 76.4225 66.9126 76.4359C66.9808 76.4497 67.0409 76.4898 67.0795 76.5475C67.1181 76.6057 67.132 76.6762 67.1186 76.7444C67.1048 76.8131 67.0647 76.8732 67.007 76.9119C62.9847 79.6128 59.7283 80.4412 59.5921 80.4756C59.5718 80.4808 59.551 80.4837 59.5301 80.4842Z" fill="black"/>
<path d="M68.443 91.6317C68.3905 91.6317 68.339 91.616 68.2956 91.5864C68.2522 91.5568 68.2188 91.5153 68.1992 91.4662C67.1514 88.8206 67.4848 86.5761 67.9531 85.1562C68.462 83.6167 69.2147 82.7109 69.2471 82.6737C69.2919 82.6203 69.3563 82.5874 69.4255 82.5812C69.4946 82.5755 69.5633 82.5974 69.6167 82.6423C69.6697 82.6871 69.703 82.751 69.7088 82.8202C69.7145 82.8893 69.693 82.9585 69.6482 83.0114C69.6358 83.0253 68.917 83.8962 68.4439 85.3422C67.8096 87.2782 67.8911 89.2718 68.6867 91.2726C68.6996 91.3045 68.7058 91.3389 68.7053 91.3732C68.7048 91.4075 68.6976 91.4414 68.6838 91.4734C68.67 91.5048 68.6504 91.5335 68.6256 91.5578C68.6008 91.5816 68.5717 91.6002 68.5398 91.6131C68.5088 91.625 68.4759 91.6312 68.443 91.6317Z" fill="black"/>
<path d="M80.9987 89.0013C80.9291 89.0037 80.8613 88.9784 80.8103 88.9312C80.7593 88.884 80.7292 88.8182 80.7268 88.749C80.7245 88.6794 80.7497 88.6117 80.797 88.5606C80.8442 88.5096 80.91 88.4795 80.9791 88.4772C84.6034 88.2015 89.9991 85.5082 90.0535 85.481C90.115 85.4524 90.1856 85.449 90.25 85.4715C90.3144 85.4939 90.3673 85.5401 90.3978 85.6012C90.4284 85.6622 90.4341 85.7323 90.4136 85.7972C90.3931 85.8621 90.3482 85.9169 90.2881 85.9494C90.064 86.0629 84.7475 88.7156 81.0187 89.0004L80.9987 89.0013Z" fill="black"/>
<path d="M95.5286 91.4103C93.6947 91.4103 92.1561 90.3128 90.9108 89.4229C90.2216 88.9311 89.6269 88.5066 89.1552 88.3917C88.4569 88.2167 87.6771 88.6917 86.926 89.1486C86.2554 89.5554 85.6163 89.9408 84.9943 89.9222C84.5574 89.9103 83.997 89.7477 83.2869 89.5478C81.9276 89.161 80.0656 88.6297 78.215 88.9965C78.1468 89.0103 78.0763 88.996 78.0185 88.9574C77.9608 88.9183 77.9208 88.8582 77.9074 88.79C77.8941 88.7217 77.9079 88.6512 77.947 88.5935C77.9856 88.5357 78.0457 88.4957 78.1139 88.4823C80.0885 88.0922 82.0201 88.6421 83.4304 89.0437C84.0791 89.2283 84.639 89.388 85.0091 89.3985C85.4832 89.4124 86.0517 89.0666 86.6536 88.6998C87.4568 88.2114 88.3668 87.6586 89.2797 87.8814C89.8487 88.0202 90.482 88.4728 91.2146 88.996C92.4432 89.8693 93.9733 90.9643 95.7222 90.8814C95.7919 90.878 95.8601 90.9023 95.9116 90.9491C95.9631 90.9958 95.9936 91.0612 95.997 91.1303C96.0003 91.2 95.976 91.2682 95.9292 91.3197C95.8825 91.3712 95.8171 91.4017 95.7475 91.405C95.6745 91.4089 95.6011 91.4103 95.5286 91.4103Z" fill="black"/>
<path d="M71.3352 83.9711C71.2947 83.9711 71.2541 83.9663 71.2146 83.9573C71.1187 83.9367 71.0281 83.8952 70.9498 83.8356C70.8716 83.776 70.8072 83.7002 70.7615 83.6134C70.5688 83.2542 70.6408 82.7024 70.8173 82.0876C70.3885 82.65 69.985 83.0554 69.5896 83.1059C69.5057 83.1174 69.4208 83.1107 69.3397 83.0863C69.2586 83.062 69.1842 83.0201 69.1208 82.9643C68.6114 82.5279 69.2996 81.5043 70.1815 80.3148L70.2688 80.197C69.9144 80.2032 69.4623 80.197 69.1747 79.9142C69.0964 79.835 69.0349 79.7411 68.9939 79.6371C68.9534 79.5336 68.9343 79.4229 68.9381 79.3113C68.9381 78.9078 69.3659 78.8058 69.8648 78.688C70.4996 78.5368 71.3686 78.3307 71.9605 77.5691C73.2993 75.8549 75.8299 71.8348 75.8299 68.8906C75.8299 68.2348 75.6387 67.7483 75.2624 67.4431C74.5121 66.8316 73.254 67.0935 73.2449 67.0935C73.211 67.1011 73.1762 67.102 73.1419 67.0958C73.108 67.0896 73.0756 67.0773 73.046 67.0582C73.0169 67.0396 72.9916 67.0152 72.9721 66.9866C72.9525 66.958 72.9387 66.9261 72.9316 66.8922C72.9244 66.8583 72.9239 66.823 72.9306 66.7892C72.9368 66.7548 72.9502 66.7224 72.9692 66.6938C72.9883 66.6647 73.0131 66.6399 73.0417 66.6203C73.0703 66.6013 73.1028 66.5879 73.1366 66.5808C73.1982 66.5679 74.65 66.2707 75.5924 67.0353C76.098 67.4445 76.3541 68.0688 76.3541 68.8901C76.3541 71.9759 73.7509 76.1277 72.3735 77.8915C71.6681 78.8024 70.6551 79.038 69.985 79.1978C69.8061 79.2322 69.6306 79.2832 69.4613 79.3509C69.4608 79.3853 69.4675 79.4196 69.4804 79.4516C69.4937 79.484 69.5128 79.5131 69.5371 79.5374C69.6893 79.6853 70.078 79.6772 70.3346 79.6714C70.6174 79.6652 70.9398 79.6581 70.9756 79.9609C70.9923 80.0993 70.9398 80.1689 70.5998 80.6272C70.3623 80.9477 70.0365 81.3865 69.7933 81.7914C69.457 82.3514 69.4632 82.5383 69.4699 82.5774C69.477 82.5827 69.4856 82.586 69.4942 82.5879C69.5028 82.5894 69.5119 82.5894 69.5204 82.587C69.8872 82.5407 70.5788 81.5391 70.9107 81.0555C71.0262 80.8886 71.1249 80.7455 71.2036 80.643C71.2818 80.5409 71.4707 80.2938 71.7029 80.4503C71.9018 80.581 71.8451 80.7322 71.6586 81.2363C71.4645 81.76 71.0095 82.9767 71.2217 83.3687C71.2322 83.3902 71.2479 83.4088 71.267 83.4231C71.2861 83.4374 71.308 83.4469 71.3319 83.4507C71.3319 83.4507 71.4864 83.4131 71.7411 82.8245C71.9161 82.3962 72.0678 81.9593 72.1956 81.5148C72.3874 80.8857 72.4336 80.7498 72.5796 80.6773C72.613 80.6601 72.6497 80.6501 72.6869 80.6477C72.7246 80.6454 72.7618 80.6506 72.7971 80.6635C72.9936 80.735 72.9998 80.8748 73.026 81.4643C73.0379 81.8907 73.0718 82.3161 73.1281 82.7391C73.2153 83.2838 73.3288 83.4016 73.3551 83.4226C73.4939 83.3205 73.6408 82.6371 73.7595 82.0824C73.9622 81.1399 74.2379 79.8512 74.8641 78.7009C75.2834 77.9292 75.9821 76.9686 76.7991 75.8516C79.5988 72.0213 83.8283 66.2335 81.258 61.3466C80.4162 59.7459 79.2663 58.7783 77.8412 58.4718C74.7182 57.7994 71.2351 60.4803 71.2041 60.5083C71.1492 60.5487 71.081 60.5662 71.0133 60.557C70.946 60.5478 70.8845 60.5126 70.8425 60.459C70.8006 60.4054 70.781 60.3375 70.7882 60.2697C70.7953 60.202 70.8287 60.1397 70.8812 60.0961C71.0314 59.9791 74.5899 57.2361 77.9547 57.9584C79.5396 58.2998 80.8092 59.3556 81.7274 61.1021C84.4493 66.2769 80.1038 72.2249 77.2279 76.1597C76.4247 77.2591 75.7312 78.2086 75.3306 78.9436C74.7411 80.0268 74.4845 81.2229 74.278 82.1844C74.0519 83.2385 73.916 83.8743 73.4295 83.9372C73.3565 83.9468 73.2826 83.941 73.2125 83.9196C73.1424 83.8981 73.0775 83.8623 73.0226 83.8142C72.716 83.5566 72.6034 82.9209 72.5467 82.1616C72.2514 83.0673 71.887 83.9711 71.3352 83.9711Z" fill="black"/>
<path d="M26.3678 93.9544C26.2983 93.9558 26.2311 93.9296 26.1809 93.8814C26.1307 93.8337 26.1017 93.7674 26.1002 93.6978C26.0986 93.6286 26.1248 93.5614 26.1729 93.5113C26.2209 93.4607 26.287 93.4316 26.3565 93.4302C26.6359 93.4173 27.5397 92.5231 28.199 91.8687C29.5858 90.4951 30.5481 89.5984 31.2555 89.6447C31.6767 89.6776 32.0897 89.7787 32.478 89.9452C32.8474 90.0873 33.05 90.166 33.3644 90.0167C33.553 89.9294 33.8247 89.5541 34.0884 89.1916C34.6997 88.3479 35.5424 87.1927 36.7955 87.3673C38.528 87.6091 39.7209 88.862 39.7707 88.9154C39.8183 88.9665 39.8438 89.0337 39.8416 89.1034C39.8394 89.173 39.8096 89.2388 39.7589 89.286C39.7082 89.3337 39.6406 89.3595 39.5711 89.3571C39.5016 89.3547 39.4358 89.3251 39.3882 89.2746C39.3777 89.2631 38.2687 88.1018 36.723 87.8867C35.7799 87.755 35.0769 88.7228 34.511 89.4997C34.1678 89.9714 33.8997 90.3444 33.588 90.4908C33.071 90.7355 32.6911 90.5886 32.2886 90.4331C31.9485 90.2876 31.5868 90.1994 31.2179 90.1712C30.694 90.1364 29.4653 91.3545 28.5667 92.2445C27.4769 93.3248 26.8385 93.9367 26.3835 93.9568L26.3678 93.9544Z" fill="black"/>
<path d="M47.775 93.0662C46.8746 93.0662 45.9411 92.1529 45.1193 91.3459C44.7177 90.9519 44.3334 90.5799 44.0714 90.4349C43.7902 90.2813 43.3728 90.402 42.8812 90.5408C42.1913 90.7382 41.332 90.9834 40.4622 90.5241C40.4007 90.4917 40.3547 90.4363 40.3341 90.3696C40.3136 90.3033 40.3202 90.2313 40.3526 90.1697C40.385 90.1087 40.4406 90.0624 40.507 90.0419C40.5734 90.0214 40.6453 90.0281 40.7067 90.0605C41.3905 90.422 42.0751 90.2265 42.738 90.0367C43.3108 89.8735 43.8531 89.719 44.3221 89.9747C44.653 90.1554 45.0399 90.5336 45.487 90.9719C46.2109 91.6812 47.113 92.5621 47.8003 92.544C47.8347 92.543 47.869 92.5487 47.9012 92.5606C47.9334 92.5731 47.9629 92.5912 47.988 92.615C48.0131 92.6384 48.0333 92.6665 48.0474 92.698C48.0616 92.7295 48.0695 92.7633 48.0706 92.7977C48.0717 92.832 48.0659 92.8664 48.0538 92.8983C48.0416 92.9308 48.0233 92.9603 47.9997 92.9851C47.9761 93.0104 47.9479 93.0304 47.9165 93.0447C47.8851 93.0591 47.8513 93.0667 47.8169 93.0681L47.775 93.0662Z" fill="black"/>
<path d="M34.2885 93.0663C34.2312 93.0663 34.1755 93.0477 34.1298 93.0129C34.0842 92.9781 34.0512 92.9295 34.0358 92.8746C34.0205 92.8193 34.0236 92.7606 34.0448 92.7072C34.066 92.6543 34.104 92.6094 34.1531 92.5799C34.3658 92.4263 34.5642 92.2541 34.7461 92.0652C35.3311 91.5048 36.0559 90.8061 36.7904 91.0055C37.2034 91.118 37.5213 91.3408 37.8016 91.5382C38.1378 91.7729 38.4033 91.9589 38.743 91.925C38.8125 91.9179 38.8819 91.9388 38.9359 91.9832C38.99 92.0271 39.0242 92.091 39.0312 92.1606C39.0381 92.2303 39.0172 92.2994 38.973 92.3533C38.9287 92.4077 38.8649 92.442 38.7954 92.4487C38.2618 92.5021 37.875 92.2312 37.5012 91.9694C37.2436 91.7886 36.9772 91.6026 36.6524 91.5134C36.2079 91.3923 35.573 92.0018 35.1084 92.4463C34.8465 92.6943 34.6264 92.909 34.4229 93.031C34.3821 93.0549 34.3356 93.0668 34.2885 93.0663Z" fill="black"/>
<path d="M37.0207 87.8887C36.9512 87.8887 36.8845 87.861 36.8354 87.8119C36.7863 87.7627 36.7587 87.696 36.7587 87.6268V62.6687C36.7587 62.5992 36.7863 62.5326 36.8354 62.4835C36.8845 62.4344 36.9512 62.4067 37.0207 62.4067C37.0901 62.4067 37.1568 62.4344 37.2059 62.4835C37.255 62.5326 37.2826 62.5992 37.2826 62.6687V87.6268C37.2826 87.696 37.255 87.7627 37.2059 87.8119C37.1568 87.861 37.0901 87.8887 37.0207 87.8887Z" fill="black"/>
<path d="M41.9652 62.8992C41.9652 62.8992 40.5601 64.5765 37.0207 64.5765C33.2604 64.5765 32.0763 62.8992 32.0763 62.8992V43.3975H41.9652V62.8992Z" fill="white"/>
<path d="M37.0206 64.8388C33.1686 64.8388 31.9137 63.1228 31.8622 63.0503C31.831 63.0061 31.8142 62.9533 31.8141 62.8992V43.3974C31.8141 43.363 31.8209 43.329 31.8341 43.2972C31.8472 43.2654 31.8666 43.2365 31.8909 43.2122C31.9152 43.1879 31.9441 43.1686 31.9759 43.1554C32.0077 43.1423 32.0417 43.1355 32.0761 43.1355H41.965C42.0345 43.1355 42.1011 43.1631 42.1502 43.2122C42.1994 43.2614 42.227 43.328 42.227 43.3974V62.8992C42.2268 62.9605 42.2052 63.0199 42.1658 63.0669C42.1056 63.1394 40.6411 64.8388 37.0206 64.8388ZM32.3381 62.8049C32.5896 63.0879 33.8611 64.3147 37.0206 64.3147C40.0019 64.3147 41.4053 63.0922 41.703 62.7953V43.6594H32.3381V62.8049Z" fill="black"/>
<path d="M32.0763 43.3975L37.0207 33.8606L41.9652 43.3975C41.9652 43.3975 40.313 44.5083 37.0207 44.5083C33.5408 44.5083 32.0763 43.3975 32.0763 43.3975Z" fill="white"/>
<path d="M37.0206 44.7703C33.4953 44.7703 31.9811 43.6533 31.9182 43.6062C31.869 43.5688 31.8345 43.5153 31.821 43.4551C31.8074 43.3949 31.8155 43.3318 31.8439 43.277L36.7884 33.7418C36.8105 33.6991 36.8438 33.6633 36.8849 33.6383C36.9259 33.6133 36.973 33.6001 37.0211 33.6001C37.0692 33.6001 37.1163 33.6133 37.1573 33.6383C37.1984 33.6633 37.2317 33.6991 37.2538 33.7418L42.1974 43.2787C42.2269 43.3359 42.2343 43.402 42.2182 43.4644C42.2021 43.5267 42.1636 43.5809 42.1101 43.6166C42.0411 43.6621 40.3522 44.7703 37.0206 44.7703ZM32.4203 43.3031C32.9067 43.5782 34.3624 44.2463 37.0206 44.2463C39.5479 44.2463 41.0918 43.5712 41.6167 43.2953L37.0206 34.4299L32.4203 43.3031Z" fill="black"/>
<path d="M32.0762 55.2834V62.8992L28.5412 67.1138L28.4958 58.4551L32.0762 55.2834Z" fill="white"/>
<path d="M32.0762 55.2834V62.8992L28.5412 67.1138L28.4958 58.4551L32.0762 55.2834Z" fill="white"/>
<path d="M41.9653 55.2834V62.8992L45.5003 67.1138L45.5458 58.4551L41.9653 55.2834Z" fill="white"/>
<path d="M28.5415 67.3757C28.5117 67.3753 28.4821 67.37 28.4541 67.36C28.4035 67.3419 28.3595 67.309 28.3283 67.2651C28.297 67.2212 28.28 67.1692 28.2795 67.1153L28.2341 58.4552C28.2338 58.418 28.2414 58.3811 28.2565 58.3471C28.2715 58.3131 28.2937 58.2827 28.3214 58.2579L31.9018 55.0853C31.9396 55.0515 31.9863 55.0294 32.0364 55.0216C32.0865 55.0139 32.1378 55.0208 32.184 55.0416C32.2302 55.0624 32.2694 55.0962 32.2968 55.1388C32.3242 55.1814 32.3387 55.2311 32.3384 55.2817V62.8975C32.3383 62.9588 32.3167 63.0181 32.2773 63.0652L28.7423 67.2823C28.7177 67.3113 28.687 67.3352 28.6523 67.3509C28.6175 67.3671 28.5798 67.3757 28.5415 67.3757ZM28.7589 58.5722L28.8 66.4018L31.8145 62.8067V55.8651L28.7589 58.5722Z" fill="black"/>
<path d="M45.5045 67.3758C45.4662 67.3758 45.4284 67.3672 45.3937 67.351C45.359 67.3348 45.3282 67.3114 45.3036 67.2823L41.7687 63.0669C41.7293 63.0198 41.7077 62.9605 41.7075 62.8992V55.2835C41.7073 55.2328 41.7217 55.1831 41.7492 55.1405C41.7766 55.0979 41.8158 55.0641 41.862 55.0433C41.9082 55.0225 41.9594 55.0156 42.0095 55.0234C42.0596 55.0311 42.1064 55.0532 42.1442 55.087L45.7245 58.2596C45.7523 58.2844 45.7744 58.3148 45.7895 58.3488C45.8045 58.3829 45.8122 58.4197 45.8119 58.4569L45.7665 67.1154C45.7665 67.185 45.7388 67.2513 45.6897 67.3004C45.6406 67.3495 45.574 67.3772 45.5045 67.3772V67.3758ZM42.2315 62.8032L45.2425 66.4019L45.2836 58.5757L42.2271 55.8685L42.2315 62.8032Z" fill="black"/>
<path d="M37.0208 54.0015C36.3881 54.0017 35.7696 53.8143 35.2434 53.4629C34.7173 53.1115 34.3072 52.612 34.0649 52.0275C33.8227 51.443 33.7592 50.7998 33.8825 50.1793C34.0059 49.5587 34.3104 48.9887 34.7578 48.5412C35.2051 48.0938 35.775 47.789 36.3956 47.6655C37.0161 47.542 37.6593 47.6053 38.2438 47.8474C38.8284 48.0895 39.328 48.4995 39.6795 49.0255C40.0311 49.5516 40.2187 50.1701 40.2187 50.8028C40.2178 51.6507 39.8806 52.4637 39.2811 53.0633C38.6816 53.663 37.8687 54.0004 37.0208 54.0015ZM37.0208 48.1288C36.4917 48.1287 35.9745 48.2854 35.5344 48.5793C35.0944 48.8731 34.7515 49.2909 34.5489 49.7796C34.3464 50.2684 34.2933 50.8063 34.3965 51.3253C34.4996 51.8442 34.7544 52.3209 35.1285 52.695C35.5027 53.0692 35.9794 53.3239 36.4983 53.4271C37.0173 53.5303 37.5551 53.4772 38.044 53.2747C38.5327 53.0721 38.9505 52.7291 39.2443 52.2892C39.5382 51.8491 39.695 51.3319 39.6948 50.8028C39.6936 50.094 39.4115 49.4147 38.9102 48.9136C38.409 48.4125 37.7296 48.1306 37.0208 48.1297V48.1288Z" fill="black"/>
<path d="M29.7859 47.7411C29.7164 47.7411 29.6498 47.7135 29.6007 47.6644C29.5515 47.6153 29.5239 47.5486 29.5239 47.4792V41.9094C29.5239 41.84 29.5515 41.7733 29.6007 41.7242C29.6498 41.6751 29.7164 41.6475 29.7859 41.6475C29.8554 41.6475 29.922 41.6751 29.9712 41.7242C30.0203 41.7733 30.0479 41.84 30.0479 41.9094V47.4792C30.0479 47.5486 30.0203 47.6153 29.9712 47.6644C29.922 47.7135 29.8554 47.7411 29.7859 47.7411Z" fill="black"/>
<path d="M27.9816 52.759C27.9121 52.759 27.8455 52.7314 27.7963 52.6822C27.7472 52.6331 27.7196 52.5665 27.7196 52.497V45.7056C27.7196 45.6361 27.7472 45.5695 27.7963 45.5203C27.8455 45.4712 27.9121 45.4436 27.9816 45.4436C28.051 45.4436 28.1177 45.4712 28.1668 45.5203C28.216 45.5695 28.2435 45.6361 28.2435 45.7056V52.4978C28.2433 52.5672 28.2156 52.6336 28.1665 52.6825C28.1174 52.7315 28.0509 52.759 27.9816 52.759Z" fill="black"/>
<path d="M41.965 69.6618C41.662 69.6618 41.441 69.585 41.2803 69.4262C41.0114 69.1553 41.0183 68.7275 41.0183 68.2314C41.0183 68.0221 41.0183 67.7846 41.0035 67.5389C40.9738 67.1502 40.89 66.9198 40.7302 66.7906C40.4787 66.5879 39.939 66.5574 38.9836 66.6909C38.4536 66.7644 37.996 66.6528 37.624 66.3575C36.8773 65.7652 36.7673 64.6486 36.7629 64.6014C36.7566 64.5318 36.7781 64.4626 36.8227 64.4092C36.8673 64.3553 36.9314 64.3219 37.0009 64.3153C37.0704 64.3091 37.1395 64.3305 37.1932 64.3749C37.2468 64.4197 37.2805 64.4836 37.2869 64.5533C37.2869 64.5618 37.3829 65.4981 37.9523 65.9507C38.2143 66.1558 38.5261 66.2283 38.9129 66.1739C40.0717 66.0127 40.6752 66.0718 41.0637 66.3852C41.3458 66.6122 41.489 66.9575 41.5301 67.5022C41.5502 67.7645 41.5484 68.0178 41.5467 68.2367C41.5467 68.6159 41.5423 68.943 41.6576 69.0594C41.7109 69.1133 41.8165 69.1405 41.9702 69.1405C42.0397 69.1405 42.1063 69.1682 42.1555 69.2173C42.2046 69.2664 42.2322 69.3332 42.2322 69.4023C42.2322 69.472 42.2046 69.5387 42.1555 69.5879C42.1063 69.637 42.0397 69.6647 41.9702 69.6647L41.965 69.6618Z" fill="black"/>
<path d="M42.4266 68.9701C42.379 68.9701 42.3323 68.9567 42.2916 68.9324C42.2509 68.9076 42.2177 68.8723 42.1955 68.8303C42.1734 68.7879 42.1631 68.7406 42.1658 68.693C42.1684 68.6457 42.184 68.6 42.2108 68.5604L42.885 67.5779C42.9243 67.5201 42.9849 67.4801 43.0536 67.4672C43.1223 67.4539 43.1934 67.4686 43.2513 67.5077C43.3092 67.5469 43.3492 67.6074 43.3624 67.6766C43.3755 67.7453 43.3609 67.8163 43.3216 67.874L42.6492 68.8556C42.6246 68.8918 42.5913 68.9214 42.5524 68.941C42.5136 68.961 42.4703 68.971 42.4266 68.9701Z" fill="black"/>
<path d="M44.2357 69.9002C44.22 69.9021 44.2042 69.9021 44.1885 69.9002L42.8961 69.6617C42.862 69.6555 42.8295 69.6431 42.8005 69.6245C42.7714 69.6059 42.7462 69.5816 42.7265 69.553C42.7068 69.5248 42.693 69.4929 42.6857 69.459C42.6784 69.4252 42.6779 69.3903 42.6842 69.356C42.6905 69.3221 42.7034 69.2897 42.7223 69.2606C42.7411 69.232 42.7655 69.2067 42.7941 69.1876C42.8226 69.1681 42.8547 69.1543 42.8886 69.1471C42.9224 69.1404 42.9573 69.1399 42.9913 69.1466L44.2837 69.3851C44.348 69.397 44.4055 69.4323 44.445 69.4843C44.4844 69.5368 44.503 69.6016 44.4969 69.6665C44.4909 69.7318 44.4608 69.7924 44.4124 69.8363C44.3641 69.8802 44.3011 69.9045 44.2357 69.9045V69.9002Z" fill="black"/>
<path d="M43.0987 71.1666C43.0578 71.1666 43.0175 71.1571 42.9809 71.1385C42.9444 71.1203 42.9126 71.0936 42.8882 71.0607L42.2167 70.1569C42.1946 70.1297 42.1784 70.0978 42.1688 70.0639C42.1593 70.03 42.1567 69.9947 42.1612 69.9599C42.1656 69.9251 42.1771 69.8912 42.1949 69.8607C42.2127 69.8307 42.2364 69.804 42.2646 69.783C42.2928 69.762 42.325 69.7467 42.3592 69.7386C42.3935 69.73 42.429 69.7291 42.4637 69.7348C42.4985 69.7405 42.5317 69.7529 42.5614 69.772C42.5911 69.7906 42.6167 69.8154 42.6367 69.8445L43.3092 70.7493C43.3379 70.7879 43.3552 70.8342 43.3593 70.8823C43.3634 70.931 43.354 70.9792 43.3322 71.0226C43.3104 71.066 43.277 71.1022 43.2358 71.1275C43.1946 71.1528 43.1472 71.1666 43.0987 71.1666Z" fill="black"/>
<path d="M44.8932 81.0107C44.8297 81.0117 44.768 80.9888 44.7198 80.9478C44.6717 80.9063 44.6402 80.8486 44.6313 80.7856L44.1073 76.96C44.1026 76.9257 44.1046 76.8909 44.1132 76.8575C44.1219 76.8241 44.137 76.7931 44.1578 76.7655C44.1997 76.7101 44.262 76.6734 44.3309 76.6639C44.3997 76.6543 44.4697 76.6725 44.5252 76.7144C44.5527 76.7349 44.5758 76.7612 44.5932 76.7907C44.6107 76.8203 44.6221 76.8532 44.6269 76.8876L45.1552 80.7131C45.165 80.7818 45.1469 80.8519 45.1052 80.9072C45.0634 80.9626 45.0013 80.9993 44.9325 81.0093C44.9195 81.0107 44.9064 81.0112 44.8932 81.0107Z" fill="black"/>
<path d="M44.1072 77.2303C43.8122 77.2198 43.5265 77.1244 43.2846 76.9551C42.9867 76.7572 42.7429 76.4877 42.5752 76.1715C42.4075 75.8557 42.3212 75.5028 42.324 75.1451C42.324 73.9222 43.2339 72.1322 43.2723 72.0564C43.299 72.0039 43.3425 71.9624 43.3957 71.9376C43.4489 71.9133 43.5088 71.9071 43.5658 71.9205C43.6228 71.9343 43.6736 71.9663 43.7102 72.012C43.7468 72.0578 43.767 72.1146 43.7675 72.1733C43.7675 72.7704 43.9168 73.1729 44.7595 73.9852C45.2372 74.4445 45.4267 75.096 45.294 75.819C45.1787 76.4486 44.8355 77.0009 44.4609 77.1607C44.3488 77.2074 44.2286 77.2312 44.1072 77.2303ZM43.3999 73.0484C43.1492 73.6594 42.8506 74.5093 42.8506 75.1441C42.8476 75.415 42.9121 75.6821 43.0382 75.9216C43.1642 76.1615 43.3479 76.3661 43.5728 76.5168C43.8225 76.6818 44.0967 76.7476 44.2583 76.6794C44.4198 76.6112 44.6862 76.2425 44.7822 75.7246C44.8399 75.4088 44.8696 74.8122 44.3997 74.3615C43.8758 73.8597 43.5658 73.4658 43.4016 73.0508L43.3999 73.0484Z" fill="black"/>
</svg>
