<svg width="2000" height="2000" viewBox="0 0 2000 2000" fill="none" xmlns="http://www.w3.org/2000/svg">
<path d="M1627.04 1667.16C1627.04 1667.16 1839.7 1113.45 1578.94 648.337C1595.54 610.921 1615.43 563.22 1631.39 516.2C1655.03 446.619 1671.85 368.151 1621.56 326.56C1543.54 261.907 1375.36 319.249 1302.45 344.39C1131.09 224.582 936.037 176.755 843.036 307.064C779.619 395.926 816.659 526.181 944.817 595.797C970.173 609.559 995.439 623.16 1020.33 637.263C999.041 663.425 976.427 676.058 926.325 664.697C861.582 650.021 769.459 597.034 751.97 508.799C761.915 492.546 782.988 463.177 774.351 456.959C765.714 450.741 753.959 460.955 746.666 470.488C739.265 408.648 740 391.948 727.492 390.389C713.157 388.597 707.924 457.837 707.924 457.837C707.924 457.837 672.229 449.218 676.153 484.985C676.153 484.985 651.927 482.153 666.459 522.615C676.781 550.838 688.554 545.175 688.554 545.175C688.554 545.175 807.018 783.502 1019.2 788.698C1095.89 790.49 1145.91 772.231 1178.54 747.484C1225.77 790.92 1267.76 844.248 1301.12 914.456C1443.72 1214.75 1316.32 1636.46 1302 1650.79C1288.42 1664.38 1194.81 1703.66 1196.98 1726.84C1197.98 1737.6 1375.34 1732.22 1378.66 1722.35C1388.1 1694.16 1477.59 1384.82 1503.92 1382.79C1532.77 1380.59 1551.37 1460.67 1547.37 1543.06C1543.23 1628.65 1514.42 1710.88 1514.61 1724.34C1514.77 1735 1718.59 1734.5 1718.59 1725.45C1718.59 1701.56 1627.04 1667.16 1627.04 1667.16ZM1537.1 580.674C1529.93 570.149 1522.53 559.702 1514.88 549.333C1494.63 522.1 1472.78 496.089 1449.46 471.438C1481.41 441.907 1521.71 418.11 1554.56 441.942C1594.41 470.846 1565.58 535.015 1537.1 580.674Z" fill="#8800FF"/>
<path d="M986.498 1693.52C918.771 1739.84 838.631 1764.63 756.576 1764.64C533.176 1764.64 349.342 1580.8 349.342 1357.4C349.337 1278.22 372.422 1200.75 415.769 1134.49L661.819 1295.42C649.028 1316.8 643.847 1341.88 647.116 1366.58C650.386 1391.28 661.915 1414.15 679.829 1431.47C697.742 1448.79 720.987 1459.54 745.784 1461.97C770.58 1464.4 795.471 1458.37 816.408 1444.87L986.498 1693.52Z" fill="white"/>
<path d="M1163.81 1357.4C1163.81 1460.26 1124.89 1559.32 1054.88 1634.67L834.758 1430.03C854.827 1409.89 866.354 1382.79 866.938 1354.36C867.522 1325.93 857.118 1298.38 837.894 1277.43L1046.9 1071.84C1121.81 1148.02 1163.79 1250.57 1163.81 1357.4Z" fill="white"/>
<path d="M984.167 1019.71L820.707 1262.25C798.985 1246.74 772.381 1239.63 745.818 1242.22C719.255 1244.82 694.532 1256.95 676.224 1276.37L469.83 1068.24C536.714 1001.92 624.52 960.841 718.292 951.993C812.064 943.145 906.004 967.077 984.113 1019.71H984.167Z" fill="white"/>
<path d="M756.575 1770.01C647.106 1770.01 543.676 1726.9 465.386 1648.59C387.097 1570.28 343.965 1466.89 343.965 1357.4C343.914 1277.19 367.308 1198.71 411.27 1131.62C411.656 1131.03 412.156 1130.52 412.74 1130.12C413.324 1129.72 413.981 1129.44 414.674 1129.29C415.366 1129.15 416.081 1129.14 416.776 1129.27C417.471 1129.4 418.133 1129.67 418.725 1130.06L664.774 1290.92C665.94 1291.68 666.765 1292.87 667.076 1294.22C667.387 1295.58 667.159 1297 666.441 1298.2C654.287 1318.54 649.369 1342.39 652.484 1365.88C655.599 1389.36 666.565 1411.11 683.6 1427.58C700.635 1444.04 722.738 1454.27 746.318 1456.59C769.898 1458.91 793.57 1453.18 813.486 1440.35C814.665 1439.59 816.095 1439.32 817.472 1439.59C818.848 1439.87 820.061 1440.68 820.851 1441.84L990.941 1690.49C991.741 1691.66 992.044 1693.1 991.783 1694.5C991.656 1695.19 991.392 1695.86 991.008 1696.45C990.623 1697.04 990.126 1697.56 989.543 1697.96C920.966 1744.99 839.732 1770.12 756.575 1770.01ZM417.363 1141.89C376.364 1206.27 354.605 1281.02 354.645 1357.35C354.645 1578.94 534.931 1759.21 756.503 1759.21C835.686 1759.32 913.123 1735.93 979.007 1692.01L814.866 1452.05C793.06 1464.75 767.705 1469.97 742.656 1466.93C717.607 1463.89 694.237 1452.76 676.1 1435.21C657.964 1417.67 646.054 1394.68 642.181 1369.75C638.309 1344.82 642.688 1319.3 654.65 1297.09L417.363 1141.89Z" fill="black"/>
<path d="M1054.88 1640.04C1053.55 1640.03 1052.27 1639.51 1051.29 1638.61L831.101 1433.97C830.571 1433.48 830.146 1432.89 829.851 1432.23C829.556 1431.57 829.397 1430.85 829.384 1430.13C829.37 1429.41 829.503 1428.69 829.773 1428.02C830.044 1427.35 830.447 1426.74 830.958 1426.23C850.037 1407.07 860.994 1381.29 861.548 1354.25C862.102 1327.22 852.211 1301.01 833.932 1281.08C832.989 1280.06 832.483 1278.7 832.519 1277.31C832.556 1275.91 833.134 1274.59 834.129 1273.61L1043.14 1068.01C1044.15 1067 1045.51 1066.43 1046.94 1066.43C1048.36 1066.43 1049.73 1067 1050.74 1068.01C1125.25 1143.73 1167.68 1245.28 1169.19 1351.5C1170.7 1457.72 1131.18 1560.44 1058.85 1638.25C1058.38 1638.78 1057.81 1639.22 1057.16 1639.52C1056.52 1639.83 1055.82 1640.01 1055.11 1640.04H1054.88ZM842.408 1429.8L1054.61 1626.91C1122.75 1551.57 1159.84 1453.21 1158.39 1351.63C1156.94 1250.05 1117.08 1152.79 1046.81 1079.42L845.221 1277.7C863.175 1299.13 872.772 1326.33 872.242 1354.29C871.712 1382.24 861.09 1409.06 842.336 1429.8H842.408Z" fill="black"/>
<path d="M676.225 1281.75C675.515 1281.75 674.812 1281.61 674.157 1281.33C673.502 1281.06 672.907 1280.66 672.408 1280.15L466.014 1072C465.012 1070.99 464.451 1069.63 464.455 1068.2C464.458 1067.5 464.6 1066.8 464.874 1066.14C465.147 1065.49 465.547 1064.9 466.049 1064.4C533.82 997.197 622.795 955.564 717.818 946.598C812.841 937.633 908.033 961.888 987.178 1015.23C987.765 1015.63 988.268 1016.13 988.658 1016.72C989.049 1017.31 989.319 1017.97 989.454 1018.67C989.589 1019.36 989.585 1020.08 989.444 1020.77C989.302 1021.46 989.026 1022.12 988.629 1022.71L825.17 1265.26C824.768 1265.86 824.251 1266.36 823.649 1266.76C823.047 1267.15 822.374 1267.41 821.667 1267.54C820.961 1267.67 820.236 1267.65 819.536 1267.49C818.835 1267.34 818.174 1267.04 817.59 1266.62C796.927 1251.87 771.619 1245.1 746.349 1247.57C721.08 1250.04 697.562 1261.59 680.149 1280.06C679.653 1280.59 679.056 1281.01 678.394 1281.3C677.732 1281.59 677.019 1281.74 676.296 1281.75H676.225ZM477.464 1068.29L676.225 1268.74C695.007 1250.63 719.355 1239.4 745.321 1236.87C771.286 1234.33 797.346 1240.65 819.274 1254.78L976.695 1021.2C900.469 971.29 809.543 948.765 718.833 957.322C628.123 965.879 543.013 1005.01 477.464 1068.29Z" fill="black"/>
<path d="M708.086 958.451C706.66 958.451 705.293 957.884 704.284 956.876C703.276 955.868 702.709 954.501 702.709 953.075V906.073L641.354 905.607C639.929 905.607 638.56 905.04 637.552 904.032C636.544 903.024 635.979 901.657 635.979 900.231V798.485C635.979 797.059 636.544 795.692 637.552 794.684C638.56 793.676 639.929 793.109 641.354 793.109C642.78 793.109 644.147 793.676 645.156 794.684C646.164 795.692 646.729 797.059 646.729 798.485V894.891L708.086 895.357C709.511 895.357 710.878 895.923 711.886 896.931C712.894 897.939 713.461 899.307 713.461 900.733V953.075C713.461 954.501 712.894 955.868 711.886 956.876C710.878 957.884 709.511 958.451 708.086 958.451Z" fill="black"/>
<path d="M719.984 671.453H562.832V796.53H719.984V671.453Z" fill="white"/>
<path d="M1215.15 1346.17H1163.81C1162.38 1346.17 1161.01 1345.6 1160.01 1344.59C1159 1343.59 1158.43 1342.22 1158.43 1340.79C1158.43 1339.37 1159 1338 1160.01 1336.99C1161.01 1335.98 1162.38 1335.42 1163.81 1335.42H1209.77V1058.51C1209.77 1057.08 1210.34 1055.72 1211.35 1054.71C1212.35 1053.7 1213.72 1053.13 1215.15 1053.13C1216.57 1053.13 1217.94 1053.7 1218.95 1054.71C1219.96 1055.72 1220.52 1057.08 1220.52 1058.51V1340.79C1220.52 1342.22 1219.96 1343.59 1218.95 1344.59C1217.94 1345.6 1216.57 1346.17 1215.15 1346.17Z" fill="black"/>
<path d="M409.388 1574.46H291.909C290.483 1574.46 289.116 1573.89 288.108 1572.89C287.1 1571.88 286.533 1570.51 286.533 1569.08V1039.52C286.533 1038.09 287.1 1036.72 288.108 1035.72C289.116 1034.71 290.483 1034.14 291.909 1034.14C293.335 1034.14 294.702 1034.71 295.71 1035.72C296.718 1036.72 297.285 1038.09 297.285 1039.52V1563.71H409.388C410.813 1563.71 412.181 1564.28 413.189 1565.28C414.197 1566.29 414.764 1567.66 414.764 1569.08C414.764 1570.51 414.197 1571.88 413.189 1572.89C412.181 1573.89 410.813 1574.46 409.388 1574.46Z" fill="black"/>
<path d="M375.663 933.145H208.154V1039.51H375.663V933.145Z" fill="white"/>
<path d="M1284.05 940.422H1146.27V1055.41H1284.05V940.422Z" fill="white"/>
<path d="M719.983 801.904H562.831C561.405 801.904 560.038 801.338 559.03 800.33C558.021 799.322 557.455 797.954 557.455 796.528V671.452C557.455 670.026 558.021 668.659 559.03 667.651C560.038 666.643 561.405 666.076 562.831 666.076H719.983C721.409 666.076 722.776 666.643 723.784 667.651C724.792 668.659 725.359 670.026 725.359 671.452V796.528C725.359 797.954 724.792 799.322 723.784 800.33C722.776 801.338 721.409 801.904 719.983 801.904ZM568.207 791.153H714.607V676.828H568.207V791.153Z" fill="black"/>
<path d="M375.736 1044.89H208.155C206.729 1044.89 205.362 1044.32 204.354 1043.31C203.346 1042.31 202.779 1040.94 202.779 1039.51V933.143C202.779 931.718 203.346 930.35 204.354 929.342C205.362 928.334 206.729 927.768 208.155 927.768H375.736C377.162 927.768 378.529 928.334 379.537 929.342C380.546 930.35 381.112 931.718 381.112 933.143V1039.51C381.112 1040.94 380.546 1042.31 379.537 1043.31C378.529 1044.32 377.162 1044.89 375.736 1044.89ZM213.603 1034.14H370.36V938.519H213.531L213.603 1034.14Z" fill="black"/>
<path d="M1284.03 1060.78H1146.27C1144.84 1060.78 1143.47 1060.22 1142.46 1059.21C1141.46 1058.2 1140.89 1056.83 1140.89 1055.41V940.421C1140.89 938.995 1141.46 937.628 1142.46 936.619C1143.47 935.611 1144.84 935.045 1146.27 935.045H1284.03C1285.45 935.045 1286.82 935.611 1287.83 936.619C1288.84 937.628 1289.4 938.995 1289.4 940.421V1055.41C1289.4 1056.83 1288.84 1058.2 1287.83 1059.21C1286.82 1060.22 1285.45 1060.78 1284.03 1060.78ZM1151.64 1050.03H1278.65V945.796H1151.64V1050.03Z" fill="black"/>
<path d="M670.991 721.984H611.858C610.432 721.984 609.065 721.418 608.056 720.409C607.048 719.401 606.482 718.034 606.482 716.608C606.482 715.182 607.048 713.815 608.056 712.807C609.065 711.799 610.432 711.232 611.858 711.232H670.991C672.417 711.232 673.784 711.799 674.793 712.807C675.801 713.815 676.367 715.182 676.367 716.608C676.367 718.034 675.801 719.401 674.793 720.409C673.784 721.418 672.417 721.984 670.991 721.984Z" fill="black"/>
<path d="M684.091 756.748H598.705C597.28 756.748 595.912 756.181 594.904 755.173C593.896 754.165 593.33 752.798 593.33 751.372C593.33 749.946 593.896 748.579 594.904 747.571C595.912 746.562 597.28 745.996 598.705 745.996H684.091C685.516 745.996 686.884 746.562 687.892 747.571C688.9 748.579 689.466 749.946 689.466 751.372C689.466 752.798 688.9 754.165 687.892 755.173C686.884 756.181 685.516 756.748 684.091 756.748Z" fill="black"/>
<path d="M310.762 969.002H272.72C271.294 969.002 269.926 968.435 268.918 967.427C267.91 966.419 267.344 965.052 267.344 963.626C267.344 962.2 267.91 960.833 268.918 959.825C269.926 958.816 271.294 958.25 272.72 958.25H310.762C312.188 958.25 313.555 958.816 314.563 959.825C315.572 960.833 316.138 962.2 316.138 963.626C316.138 965.052 315.572 966.419 314.563 967.427C313.555 968.435 312.188 969.002 310.762 969.002Z" fill="black"/>
<path d="M319.183 1003.77H264.296C262.87 1003.77 261.503 1003.2 260.495 1002.19C259.487 1001.18 258.92 999.815 258.92 998.389C258.92 996.964 259.487 995.596 260.495 994.588C261.503 993.58 262.87 993.014 264.296 993.014H319.183C320.609 993.014 321.976 993.58 322.984 994.588C323.992 995.596 324.559 996.964 324.559 998.389C324.559 999.815 323.992 1001.18 322.984 1002.19C321.976 1003.2 320.609 1003.77 319.183 1003.77Z" fill="black"/>
<path d="M1240.29 969.144H1185.17C1183.74 969.144 1182.37 968.578 1181.37 967.57C1180.36 966.561 1179.79 965.194 1179.79 963.768C1179.79 962.343 1180.36 960.975 1181.37 959.967C1182.37 958.959 1183.74 958.393 1185.17 958.393H1240.29C1241.71 958.393 1243.08 958.959 1244.09 959.967C1245.1 960.975 1245.66 962.343 1245.66 963.768C1245.66 965.194 1245.1 966.561 1244.09 967.57C1243.08 968.578 1241.71 969.144 1240.29 969.144Z" fill="black"/>
<path d="M1240.29 999.699H1185.17C1183.74 999.699 1182.37 999.132 1181.37 998.124C1180.36 997.116 1179.79 995.749 1179.79 994.323C1179.79 992.897 1180.36 991.53 1181.37 990.522C1182.37 989.514 1183.74 988.947 1185.17 988.947H1240.29C1241.71 988.947 1243.08 989.514 1244.09 990.522C1245.1 991.53 1245.66 992.897 1245.66 994.323C1245.66 995.749 1245.1 997.116 1244.09 998.124C1243.08 999.132 1241.71 999.699 1240.29 999.699Z" fill="black"/>
<path d="M1240.29 1030.25H1185.17C1183.74 1030.25 1182.37 1029.69 1181.37 1028.68C1180.36 1027.67 1179.79 1026.3 1179.79 1024.88C1179.79 1023.45 1180.36 1022.08 1181.37 1021.07C1182.37 1020.07 1183.74 1019.5 1185.17 1019.5H1240.29C1241.71 1019.5 1243.08 1020.07 1244.09 1021.07C1245.1 1022.08 1245.66 1023.45 1245.66 1024.88C1245.66 1026.3 1245.1 1027.67 1244.09 1028.68C1243.08 1029.69 1241.71 1030.25 1240.29 1030.25Z" fill="black"/>
<path d="M685.74 1184.01C684.773 1184.01 683.823 1183.75 682.992 1183.26C682.161 1182.77 681.478 1182.06 681.015 1181.21C680.553 1180.36 680.328 1179.4 680.365 1178.43C680.402 1177.47 680.699 1176.53 681.224 1175.72L786.571 1012.65C787.408 1011.62 788.599 1010.93 789.914 1010.72C791.229 1010.51 792.574 1010.8 793.689 1011.53C794.804 1012.25 795.609 1013.37 795.95 1014.66C796.29 1015.94 796.141 1017.31 795.531 1018.49L690.184 1181.56C689.703 1182.3 689.045 1182.92 688.27 1183.34C687.495 1183.77 686.625 1184 685.74 1184.01Z" fill="black"/>
<path d="M693.641 1060.78C689.717 1060.79 685.88 1059.63 682.616 1057.45C679.351 1055.27 676.806 1052.18 675.302 1048.55C673.798 1044.93 673.402 1040.94 674.166 1037.09C674.929 1033.24 676.817 1029.7 679.59 1026.93C682.364 1024.15 685.898 1022.26 689.747 1021.49C693.595 1020.73 697.585 1021.12 701.21 1022.62C704.836 1024.12 707.935 1026.66 710.116 1029.93C712.296 1033.19 713.46 1037.02 713.46 1040.95C713.455 1046.2 711.366 1051.24 707.651 1054.96C703.936 1058.68 698.898 1060.78 693.641 1060.78ZM693.641 1031.86C691.844 1031.86 690.085 1032.39 688.589 1033.39C687.092 1034.38 685.925 1035.8 685.235 1037.46C684.544 1039.12 684.362 1040.95 684.711 1042.71C685.059 1044.47 685.923 1046.09 687.193 1047.37C688.463 1048.64 690.081 1049.51 691.844 1049.86C693.607 1050.21 695.435 1050.03 697.096 1049.34C698.757 1048.66 700.177 1047.49 701.176 1046C702.175 1044.5 702.708 1042.75 702.708 1040.95C702.704 1038.54 701.747 1036.24 700.048 1034.54C698.35 1032.83 696.046 1031.87 693.641 1031.86Z" fill="black"/>
<path d="M779.492 1168.77C775.569 1168.77 771.734 1167.61 768.472 1165.43C765.21 1163.25 762.667 1160.15 761.166 1156.52C759.664 1152.9 759.272 1148.91 760.037 1145.06C760.802 1141.21 762.692 1137.68 765.466 1134.91C768.24 1132.13 771.774 1130.24 775.622 1129.48C779.47 1128.71 783.459 1129.1 787.084 1130.61C790.708 1132.11 793.806 1134.65 795.986 1137.91C798.166 1141.17 799.329 1145.01 799.329 1148.93C799.32 1154.19 797.227 1159.23 793.509 1162.95C789.791 1166.67 784.75 1168.76 779.492 1168.77ZM779.492 1139.85C777.696 1139.85 775.939 1140.38 774.445 1141.38C772.951 1142.38 771.786 1143.8 771.099 1145.46C770.411 1147.12 770.231 1148.94 770.582 1150.7C770.932 1152.47 771.798 1154.09 773.068 1155.36C774.339 1156.63 775.958 1157.49 777.72 1157.84C779.482 1158.19 781.309 1158.01 782.969 1157.33C784.629 1156.64 786.048 1155.47 787.046 1153.98C788.045 1152.49 788.577 1150.73 788.577 1148.93C788.568 1146.53 787.607 1144.22 785.905 1142.53C784.203 1140.83 781.897 1139.87 779.492 1139.87V1139.85Z" fill="black"/>
<path d="M971.916 552.342C989.185 523.613 975.556 483.717 941.475 463.231C907.394 442.745 865.766 449.427 848.498 478.156C831.229 506.884 844.858 546.781 878.939 567.267C913.02 587.753 954.647 581.071 971.916 552.342Z" fill="white"/>
<path d="M920.483 584.597C904.86 584.498 889.557 580.163 876.204 572.053C839.649 550.066 825.17 506.773 843.949 475.558C862.729 444.343 907.742 436.816 944.297 458.786C980.853 480.755 995.349 524.065 976.552 555.299C965.03 574.275 943.778 584.597 920.483 584.597ZM881.759 562.789C913.243 581.712 951.644 575.834 967.36 549.69C983.075 523.546 970.245 486.883 938.689 467.96C907.133 449.037 868.804 454.897 853.088 481.041C837.373 507.185 850.203 543.848 881.759 562.789Z" fill="black"/>
<path d="M1082.91 427.266C1099.38 393.548 1080.31 350.369 1040.3 330.822C1000.3 311.276 954.514 322.765 938.04 356.483C921.565 390.201 940.64 433.38 980.645 452.927C1020.65 472.473 1066.44 460.984 1082.91 427.266Z" fill="white"/>
<path d="M1020.83 467.748C1006.08 467.682 991.534 464.249 978.307 457.713C935.695 436.909 915.482 390.408 933.222 354.086C941.895 336.328 958.184 323.623 979.06 318.427C1000.49 313.369 1023.01 316.028 1042.67 325.935C1085.29 346.757 1105.5 393.24 1087.76 429.58C1075.75 454.04 1049.59 467.748 1020.83 467.748ZM1000.06 326.562C993.847 326.556 987.655 327.308 981.622 328.802C963.864 333.264 950.102 343.908 942.827 358.763C927.685 389.781 945.694 429.813 982.966 448.019C1020.24 466.225 1062.89 455.814 1078.05 424.724C1093.21 393.634 1075.18 353.692 1037.91 335.468C1026.13 329.668 1013.19 326.623 1000.06 326.562Z" fill="black"/>
<path d="M938.403 467.049C937.403 467.048 936.423 466.768 935.573 466.241C934.724 465.714 934.038 464.96 933.593 464.065C933.148 463.169 932.962 462.168 933.055 461.172C933.148 460.177 933.517 459.227 934.12 458.429L952.989 433.54C953.404 432.948 953.934 432.447 954.547 432.065C955.16 431.683 955.844 431.428 956.557 431.317C957.271 431.205 958 431.238 958.7 431.414C959.401 431.591 960.059 431.906 960.635 432.342C961.211 432.778 961.693 433.326 962.052 433.953C962.411 434.579 962.641 435.272 962.727 435.989C962.813 436.706 962.753 437.433 962.552 438.127C962.35 438.821 962.011 439.467 961.554 440.026L942.685 464.916C942.185 465.578 941.537 466.115 940.794 466.485C940.051 466.855 939.233 467.048 938.403 467.049Z" fill="black"/>
<path d="M917.975 514.586C922.675 514.586 926.486 510.775 926.486 506.074C926.486 501.373 922.675 497.562 917.975 497.562C913.274 497.562 909.463 501.373 909.463 506.074C909.463 510.775 913.274 514.586 917.975 514.586Z" fill="black"/>
<path d="M1004.13 406.105C1008.83 406.105 1012.64 402.295 1012.64 397.594C1012.64 392.893 1008.83 389.082 1004.13 389.082C999.428 389.082 995.617 392.893 995.617 397.594C995.617 402.295 999.428 406.105 1004.13 406.105Z" fill="black"/>
<path d="M1040.27 336.145C1039.38 336.148 1038.51 335.929 1037.72 335.51C1036.94 335.091 1036.27 334.484 1035.78 333.744C1035.29 333.004 1034.99 332.153 1034.91 331.268C1034.82 330.383 1034.96 329.491 1035.31 328.673C1036.69 325.412 1069.48 248.717 1111.18 242.051C1125.51 239.757 1138.94 245.635 1151.14 259.72C1152.08 260.796 1152.55 262.2 1152.45 263.623C1152.35 265.047 1151.69 266.372 1150.61 267.308C1149.53 268.245 1148.13 268.715 1146.71 268.616C1145.28 268.517 1143.96 267.856 1143.02 266.78C1133.29 255.598 1123.44 250.975 1112.88 252.659C1077.04 258.376 1045.54 332.113 1045.22 332.848C1044.81 333.823 1044.12 334.656 1043.24 335.242C1042.36 335.829 1041.33 336.143 1040.27 336.145Z" fill="black"/>
<path d="M1113.76 349.855C1113.76 349.855 1151.64 416.981 1101.47 492.887C1051.29 568.793 1018.91 564.475 1018.91 564.475C1018.91 564.475 1104.37 609.685 1159.15 503.961C1210.52 404.742 1113.76 349.855 1113.76 349.855Z" fill="white"/>
<path d="M1061.31 579.223C1045.79 579.273 1030.45 575.851 1016.42 569.206C1015.3 568.619 1014.43 567.657 1013.95 566.489C1013.47 565.321 1013.42 564.021 1013.8 562.817C1014.18 561.614 1014.97 560.584 1016.04 559.907C1017.11 559.231 1018.38 558.951 1019.63 559.117C1019.83 559.117 1050.09 560.909 1097.01 489.895C1144.65 417.77 1110.55 355.089 1109.06 352.454C1108.49 351.428 1108.27 350.241 1108.43 349.076C1108.59 347.911 1109.13 346.831 1109.97 346.003C1110.81 345.175 1111.89 344.644 1113.06 344.492C1114.22 344.34 1115.41 344.575 1116.43 345.161C1133.83 355.917 1148.81 370.157 1160.44 386.985C1177.55 412.072 1192.07 453.286 1163.9 506.399C1133.92 562.916 1095.48 577.055 1068.5 578.972C1066.06 579.223 1063.66 579.223 1061.31 579.223ZM1037.46 565.389C1047.49 567.996 1057.87 568.952 1068.21 568.22C1103.29 565.533 1132.29 543.133 1154.4 501.364C1174.94 462.64 1174.11 426.3 1151.75 393.346C1144.48 382.781 1135.77 373.292 1125.86 365.159C1128.67 373.974 1130.65 383.033 1131.77 392.217C1134.8 417.089 1132.79 455.239 1105.98 495.827C1076.51 540.463 1052.82 558.365 1037.46 565.425V565.389Z" fill="black"/>
<path d="M1154.19 518.119C1153.23 518.12 1152.29 517.867 1151.46 517.384L1103.83 489.376C1102.7 488.614 1101.9 487.452 1101.6 486.125C1101.29 484.797 1101.5 483.403 1102.19 482.225C1102.87 481.046 1103.97 480.17 1105.28 479.775C1106.58 479.379 1107.99 479.493 1109.21 480.094L1156.84 508.12C1157.85 508.72 1158.64 509.635 1159.08 510.726C1159.52 511.816 1159.59 513.021 1159.28 514.156C1158.97 515.291 1158.3 516.293 1157.37 517.009C1156.43 517.724 1155.29 518.114 1154.11 518.119H1154.19Z" fill="black"/>
<path d="M1172.88 444.255H1172.71L1127.07 443.037C1125.65 442.997 1124.3 442.391 1123.32 441.355C1122.34 440.318 1121.81 438.935 1121.85 437.509C1121.89 436.083 1122.5 434.732 1123.53 433.752C1124.57 432.773 1125.95 432.245 1127.38 432.285L1173.02 433.593C1173.72 433.603 1174.42 433.751 1175.07 434.03C1175.72 434.309 1176.31 434.713 1176.8 435.219C1177.29 435.725 1177.68 436.322 1177.94 436.978C1178.2 437.634 1178.33 438.335 1178.32 439.041C1178.31 439.747 1178.17 440.444 1177.89 441.093C1177.61 441.741 1177.2 442.329 1176.7 442.821C1176.19 443.314 1175.59 443.702 1174.94 443.963C1174.28 444.225 1173.58 444.354 1172.88 444.345V444.255Z" fill="black"/>
<path d="M1102.27 569.78C1101.41 569.78 1100.56 569.572 1099.79 569.173C1099.02 568.773 1098.36 568.195 1097.87 567.486L1071.54 529.963C1070.72 528.794 1070.4 527.348 1070.65 525.943C1070.9 524.538 1071.7 523.29 1072.87 522.473C1074.04 521.655 1075.48 521.336 1076.89 521.584C1078.29 521.833 1079.54 522.63 1080.36 523.799L1106.66 561.304C1107.23 562.108 1107.57 563.054 1107.64 564.037C1107.7 565.019 1107.5 566.002 1107.05 566.876C1106.59 567.751 1105.91 568.484 1105.07 568.996C1104.22 569.508 1103.26 569.779 1102.27 569.78Z" fill="black"/>
<path d="M1175.94 750.225C1175.2 750.225 1174.48 750.074 1173.8 749.781C1173.13 749.489 1172.52 749.06 1172.01 748.523C1118.26 691.325 1023.66 644.914 1022.69 644.466C1021.41 643.841 1020.43 642.732 1019.96 641.382C1019.5 640.033 1019.59 638.554 1020.21 637.271C1020.84 635.988 1021.95 635.006 1023.29 634.54C1024.64 634.075 1026.12 634.164 1027.41 634.789C1031.35 636.707 1124.82 682.508 1179.86 741.158C1180.84 742.199 1181.36 743.584 1181.31 745.009C1181.26 746.434 1180.65 747.782 1179.61 748.756C1178.62 749.695 1177.31 750.22 1175.94 750.225Z" fill="black"/>
<path d="M1241.24 390.048C1240.86 390.05 1240.48 390.008 1240.11 389.922C1238.72 389.625 1237.5 388.789 1236.72 387.597C1235.95 386.405 1235.68 384.953 1235.97 383.561C1241.74 356.073 1271.7 348.063 1287.83 343.709C1291.07 342.83 1293.85 342.078 1295.41 341.451C1296.71 340.969 1298.16 341.014 1299.43 341.575C1300.71 342.136 1301.71 343.171 1302.24 344.46C1302.77 345.749 1302.78 347.193 1302.26 348.487C1301.74 349.781 1300.74 350.824 1299.47 351.396C1296.58 352.461 1293.62 353.359 1290.62 354.084C1275.79 358.062 1250.97 364.746 1246.54 385.765C1246.29 386.982 1245.62 388.074 1244.66 388.855C1243.69 389.636 1242.48 390.057 1241.24 390.048Z" fill="black"/>
<path d="M1416.11 511.453C1415.5 511.448 1414.89 511.339 1414.32 511.13C1413.65 510.892 1413.04 510.525 1412.52 510.05C1412 509.575 1411.57 509.001 1411.27 508.362C1410.97 507.723 1410.8 507.031 1410.76 506.325C1410.73 505.619 1410.84 504.914 1411.08 504.249C1419.05 482.083 1442.52 469.289 1443.53 468.751C1444.78 468.076 1446.26 467.928 1447.62 468.34C1448.99 468.752 1450.14 469.689 1450.81 470.946C1451.49 472.203 1451.63 473.677 1451.22 475.043C1450.81 476.409 1449.87 477.556 1448.62 478.23C1448.35 478.356 1427.74 489.681 1421.18 507.905C1420.81 508.947 1420.12 509.847 1419.21 510.482C1418.3 511.117 1417.22 511.456 1416.11 511.453Z" fill="black"/>
<path d="M1558.89 726.609C1556.31 726.589 1553.79 725.742 1551.72 724.19C1545.45 719.602 1546.98 714.657 1549.93 704.819C1550.49 703.027 1551.12 701.002 1551.72 698.619C1552.17 697.112 1552.48 695.572 1552.67 694.014C1546.87 705.804 1529.54 719.871 1518.97 718.796C1516.99 718.647 1515.11 717.872 1513.6 716.583C1512.1 715.294 1511.04 713.559 1510.58 711.628C1508.68 704.084 1512.28 699.371 1515.47 695.196C1519.46 690.56 1522.11 684.931 1523.14 678.908C1512.66 687.383 1498.72 692.329 1490.21 691.756C1481.98 691.2 1479.8 686.022 1479.22 683.835C1477.11 675.539 1483.7 670.038 1489.98 664.733C1493.6 661.945 1496.89 658.753 1499.79 655.218C1509.02 643.069 1513.49 631.35 1513.09 620.347C1513.1 620.252 1513.1 620.156 1513.09 620.061C1511.82 618.466 1503.13 618.448 1498.99 618.466C1490.3 618.466 1482.05 618.466 1477.88 613.341C1476.87 612.062 1476.17 610.567 1475.83 608.972C1475.5 607.377 1475.54 605.726 1475.94 604.148C1479.53 586.48 1522.91 577.717 1536.08 575.477C1536.78 575.36 1537.49 575.381 1538.18 575.538C1538.87 575.696 1539.52 575.988 1540.09 576.397C1540.67 576.807 1541.16 577.326 1541.53 577.924C1541.91 578.523 1542.16 579.189 1542.28 579.886C1542.4 580.582 1542.38 581.295 1542.22 581.984C1542.06 582.672 1541.77 583.323 1541.36 583.899C1540.95 584.474 1540.43 584.964 1539.83 585.339C1539.24 585.714 1538.57 585.968 1537.87 586.086C1514.22 590.153 1487.91 599.274 1486.45 606.37C1486.43 606.477 1486.43 606.586 1486.45 606.693C1488.38 607.75 1494.96 607.732 1498.99 607.75C1509.31 607.75 1523.43 607.75 1523.88 619.989C1524.38 633.536 1519.18 647.585 1508.41 661.759C1505.03 665.95 1501.17 669.733 1496.91 673.03C1493.52 675.861 1489.74 679.033 1489.58 680.843C1490.57 681.147 1493.58 681.47 1499.19 679.732C1509.11 676.632 1521.64 668.496 1525.31 659.519C1525.79 658.374 1526.64 657.429 1527.74 656.844C1528.83 656.259 1530.09 656.069 1531.31 656.307C1532.53 656.546 1533.62 657.197 1534.41 658.151C1535.21 659.106 1535.64 660.304 1535.65 661.544C1535.65 662.314 1535.65 680.305 1530.28 691.881C1528.58 695.41 1526.47 698.729 1524 701.773C1521.33 705.249 1520.58 706.432 1520.83 708.223C1525.49 707.776 1538.39 698.852 1543.07 689.283C1546.04 682.67 1548.27 675.746 1549.7 668.64C1549.92 667.487 1550.52 666.439 1551.39 665.656C1552.26 664.872 1553.37 664.397 1554.54 664.301C1555.71 664.206 1556.88 664.496 1557.87 665.127C1558.86 665.758 1559.62 666.696 1560.02 667.798C1560.31 668.55 1566.62 686.272 1562.03 701.844C1561.31 704.263 1560.67 706.342 1560.11 708.152C1559.27 710.645 1558.56 713.181 1557.98 715.75C1558.37 716.018 1558.82 716.18 1559.77 715.75C1563.98 714.119 1569.7 705.769 1571.99 694.569C1573.94 685.054 1573.68 673.37 1571.1 655.487C1570.89 654.076 1571.26 652.641 1572.11 651.498C1572.96 650.356 1574.24 649.599 1575.65 649.395C1577.06 649.19 1578.49 649.555 1579.64 650.408C1580.78 651.262 1581.54 652.535 1581.74 653.946C1584.5 673.138 1584.73 685.932 1582.53 696.737C1579.64 710.858 1572.05 722.541 1563.64 725.784C1562.12 726.338 1560.51 726.617 1558.89 726.609Z" fill="black"/>
<path d="M703.659 527.541C701.41 527.536 699.184 527.098 697.101 526.251C681.887 520.158 674.415 493.745 673.609 490.771C673.238 489.392 673.43 487.923 674.142 486.687C674.855 485.45 676.029 484.547 677.407 484.176C678.786 483.806 680.255 483.998 681.491 484.71C682.728 485.422 683.631 486.597 684.002 487.975C686.492 497.275 693.356 513.17 701.115 516.27C702.323 516.737 703.632 516.888 704.915 516.706C706.198 516.524 707.413 516.016 708.444 515.23C712.708 512.632 709.877 499.103 706.293 490.681C705.772 489.379 705.78 487.925 706.315 486.63C706.851 485.334 707.871 484.298 709.16 483.744C710.448 483.19 711.901 483.161 713.21 483.664C714.519 484.166 715.58 485.16 716.167 486.434C717.457 489.409 728.244 515.768 714.034 524.423C710.927 526.394 707.338 527.472 703.659 527.541Z" fill="black"/>
<path d="M687.532 545.513C682.353 545.513 677.139 542.198 672.014 535.604C671.565 535.048 671.231 534.41 671.032 533.724C670.833 533.039 670.772 532.32 670.853 531.611C670.935 530.902 671.156 530.216 671.506 529.593C671.855 528.971 672.325 528.424 672.888 527.985C673.45 527.546 674.095 527.223 674.784 527.036C675.473 526.849 676.192 526.8 676.9 526.894C677.607 526.988 678.289 527.221 678.906 527.582C679.522 527.942 680.061 528.421 680.49 528.991C684.074 533.632 686.726 534.994 687.873 534.725C690.345 534.17 693.571 527.665 694.789 522.182C695.098 520.79 695.948 519.577 697.151 518.811C698.354 518.044 699.812 517.788 701.205 518.096C702.597 518.405 703.81 519.255 704.576 520.458C705.342 521.661 705.599 523.119 705.29 524.512C704.609 527.54 700.739 542.789 690.238 545.155C689.353 545.38 688.445 545.5 687.532 545.513Z" fill="black"/>
<path d="M1754.12 1131.78H1753.73C1753.02 1131.74 1752.33 1131.55 1751.7 1131.24C1751.06 1130.93 1750.49 1130.5 1750.02 1129.97C1749.56 1129.44 1749.2 1128.82 1748.97 1128.15C1748.74 1127.48 1748.65 1126.77 1748.69 1126.06C1753.82 1044.73 1733.98 955.166 1733.78 954.27C1733.54 952.905 1733.83 951.497 1734.59 950.341C1735.36 949.185 1736.55 948.371 1737.9 948.067C1739.25 947.764 1740.67 947.996 1741.86 948.715C1743.05 949.433 1743.91 950.583 1744.27 951.923C1744.48 952.837 1764.64 1043.83 1759.43 1126.74C1759.34 1128.1 1758.75 1129.37 1757.76 1130.3C1756.78 1131.24 1755.48 1131.76 1754.12 1131.78Z" fill="black"/>
<path d="M1779.62 1226.47C1779.18 1226.48 1778.74 1226.42 1778.31 1226.31C1776.93 1225.96 1775.74 1225.09 1775.01 1223.87C1774.27 1222.65 1774.05 1221.18 1774.39 1219.8C1794.19 1140.63 1782.88 1033.44 1782.76 1032.29C1782.61 1030.87 1783.03 1029.44 1783.93 1028.32C1784.83 1027.21 1786.13 1026.5 1787.56 1026.34C1788.99 1026.19 1790.41 1026.61 1791.53 1027.51C1792.65 1028.41 1793.36 1029.72 1793.51 1031.15C1793.99 1035.61 1805.14 1141.35 1784.87 1222.4C1784.58 1223.57 1783.9 1224.6 1782.95 1225.34C1782 1226.08 1780.83 1226.48 1779.62 1226.47Z" fill="black"/>
</svg>
