<svg width="301" height="300" viewBox="0 0 301 300" fill="none" xmlns="http://www.w3.org/2000/svg">
<path d="M53.8147 253.206C52.2557 253.207 50.7284 252.765 49.4117 251.931C46.9288 250.369 45.2528 247.533 44.8156 244.15L24.3569 86.6467C23.6282 80.9799 27.3416 75.8203 32.6413 75.1002L84.6653 68.161C89.3512 67.536 93.8576 71.2887 94.7125 76.5267L118.254 221.139C119.215 227.049 116.088 233.145 111.278 234.732L56.6116 252.747C55.7098 253.047 54.7655 253.203 53.8147 253.206ZM85.6966 69.7725C85.4258 69.7735 85.1552 69.7912 84.8867 69.8257L32.8627 76.7676C28.4794 77.3533 25.4134 81.6805 26.03 86.4169L46.4887 243.934C46.8614 246.819 48.2572 249.211 50.3143 250.507C51.1672 251.04 52.1293 251.374 53.1292 251.485C54.1289 251.596 55.141 251.482 56.0903 251.149L110.763 233.122C114.821 231.786 117.441 226.525 116.606 221.4L93.0646 76.7872C92.3947 72.7572 89.1886 69.7725 85.6966 69.7725Z" fill="black"/>
<path d="M115.395 232.484L61.3058 250.322C56.2613 251.984 51.4829 248.455 50.6897 242.449L29.99 85.8369C29.3034 80.6521 32.6609 75.9466 37.442 75.3103L88.9616 68.4357C93.185 67.8751 97.215 71.2831 98.0054 76.0699L121.712 219.903C122.618 225.387 119.809 231.024 115.395 232.484Z" fill="#FBF6FF"/>
<path d="M58.8002 251.566C57.2585 251.568 55.748 251.131 54.4451 250.308C51.9704 248.752 50.2945 245.928 49.8488 242.556L29.1547 85.9459C28.412 80.3211 32.0777 75.1756 37.3298 74.475L88.8493 67.603C93.496 66.981 97.9745 70.7196 98.8349 75.9351L122.542 219.768C123.511 225.654 120.423 231.705 115.659 233.277L61.5692 251.115C60.6763 251.412 59.7413 251.565 58.8002 251.566ZM89.8694 69.2146C89.6024 69.2155 89.3356 69.2334 89.0707 69.2679L37.5512 76.1425C33.2185 76.7199 30.2 81.019 30.8251 85.7245L51.5192 242.334C51.8975 245.209 53.2904 247.594 55.3418 248.881C56.183 249.406 57.1313 249.736 58.117 249.846C59.1026 249.957 60.1003 249.844 61.0367 249.517L115.126 231.679C119.145 230.356 121.737 225.135 120.897 220.039L97.1758 76.207C96.5143 72.1768 93.3278 69.2146 89.8694 69.2146Z" fill="black"/>
<path d="M61.1292 244.254C59.9895 244.256 58.8732 243.932 57.9119 243.318C56.1099 242.184 54.888 240.132 54.5489 237.692L35.3654 95.0405C34.8048 90.9122 37.4756 87.0951 41.3067 86.5319L88.6337 79.5759C92.0892 79.0686 95.4158 81.818 96.0464 85.6883L117.626 218.183C118.321 222.465 116.04 226.871 112.534 227.991L63.105 243.924C62.4678 244.137 61.8011 244.248 61.1292 244.254ZM89.48 81.1901C89.283 81.1902 89.0864 81.2042 88.8915 81.2322L41.5646 88.1882C38.6387 88.6197 36.6096 91.5876 37.044 94.8078L56.2275 237.459C56.4882 239.403 57.4299 241.017 58.8087 241.889C59.369 242.24 60.0003 242.462 60.6569 242.537C61.3134 242.612 61.9785 242.538 62.6034 242.324L112.032 226.391C114.779 225.506 116.55 221.94 115.978 218.444L94.3985 85.9488C93.9501 83.2023 91.8117 81.1901 89.48 81.1901Z" fill="black"/>
<path d="M65.4425 75.4923C65.4702 75.6303 65.4705 75.7725 65.4432 75.9107C65.4159 76.0488 65.3618 76.1802 65.2836 76.2974C65.2055 76.4145 65.1051 76.515 64.9881 76.5933C64.8711 76.6716 64.7397 76.7261 64.6016 76.7535C64.3149 76.7771 64.0305 76.6871 63.8094 76.5032C63.5883 76.3193 63.4481 76.056 63.419 75.7698C63.3912 75.632 63.3909 75.4899 63.4182 75.3521C63.4455 75.2141 63.4998 75.0828 63.578 74.966C63.656 74.849 63.7565 74.7488 63.8735 74.6708C63.9905 74.5928 64.1217 74.5386 64.2597 74.5115C64.5461 74.4872 64.8306 74.5764 65.0517 74.7599C65.273 74.9433 65.4134 75.2064 65.4425 75.4923Z" fill="black"/>
<path d="M58.0687 82.1176C57.8457 82.1332 57.6256 82.0596 57.4569 81.913C57.2883 81.7663 57.1846 81.5587 57.169 81.3357C57.1534 81.1126 57.2271 80.8926 57.3736 80.724C57.5203 80.5552 57.7279 80.4517 57.951 80.4361L71.9442 78.435C72.165 78.4035 72.3892 78.4608 72.5676 78.5946C72.7461 78.7284 72.864 78.9276 72.8956 79.1482C72.9273 79.369 72.8698 79.5933 72.736 79.7718C72.6024 79.9501 72.4032 80.0682 72.1824 80.0997L58.1892 82.1008C58.1494 82.1092 58.1092 82.1148 58.0687 82.1176Z" fill="black"/>
<path d="M53.299 156.299C53.0945 156.3 52.8964 156.228 52.7416 156.095C52.5869 155.961 52.4861 155.775 52.4582 155.573L50.3115 140.08C50.2863 139.896 50.323 139.709 50.4157 139.547C50.5085 139.386 50.6522 139.26 50.8243 139.189C50.956 139.136 54.0557 137.892 56.7994 139.469C58.7443 140.591 59.9635 142.779 60.4203 145.994C60.8884 149.295 60.3305 151.899 58.7639 153.732C56.6312 156.23 53.4391 156.305 53.3045 156.308L53.299 156.299ZM52.0826 140.56L54.0193 154.533C55.3656 154.305 56.5948 153.629 57.5056 152.61C58.7359 151.16 59.1592 149.007 58.7639 146.212C58.3828 143.539 57.4439 141.756 55.9613 140.913C54.5545 140.108 52.9402 140.338 52.0826 140.56Z" fill="black"/>
<path d="M64.5653 153.784H64.4307C64.3215 153.768 64.2168 153.729 64.1226 153.67C64.0284 153.613 63.9467 153.537 63.8819 153.447C63.8171 153.358 63.7704 153.256 63.7449 153.148C63.7194 153.042 63.7152 152.929 63.7329 152.82L66.3449 136.546C66.3735 136.369 66.4584 136.205 66.587 136.079C66.7155 135.954 66.881 135.872 67.059 135.848C67.2371 135.823 67.4184 135.856 67.5764 135.942C67.7343 136.028 67.8606 136.162 67.9367 136.325L74.5563 150.537C74.6507 150.739 74.661 150.97 74.5848 151.18C74.5086 151.389 74.3522 151.56 74.15 151.654C73.9478 151.749 73.7165 151.759 73.5068 151.683C73.2971 151.606 73.1262 151.45 73.0317 151.248L67.5696 139.52L65.3948 153.087C65.361 153.282 65.2593 153.459 65.1075 153.588C64.9557 153.715 64.7636 153.784 64.5653 153.784Z" fill="black"/>
<path d="M63.6456 147.49C63.4364 147.493 63.2337 147.417 63.0774 147.278C62.921 147.139 62.8221 146.946 62.8001 146.738C62.778 146.53 62.8343 146.321 62.958 146.152C63.0818 145.984 63.2641 145.867 63.4691 145.826L72.6812 143.836C72.7907 143.808 72.9045 143.802 73.0163 143.819C73.128 143.836 73.235 143.876 73.3311 143.935C73.4273 143.995 73.5104 144.073 73.5756 144.165C73.6407 144.257 73.6868 144.362 73.7106 144.472C73.7346 144.583 73.736 144.697 73.7148 144.808C73.6937 144.919 73.6503 145.024 73.5875 145.118C73.5246 145.212 73.4435 145.292 73.349 145.354C73.2543 145.416 73.1483 145.458 73.0371 145.478L63.825 147.471C63.7659 147.483 63.7059 147.489 63.6456 147.49Z" fill="black"/>
<path d="M88.2049 148.505H88.0845C87.8643 148.473 87.6657 148.355 87.5322 148.177C87.3987 147.999 87.3414 147.775 87.3726 147.555L89.6343 131.762C89.6604 131.584 89.7432 131.418 89.8707 131.291C89.998 131.163 90.1632 131.079 90.3418 131.052C90.5203 131.026 90.7027 131.057 90.8619 131.142C91.0212 131.227 91.1488 131.361 91.2261 131.524L97.7224 145.361C97.8123 145.562 97.8198 145.79 97.743 145.996C97.6663 146.203 97.5117 146.371 97.3123 146.465C97.1128 146.558 96.8847 146.57 96.6769 146.497C96.469 146.424 96.298 146.273 96.2007 146.075L90.9094 134.775L89.0457 147.785C89.0166 147.986 88.9152 148.17 88.7607 148.303C88.606 148.435 88.4085 148.507 88.2049 148.505Z" fill="black"/>
<path d="M87.266 142.387C87.0591 142.386 86.8598 142.309 86.7062 142.17C86.5527 142.032 86.4557 141.841 86.4339 141.635C86.412 141.43 86.4668 141.223 86.5878 141.055C86.7087 140.887 86.8874 140.77 87.0894 140.725L95.8334 138.836C96.0516 138.79 96.2795 138.831 96.4668 138.952C96.6542 139.074 96.7857 139.264 96.8325 139.482C96.8793 139.701 96.8376 139.928 96.7164 140.116C96.5954 140.303 96.4047 140.435 96.1865 140.481L87.4454 142.37C87.3863 142.382 87.3261 142.387 87.266 142.387Z" fill="black"/>
<path d="M80.8985 150.137C80.6957 150.138 80.4989 150.068 80.3444 149.936C80.1899 149.804 80.088 149.622 80.0576 149.421L77.8296 134.719C77.8089 134.608 77.8109 134.494 77.8353 134.384C77.8598 134.274 77.906 134.169 77.9715 134.078C78.0371 133.986 78.1203 133.908 78.2166 133.849C78.3128 133.79 78.4199 133.751 78.5315 133.734C78.6431 133.717 78.7569 133.723 78.8661 133.751C78.9755 133.779 79.0779 133.829 79.1675 133.898C79.2572 133.967 79.332 134.053 79.3877 134.151C79.4433 134.249 79.4786 134.357 79.4915 134.469L81.7196 149.169C81.7362 149.278 81.7313 149.39 81.7047 149.497C81.6783 149.605 81.6309 149.706 81.5654 149.795C81.4997 149.884 81.4172 149.959 81.3225 150.017C81.2277 150.074 81.1227 150.111 81.0134 150.128L80.8985 150.137Z" fill="black"/>
<path d="M74.3739 136.322C74.1654 136.322 73.9642 136.245 73.8094 136.105C73.6548 135.965 73.5574 135.773 73.5364 135.566C73.5156 135.358 73.5724 135.15 73.696 134.983C73.8198 134.815 74.0014 134.699 74.2057 134.657L83.0618 132.83C83.2803 132.785 83.5079 132.829 83.6942 132.951C83.8805 133.074 84.0103 133.266 84.0553 133.484C84.1003 133.703 84.0565 133.93 83.9338 134.117C83.8111 134.303 83.6194 134.433 83.4009 134.478L74.542 136.305C74.4867 136.316 74.4303 136.322 74.3739 136.322Z" fill="black"/>
<path d="M50.9278 172.251C50.7234 172.25 50.5267 172.173 50.3745 172.037C50.2222 171.9 50.125 171.713 50.101 171.509C50.077 171.306 50.1277 171.101 50.2438 170.933C50.3599 170.765 50.5333 170.645 50.7318 170.595L102.991 158.048C103.099 158.022 103.21 158.018 103.319 158.036C103.428 158.052 103.533 158.091 103.627 158.148C103.722 158.207 103.803 158.282 103.868 158.372C103.933 158.462 103.98 158.562 104.006 158.67C104.031 158.777 104.036 158.889 104.018 158.999C104.001 159.107 103.962 159.212 103.905 159.306C103.847 159.401 103.771 159.482 103.682 159.548C103.592 159.612 103.491 159.659 103.383 159.684L51.1129 172.229C51.0523 172.244 50.9902 172.251 50.9278 172.251Z" fill="black"/>
<path d="M264.668 169.062C260.395 186.612 230.8 205.114 230.8 205.114L252.859 232.654L240.047 235.429C240.047 235.429 233.041 231.945 224.222 225.261C215.738 218.838 208.183 210.579 208.183 210.579L214.228 241.02L202.09 243.649C202.09 243.649 183.313 207.37 186.263 186.384C188.225 172.497 203.92 161.551 201.776 148.978C199.985 138.472 188.242 126.118 174.715 112.015C169.625 115.614 160.724 120.703 149.713 122.057C132.191 124.195 124.033 107.744 124.033 107.744L126.975 104.942C126.975 104.942 137.407 111.228 145.702 108.288C151.495 106.231 154.937 97.4506 156.487 92.347C153.557 88.9615 150.716 85.4892 148.045 81.9412C141.165 72.8076 122.864 55.8157 144.755 37.9101C162.325 23.5329 180.118 39.9475 212.278 74.3938C251.171 116.048 272.398 137.373 264.668 169.062Z" fill="#8800FF"/>
<path d="M135.447 102.761L116.042 118.338L96.9653 84.054L116.911 73.1072L135.447 102.761Z" fill="#FBF6FF"/>
<path d="M116.043 119.179C115.988 119.183 115.934 119.183 115.88 119.179C115.762 119.153 115.651 119.103 115.554 119.031C115.458 118.959 115.377 118.867 115.32 118.761L96.234 84.4634C96.1802 84.3665 96.1458 84.2598 96.1334 84.1497C96.1208 84.0395 96.1301 83.928 96.1608 83.8214C96.1916 83.7149 96.2432 83.6154 96.3125 83.5289C96.3818 83.4423 96.4676 83.3703 96.5648 83.3171L116.508 72.3704C116.695 72.2649 116.916 72.2352 117.124 72.2873C117.333 72.3395 117.513 72.4694 117.629 72.6506L136.165 102.305C136.274 102.479 136.315 102.688 136.281 102.891C136.246 103.094 136.138 103.277 135.977 103.406L116.575 118.983C116.426 119.108 116.237 119.177 116.043 119.179ZM98.1062 84.3849L116.286 117.06L134.349 102.573L116.617 74.2256L98.1062 84.3849Z" fill="black"/>
<path d="M103.521 81.2998C103.373 81.2998 103.228 81.2609 103.1 81.1871C102.972 81.1135 102.866 81.0073 102.792 80.8793L102.75 80.8037C102.322 80.092 102.042 79.3012 101.927 78.4786C101.812 77.6561 101.864 76.8187 102.08 76.0169C102.255 75.3922 102.555 74.8096 102.963 74.3051C103.371 73.8005 103.877 73.3846 104.451 73.0826C106.974 71.7766 110.269 72.9256 111.948 75.6974L111.99 75.7702C112.049 75.8672 112.087 75.9749 112.103 76.0871C112.119 76.1992 112.112 76.3135 112.083 76.4228C112.054 76.5323 112.003 76.6346 111.933 76.7237C111.863 76.813 111.776 76.887 111.676 76.9416L103.927 81.196C103.803 81.2644 103.663 81.3001 103.521 81.2998ZM106.674 74.2345C106.17 74.2304 105.673 74.3476 105.225 74.5763C104.853 74.7736 104.525 75.0449 104.262 75.3736C103.999 75.7024 103.806 76.0814 103.695 76.4878C103.444 77.4167 103.51 78.403 103.882 79.2902L110.048 75.9104C109.638 75.4052 109.124 74.9942 108.542 74.705C107.959 74.4158 107.321 74.2553 106.671 74.2345H106.674Z" fill="black"/>
<path d="M104.104 88.6815C103.919 88.682 103.739 88.6214 103.592 88.5093C103.445 88.3971 103.339 88.2398 103.291 88.0614C103.242 87.8831 103.254 87.6936 103.324 87.5226C103.394 87.3515 103.518 87.2082 103.678 87.1149L116.597 79.4948C116.693 79.4277 116.801 79.3812 116.915 79.3583C117.03 79.3353 117.148 79.3364 117.261 79.3614C117.375 79.3863 117.483 79.4348 117.577 79.5035C117.671 79.5722 117.75 79.6598 117.808 79.7606C117.867 79.8614 117.904 79.9733 117.917 80.0891C117.929 80.205 117.918 80.3223 117.883 80.4335C117.849 80.5448 117.791 80.6475 117.715 80.7354C117.638 80.8232 117.544 80.8941 117.438 80.9436L104.518 88.5638C104.393 88.6385 104.25 88.679 104.104 88.6815Z" fill="black"/>
<path d="M107.548 94.7323C107.365 94.7332 107.188 94.6744 107.041 94.5651C106.895 94.4557 106.788 94.3017 106.737 94.1262C106.686 93.9508 106.694 93.7635 106.759 93.5928C106.824 93.4219 106.942 93.277 107.097 93.1798L119.964 85.0299C120.057 84.964 120.162 84.9178 120.274 84.894C120.385 84.8701 120.5 84.8692 120.612 84.8913C120.724 84.9133 120.83 84.9579 120.924 85.0222C121.018 85.0866 121.098 85.1695 121.159 85.2657C121.22 85.362 121.261 85.4696 121.279 85.5821C121.297 85.6948 121.293 85.8098 121.265 85.9204C121.237 86.0309 121.187 86.1347 121.118 86.2255C121.049 86.3161 120.962 86.3919 120.863 86.448L108.005 94.5977C107.868 94.6847 107.71 94.7314 107.548 94.7323Z" fill="black"/>
<path d="M111.088 100.971C110.908 100.971 110.733 100.913 110.588 100.807C110.444 100.7 110.337 100.549 110.284 100.378C110.231 100.206 110.234 100.022 110.294 99.852C110.353 99.6822 110.466 99.5361 110.614 99.435L123.419 90.7245C123.511 90.6624 123.615 90.6189 123.723 90.5967C123.832 90.5743 123.944 90.5737 124.053 90.5949C124.162 90.6159 124.266 90.6583 124.359 90.7195C124.452 90.7807 124.531 90.8595 124.593 90.9516C124.656 91.0435 124.699 91.1469 124.721 91.2558C124.744 91.3645 124.744 91.4767 124.723 91.5856C124.702 91.6947 124.66 91.7986 124.599 91.8912C124.537 91.9839 124.458 92.0637 124.367 92.1258L111.564 100.836C111.423 100.928 111.257 100.975 111.088 100.971Z" fill="black"/>
<path d="M127.082 101.357C126.922 101.357 126.766 101.311 126.631 101.225C126.496 101.139 126.389 101.016 126.321 100.871C126.254 100.726 126.229 100.565 126.251 100.406C126.272 100.248 126.337 100.098 126.44 99.9757L142.647 80.7361C142.791 80.5656 142.997 80.4591 143.219 80.4402C143.442 80.4213 143.662 80.4915 143.833 80.6353C144.003 80.7792 144.11 80.9848 144.129 81.2071C144.148 81.4294 144.078 81.6502 143.934 81.8208L127.727 101.058C127.648 101.152 127.549 101.227 127.438 101.279C127.326 101.331 127.205 101.358 127.082 101.357Z" fill="black"/>
<path d="M190.888 112.753C190.888 112.753 184.756 118.285 168.821 116.645C152.885 115.006 142.726 100.39 138.202 96.9292C134.909 94.4069 131.58 93.3784 132.037 91.7024C132.331 90.6038 133.505 90.3011 133.505 90.3011C133.505 90.3011 132.945 89.18 133.581 88.2188C134.217 87.2575 135.419 87.4678 135.419 87.4678C135.492 84.6091 138.132 85.3603 139.708 87.0082L139.864 87.1706C140.568 86.9437 141.154 86.8456 141.658 87.1706C142.423 87.6808 142.883 89.0119 143.101 90.1666C143.662 90.8869 144.716 91.5034 145.755 92.0779C157.54 98.5715 173.279 99.5776 173.279 99.5776L190.888 112.753Z" fill="#8800FF"/>
<path d="M264.256 253.135C260.45 267.48 245.72 268.149 218.881 265.159C196.303 262.636 191.281 246.909 176.141 244.171C158.233 240.936 153.601 257.841 134.865 254.328C116.13 250.813 123.374 227.542 111.077 220.735C100.749 215.019 89.3792 223.446 81.2938 217.443C68.9624 208.294 74.5676 194.316 70.5796 182.313C66.5915 170.308 57.458 169.846 57.458 169.846L97.1339 160.318C97.1339 160.318 106.035 162.19 110.045 169.308C115.611 179.19 109.832 188.341 117.612 196.188C121.895 200.512 130.759 195.375 139.231 200.781C147.703 206.187 141.538 218.401 152.062 223.594C164.158 229.566 168.496 213.981 182.225 215.787C195.955 217.591 201.106 234.034 223.261 235.08C250.361 236.356 246.263 226.837 246.263 226.837L244.771 216.262C244.771 216.262 255.334 214.129 260.933 225.754C266.533 237.379 264.256 253.135 264.256 253.135Z" fill="#FBF6FF"/>
<path d="M239.246 267.429C232.89 267.429 225.794 266.774 218.787 265.994C205.833 264.551 198.471 258.771 191.975 253.662C187.05 249.795 182.399 246.146 176 244.974C167.475 243.437 162.134 246.584 156.48 249.918C150.596 253.385 144.522 256.97 134.719 255.131C123.592 253.046 121.238 244.445 118.96 236.13C117.278 230.009 115.701 224.231 110.678 221.45C105.754 218.723 100.519 219.377 95.4603 220.007C90.1354 220.671 85.1161 221.298 80.8002 218.096C72.4401 211.89 72.0057 203.444 71.5852 195.278C71.3638 191.019 71.1369 186.62 69.7917 182.556C66.0531 171.287 57.7714 170.682 57.4212 170.663C57.2199 170.651 57.0295 170.567 56.8846 170.427C56.7396 170.288 56.6497 170.1 56.6314 169.899C56.6131 169.698 56.6674 169.497 56.7846 169.334C56.9019 169.17 57.0739 169.053 57.2698 169.005L96.9457 159.477C97.0665 159.449 97.192 159.449 97.3128 159.477C97.6912 159.555 106.637 161.508 110.785 168.876C113.447 173.604 113.708 177.99 113.963 182.234C114.243 186.929 114.507 191.36 118.24 195.614C119.691 197.267 122.399 197.225 125.826 197.172C129.89 197.109 134.946 197.031 139.679 200.052C143.962 202.785 144.769 207.104 145.548 211.283C146.408 215.895 147.229 220.251 152.43 222.821C158.403 225.768 162.309 223.101 166.836 220.019C170.925 217.215 175.56 214.055 182.331 214.946C188.411 215.744 192.872 219.303 197.597 223.073C203.807 228.027 210.848 233.646 223.296 234.233C239.088 234.978 243.663 231.96 244.983 230.093C245.297 229.682 245.507 229.199 245.592 228.687C245.678 228.176 245.639 227.651 245.475 227.159C245.45 227.091 245.432 227.022 245.42 226.952L243.929 216.38C243.899 216.168 243.95 215.951 244.074 215.775C244.199 215.6 244.385 215.478 244.596 215.436C246.723 215.111 248.897 215.247 250.967 215.84C254.181 216.725 258.651 219.102 261.68 225.39C267.327 237.108 265.187 252.603 265.094 253.257C265.094 253.287 265.094 253.32 265.074 253.352C263.151 260.591 258.485 264.761 250.386 266.471C247.13 267.158 243.344 267.429 239.246 267.429ZM171.704 242.918C173.243 242.922 174.777 243.065 176.289 243.344C183.108 244.577 187.917 248.352 193.011 252.351C199.64 257.553 206.492 262.931 218.972 264.324C246.21 267.359 259.823 266.435 263.426 252.971C263.553 252.021 265.43 237.063 260.159 226.119C255.77 217.014 248.16 216.801 245.706 216.992L247.071 226.632C247.31 227.367 247.371 228.147 247.25 228.911C247.13 229.674 246.831 230.397 246.378 231.024C243.713 234.875 235.916 236.52 223.206 235.92C210.215 235.308 202.947 229.511 196.535 224.396C191.801 220.62 187.721 217.35 182.105 216.621C175.97 215.817 171.804 218.664 167.775 221.417C163.229 224.522 158.526 227.733 151.68 224.351C145.716 221.408 144.743 216.204 143.886 211.613C143.14 207.611 142.434 203.834 138.768 201.494C134.458 198.744 129.881 198.813 125.843 198.876C122.135 198.935 118.932 198.983 116.967 196.746C112.853 192.057 112.573 187.346 112.276 182.357C112.032 178.305 111.783 174.113 109.311 169.724C105.835 163.557 98.3806 161.489 97.1362 161.187L60.9832 169.875C64.1865 171.15 68.8164 174.297 71.3892 182.057C72.8073 186.336 73.0426 190.851 73.2669 195.23C73.6872 203.357 74.0824 211.05 81.8062 216.783C85.5784 219.587 90.2784 218.997 95.2585 218.379C100.583 217.715 106.096 217.025 111.513 220.019C117.158 223.14 118.909 229.547 120.605 235.712C122.847 243.888 124.96 251.612 135.049 253.503C144.233 255.227 149.78 251.957 155.648 248.495C160.278 245.742 165.071 242.918 171.707 242.918H171.704Z" fill="black"/>
<path d="M264.256 253.977C264.074 253.977 263.899 253.919 263.753 253.809C263.608 253.701 263.501 253.548 263.449 253.374C260.294 242.724 249.361 245.656 248.896 245.787C248.78 245.82 248.657 245.827 248.539 245.809C248.42 245.791 248.306 245.748 248.206 245.681C248.104 245.615 248.02 245.528 247.955 245.426C247.891 245.324 247.849 245.21 247.834 245.09L245.42 226.948C245.405 226.839 245.413 226.728 245.441 226.622C245.47 226.515 245.519 226.414 245.587 226.327C245.653 226.239 245.737 226.166 245.833 226.11C245.929 226.055 246.034 226.018 246.143 226.005C246.253 225.99 246.364 225.997 246.47 226.026C246.578 226.054 246.677 226.103 246.766 226.17C246.853 226.238 246.926 226.321 246.982 226.416C247.037 226.512 247.073 226.619 247.088 226.728L249.38 243.975C252.433 243.414 262.012 242.598 265.061 252.906C265.124 253.119 265.102 253.349 264.997 253.545C264.892 253.74 264.713 253.887 264.5 253.952C264.421 253.971 264.338 253.98 264.256 253.977Z" fill="black"/>
<path d="M74.374 177.534C74.1706 177.534 73.9739 177.461 73.8205 177.327C73.667 177.194 73.5673 177.009 73.5395 176.808C73.5119 176.607 73.5581 176.402 73.6699 176.232C73.7815 176.061 73.951 175.938 74.1469 175.884L101.979 168.114C102.194 168.056 102.424 168.083 102.618 168.192C102.812 168.302 102.955 168.485 103.015 168.699C103.075 168.914 103.047 169.143 102.937 169.338C102.827 169.532 102.645 169.674 102.43 169.734L74.5981 177.502C74.525 177.523 74.4497 177.533 74.374 177.534Z" fill="black"/>
<path d="M80.8986 195.366C80.7012 195.367 80.5101 195.298 80.3585 195.172C80.2067 195.046 80.1042 194.871 80.0688 194.677C80.0334 194.482 80.0673 194.283 80.1647 194.11C80.2622 193.939 80.4167 193.807 80.6015 193.738L105.875 184.14C106.083 184.06 106.315 184.068 106.518 184.159C106.722 184.251 106.88 184.419 106.96 184.627C107.039 184.836 107.032 185.067 106.94 185.271C106.849 185.473 106.68 185.632 106.472 185.712L81.1985 195.31C81.1029 195.348 81.0012 195.367 80.8986 195.366Z" fill="black"/>
<path d="M89.3481 211.419C89.1555 211.419 88.9689 211.353 88.8193 211.232C88.6696 211.112 88.5661 210.942 88.5262 210.753C88.4862 210.566 88.512 210.369 88.5993 210.198C88.6867 210.026 88.8303 209.889 89.0062 209.811L111.385 199.823C111.486 199.77 111.598 199.739 111.712 199.731C111.826 199.722 111.941 199.737 112.049 199.776C112.158 199.814 112.257 199.872 112.341 199.95C112.425 200.028 112.493 200.123 112.54 200.226C112.586 200.331 112.611 200.444 112.613 200.559C112.614 200.673 112.592 200.787 112.548 200.894C112.504 200.999 112.438 201.095 112.356 201.174C112.273 201.254 112.176 201.315 112.068 201.356L89.6901 211.347C89.5822 211.395 89.4658 211.419 89.3481 211.419Z" fill="black"/>
<path d="M112.618 215.524C112.435 215.526 112.257 215.467 112.111 215.358C111.965 215.248 111.858 215.094 111.807 214.918C111.756 214.743 111.763 214.557 111.828 214.386C111.893 214.215 112.012 214.069 112.167 213.972L129.862 202.762C129.955 202.693 130.061 202.644 130.174 202.618C130.286 202.591 130.403 202.588 130.517 202.609C130.63 202.63 130.738 202.675 130.834 202.74C130.93 202.804 131.012 202.888 131.074 202.986C131.136 203.083 131.177 203.193 131.195 203.307C131.213 203.421 131.207 203.538 131.178 203.649C131.148 203.761 131.096 203.866 131.025 203.956C130.953 204.048 130.864 204.123 130.762 204.177L113.067 215.388C112.933 215.475 112.777 215.523 112.618 215.524Z" fill="black"/>
<path d="M124.946 231.9C124.777 231.9 124.612 231.848 124.473 231.752C124.333 231.654 124.227 231.519 124.166 231.36C124.105 231.203 124.094 231.03 124.133 230.865C124.172 230.7 124.26 230.552 124.386 230.438L140.559 215.844C140.639 215.762 140.736 215.696 140.842 215.651C140.949 215.606 141.064 215.585 141.18 215.586C141.295 215.588 141.409 215.613 141.514 215.661C141.62 215.709 141.714 215.778 141.791 215.865C141.869 215.951 141.927 216.051 141.964 216.162C142 216.272 142.014 216.387 142.003 216.503C141.993 216.618 141.959 216.729 141.903 216.831C141.848 216.932 141.772 217.022 141.68 217.092L125.507 231.684C125.353 231.824 125.153 231.9 124.946 231.9Z" fill="black"/>
<path d="M138.017 247.391C137.858 247.391 137.702 247.344 137.567 247.259C137.432 247.173 137.325 247.05 137.257 246.906C137.19 246.761 137.165 246.6 137.185 246.443C137.206 246.284 137.271 246.135 137.373 246.012L151.559 228.917C151.708 228.767 151.907 228.678 152.117 228.668C152.327 228.659 152.534 228.728 152.696 228.863C152.857 228.998 152.962 229.188 152.99 229.397C153.019 229.605 152.966 229.817 152.846 229.989L138.656 247.085C138.579 247.179 138.481 247.256 138.371 247.308C138.26 247.361 138.14 247.389 138.017 247.391Z" fill="black"/>
<path d="M163.109 240.829C162.977 240.829 162.848 240.796 162.731 240.736C162.535 240.636 162.385 240.462 162.316 240.252C162.247 240.042 162.263 239.814 162.36 239.616L171.251 222.085C171.351 221.887 171.527 221.736 171.74 221.667C171.951 221.598 172.183 221.616 172.381 221.718C172.58 221.818 172.73 221.994 172.799 222.207C172.868 222.418 172.851 222.649 172.749 222.849L163.86 240.367C163.79 240.505 163.682 240.622 163.55 240.705C163.418 240.786 163.265 240.829 163.109 240.829Z" fill="black"/>
<path d="M183.896 242.382C183.807 242.383 183.719 242.368 183.635 242.34C183.53 242.305 183.432 242.251 183.348 242.179C183.264 242.109 183.195 242.02 183.144 241.923C183.095 241.824 183.065 241.717 183.056 241.606C183.047 241.497 183.06 241.386 183.093 241.281L188.883 223.515C188.958 223.311 189.11 223.144 189.306 223.048C189.501 222.954 189.726 222.939 189.933 223.006C190.14 223.074 190.313 223.219 190.415 223.411C190.517 223.603 190.541 223.827 190.481 224.037L184.694 241.813C184.637 241.98 184.529 242.124 184.386 242.226C184.242 242.328 184.071 242.383 183.896 242.382Z" fill="black"/>
<path d="M200.066 252.321C200 252.321 199.934 252.314 199.869 252.299C199.763 252.273 199.661 252.227 199.571 252.161C199.482 252.096 199.406 252.014 199.349 251.921C199.29 251.826 199.251 251.721 199.235 251.612C199.217 251.502 199.221 251.391 199.248 251.283L203.318 234.309C203.343 234.201 203.39 234.099 203.454 234.011C203.519 233.921 203.601 233.846 203.696 233.787C203.79 233.73 203.894 233.691 204.003 233.673C204.113 233.657 204.224 233.661 204.332 233.687C204.438 233.712 204.54 233.759 204.63 233.823C204.719 233.889 204.795 233.97 204.852 234.065C204.911 234.159 204.95 234.264 204.966 234.372C204.984 234.482 204.98 234.594 204.954 234.701L200.885 251.676C200.84 251.859 200.736 252.024 200.588 252.14C200.439 252.257 200.255 252.321 200.066 252.321Z" fill="black"/>
<path d="M218.468 259.913H218.426C218.315 259.905 218.209 259.877 218.108 259.829C218.009 259.781 217.921 259.713 217.847 259.631C217.775 259.547 217.718 259.451 217.682 259.347C217.646 259.242 217.631 259.131 217.639 259.022L218.821 239.49C218.836 239.267 218.936 239.058 219.104 238.911C219.272 238.763 219.491 238.688 219.713 238.701C219.937 238.715 220.145 238.817 220.294 238.985C220.441 239.151 220.517 239.37 220.502 239.594L219.308 259.139C219.292 259.35 219.196 259.547 219.04 259.691C218.884 259.833 218.68 259.913 218.468 259.913Z" fill="black"/>
<path d="M238.142 261.312C237.93 261.312 237.726 261.233 237.57 261.09C237.414 260.948 237.318 260.751 237.3 260.541L235.557 239.597C235.548 239.487 235.562 239.376 235.595 239.27C235.629 239.165 235.683 239.067 235.755 238.983C235.827 238.898 235.914 238.829 236.013 238.778C236.112 238.728 236.219 238.697 236.33 238.688C236.441 238.679 236.552 238.692 236.657 238.725C236.762 238.76 236.859 238.814 236.945 238.886C237.029 238.958 237.098 239.045 237.149 239.144C237.2 239.243 237.23 239.349 237.239 239.46L238.98 260.4C238.989 260.511 238.976 260.622 238.943 260.727C238.91 260.832 238.856 260.93 238.784 261.014C238.712 261.098 238.625 261.168 238.527 261.218C238.428 261.269 238.322 261.3 238.212 261.309L238.142 261.312Z" fill="black"/>
<path d="M256.567 257.492C256.363 257.493 256.166 257.423 256.012 257.291C255.857 257.159 255.755 256.974 255.725 256.773L253.954 244.77C253.933 244.659 253.934 244.545 253.958 244.434C253.982 244.323 254.029 244.218 254.095 244.127C254.161 244.034 254.243 243.956 254.341 243.896C254.437 243.837 254.545 243.798 254.657 243.782C254.768 243.765 254.884 243.771 254.993 243.8C255.103 243.828 255.205 243.879 255.295 243.948C255.385 244.017 255.458 244.104 255.514 244.203C255.569 244.302 255.604 244.412 255.616 244.524L257.387 256.53C257.419 256.751 257.363 256.974 257.23 257.153C257.096 257.331 256.898 257.45 256.678 257.483C256.642 257.487 256.604 257.49 256.567 257.492Z" fill="black"/>
<path d="M146.987 73.7556C150.43 71.8638 151.391 67.0003 149.134 62.8929C146.877 58.7854 142.256 56.9893 138.813 58.8813C135.37 60.7731 134.409 65.6365 136.666 69.744C138.924 73.8514 143.544 75.6475 146.987 73.7556Z" fill="#FBF6FF"/>
<path d="M144.004 75.3411C143.331 75.3393 142.661 75.2517 142.011 75.0805C139.592 74.4471 137.418 72.7207 136.047 70.3497C133.474 65.902 134.452 60.4707 138.225 58.2427C139.059 57.7623 139.982 57.4533 140.937 57.3334C141.893 57.2136 142.863 57.2854 143.791 57.5448C146.209 58.1811 148.384 59.9046 149.754 62.2756C152.324 66.7233 151.349 72.1546 147.574 74.3826C146.492 75.0175 145.258 75.3487 144.004 75.3411ZM141.801 58.9657C140.845 58.9591 139.905 59.2098 139.079 59.6916C136.098 61.4517 135.391 65.8572 137.502 69.5005C138.651 71.4847 140.45 72.9253 142.437 73.4466C143.15 73.6486 143.895 73.7065 144.631 73.617C145.366 73.5274 146.076 73.2924 146.719 72.9253C149.701 71.1652 150.41 66.7597 148.297 63.1164C147.151 61.1322 145.352 59.6944 143.365 59.1703C142.854 59.0358 142.329 58.9671 141.801 58.9657Z" fill="black"/>
<path d="M158.295 65.1797C162.374 62.9361 163.502 57.1586 160.814 52.2752C158.127 47.3919 152.643 45.252 148.566 47.4957C144.488 49.7393 143.361 55.5168 146.048 60.4001C148.734 65.2835 154.218 67.4234 158.295 65.1797Z" fill="#FBF6FF"/>
<path d="M154.766 66.9082C153.981 66.9067 153.201 66.804 152.445 66.6028C149.609 65.8602 147.059 63.8338 145.439 61.0453C142.426 55.8297 143.55 49.4763 147.961 46.8783C148.93 46.3207 150.001 45.9622 151.111 45.8236C152.221 45.685 153.347 45.7692 154.424 46.0713C157.261 46.8166 159.814 48.843 161.431 51.6315C164.446 56.8471 163.319 63.2005 158.908 65.7957C157.652 66.532 156.221 66.9163 154.766 66.9082ZM152.098 47.4501C150.943 47.4409 149.805 47.7439 148.807 48.3273C145.201 50.4573 144.346 55.7821 146.902 60.2017C148.289 62.6064 150.467 64.3467 152.872 64.966C153.734 65.2105 154.636 65.2809 155.525 65.173C156.415 65.0653 157.274 64.7815 158.052 64.3383C161.66 62.2084 162.515 56.8807 159.962 52.4611C158.561 50.0593 156.394 48.3189 153.989 47.6967C153.373 47.5329 152.737 47.4501 152.098 47.4501Z" fill="black"/>
<path d="M138.615 63.8677C139.221 63.8314 139.682 63.3059 139.646 62.6942C139.609 62.0824 139.088 61.6157 138.483 61.652C137.877 61.6883 137.416 62.2138 137.452 62.8256C137.489 63.4375 138.01 63.904 138.615 63.8677Z" fill="black"/>
<path d="M158.565 58.6177C159.171 58.5814 159.631 58.0559 159.595 57.4441C159.559 56.8324 159.037 56.3657 158.433 56.402C157.827 56.4383 157.365 56.9638 157.402 57.5756C157.438 58.1875 157.959 58.654 158.565 58.6177Z" fill="black"/>
<path d="M167.106 62.5753C167.577 62.8505 168.008 63.1906 168.385 63.5854C168.463 63.6652 168.526 63.7608 168.568 63.8656C168.609 63.9702 168.628 64.0816 168.627 64.1948C168.624 64.3073 168.599 64.4178 168.553 64.5209C168.506 64.6231 168.44 64.7158 168.357 64.7917C168.274 64.8684 168.178 64.9279 168.072 64.9665C167.966 65.0043 167.854 65.0212 167.741 65.0151C167.628 65.0092 167.518 64.9807 167.417 64.9312C167.316 64.8818 167.226 64.8127 167.152 64.7279C166.905 64.4656 166.051 63.7237 165.365 63.7418C165.234 63.748 165.105 63.7842 164.991 63.8482C164.874 63.9112 164.776 64.0009 164.7 64.1084C163.599 65.4146 163.027 68.6892 162.906 69.8493C162.896 69.9602 162.863 70.0675 162.81 70.1653C162.757 70.2629 162.687 70.3498 162.6 70.4194C162.514 70.4897 162.415 70.5419 162.308 70.5734C162.202 70.6048 162.09 70.6149 161.979 70.6028C161.869 70.5906 161.762 70.5568 161.664 70.5032C161.567 70.4497 161.481 70.377 161.412 70.2901C161.344 70.2037 161.292 70.1039 161.262 69.9971C161.231 69.8896 161.222 69.778 161.236 69.6678C161.288 69.1901 161.791 64.9499 163.414 63.0232C163.644 62.7331 163.935 62.4969 164.266 62.3311C164.596 62.1645 164.959 62.0724 165.33 62.061C165.958 62.0672 166.573 62.2451 167.106 62.5753Z" fill="black"/>
<path d="M170.381 101.144C166.287 101.144 161.301 99.7935 155.472 97.1002C155.27 97.0065 155.112 96.8362 155.036 96.6268C154.958 96.4173 154.967 96.1858 155.061 95.9833C155.154 95.7808 155.325 95.6238 155.534 95.5468C155.744 95.4697 155.975 95.4792 156.177 95.5728C165.197 99.7402 171.953 100.573 176.264 98.0446C180.213 95.727 181.376 90.8953 181.656 87.2491C182.496 76.4088 185.765 71.311 191.667 71.6641C191.889 71.6775 192.098 71.7789 192.246 71.946C192.395 72.1132 192.47 72.3324 192.458 72.5553C192.444 72.7783 192.342 72.9868 192.176 73.135C192.008 73.2832 191.789 73.359 191.565 73.3456C188.508 73.1635 184.329 74.4162 183.332 87.3808C182.886 93.1822 180.737 97.372 177.116 99.4963C175.241 100.595 172.991 101.144 170.381 101.144Z" fill="black"/>
<path d="M162.586 99.813C162.467 99.812 162.352 99.7866 162.245 99.7383C162.139 99.69 162.044 99.62 161.966 99.5328L156.433 93.5129C156.283 93.3486 156.203 93.1311 156.212 92.9082C156.221 92.6855 156.32 92.4755 156.484 92.3246C156.649 92.1737 156.866 92.0943 157.088 92.1038C157.312 92.1132 157.522 92.2107 157.672 92.375L163.216 98.4033C163.324 98.5239 163.394 98.6729 163.42 98.8326C163.445 98.9924 163.423 99.1559 163.358 99.3038C163.292 99.4517 163.186 99.5775 163.051 99.6665C162.916 99.7553 162.758 99.8033 162.596 99.8046L162.586 99.813Z" fill="black"/>
<path d="M166.349 116.943C166.304 116.947 166.259 116.947 166.214 116.943C156.783 115.421 148.692 108.255 148.35 107.938C148.265 107.865 148.195 107.776 148.145 107.676C148.095 107.576 148.065 107.467 148.058 107.355C148.05 107.243 148.065 107.131 148.101 107.025C148.138 106.919 148.195 106.821 148.27 106.738C148.345 106.654 148.435 106.587 148.536 106.539C148.638 106.491 148.748 106.464 148.86 106.459C148.971 106.454 149.083 106.471 149.188 106.51C149.293 106.549 149.39 106.608 149.471 106.685C149.55 106.758 157.545 113.84 166.478 115.283C166.7 115.301 166.907 115.406 167.052 115.576C167.198 115.746 167.27 115.967 167.252 116.19C167.235 116.413 167.129 116.62 166.959 116.765C166.79 116.911 166.569 116.982 166.346 116.965L166.349 116.943Z" fill="black"/>
<path d="M180.047 117.323C179.84 117.326 179.641 117.252 179.485 117.115C179.329 116.979 179.23 116.79 179.204 116.584C179.179 116.379 179.231 116.171 179.35 116.002C179.468 115.832 179.645 115.712 179.846 115.664C179.975 115.634 192.833 112.366 198.394 104.272C198.455 104.18 198.536 104.101 198.629 104.04C198.722 103.979 198.826 103.937 198.935 103.916C199.045 103.895 199.157 103.896 199.267 103.919C199.375 103.941 199.478 103.985 199.57 104.048C199.663 104.11 199.741 104.19 199.802 104.283C199.864 104.376 199.906 104.481 199.927 104.59C199.948 104.699 199.946 104.811 199.924 104.92C199.901 105.029 199.858 105.133 199.795 105.225C193.87 113.848 180.818 117.161 180.263 117.298C180.193 117.316 180.121 117.324 180.047 117.323Z" fill="black"/>
<path d="M207.776 210.744C207.636 210.744 207.5 210.71 207.378 210.644C207.255 210.578 207.152 210.482 207.075 210.366C201.899 202.556 201.543 193.71 206.043 184.787C208.17 180.615 211.001 176.841 214.41 173.63C214.577 173.481 214.796 173.405 215.019 173.418C215.241 173.432 215.451 173.532 215.6 173.699C215.748 173.865 215.825 174.086 215.811 174.308C215.798 174.531 215.697 174.74 215.531 174.888C212.267 177.977 209.55 181.596 207.495 185.592C203.247 194.048 203.573 202.071 208.451 209.439C208.535 209.565 208.584 209.712 208.59 209.865C208.598 210.017 208.563 210.167 208.491 210.302C208.419 210.435 208.313 210.548 208.182 210.626C208.052 210.704 207.903 210.744 207.75 210.744H207.776Z" fill="black"/>
<path d="M144.211 128.955C141.04 128.97 137.907 128.263 135.05 126.886C134.951 126.835 134.863 126.765 134.791 126.679C134.72 126.594 134.666 126.495 134.633 126.389C134.6 126.282 134.588 126.171 134.599 126.06C134.61 125.949 134.642 125.841 134.695 125.743C134.747 125.644 134.819 125.558 134.905 125.487C134.992 125.417 135.091 125.365 135.198 125.333C135.305 125.301 135.417 125.292 135.527 125.304C135.638 125.316 135.745 125.35 135.843 125.404C135.938 125.454 142.718 128.971 150.526 126.183C150.733 126.12 150.956 126.14 151.148 126.237C151.342 126.335 151.489 126.503 151.562 126.707C151.634 126.911 151.625 127.135 151.537 127.332C151.448 127.529 151.286 127.685 151.087 127.766C148.88 128.555 146.554 128.957 144.211 128.955Z" fill="black"/>
<path d="M145.077 136.356C144.382 136.356 143.956 136.322 143.864 136.317C143.641 136.298 143.434 136.191 143.29 136.02C143.146 135.849 143.075 135.628 143.094 135.405C143.113 135.182 143.22 134.975 143.391 134.831C143.562 134.687 143.784 134.616 144.006 134.635C144.141 134.635 157.394 135.625 166.862 124.064C167.003 123.891 167.207 123.781 167.429 123.759C167.651 123.737 167.873 123.804 168.045 123.945C168.218 124.086 168.327 124.29 168.35 124.512C168.372 124.734 168.306 124.956 168.164 125.129C165.381 128.586 161.868 131.385 157.877 133.326C153.885 135.266 149.515 136.301 145.077 136.356Z" fill="black"/>
<path d="M272.252 163.748C272.198 163.748 272.143 163.743 272.09 163.731C271.871 163.689 271.679 163.562 271.555 163.377C271.43 163.193 271.384 162.966 271.426 162.747C273.901 150.092 266.617 136.045 266.54 135.905C266.437 135.707 266.416 135.476 266.482 135.263C266.549 135.05 266.698 134.872 266.896 134.768C267.092 134.664 267.323 134.644 267.536 134.71C267.749 134.777 267.928 134.925 268.031 135.123C268.345 135.717 275.666 149.839 273.076 163.07C273.038 163.262 272.936 163.433 272.786 163.557C272.635 163.68 272.447 163.748 272.252 163.748Z" fill="black"/>
<path d="M275.861 144.335C275.655 144.336 275.456 144.263 275.301 144.127C275.147 143.992 275.046 143.805 275.021 143.601C274.017 135.571 269.463 130.686 269.415 130.639C269.262 130.477 269.178 130.261 269.184 130.038C269.189 129.815 269.283 129.603 269.445 129.449C269.607 129.295 269.823 129.212 270.045 129.217C270.269 129.223 270.48 129.317 270.635 129.478C270.836 129.691 275.615 134.787 276.689 143.39C276.716 143.611 276.654 143.835 276.518 144.011C276.381 144.187 276.18 144.301 275.96 144.329C275.927 144.333 275.894 144.335 275.861 144.335Z" fill="black"/>
</svg>
