<svg width="2000" height="2000" viewBox="0 0 2000 2000" fill="none" xmlns="http://www.w3.org/2000/svg">
<path d="M796.242 515.199C796.242 515.199 909.677 513.551 902.225 696.531L1037.18 665.897L972.593 472.204L796.242 515.199Z" fill="black"/>
<path d="M996.922 615.342C996.922 615.342 916.665 596.746 924.207 683.596L1013.26 663.89L996.922 615.342Z" fill="#FBF6FF"/>
<path d="M924.207 688.971C922.859 688.976 921.558 688.474 920.562 687.565C919.567 686.656 918.949 685.406 918.832 684.063C916.378 655.811 922.63 634.994 937.41 622.168C960.842 601.835 996.528 609.824 998.087 610.165C998.988 610.376 999.82 610.817 1000.5 611.445C1001.18 612.073 1001.69 612.866 1001.97 613.748L1018.35 662.099C1018.59 662.816 1018.68 663.576 1018.61 664.329C1018.54 665.082 1018.31 665.812 1017.94 666.47C1017.56 667.133 1017.04 667.707 1016.42 668.155C1015.81 668.603 1015.1 668.914 1014.35 669.068L925.3 688.774C924.944 688.88 924.577 688.946 924.207 688.971ZM979.742 619.104C968.993 619.104 954.859 621.2 944.397 630.301C933.415 639.849 928.273 655.543 929.133 676.879L1006.17 659.806L992.748 620.018C988.459 619.392 984.13 619.087 979.796 619.104H979.742Z" fill="black"/>
<path d="M847.013 702.497L843.34 654.109L1000.38 655.65L1003.8 675.553L847.013 702.497Z" fill="#FBF6FF"/>
<path d="M847.012 707.87C845.655 707.874 844.347 707.365 843.35 706.445C842.353 705.524 841.741 704.261 841.637 702.908L837.965 654.539C837.908 653.796 838.005 653.049 838.252 652.346C838.499 651.643 838.889 650.998 839.398 650.454C839.907 649.91 840.523 649.478 841.208 649.185C841.892 648.892 842.63 648.745 843.375 648.752L1000.41 650.293C1001.67 650.304 1002.89 650.757 1003.85 651.572C1004.81 652.387 1005.45 653.513 1005.66 654.754L1009.07 674.657C1009.31 676.058 1008.98 677.497 1008.16 678.659C1007.34 679.82 1006.1 680.61 1004.7 680.855L847.907 707.817C847.61 707.852 847.311 707.87 847.012 707.87ZM849.144 659.501L851.92 696.136L997.584 671.056L995.793 660.88L849.144 659.501Z" fill="black"/>
<path d="M882.214 698.179C880.789 698.179 879.422 697.613 878.414 696.605C877.406 695.597 876.84 694.23 876.84 692.805V654.503C876.84 653.078 877.406 651.711 878.414 650.703C879.422 649.695 880.789 649.129 882.214 649.129C883.64 649.129 885.007 649.695 886.015 650.703C887.022 651.711 887.589 653.078 887.589 654.503V692.805C887.589 694.23 887.022 695.597 886.015 696.605C885.007 697.613 883.64 698.179 882.214 698.179Z" fill="black"/>
<path d="M923.722 694.346C922.297 694.346 920.93 693.78 919.922 692.772C918.914 691.764 918.348 690.397 918.348 688.972V654.11C918.348 652.684 918.914 651.317 919.922 650.309C920.93 649.302 922.297 648.735 923.722 648.735C925.147 648.735 926.514 649.302 927.522 650.309C928.53 651.317 929.096 652.684 929.096 654.11V688.972C929.096 690.397 928.53 691.764 927.522 692.772C926.514 693.78 925.147 694.346 923.722 694.346Z" fill="black"/>
<path d="M1576.55 1250.65H1325.98C1311.42 1250.65 1299.62 1262.45 1299.62 1277V1280.05C1299.62 1294.6 1311.42 1306.4 1325.98 1306.4H1576.55C1591.1 1306.4 1602.9 1294.6 1602.9 1280.05V1277C1602.9 1262.45 1591.1 1250.65 1576.55 1250.65Z" fill="#FBF6FF"/>
<path d="M1576.57 1311.77H1325.98C1317.57 1311.76 1309.5 1308.42 1303.55 1302.47C1297.61 1296.52 1294.26 1288.46 1294.25 1280.05V1277C1294.26 1268.59 1297.61 1260.52 1303.55 1254.58C1309.5 1248.63 1317.57 1245.28 1325.98 1245.27H1576.57C1584.98 1245.28 1593.04 1248.63 1598.99 1254.58C1604.94 1260.52 1608.28 1268.59 1608.29 1277V1280.05C1608.28 1288.46 1604.94 1296.52 1598.99 1302.47C1593.04 1308.42 1584.98 1311.76 1576.57 1311.77ZM1325.98 1256.02C1320.42 1256.03 1315.09 1258.24 1311.15 1262.18C1307.22 1266.11 1305.01 1271.44 1305 1277V1280.05C1305.01 1285.61 1307.22 1290.94 1311.15 1294.87C1315.09 1298.8 1320.42 1301.01 1325.98 1301.02H1576.57C1582.13 1301.02 1587.46 1298.81 1591.39 1294.87C1595.33 1290.94 1597.54 1285.61 1597.54 1280.05V1277C1597.54 1271.44 1595.33 1266.1 1591.39 1262.17C1587.46 1258.24 1582.13 1256.03 1576.57 1256.02H1325.98Z" fill="black"/>
<path d="M1466.48 1306.4H1436.06V1669.98H1466.48V1306.4Z" fill="#FBF6FF"/>
<path d="M1466.48 1675.35H1436.03C1434.6 1675.35 1433.23 1674.78 1432.23 1673.78C1431.22 1672.77 1430.65 1671.4 1430.65 1669.98V1306.31C1430.65 1304.88 1431.22 1303.52 1432.23 1302.51C1433.23 1301.5 1434.6 1300.94 1436.03 1300.94H1466.48C1467.91 1300.94 1469.27 1301.5 1470.28 1302.51C1471.29 1303.52 1471.86 1304.88 1471.86 1306.31V1669.98C1471.86 1671.4 1471.29 1672.77 1470.28 1673.78C1469.27 1674.78 1467.91 1675.35 1466.48 1675.35ZM1441.4 1664.6H1461.11V1311.68H1441.4V1664.6Z" fill="black"/>
<path d="M1545.07 1713.38H1358.55L1434.61 1669.98H1469.01L1545.07 1713.38Z" fill="#FBF6FF"/>
<path d="M1545.07 1718.76H1358.55C1357.36 1718.75 1356.21 1718.36 1355.28 1717.64C1354.34 1716.92 1353.67 1715.91 1353.36 1714.76C1353.06 1713.62 1353.14 1712.41 1353.6 1711.32C1354.05 1710.23 1354.85 1709.31 1355.88 1708.72L1431.96 1665.32C1432.77 1664.86 1433.68 1664.62 1434.61 1664.62H1469.01C1469.94 1664.63 1470.86 1664.87 1471.68 1665.32L1547.74 1708.74C1548.77 1709.33 1549.57 1710.24 1550.02 1711.34C1550.48 1712.43 1550.56 1713.64 1550.25 1714.78C1549.95 1715.93 1549.28 1716.94 1548.34 1717.66C1547.4 1718.38 1546.25 1718.77 1545.07 1718.78V1718.76ZM1378.81 1708.01H1524.81L1467.48 1675.35H1435.95L1378.81 1708.01Z" fill="black"/>
<path d="M780.029 551.227C780.029 551.227 657.654 309.828 902.117 227.904C1171.61 137.579 1554.62 391.984 1638.75 665.773C1718.43 925.105 1665.49 1092.91 1604.58 1180.24C1549.53 1259.07 1480.81 1257.28 1406.65 1271.41C1255.55 1300.08 1198.14 1399.39 1201.26 1523.7C1204.66 1658.49 1247.1 1712.4 1240.2 1722.72C1233.3 1733.04 1075.06 1814.46 1067.04 1807.58C1059.01 1800.7 1091.12 1736.48 1091.12 1736.48C1091.12 1736.48 977.591 1753.69 976.463 1743.35C975.334 1733.02 1092.23 1660.79 1092.23 1660.79C1092.23 1660.79 867.703 1418.81 928.183 1228.43C990.114 1033.47 1244.11 1035.78 1273.38 914.195C1288.28 852.264 1265.35 827.04 1265.35 827.04C1265.35 827.04 1092.23 980.443 989.271 996.996C886.315 1013.55 817.399 990.027 820.874 972.292C820.874 972.292 804.375 970.59 806.543 960.808C808.334 952.532 823.454 952.532 823.454 952.532C823.454 952.532 927.413 954.108 994.252 906.635C1061.09 859.161 1082.37 829.1 1082.37 829.1C1082.37 829.1 961.737 857.549 869.315 843.611C827.915 837.359 753.264 797.803 730.298 769.301C712.061 746.675 698.428 717.08 709.248 710.04C717.292 704.827 730.656 738.578 734.186 737.807C734.186 737.807 718.851 684.583 734.186 680.248C741.101 678.223 752.494 721.057 757.331 723.01C757.331 723.01 749.037 673.01 760.018 671.631C767.596 670.699 769.889 679.531 771.86 691.427C777.449 725.178 784.4 724.712 789.578 725.679C793.501 726.414 787.589 690.226 805.056 696.693C814.389 700.151 804.823 727.883 821.913 742.197C844.038 760.702 930.673 774.443 1018.24 724.909C1018.24 724.909 848.678 747.768 836.962 728.241C825.245 708.714 839.756 690.316 839.756 690.316L1000.38 655.741C1000.38 655.741 968.616 523.459 910.035 510.077C851.454 496.695 797.818 556.655 780.029 551.227Z" fill="#8800FF"/>
<path d="M832.271 404.796C840.833 371.783 826.059 339.39 799.272 332.442C772.485 325.494 743.829 346.624 735.267 379.636C726.704 412.648 741.479 445.042 768.266 451.99C795.053 458.937 823.709 437.808 832.271 404.796Z" fill="#FBF6FF"/>
<path d="M778.722 458.662C774.745 458.659 770.785 458.154 766.934 457.157C737.322 449.472 720.786 414.162 730.066 378.333C739.346 342.504 771.019 319.609 800.632 327.294C815.178 331.056 827.002 341.483 833.935 356.656C840.504 372.335 841.75 389.735 837.482 406.189C833.214 422.643 823.667 437.244 810.306 447.752C801.225 454.691 790.149 458.516 778.722 458.662ZM788.898 336.449C767.884 336.449 747.3 354.632 740.528 380.948C732.735 411.045 745.813 440.55 769.693 446.749C781.051 449.687 793.233 446.946 803.982 439.01C815.522 430.122 823.676 417.555 827.092 403.395C830.971 389.351 829.935 374.402 824.154 361.027C818.6 348.863 809.284 340.551 797.927 337.595C794.954 336.828 791.896 336.443 788.826 336.449H788.898Z" fill="black"/>
<path d="M927.361 405.961C937.901 365.067 917.736 324.517 882.323 315.39C846.91 306.263 809.657 332.015 799.118 372.908C788.578 413.801 808.742 454.351 844.156 463.478C879.569 472.606 916.822 446.854 927.361 405.961Z" fill="#FBF6FF"/>
<path d="M858.834 472.436C853.443 472.44 848.073 471.759 842.854 470.412C804.696 460.523 782.858 416.991 794.18 373.368C805.502 329.746 845.72 302.319 883.878 312.208C902.491 317.045 917.808 329.89 926.981 348.395C935.839 367.41 937.801 388.914 932.532 409.217C927.262 429.521 915.089 447.357 898.102 459.663C886.621 467.825 872.919 472.282 858.834 472.436ZM868.006 320.914C839.934 320.914 813.08 343.29 804.57 376.056C794.753 413.927 813.133 451.584 845.559 459.986C861.109 464.016 877.608 460.774 892.011 450.849C907.054 440.175 917.75 424.442 922.144 406.528C927.002 388.74 925.298 369.797 917.343 353.161C909.586 337.485 896.741 326.629 881.173 322.598C876.873 321.483 872.448 320.917 868.006 320.914Z" fill="black"/>
<path d="M763.495 437.791C768.115 437.791 771.861 434.045 771.861 429.425C771.861 424.804 768.115 421.059 763.495 421.059C758.874 421.059 755.129 424.804 755.129 429.425C755.129 434.045 758.874 437.791 763.495 437.791Z" fill="black"/>
<path d="M828.991 437.791C833.611 437.791 837.357 434.045 837.357 429.425C837.357 424.804 833.611 421.059 828.991 421.059C824.37 421.059 820.625 424.804 820.625 429.425C820.625 434.045 824.37 437.791 828.991 437.791Z" fill="black"/>
<path d="M752.926 246.051C752.226 246.046 751.532 245.906 750.884 245.639C749.57 245.096 748.524 244.053 747.977 242.74C747.429 241.427 747.425 239.951 747.964 238.634C748.287 237.846 756.169 219.072 774.155 212.748C785.209 208.86 797.444 210.508 810.379 217.692C811.017 218.022 811.582 218.476 812.042 219.028C812.501 219.58 812.845 220.219 813.054 220.906C813.262 221.594 813.331 222.316 813.256 223.03C813.18 223.744 812.963 224.436 812.615 225.065C812.268 225.694 811.798 226.247 811.234 226.691C810.669 227.135 810.021 227.461 809.328 227.651C808.636 227.84 807.912 227.889 807.2 227.794C806.488 227.699 805.802 227.462 805.183 227.097C795.044 221.49 785.818 220.057 777.792 222.869C764.374 227.545 757.96 242.576 757.907 242.737C757.498 243.721 756.807 244.561 755.92 245.151C755.034 245.741 753.992 246.054 752.926 246.051Z" fill="black"/>
<path d="M851.975 219.125C850.953 219.123 849.953 218.829 849.091 218.278C848.23 217.727 847.544 216.942 847.113 216.015C846.683 215.088 846.525 214.057 846.66 213.043C846.794 212.03 847.215 211.076 847.873 210.293C848.446 209.594 862.437 193.274 882.502 192.074C894.182 191.357 905.307 195.854 915.572 205.402C916.617 206.374 917.234 207.721 917.286 209.147C917.338 210.573 916.822 211.962 915.85 213.007C914.878 214.052 913.531 214.669 912.105 214.721C910.679 214.773 909.29 214.256 908.245 213.285C900.237 205.814 891.817 202.303 883.165 202.787C867.74 203.683 856.132 217.119 856.024 217.226C855.525 217.815 854.905 218.289 854.207 218.617C853.508 218.944 852.747 219.118 851.975 219.125Z" fill="black"/>
<path d="M1169.76 738.881C1168.67 738.879 1167.6 738.541 1166.7 737.914C1125.75 709.43 1025.17 728.957 1024.1 729.208C1023.4 729.345 1022.69 729.345 1022 729.207C1021.31 729.069 1020.65 728.796 1020.06 728.403C1019.47 728.011 1018.97 727.506 1018.58 726.919C1018.18 726.332 1017.91 725.673 1017.77 724.98C1017.64 724.287 1017.64 723.574 1017.77 722.881C1017.91 722.188 1018.19 721.529 1018.58 720.942C1018.97 720.355 1019.47 719.851 1020.06 719.459C1020.65 719.066 1021.31 718.794 1022 718.656C1026.32 717.814 1128.16 698.018 1172.82 729.082C1173.77 729.733 1174.48 730.67 1174.85 731.755C1175.23 732.839 1175.25 734.015 1174.9 735.111C1174.56 736.206 1173.88 737.163 1172.95 737.841C1172.03 738.52 1170.91 738.884 1169.76 738.881Z" fill="black"/>
<path d="M1082.37 834.475C1081.24 834.474 1080.14 834.115 1079.22 833.449C1078.3 832.784 1077.62 831.846 1077.27 830.769C1076.92 829.692 1076.92 828.532 1077.26 827.454C1077.61 826.376 1078.29 825.434 1079.2 824.765C1178.22 752.748 1196.72 678.707 1205.61 643.111C1206.83 638.238 1207.88 634.046 1208.96 630.571C1220.6 592.699 1248.53 565.756 1278.47 563.498C1279.17 563.446 1279.88 563.532 1280.55 563.753C1281.23 563.975 1281.85 564.326 1282.39 564.788C1282.92 565.249 1283.36 565.812 1283.68 566.444C1284 567.076 1284.19 567.764 1284.24 568.47C1284.3 569.176 1284.21 569.885 1283.99 570.557C1283.77 571.229 1283.42 571.852 1282.96 572.388C1282.49 572.925 1281.93 573.365 1281.3 573.684C1280.67 574.003 1279.98 574.194 1279.27 574.247C1254.19 576.146 1229.42 600.618 1219.22 633.76C1218.24 636.966 1217.22 641.033 1216.03 645.762C1206.84 682.577 1187.69 759.18 1085.53 833.49C1084.61 834.141 1083.5 834.486 1082.37 834.475Z" fill="black"/>
<path d="M1269.08 828.348C1267.75 828.335 1266.48 827.831 1265.5 826.933C1264.98 826.457 1264.55 825.882 1264.25 825.243C1263.95 824.603 1263.78 823.911 1263.75 823.205C1263.72 822.5 1263.83 821.795 1264.07 821.131C1264.31 820.468 1264.68 819.858 1265.16 819.337L1336.13 741.892C1336.58 741.277 1337.14 740.761 1337.8 740.38C1338.45 739.998 1339.18 739.76 1339.93 739.679C1340.68 739.598 1341.44 739.678 1342.16 739.912C1342.88 740.146 1343.55 740.53 1344.11 741.038C1344.67 741.546 1345.12 742.167 1345.42 742.86C1345.73 743.554 1345.88 744.303 1345.88 745.061C1345.87 745.818 1345.71 746.565 1345.39 747.254C1345.08 747.943 1344.62 748.558 1344.05 749.058L1273.08 826.503C1272.58 827.075 1271.96 827.535 1271.28 827.853C1270.59 828.171 1269.84 828.34 1269.08 828.348Z" fill="black"/>
<path d="M1094.9 1736.8C1093.72 1736.79 1092.57 1736.4 1091.64 1735.69C1090.51 1734.82 1089.77 1733.54 1089.58 1732.13C1089.39 1730.72 1089.77 1729.29 1090.63 1728.16L1130.67 1675.8C1120.68 1655.19 1061.74 1532.77 1026.95 1440.86C991.117 1346.11 1002.12 1274.63 1059.78 1228.42C1060.9 1227.58 1062.3 1227.21 1063.68 1227.38C1065.07 1227.55 1066.33 1228.26 1067.21 1229.35C1068.08 1230.44 1068.49 1231.83 1068.36 1233.22C1068.23 1234.61 1067.56 1235.89 1066.5 1236.8C1012.88 1279.79 1002.96 1347.15 1037 1437.07C1074.74 1536.74 1141.12 1672.72 1141.8 1674.08C1142.23 1674.98 1142.41 1675.98 1142.31 1676.97C1142.21 1677.96 1141.83 1678.91 1141.22 1679.7L1099.16 1734.68C1098.66 1735.34 1098.01 1735.87 1097.27 1736.24C1096.54 1736.6 1095.72 1736.79 1094.9 1736.8Z" fill="black"/>
<path d="M771.841 858.013C771.088 858.012 770.343 857.854 769.655 857.547C705.27 828.705 691.852 778.544 691.315 776.43C691.002 775.064 691.235 773.629 691.964 772.433C692.693 771.236 693.861 770.371 695.218 770.023C696.576 769.675 698.016 769.871 699.231 770.569C700.446 771.267 701.34 772.412 701.723 773.76C701.884 774.369 714.711 821.216 774.044 847.73C775.17 848.232 776.089 849.105 776.647 850.204C777.206 851.302 777.369 852.559 777.111 853.765C776.853 854.97 776.188 856.049 775.229 856.823C774.269 857.596 773.073 858.016 771.841 858.013Z" fill="black"/>
<path d="M789.578 895.688C789.298 895.714 789.016 895.714 788.736 895.688C721.395 885.101 693.161 841.944 691.997 840.153C691.581 839.559 691.289 838.887 691.139 838.178C690.989 837.469 690.985 836.737 691.125 836.025C691.266 835.314 691.549 834.639 691.957 834.04C692.366 833.441 692.891 832.931 693.502 832.54C694.112 832.15 694.796 831.887 695.511 831.767C696.226 831.647 696.958 831.674 697.662 831.844C698.367 832.015 699.03 832.326 699.611 832.76C700.192 833.193 700.679 833.74 701.044 834.366C701.312 834.778 728.077 875.319 790.402 885.118C791.827 885.228 793.151 885.899 794.081 886.984C795.012 888.069 795.473 889.479 795.364 890.905C795.255 892.33 794.584 893.654 793.499 894.584C792.413 895.515 791.003 895.976 789.578 895.867V895.688Z" fill="black"/>
<path d="M653.407 1064.55H622.988V1688.02H653.407V1064.55Z" fill="#FBF6FF"/>
<path d="M653.142 1693.39H622.687C621.262 1693.39 619.895 1692.82 618.887 1691.81C617.879 1690.81 617.312 1689.44 617.312 1688.01L617.85 1064.59C617.85 1063.16 618.416 1061.79 619.424 1060.79C620.432 1059.78 621.799 1059.21 623.225 1059.21H653.679C655.105 1059.21 656.472 1059.78 657.48 1060.79C658.488 1061.79 659.054 1063.16 659.054 1064.59L658.516 1688.01C658.516 1689.44 657.95 1690.81 656.942 1691.81C655.934 1692.82 654.567 1693.39 653.142 1693.39ZM628.062 1682.64H647.768L648.286 1069.96H628.581L628.062 1682.64Z" fill="black"/>
<path d="M767.758 1731.42H507.297L621.27 1688.01H655.666L767.758 1731.42Z" fill="#FBF6FF"/>
<path d="M767.756 1736.8H507.295C506.041 1736.79 504.827 1736.35 503.865 1735.55C502.902 1734.75 502.25 1733.63 502.022 1732.4C501.795 1731.16 502.006 1729.89 502.619 1728.8C503.232 1727.7 504.208 1726.86 505.378 1726.41L619.279 1683C619.892 1682.77 620.541 1682.64 621.196 1682.64H655.592C656.254 1682.64 656.91 1682.76 657.527 1683L769.762 1726.41C770.934 1726.86 771.911 1727.7 772.524 1728.8C773.136 1729.9 773.346 1731.17 773.116 1732.41C772.886 1733.64 772.232 1734.76 771.266 1735.56C770.299 1736.36 769.083 1736.8 767.827 1736.8H767.756ZM536.496 1726.05H738.931L654.607 1693.39H622.253L536.496 1726.05Z" fill="black"/>
<path d="M951.043 1055.58H325.375V1092.78H951.043V1055.58Z" fill="#FBF6FF"/>
<path d="M951.024 1098.16H325.374C323.949 1098.16 322.582 1097.59 321.574 1096.58C320.566 1095.58 320 1094.21 320 1092.78V1055.57C320 1054.15 320.566 1052.78 321.574 1051.77C322.582 1050.77 323.949 1050.2 325.374 1050.2H951.024C952.449 1050.2 953.816 1050.77 954.824 1051.77C955.832 1052.78 956.398 1054.15 956.398 1055.57V1092.78C956.398 1094.21 955.832 1095.58 954.824 1096.58C953.816 1097.59 952.449 1098.16 951.024 1098.16ZM330.749 1087.41H945.65V1060.95H330.749V1087.41Z" fill="black"/>
<path d="M951.026 1098.16H679.046C677.621 1098.16 676.254 1097.59 675.246 1096.58C674.238 1095.58 673.672 1094.21 673.672 1092.78V1055.57C673.672 1054.15 674.238 1052.78 675.246 1051.77C676.254 1050.77 677.621 1050.2 679.046 1050.2H951.026C952.451 1050.2 953.818 1050.77 954.826 1051.77C955.834 1052.78 956.4 1054.15 956.4 1055.57V1092.78C956.4 1094.21 955.834 1095.58 954.826 1096.58C953.818 1097.59 952.451 1098.16 951.026 1098.16ZM684.421 1087.41H945.651V1060.95H684.421V1087.41Z" fill="black"/>
<path d="M920.2 1025.89L444.766 1027.06L444.836 1055.59L920.27 1054.43L920.2 1025.89Z" fill="#FBF6FF"/>
<path d="M444.902 1060.95C443.479 1060.95 442.113 1060.39 441.104 1059.39C440.095 1058.38 439.528 1057.02 439.527 1055.59V1027.06C439.527 1025.63 440.093 1024.26 441.101 1023.25C442.109 1022.25 443.476 1021.68 444.902 1021.68L920.248 1020.48C921.67 1020.5 923.031 1021.06 924.046 1022.06C925.054 1023.06 925.621 1024.43 925.622 1025.85V1054.43C925.622 1055.85 925.056 1057.22 924.048 1058.23C923.04 1059.24 921.673 1059.8 920.248 1059.8L444.812 1060.99L444.902 1060.95ZM450.276 1032.41V1050.2L914.873 1049.05V1031.27L450.276 1032.41Z" fill="black"/>
<path d="M730.298 1026.34L444.847 1027.06L353.16 793.325L638.629 792.626L730.298 1026.34Z" fill="#FBF6FF"/>
<path d="M444.845 1032.43C443.761 1032.43 442.703 1032.11 441.807 1031.5C440.912 1030.89 440.223 1030.02 439.829 1029.01L348.16 795.295C347.841 794.482 347.725 793.604 347.822 792.736C347.918 791.868 348.225 791.037 348.715 790.315C349.205 789.59 349.864 788.996 350.635 788.584C351.406 788.172 352.266 787.954 353.14 787.95L638.609 787.233C639.693 787.232 640.752 787.557 641.647 788.168C642.542 788.779 643.232 789.646 643.625 790.655L735.312 1024.37C735.633 1025.18 735.751 1026.06 735.654 1026.94C735.556 1027.81 735.248 1028.64 734.755 1029.36C734.263 1030.09 733.601 1030.68 732.826 1031.09C732.052 1031.5 731.19 1031.71 730.314 1031.71L444.845 1032.43ZM361.04 798.681L448.499 1021.66L722.432 1020.98L634.955 798L361.04 798.681Z" fill="black"/>
<path d="M538.793 956.115C536.374 956.093 533.979 955.619 531.734 954.717C522.902 951.314 514.894 941.819 510.236 929.332C502.927 909.465 506.653 888.971 518.782 882.754C521.068 881.585 523.582 880.931 526.148 880.839C528.713 880.746 531.269 881.216 533.634 882.217C542.466 885.639 550.491 895.133 555.131 907.62C562.458 927.487 558.713 947.964 546.603 954.198C544.192 955.458 541.513 956.116 538.793 956.115ZM526.647 891.515C525.649 891.51 524.664 891.75 523.78 892.213C517.546 895.456 514.625 909.985 520.376 925.624C523.816 934.958 529.799 942.446 535.621 944.703C536.561 945.153 537.589 945.386 538.631 945.386C539.673 945.386 540.702 945.153 541.642 944.703C547.876 941.461 550.814 926.95 545.045 911.31C541.606 901.977 535.639 894.488 529.817 892.231C528.813 891.801 527.739 891.558 526.647 891.515Z" fill="black"/>
<path d="M730.351 1060.25C728.926 1060.25 727.559 1059.69 726.551 1058.68C725.543 1057.67 724.977 1056.3 724.977 1054.88V1026.34C724.977 1024.91 725.543 1023.55 726.551 1022.54C727.559 1021.53 728.926 1020.96 730.351 1020.96C731.776 1020.96 733.143 1021.53 734.151 1022.54C735.159 1023.55 735.725 1024.91 735.725 1026.34V1054.88C735.725 1056.3 735.159 1057.67 734.151 1058.68C733.143 1059.69 731.776 1060.25 730.351 1060.25Z" fill="black"/>
<path d="M591.405 717.079C618.831 717.079 641.065 694.846 641.065 667.42C641.065 639.994 618.831 617.761 591.405 617.761C563.979 617.761 541.746 639.994 541.746 667.42C541.746 694.846 563.979 717.079 591.405 717.079Z" fill="#FBF6FF"/>
<path d="M591.407 722.489C577.747 722.508 564.567 717.449 554.425 708.297C544.284 699.144 537.906 686.55 536.528 672.959C535.149 659.368 538.87 645.75 546.968 634.748C555.065 623.746 566.962 616.146 580.348 613.421C593.734 610.697 607.655 613.043 619.408 620.005C631.162 626.967 639.909 638.048 643.953 651.096C647.996 664.145 647.047 678.23 641.29 690.618C635.533 703.006 625.378 712.814 612.797 718.136C606.03 721.001 598.756 722.482 591.407 722.489ZM591.407 623.099C580.355 623.073 569.689 627.164 561.489 634.575C553.289 641.986 548.143 652.186 547.055 663.184C545.966 674.183 549.013 685.193 555.601 694.068C562.19 702.942 571.847 709.044 582.69 711.185C593.534 713.326 604.786 711.351 614.252 705.647C623.719 699.942 630.721 690.916 633.895 680.329C637.068 669.742 636.184 658.352 631.416 648.381C626.648 638.41 618.337 630.572 608.104 626.395C602.798 624.225 597.122 623.105 591.389 623.099H591.407Z" fill="black"/>
<path d="M591.404 696.71C587.418 696.708 583.473 695.892 579.813 694.312C576.153 692.732 572.855 690.42 570.12 687.52C567.385 684.619 565.271 681.191 563.908 677.444C562.545 673.698 561.962 669.713 562.194 665.733C562.427 661.753 563.469 657.862 565.258 654.3C567.048 650.737 569.546 647.578 572.599 645.015C575.653 642.452 579.198 640.54 583.017 639.396C586.836 638.252 590.848 637.9 594.808 638.362C595.514 638.444 596.196 638.665 596.817 639.011C597.438 639.357 597.984 639.822 598.425 640.38C598.865 640.937 599.192 641.575 599.386 642.259C599.58 642.943 599.638 643.658 599.555 644.364C599.473 645.069 599.253 645.752 598.906 646.372C598.56 646.993 598.095 647.539 597.538 647.98C596.981 648.421 596.342 648.748 595.658 648.942C594.975 649.136 594.26 649.193 593.554 649.111C590.369 648.74 587.142 649.196 584.185 650.437C581.574 651.54 579.251 653.228 577.395 655.371C575.539 657.513 574.199 660.053 573.479 662.795C572.759 665.537 572.678 668.407 573.242 671.185C573.806 673.963 575.001 676.574 576.733 678.818C578.465 681.062 580.689 682.878 583.233 684.127C585.778 685.377 588.575 686.025 591.41 686.023C594.245 686.021 597.041 685.368 599.584 684.115C602.126 682.862 604.348 681.042 606.076 678.795C606.956 677.702 608.229 676.996 609.623 676.829C611.016 676.662 612.42 677.046 613.533 677.9C614.647 678.754 615.383 680.01 615.583 681.399C615.783 682.788 615.431 684.201 614.604 685.334C611.869 688.888 608.355 691.768 604.334 693.752C600.312 695.737 595.889 696.773 591.404 696.782V696.71Z" fill="black"/>
<path d="M427.059 602.837C463.23 602.837 492.553 573.514 492.553 537.341C492.553 501.169 463.23 471.846 427.059 471.846C390.886 471.846 361.562 501.169 361.562 537.341C361.562 573.514 390.886 602.837 427.059 602.837Z" fill="#FBF6FF"/>
<path d="M427.04 608.195C410.667 608.191 394.802 602.517 382.14 592.138C369.478 581.759 360.801 567.316 357.584 551.262C354.368 535.209 356.81 518.537 364.496 504.081C372.182 489.625 384.637 478.277 399.744 471.966C414.851 465.655 431.677 464.77 447.363 469.463C463.048 474.155 476.624 484.135 485.784 497.706C494.943 511.276 499.119 527.6 497.604 543.902C496.088 560.204 488.973 575.478 477.469 587.127C470.961 593.76 463.202 599.038 454.641 602.654C446.081 606.27 436.888 608.153 427.595 608.195H427.04ZM427.04 477.221H426.663C416.776 477.28 407.055 479.777 398.363 484.491C389.671 489.204 382.276 495.989 376.832 504.243C371.389 512.498 368.065 521.967 367.156 531.813C366.247 541.659 367.78 551.578 371.62 560.689C375.46 569.801 381.488 577.825 389.17 584.051C396.852 590.276 405.951 594.511 415.66 596.379C425.37 598.248 435.391 597.693 444.835 594.764C454.279 591.834 462.854 586.621 469.802 579.585C478.132 571.149 483.782 560.439 486.041 548.801C488.301 537.163 487.069 525.116 482.501 514.176C477.932 503.236 470.232 493.891 460.367 487.316C450.502 480.74 438.913 477.228 427.058 477.221H427.04Z" fill="black"/>
<path d="M418.852 573.135C418.38 573.137 417.91 573.077 417.454 572.956C411.291 571.294 405.663 568.067 401.116 563.587C397.098 559.62 394.044 554.783 392.189 549.449C390.335 544.115 389.73 538.427 390.422 532.823C391.113 527.218 393.081 521.848 396.176 517.124C399.27 512.401 403.408 508.451 408.27 505.578C413.132 502.706 418.588 500.989 424.219 500.559C429.849 500.128 435.503 500.996 440.745 503.096C445.987 505.195 450.677 508.47 454.454 512.668C458.23 516.866 460.992 521.876 462.527 527.31C462.718 527.99 462.773 528.701 462.689 529.402C462.605 530.103 462.383 530.78 462.037 531.396C461.691 532.011 461.227 532.553 460.672 532.989C460.117 533.425 459.481 533.748 458.801 533.938C458.121 534.129 457.411 534.184 456.71 534.099C456.008 534.015 455.331 533.794 454.715 533.448C454.1 533.102 453.558 532.638 453.122 532.083C452.686 531.528 452.363 530.892 452.173 530.212C450.929 525.813 448.552 521.817 445.281 518.624C442.01 515.43 437.958 513.15 433.531 512.012C429.103 510.874 424.455 510.916 420.049 512.136C415.643 513.356 411.634 515.71 408.422 518.963C405.21 522.216 402.908 526.255 401.745 530.676C400.582 535.097 400.599 539.746 401.794 544.159C402.989 548.571 405.32 552.593 408.555 555.823C411.791 559.053 415.817 561.378 420.231 562.566C421.493 562.9 422.59 563.682 423.318 564.766C424.045 565.85 424.353 567.162 424.184 568.457C424.015 569.751 423.381 570.94 422.4 571.801C421.418 572.662 420.157 573.136 418.852 573.135Z" fill="black"/>
<path d="M482.987 356.386C525.195 356.386 559.411 322.17 559.411 279.963C559.411 237.755 525.195 203.539 482.987 203.539C440.779 203.539 406.562 237.755 406.562 279.963C406.562 322.17 440.779 356.386 482.987 356.386Z" fill="#FBF6FF"/>
<path d="M482.918 361.798C462.331 361.817 442.488 354.101 427.324 340.178C412.16 326.255 402.781 307.142 401.046 286.628C399.312 266.115 405.349 245.699 417.96 229.427C430.572 213.156 448.837 202.217 469.134 198.78C489.432 195.343 510.28 199.659 527.546 210.871C544.811 222.083 557.233 239.374 562.349 259.315C567.465 279.255 564.901 300.39 555.166 318.53C545.431 336.669 529.235 350.488 509.789 357.247C501.151 360.262 492.067 361.801 482.918 361.798ZM482.918 208.896C467.853 208.905 453.181 213.701 441.02 222.591C428.859 231.481 419.837 244.006 415.257 258.357C410.677 272.708 410.776 288.144 415.539 302.435C420.302 316.727 429.484 329.135 441.758 337.868C454.032 346.602 468.764 351.21 483.828 351.026C498.891 350.842 513.506 345.876 525.563 336.845C537.621 327.814 546.496 315.186 550.909 300.782C555.322 286.379 555.044 270.946 550.115 256.711C545.272 242.747 536.201 230.637 524.163 222.063C512.124 213.488 497.715 208.874 482.935 208.861L482.918 208.896Z" fill="black"/>
<path d="M483.022 322.115C477.172 322.105 471.389 320.878 466.04 318.51C460.691 316.143 455.893 312.688 451.953 308.364C448.012 304.041 445.015 298.945 443.152 293.4C441.289 287.855 440.6 281.983 441.131 276.158C441.662 270.332 443.399 264.681 446.234 259.564C449.068 254.447 452.937 249.976 457.593 246.436C462.25 242.896 467.593 240.365 473.282 239.003C478.97 237.641 484.881 237.478 490.636 238.525C492.029 238.793 493.259 239.601 494.059 240.773C494.859 241.944 495.163 243.385 494.906 244.78C494.648 246.175 493.849 247.411 492.684 248.219C491.518 249.028 490.08 249.343 488.683 249.095C483.286 248.108 477.725 248.553 472.553 250.386C467.382 252.219 462.782 255.375 459.21 259.54C455.639 263.705 453.222 268.733 452.2 274.124C451.179 279.514 451.588 285.078 453.387 290.261C455.186 295.445 458.312 300.065 462.454 303.664C466.596 307.262 471.608 309.711 476.992 310.768C482.375 311.825 487.942 311.452 493.137 309.687C498.331 307.921 502.973 304.825 506.597 300.707C507.548 299.636 508.885 298.986 510.314 298.9C511.744 298.814 513.149 299.3 514.22 300.25C515.292 301.2 515.942 302.537 516.027 303.967C516.113 305.396 515.627 306.801 514.677 307.873C510.725 312.363 505.864 315.963 500.416 318.433C494.968 320.904 489.057 322.189 483.076 322.205L483.022 322.115Z" fill="black"/>
<path d="M822.432 973.581C821.543 973.581 820.667 973.361 819.884 972.94C819.1 972.519 818.434 971.91 817.944 971.168C817.454 970.425 817.156 969.573 817.076 968.687C816.996 967.802 817.138 966.91 817.488 966.092C824.653 949.217 850.719 955.343 869.709 959.876C874.697 961.242 879.781 962.23 884.918 962.832C886.344 962.891 887.687 963.514 888.653 964.564C889.619 965.614 890.128 967.005 890.069 968.43C890.009 969.855 889.386 971.199 888.336 972.165C887.286 973.131 885.896 973.64 884.47 973.581C878.646 972.98 872.881 971.896 867.236 970.338C852.905 966.934 831.049 961.775 827.376 970.338C826.96 971.303 826.269 972.124 825.39 972.7C824.511 973.277 823.483 973.583 822.432 973.581Z" fill="black"/>
</svg>
