<svg width="2000" height="2000" viewBox="0 0 2000 2000" fill="none" xmlns="http://www.w3.org/2000/svg">
<path d="M1444.37 943.75C1437.39 957.701 1396.51 943.75 1396.51 943.75L1341.68 949.938L951.213 770.979C777.501 894.025 689.47 1137.4 757.217 1359.06C827.787 1589.88 854.115 1642.32 864.809 1657.29C875.503 1672.25 966.955 1700.35 968.638 1723.98C969.054 1729.88 785.319 1734.84 780.867 1718.27C774.679 1695.18 731.378 1530.53 575.562 1537.21C397.925 1544.81 345.214 1666.91 346.879 1675.36C348.978 1685.98 430.875 1709.58 430.875 1729.05C430.875 1734.95 227 1743.31 227 1729.9C227 1704.57 332.801 1373.16 354.949 1266.11C388.949 1101.77 383.322 815.71 509.986 617.734C487.132 580.422 475.986 541.047 494.081 507.029C528.715 441.887 639.835 425.294 715.382 421.784C980.563 243.911 1340.29 181.122 1400.55 397.374C1455.39 594.373 1285.15 631.232 1117.98 690.819C1125.11 727.296 1145.92 759.664 1176.15 781.294C1241.96 829.136 1333.68 896.938 1383.54 915.883C1433.39 934.829 1451.36 929.798 1444.37 943.75Z" fill="#8800FF"/>
<path d="M1374.89 1734.84C1591.98 1734.84 1767.96 1558.85 1767.96 1341.76C1767.96 1124.67 1591.98 948.688 1374.89 948.688C1157.8 948.688 981.811 1124.67 981.811 1341.76C981.811 1558.85 1157.8 1734.84 1374.89 1734.84Z" fill="white"/>
<path d="M1374.92 1740.29C1282.72 1740.29 1193.36 1708.33 1122.09 1649.83C1050.81 1591.34 1002.02 1509.95 984.025 1419.51C966.033 1329.08 979.955 1235.21 1023.42 1153.89C1066.88 1072.57 1137.19 1008.84 1222.38 973.548C1307.57 938.26 1402.35 933.602 1490.59 960.366C1578.82 987.13 1655.05 1043.66 1706.28 1120.33C1757.5 1196.99 1780.56 1289.05 1771.53 1380.81C1762.49 1472.57 1721.91 1558.36 1656.71 1623.56C1619.8 1660.68 1575.88 1690.11 1527.51 1710.15C1479.14 1730.18 1427.28 1740.43 1374.92 1740.29ZM1374.92 954.118C1161.17 954.118 987.277 1128.01 987.277 1341.77C987.277 1555.52 1161.13 1729.43 1374.92 1729.43C1588.71 1729.43 1762.59 1555.52 1762.59 1341.77C1762.59 1128.01 1588.64 954.118 1374.92 954.118Z" fill="black"/>
<path d="M1374.92 1341.76L1329.09 951.366C1413.46 941.467 1498.78 959.168 1572.25 1001.82C1645.72 1044.47 1703.4 1109.78 1736.64 1187.96L1374.92 1341.76Z" fill="white"/>
<path d="M1375.12 1347.29C1373.87 1347.29 1372.66 1346.86 1371.69 1346.07C1370.71 1345.27 1370.05 1344.17 1369.8 1342.95C1369.55 1341.72 1369.73 1340.44 1370.31 1339.34C1370.89 1338.23 1371.83 1337.35 1372.99 1336.86L1411.84 1320.34C1413.16 1319.8 1414.64 1319.8 1415.96 1320.35C1417.28 1320.89 1418.33 1321.93 1418.89 1323.24C1419.45 1324.55 1419.47 1326.03 1418.94 1327.36C1418.42 1328.69 1417.39 1329.75 1416.09 1330.33L1377.24 1346.85C1376.57 1347.14 1375.85 1347.28 1375.12 1347.29Z" fill="black"/>
<path d="M1458.01 1312.03C1456.76 1312.03 1455.55 1311.6 1454.59 1310.81C1453.62 1310.01 1452.95 1308.91 1452.71 1307.69C1452.46 1306.46 1452.64 1305.19 1453.22 1304.08C1453.8 1302.97 1454.75 1302.1 1455.9 1301.61L1501.59 1282.2C1502.25 1281.89 1502.97 1281.71 1503.7 1281.68C1504.43 1281.66 1505.15 1281.78 1505.84 1282.04C1506.52 1282.3 1507.14 1282.69 1507.67 1283.2C1508.19 1283.71 1508.61 1284.32 1508.9 1284.99C1509.18 1285.66 1509.33 1286.39 1509.33 1287.12C1509.33 1287.85 1509.18 1288.57 1508.89 1289.24C1508.6 1289.91 1508.18 1290.52 1507.66 1291.03C1507.13 1291.53 1506.5 1291.93 1505.82 1292.18L1460.15 1311.6C1459.47 1311.88 1458.75 1312.03 1458.01 1312.03Z" fill="black"/>
<path d="M1549.45 1273.17C1548.2 1273.17 1546.99 1272.73 1546.02 1271.94C1545.05 1271.15 1544.39 1270.05 1544.14 1268.82C1543.89 1267.59 1544.07 1266.32 1544.65 1265.21C1545.24 1264.11 1546.18 1263.23 1547.33 1262.74L1592.7 1243.46C1593.36 1243.14 1594.07 1242.97 1594.8 1242.94C1595.53 1242.92 1596.26 1243.04 1596.94 1243.3C1597.63 1243.56 1598.25 1243.95 1598.77 1244.46C1599.3 1244.97 1599.72 1245.58 1600 1246.25C1600.29 1246.92 1600.44 1247.65 1600.43 1248.38C1600.43 1249.11 1600.28 1249.83 1600 1250.5C1599.71 1251.17 1599.29 1251.78 1598.76 1252.29C1598.24 1252.79 1597.61 1253.19 1596.93 1253.44L1551.58 1272.73C1550.91 1273.02 1550.18 1273.16 1549.45 1273.17Z" fill="black"/>
<path d="M1639.92 1234.7C1638.67 1234.69 1637.46 1234.26 1636.49 1233.47C1635.53 1232.68 1634.86 1231.57 1634.61 1230.35C1634.36 1229.12 1634.55 1227.85 1635.13 1226.74C1635.71 1225.64 1636.66 1224.76 1637.81 1224.27L1685.78 1203.86C1686.43 1203.58 1687.14 1203.44 1687.85 1203.43C1688.57 1203.42 1689.27 1203.56 1689.94 1203.82C1690.6 1204.09 1691.2 1204.49 1691.71 1204.99C1692.22 1205.49 1692.63 1206.08 1692.9 1206.74C1693.18 1207.4 1693.33 1208.1 1693.34 1208.82C1693.34 1209.53 1693.21 1210.24 1692.94 1210.9C1692.68 1211.56 1692.28 1212.17 1691.78 1212.67C1691.28 1213.18 1690.68 1213.59 1690.03 1213.87L1642.06 1234.26C1641.38 1234.54 1640.66 1234.69 1639.92 1234.7Z" fill="black"/>
<path d="M1736.64 1193.39C1735.57 1193.39 1734.53 1193.08 1733.64 1192.49C1732.75 1191.91 1732.05 1191.07 1731.63 1190.09C1698.85 1112.98 1641.97 1048.57 1569.5 1006.51C1497.04 964.44 1412.9 946.986 1329.69 956.758C1328.97 956.841 1328.25 956.783 1327.56 956.587C1326.87 956.391 1326.22 956.061 1325.66 955.616C1324.52 954.717 1323.79 953.403 1323.62 951.963C1323.46 950.523 1323.87 949.076 1324.77 947.939C1325.67 946.802 1326.98 946.069 1328.42 945.901C1413.96 935.956 1500.43 953.949 1574.9 997.194C1649.38 1040.44 1707.87 1106.62 1741.63 1185.84C1742.19 1187.16 1742.21 1188.66 1741.67 1189.99C1741.13 1191.32 1740.08 1192.39 1738.76 1192.95C1738.09 1193.24 1737.37 1193.39 1736.64 1193.39Z" fill="black"/>
<path d="M1374.92 1341.77L1039.41 1136.91C1070.88 1085.38 1113.8 1041.79 1164.84 1009.52C1215.88 977.255 1273.67 957.176 1333.72 950.844L1374.92 1341.77Z" fill="white"/>
<path d="M1116.69 1189.53C1115.7 1189.53 1114.72 1189.25 1113.87 1188.74L1072.74 1163.57C1072.1 1163.21 1071.54 1162.73 1071.09 1162.15C1070.65 1161.58 1070.32 1160.91 1070.14 1160.21C1069.95 1159.5 1069.91 1158.77 1070.01 1158.04C1070.12 1157.32 1070.37 1156.63 1070.75 1156C1071.13 1155.38 1071.63 1154.84 1072.23 1154.42C1072.82 1153.99 1073.49 1153.69 1074.21 1153.53C1074.92 1153.37 1075.66 1153.36 1076.37 1153.49C1077.09 1153.62 1077.77 1153.9 1078.38 1154.3L1119.59 1179.47C1120.6 1180.09 1121.38 1181.02 1121.81 1182.12C1122.24 1183.22 1122.3 1184.43 1121.98 1185.57C1121.66 1186.71 1120.98 1187.71 1120.04 1188.43C1119.1 1189.14 1117.95 1189.53 1116.76 1189.53H1116.69Z" fill="black"/>
<path d="M1209.19 1246.03C1208.2 1246.02 1207.22 1245.74 1206.37 1245.23L1162.13 1218.2C1161.49 1217.84 1160.93 1217.36 1160.48 1216.78C1160.04 1216.2 1159.71 1215.54 1159.52 1214.84C1159.34 1214.13 1159.3 1213.4 1159.4 1212.67C1159.51 1211.95 1159.76 1211.26 1160.14 1210.63C1160.52 1210.01 1161.02 1209.47 1161.61 1209.04C1162.21 1208.62 1162.88 1208.32 1163.59 1208.16C1164.31 1208 1165.04 1207.99 1165.76 1208.12C1166.48 1208.25 1167.16 1208.53 1167.77 1208.93L1212.07 1235.95C1213.09 1236.56 1213.88 1237.49 1214.32 1238.6C1214.75 1239.71 1214.82 1240.93 1214.49 1242.07C1214.17 1243.22 1213.48 1244.22 1212.53 1244.94C1211.58 1245.65 1210.42 1246.04 1209.23 1246.03H1209.19Z" fill="black"/>
<path d="M1294.42 1298.05C1293.42 1298.05 1292.44 1297.78 1291.6 1297.25L1249.33 1271.45C1248.1 1270.7 1247.22 1269.49 1246.88 1268.09C1246.54 1266.69 1246.77 1265.21 1247.53 1263.98C1248.28 1262.76 1249.49 1261.88 1250.89 1261.54C1252.28 1261.2 1253.76 1261.43 1254.99 1262.18L1297.24 1287.99C1298.25 1288.6 1299.03 1289.53 1299.46 1290.63C1299.9 1291.73 1299.96 1292.95 1299.64 1294.09C1299.32 1295.22 1298.64 1296.23 1297.69 1296.94C1296.75 1297.66 1295.6 1298.05 1294.42 1298.05Z" fill="black"/>
<path d="M1374.92 1347.2C1373.93 1347.2 1372.95 1346.92 1372.1 1346.4L1330.92 1321.27C1330.31 1320.89 1329.78 1320.41 1329.36 1319.83C1328.94 1319.25 1328.64 1318.6 1328.47 1317.91C1328.3 1317.21 1328.27 1316.49 1328.38 1315.79C1328.5 1315.08 1328.74 1314.41 1329.12 1313.8C1329.49 1313.19 1329.98 1312.66 1330.55 1312.24C1331.13 1311.82 1331.78 1311.52 1332.48 1311.35C1333.17 1311.19 1333.89 1311.16 1334.59 1311.27C1335.3 1311.38 1335.97 1311.63 1336.58 1312L1368.37 1331.42L1364.39 1293.42C1364.24 1291.98 1364.67 1290.54 1365.58 1289.41C1366.49 1288.29 1367.81 1287.57 1369.25 1287.42C1370.69 1287.27 1372.13 1287.69 1373.26 1288.61C1374.38 1289.52 1375.1 1290.84 1375.25 1292.28L1380.41 1341.13C1380.48 1341.89 1380.4 1342.66 1380.17 1343.38C1379.93 1344.11 1379.54 1344.77 1379.03 1345.34C1378.52 1345.9 1377.89 1346.36 1377.19 1346.66C1376.5 1346.97 1375.74 1347.13 1374.98 1347.12L1374.92 1347.2Z" fill="black"/>
<path d="M1364.81 1251.49C1363.46 1251.5 1362.16 1251 1361.15 1250.1C1360.15 1249.2 1359.52 1247.96 1359.38 1246.62L1354.15 1196.95C1354.08 1196.24 1354.14 1195.52 1354.35 1194.83C1354.55 1194.14 1354.89 1193.5 1355.34 1192.95C1355.79 1192.39 1356.34 1191.93 1356.97 1191.58C1357.6 1191.24 1358.3 1191.03 1359.01 1190.95C1359.72 1190.88 1360.44 1190.95 1361.13 1191.15C1361.82 1191.35 1362.46 1191.69 1363.01 1192.14C1364.14 1193.05 1364.86 1194.37 1365.01 1195.81L1370.24 1245.48C1370.39 1246.91 1369.97 1248.34 1369.06 1249.46C1368.16 1250.58 1366.85 1251.3 1365.42 1251.45L1364.81 1251.49Z" fill="black"/>
<path d="M1354.06 1149.49C1352.71 1149.5 1351.41 1149 1350.41 1148.11C1349.41 1147.21 1348.77 1145.98 1348.63 1144.64L1343.38 1094.86C1343.23 1093.42 1343.66 1091.98 1344.57 1090.85C1345.48 1089.73 1346.8 1089.01 1348.24 1088.86C1349.68 1088.71 1351.12 1089.14 1352.25 1090.05C1353.37 1090.96 1354.09 1092.28 1354.24 1093.72L1359.49 1143.5C1359.56 1144.21 1359.5 1144.93 1359.3 1145.61C1359.09 1146.29 1358.76 1146.93 1358.31 1147.49C1357.86 1148.04 1357.31 1148.5 1356.68 1148.84C1356.05 1149.18 1355.37 1149.4 1354.66 1149.47L1354.06 1149.49Z" fill="black"/>
<path d="M1039.41 1142.34C1038.41 1142.33 1037.44 1142.06 1036.58 1141.55C1035.97 1141.18 1035.44 1140.69 1035.02 1140.11C1034.6 1139.53 1034.3 1138.88 1034.13 1138.19C1033.96 1137.49 1033.93 1136.77 1034.04 1136.06C1034.15 1135.36 1034.4 1134.68 1034.78 1134.07C1066.68 1081.83 1110.2 1037.64 1161.94 1004.93C1213.68 972.223 1272.26 951.87 1333.14 945.452C1333.85 945.377 1334.58 945.443 1335.26 945.647C1335.95 945.85 1336.59 946.187 1337.15 946.639C1337.7 947.09 1338.17 947.646 1338.51 948.276C1338.85 948.906 1339.07 949.597 1339.14 950.31C1339.22 951.023 1339.15 951.744 1338.95 952.431C1338.74 953.118 1338.4 953.759 1337.95 954.316C1337.5 954.873 1336.95 955.335 1336.32 955.677C1335.69 956.019 1334.99 956.234 1334.28 956.309C1275.06 962.543 1218.07 982.339 1167.74 1014.16C1117.4 1045.98 1075.07 1088.97 1044.04 1139.79C1043.55 1140.58 1042.87 1141.22 1042.06 1141.67C1041.24 1142.12 1040.33 1142.35 1039.41 1142.34Z" fill="black"/>
<path d="M894.142 725.217L1527.63 1017.76L1503.67 1068.33L1479.51 1033.46L1427.4 1051.97L1391.05 1005.34L1342.28 1032.09L1299.85 986.145L1238.81 1014.26L1201.79 966.259L1134.59 992.316L1101.67 940.89L1039.43 966.947L1002.93 911.395L934.349 939.515L904.873 881.231L836.42 911.395L813.674 856.55L894.142 725.217Z" fill="white"/>
<path d="M1503.67 1073.76C1502.79 1073.76 1501.93 1073.54 1501.15 1073.13C1500.38 1072.72 1499.71 1072.13 1499.22 1071.41L1477.41 1039.96L1429.21 1057.1C1428.13 1057.47 1426.96 1057.5 1425.87 1057.18C1424.77 1056.85 1423.81 1056.19 1423.11 1055.29L1389.6 1012.31L1344.89 1036.79C1343.82 1037.38 1342.59 1037.59 1341.4 1037.39C1340.2 1037.19 1339.1 1036.6 1338.28 1035.71L1298.47 992.66L1241.02 1019.19C1239.9 1019.7 1238.65 1019.82 1237.45 1019.53C1236.26 1019.24 1235.2 1018.55 1234.45 1017.58L1199.89 972.792L1136.56 997.383C1135.39 997.835 1134.1 997.87 1132.91 997.48C1131.72 997.091 1130.7 996.302 1130.03 995.248L1099.57 947.658L1041.52 971.959C1040.36 972.446 1039.06 972.509 1037.85 972.139C1036.64 971.769 1035.6 970.989 1034.9 969.933L1000.86 918.127L936.412 944.509C935.15 945.025 933.74 945.047 932.463 944.571C931.186 944.095 930.134 943.156 929.518 941.94L902.375 888.234L838.627 916.336C837.96 916.617 837.243 916.762 836.519 916.762C835.795 916.762 835.078 916.617 834.411 916.336C833.74 916.065 833.131 915.663 832.618 915.153C832.106 914.643 831.7 914.037 831.425 913.368L808.68 858.522C808.35 857.73 808.212 856.871 808.278 856.016C808.344 855.16 808.612 854.333 809.06 853.601L889.546 722.268C890.239 721.135 891.324 720.296 892.594 719.909C893.865 719.522 895.233 719.615 896.44 720.169L1529.91 1012.82C1530.55 1013.12 1531.14 1013.55 1531.62 1014.07C1532.1 1014.6 1532.48 1015.22 1532.72 1015.89C1532.97 1016.56 1533.07 1017.28 1533.04 1017.99C1533.01 1018.71 1532.83 1019.41 1532.53 1020.06L1508.57 1070.72C1508.17 1071.58 1507.54 1072.32 1506.76 1072.86C1505.98 1073.41 1505.07 1073.74 1504.12 1073.82L1503.67 1073.76ZM1479.51 1028.04C1480.39 1028.04 1481.25 1028.25 1482.02 1028.66C1482.8 1029.06 1483.46 1029.65 1483.96 1030.37L1502.78 1057.51L1520.37 1020.38L896.259 732.166L819.754 857.021L839.314 904.194L902.647 876.255C903.921 875.694 905.362 875.644 906.672 876.116C907.982 876.587 909.061 877.544 909.685 878.789L936.828 932.585L1000.76 906.383C1001.92 905.904 1003.22 905.845 1004.43 906.218C1005.63 906.592 1006.67 907.373 1007.36 908.428L1041.36 960.198L1099.46 935.878C1100.64 935.382 1101.96 935.319 1103.18 935.7C1104.4 936.081 1105.45 936.881 1106.14 937.959L1136.65 985.657L1199.71 961.193C1200.81 960.776 1202.01 960.727 1203.14 961.054C1204.27 961.38 1205.26 962.064 1205.97 963.002L1240.35 1007.57L1297.44 981.278C1298.48 980.798 1299.65 980.661 1300.77 980.885C1301.9 981.109 1302.92 981.684 1303.7 982.527L1343.26 1025.36L1388.44 1000.6C1389.57 999.984 1390.89 999.787 1392.15 1000.05C1393.41 1000.31 1394.54 1001.01 1395.33 1002.03L1429.21 1045.55L1477.63 1028.34C1478.23 1028.13 1478.87 1028.02 1479.51 1028.04Z" fill="black"/>
<path d="M882.958 686.422L810.163 646.613C804.251 643.378 797.336 642.494 790.801 644.138C784.265 645.782 778.591 649.832 774.914 655.479L670.796 815.438C668.751 818.583 667.39 822.122 666.802 825.827C666.215 829.531 666.414 833.317 667.385 836.94C668.356 840.563 670.078 843.941 672.439 846.855C674.801 849.769 677.748 852.153 681.091 853.854L761.685 894.839C767.716 897.918 774.691 898.595 781.2 896.73C787.709 894.866 793.269 890.601 796.754 884.796L893.073 723.752C894.94 720.657 896.162 717.216 896.663 713.637C897.164 710.058 896.935 706.414 895.989 702.926C895.044 699.438 893.403 696.177 891.163 693.34C888.924 690.504 886.133 688.15 882.958 686.422ZM851.273 726.701L779.799 849.294C778.797 851.013 777.465 852.517 775.88 853.72C774.296 854.923 772.49 855.802 770.565 856.306C768.641 856.811 766.637 856.93 764.666 856.658C762.695 856.387 760.797 855.729 759.08 854.723L716.413 829.661C714.666 828.633 713.143 827.265 711.935 825.638C710.727 824.01 709.858 822.157 709.38 820.187C708.902 818.217 708.826 816.172 709.155 814.172C709.483 812.172 710.209 810.258 711.291 808.544L786.947 688.955C789.034 685.671 792.307 683.318 796.085 682.384C799.862 681.451 803.854 682.009 807.231 683.943L845.718 705.982C847.447 706.974 848.963 708.298 850.179 709.877C851.395 711.457 852.288 713.261 852.804 715.187C853.32 717.112 853.45 719.121 853.187 721.097C852.925 723.073 852.274 724.977 851.273 726.701Z" fill="white"/>
<path d="M773.737 903.145C768.703 903.146 763.741 901.949 759.261 899.653L678.63 858.668C674.604 856.622 671.053 853.751 668.21 850.243C665.366 846.734 663.293 842.666 662.126 838.303C660.959 833.94 660.723 829.381 661.434 824.921C662.145 820.461 663.787 816.201 666.253 812.417L770.371 652.458C774.813 645.688 781.638 640.835 789.491 638.861C797.344 636.887 805.652 637.936 812.767 641.8L885.563 681.609C889.359 683.688 892.696 686.511 895.376 689.909C898.056 693.307 900.023 697.211 901.159 701.386C902.296 705.562 902.579 709.924 901.992 714.211C901.405 718.499 899.959 722.624 897.741 726.34L801.422 887.385C798.563 892.18 794.51 896.153 789.658 898.916C784.805 901.678 779.32 903.135 773.737 903.145ZM797.387 648.767C793.832 648.758 790.332 649.637 787.203 651.324C784.075 653.012 781.417 655.454 779.473 658.43L675.355 818.389C673.722 820.893 672.636 823.714 672.165 826.666C671.695 829.619 671.851 832.637 672.625 835.525C673.398 838.413 674.77 841.106 676.653 843.429C678.536 845.751 680.886 847.651 683.552 849.005L764.146 889.99C768.963 892.422 774.52 892.943 779.705 891.45C784.889 889.956 789.318 886.559 792.103 881.938L888.422 720.893C889.9 718.427 890.865 715.688 891.259 712.84C891.653 709.992 891.467 707.094 890.714 704.319C889.96 701.544 888.654 698.951 886.873 696.693C885.093 694.436 882.875 692.561 880.352 691.181L807.556 651.373C804.44 649.66 800.942 648.764 797.387 648.767ZM766.625 862.287C762.98 862.283 759.401 861.309 756.257 859.464L713.589 834.403C711.216 833.005 709.147 831.146 707.506 828.934C705.865 826.722 704.685 824.204 704.035 821.527C703.385 818.851 703.28 816.071 703.724 813.353C704.169 810.635 705.154 808.034 706.623 805.704L782.296 686.115C785.115 681.635 789.56 678.42 794.697 677.145C799.835 675.87 805.267 676.633 809.854 679.275L848.36 701.26C850.714 702.607 852.778 704.406 854.433 706.553C856.088 708.7 857.303 711.154 858.006 713.773C858.709 716.392 858.887 719.124 858.529 721.812C858.172 724.499 857.287 727.09 855.924 729.434L784.449 852.027C783.094 854.371 781.286 856.422 779.13 858.059C776.974 859.697 774.513 860.888 771.891 861.563C770.195 862.006 768.45 862.231 766.698 862.233L766.625 862.287ZM799.649 687.4C798.014 687.399 796.405 687.813 794.975 688.605C793.544 689.396 792.338 690.538 791.47 691.923L715.815 811.495C715.119 812.592 714.651 813.818 714.439 815.1C714.227 816.382 714.275 817.694 714.58 818.957C714.886 820.22 715.443 821.409 716.218 822.452C716.992 823.495 717.969 824.372 719.09 825.03L761.758 850.091C762.858 850.736 764.074 851.158 765.337 851.333C766.6 851.507 767.886 851.431 769.119 851.108C770.353 850.785 771.511 850.223 772.527 849.452C773.542 848.681 774.396 847.718 775.04 846.617L846.551 723.969C847.19 722.86 847.604 721.634 847.768 720.364C847.932 719.093 847.844 717.803 847.507 716.567C847.171 715.331 846.594 714.173 845.808 713.161C845.023 712.149 844.045 711.303 842.932 710.67L804.444 688.63C803.005 687.805 801.379 687.363 799.721 687.345L799.649 687.4Z" fill="black"/>
<path d="M766.699 862.232C763.053 862.227 759.475 861.253 756.33 859.409L713.663 834.347C711.289 832.95 709.221 831.09 707.58 828.878C705.938 826.667 704.758 824.148 704.108 821.472C703.459 818.795 703.353 816.016 703.797 813.298C704.242 810.58 705.228 807.979 706.696 805.649L782.369 686.06C785.188 681.579 789.633 678.365 794.771 677.09C799.908 675.814 805.34 676.578 809.927 679.22L848.361 701.259C850.715 702.606 852.779 704.404 854.434 706.552C856.089 708.699 857.304 711.153 858.007 713.772C858.71 716.391 858.888 719.123 858.53 721.81C858.173 724.498 857.287 727.089 855.925 729.433L784.45 852.026C783.095 854.37 781.287 856.421 779.131 858.058C776.975 859.695 774.514 860.887 771.892 861.562C770.196 862.005 768.451 862.23 766.699 862.232ZM799.722 687.344C798.087 687.343 796.479 687.758 795.048 688.549C793.617 689.34 792.411 690.483 791.543 691.868L715.888 811.439C715.192 812.536 714.724 813.763 714.512 815.045C714.3 816.327 714.348 817.639 714.654 818.902C714.959 820.165 715.516 821.353 716.291 822.397C717.066 823.44 718.043 824.316 719.163 824.974L761.831 850.036C762.931 850.681 764.147 851.103 765.411 851.277C766.674 851.452 767.959 851.375 769.192 851.053C770.426 850.73 771.584 850.167 772.6 849.397C773.616 848.626 774.47 847.662 775.113 846.561L846.552 723.968C847.191 722.858 847.605 721.633 847.769 720.363C847.933 719.092 847.845 717.802 847.508 716.566C847.172 715.33 846.595 714.172 845.809 713.16C845.024 712.148 844.046 711.301 842.933 710.669L804.445 688.629C803.006 687.804 801.38 687.362 799.722 687.344Z" fill="black"/>
<path d="M1329.09 951.367C1282.8 956.917 1237.84 970.518 1196.24 991.556L1240.06 1040.07L1347.33 1080.22L1329.09 951.367Z" fill="white"/>
<path d="M1196.24 996.987C1195.02 996.984 1193.84 996.572 1192.88 995.817C1191.93 995.062 1191.25 994.009 1190.97 992.825C1190.69 991.642 1190.81 990.397 1191.32 989.291C1191.83 988.185 1192.69 987.283 1193.77 986.728C1235.94 965.404 1281.52 951.62 1328.44 945.996C1329.88 945.823 1331.33 946.229 1332.47 947.125C1333.61 948.021 1334.34 949.333 1334.52 950.773C1334.69 952.213 1334.28 953.662 1333.39 954.802C1332.49 955.943 1331.18 956.68 1329.74 956.853C1284.09 962.32 1239.75 975.725 1198.71 996.463C1197.94 996.826 1197.09 997.006 1196.24 996.987Z" fill="black"/>
<path d="M1343.51 1049.32C1342.16 1049.32 1340.86 1048.83 1339.86 1047.93C1338.85 1047.03 1338.22 1045.79 1338.08 1044.45L1328.27 951.423C1328.12 949.983 1328.55 948.542 1329.46 947.417C1330.37 946.292 1331.69 945.576 1333.13 945.424C1334.57 945.273 1336.01 945.7 1337.14 946.611C1338.26 947.522 1338.98 948.843 1339.13 950.283L1348.94 1043.31C1349.01 1044.02 1348.95 1044.74 1348.75 1045.42C1348.54 1046.1 1348.21 1046.74 1347.76 1047.3C1347.31 1047.85 1346.76 1048.31 1346.13 1048.65C1345.5 1048.99 1344.82 1049.21 1344.11 1049.28L1343.51 1049.32Z" fill="black"/>
<path d="M1279.52 643.881C1312.59 633.731 1331.87 600.944 1322.57 570.648C1313.27 540.353 1278.92 524.023 1245.85 534.173C1212.77 544.323 1193.5 577.11 1202.79 607.405C1212.09 637.7 1246.44 654.031 1279.52 643.881Z" fill="white"/>
<path d="M1259.69 652.205C1231.39 652.205 1205.77 635.412 1197.63 608.903C1195.19 600.838 1194.48 592.351 1195.54 583.993C1196.6 575.635 1199.41 567.593 1203.78 560.391C1212.86 545.188 1227.31 533.946 1244.28 528.888C1280.16 517.886 1317.62 535.854 1327.77 568.95C1330.2 577.014 1330.92 585.501 1329.86 593.859C1328.8 602.217 1326 610.259 1321.63 617.462C1312.57 632.672 1298.11 643.917 1281.14 648.966C1274.19 651.111 1266.96 652.202 1259.69 652.205ZM1265.74 536.506C1259.54 536.51 1253.38 537.443 1247.46 539.274C1233.06 543.511 1220.79 553.014 1213.08 565.892C1209.49 571.797 1207.17 578.393 1206.29 585.252C1205.41 592.11 1205.98 599.077 1207.96 605.701C1216.36 633.078 1247.77 647.826 1277.9 638.579C1292.29 634.325 1304.56 624.818 1312.28 611.943C1315.87 606.037 1318.19 599.441 1319.07 592.583C1319.95 585.725 1319.38 578.759 1317.4 572.135C1310.69 550.312 1289.39 536.506 1265.74 536.506Z" fill="black"/>
<path d="M1275.76 559.563C1316.65 547.015 1339.85 504.445 1327.59 464.482C1315.33 424.518 1272.24 402.294 1231.35 414.842C1190.46 427.39 1167.25 469.959 1179.51 509.923C1191.78 549.887 1234.87 572.111 1275.76 559.563Z" fill="white"/>
<path d="M1252.47 568.409C1239.25 568.402 1226.22 565.232 1214.48 559.162C1204.93 554.296 1196.47 547.562 1189.58 539.36C1182.69 531.158 1177.53 521.655 1174.38 511.416C1171.24 501.177 1170.19 490.411 1171.29 479.758C1172.39 469.104 1175.61 458.78 1180.78 449.399C1191.26 430.205 1208.87 415.906 1229.8 409.59C1273.48 396.181 1319.7 420.067 1332.82 462.825C1345.93 505.583 1321.09 551.273 1277.41 564.681C1269.33 567.159 1260.93 568.416 1252.47 568.409ZM1232.95 420.031C1214.76 425.521 1199.47 437.94 1190.35 454.61C1185.88 462.719 1183.08 471.645 1182.13 480.856C1181.18 490.068 1182.09 499.378 1184.81 508.231C1187.52 517.084 1191.99 525.3 1197.95 532.389C1203.91 539.479 1211.23 545.298 1219.49 549.5C1236.41 558.228 1256.09 559.938 1274.26 554.259C1312.26 542.624 1333.85 502.996 1322.48 465.974C1311.12 428.951 1270.99 408.287 1233.02 419.94L1232.95 420.031Z" fill="black"/>
<path d="M1264.87 625.495C1269.24 625.495 1272.78 621.954 1272.78 617.587C1272.78 613.22 1269.24 609.68 1264.87 609.68C1260.5 609.68 1256.96 613.22 1256.96 617.587C1256.96 621.954 1260.5 625.495 1264.87 625.495Z" fill="black"/>
<path d="M1253.94 540.848C1258.31 540.848 1261.85 537.308 1261.85 532.941C1261.85 528.574 1258.31 525.033 1253.94 525.033C1249.57 525.033 1246.03 528.574 1246.03 532.941C1246.03 537.308 1249.57 540.848 1253.94 540.848Z" fill="black"/>
<path d="M1157.4 375.299C1157.4 375.299 1067.94 450.755 1116.73 527.296C1116.73 527.296 1014.35 487.94 1049.67 418.293C1081.95 354.707 1157.4 375.299 1157.4 375.299Z" fill="white"/>
<path d="M1116.73 532.795C1116.06 532.799 1115.41 532.676 1114.79 532.433C1112.42 531.528 1056.67 509.688 1040.91 468.739C1034.36 451.711 1035.68 433.942 1044.84 415.902C1078.73 349.077 1158.04 369.85 1158.83 370.067C1159.79 370.328 1160.65 370.844 1161.33 371.559C1162.01 372.275 1162.49 373.162 1162.7 374.126C1162.91 375.091 1162.86 376.095 1162.55 377.032C1162.23 377.968 1161.67 378.801 1160.91 379.44C1146.1 392.771 1133.44 408.326 1123.4 425.546C1103.03 461.302 1102.34 494.578 1121.36 524.453C1121.88 525.273 1122.17 526.219 1122.2 527.191C1122.24 528.163 1122.01 529.125 1121.54 529.978C1121.07 530.83 1120.38 531.542 1119.54 532.037C1118.71 532.533 1117.75 532.794 1116.78 532.795H1116.73ZM1129.39 377.414C1105.98 377.414 1072.94 384.652 1054.59 420.842C1046.88 436.023 1045.72 450.843 1051.11 464.885C1060.54 489.367 1087.54 506.774 1104.42 515.641C1091.76 486.128 1095.01 453.358 1114.14 419.937C1122.94 404.846 1133.65 390.96 1146.02 378.626C1140.49 377.832 1134.91 377.427 1129.32 377.414H1129.39Z" fill="black"/>
<path d="M1077.13 511.01C1076.08 511.012 1075.05 510.706 1074.16 510.131C1073.28 509.556 1072.58 508.736 1072.16 507.771C1058.84 477.372 1062.53 443.534 1082.85 409.95C1092.28 394.488 1103.95 380.506 1117.47 368.458C1118.01 367.974 1118.64 367.604 1119.33 367.369C1120.02 367.135 1120.75 367.04 1121.47 367.092C1122.2 367.144 1122.9 367.34 1123.55 367.67C1124.2 368 1124.77 368.457 1125.24 369.013C1125.71 369.569 1126.06 370.213 1126.27 370.907C1126.49 371.602 1126.56 372.332 1126.49 373.055C1126.41 373.778 1126.19 374.478 1125.85 375.116C1125.5 375.753 1125.02 376.313 1124.45 376.764C1123.75 377.379 1053.34 437.78 1082.11 503.428C1082.47 504.255 1082.62 505.158 1082.55 506.056C1082.47 506.954 1082.17 507.819 1081.68 508.573C1081.18 509.328 1080.51 509.947 1079.72 510.375C1078.92 510.804 1078.04 511.028 1077.13 511.028V511.01Z" fill="black"/>
<path d="M883.339 475.507C882.1 475.507 880.899 475.083 879.935 474.306C878.971 473.529 878.301 472.446 878.037 471.237C867.18 421.765 756.928 426.234 723.416 428.768C721.976 428.878 720.551 428.412 719.455 427.472C718.359 426.532 717.681 425.195 717.571 423.755C717.461 422.316 717.927 420.891 718.867 419.795C719.807 418.699 721.144 418.021 722.583 417.911C768.382 414.437 876.209 412.482 888.64 468.866C888.817 469.66 888.812 470.483 888.628 471.275C888.443 472.066 888.083 472.806 887.574 473.44C887.065 474.074 886.42 474.586 885.687 474.937C884.954 475.289 884.152 475.471 883.339 475.471V475.507Z" fill="black"/>
<path d="M781.139 599.854C750.884 594.082 660.862 577.145 649.95 607.653C634.461 651.081 681.617 698.019 698.97 707.79C712.215 715.245 771.259 721.307 769.16 740.687C767.549 755.524 747.663 751.073 747.663 751.073C747.663 751.073 761.397 758.528 755.625 771.719C749.852 784.911 730.491 778.216 730.491 778.216C730.491 778.216 744.967 790.647 737.421 799.495C729.876 808.343 721.136 794.718 698.21 794.067C690.592 793.868 684.53 794.284 684.53 794.284C684.53 794.284 562.172 701.403 512.465 622.382L781.139 599.854Z" fill="#8800FF"/>
<path d="M731.539 807.985C727.504 807.687 723.562 806.625 719.922 804.855C713.051 801.682 705.626 799.881 698.064 799.553C690.826 799.354 684.963 799.752 684.909 799.752C683.611 799.835 682.327 799.45 681.29 798.666C676.26 794.848 557.575 704.283 507.904 625.335C507.137 624.116 506.884 622.642 507.203 621.237C507.522 619.832 508.386 618.612 509.605 617.844C510.824 617.076 512.298 616.824 513.703 617.143C515.108 617.462 516.329 618.326 517.097 619.545C562.678 691.924 671.881 777.676 686.284 788.804C688.763 788.696 693.214 788.569 698.39 788.696C707.262 789.052 715.981 791.122 724.066 794.794C731.684 797.906 732.028 797.508 733.313 795.988C737.058 791.573 727.07 782.417 726.961 782.326C726.395 781.867 725.927 781.299 725.585 780.654C725.243 780.01 725.034 779.304 724.972 778.578C724.909 777.851 724.993 777.119 725.219 776.426C725.445 775.733 725.809 775.092 726.288 774.542C726.767 773.993 727.352 773.545 728.008 773.227C728.664 772.908 729.377 772.725 730.105 772.688C730.834 772.651 731.562 772.761 732.247 773.012C732.931 773.263 733.559 773.649 734.091 774.148C740.931 780.083 750.213 792.84 741.6 803.009C740.418 804.556 738.896 805.809 737.151 806.672C735.406 807.535 733.486 807.984 731.539 807.985Z" fill="black"/>
<path d="M740.805 785.273C736.774 785.272 732.766 784.662 728.917 783.463C728.091 783.203 727.336 782.757 726.709 782.16C725.763 781.303 725.149 780.14 724.976 778.875C724.802 777.61 725.08 776.324 725.761 775.244C726.441 774.163 727.481 773.357 728.697 772.968C729.913 772.578 731.227 772.629 732.409 773.113C734.979 773.873 747.319 777.112 750.649 769.494C754.159 761.46 746.559 756.646 745.003 755.76C744.383 755.403 743.839 754.928 743.402 754.362C742.966 753.795 742.645 753.148 742.459 752.457C742.272 751.767 742.223 751.046 742.315 750.337C742.407 749.627 742.638 748.943 742.995 748.323C743.351 747.703 743.826 747.159 744.393 746.722C744.959 746.285 745.607 745.965 746.297 745.778C746.988 745.592 747.708 745.543 748.418 745.635C749.127 745.727 749.811 745.958 750.432 746.314C757.054 750.078 766.717 760.103 760.673 773.837C756.892 782.359 748.984 785.273 740.805 785.273Z" fill="black"/>
<path d="M754.032 757.154C751.566 757.149 749.106 756.906 746.686 756.43C745.628 756.236 744.652 755.732 743.881 754.983C743.019 754.149 742.458 753.053 742.284 751.867C742.11 750.68 742.334 749.47 742.921 748.424C743.508 747.378 744.425 746.556 745.528 746.086C746.632 745.616 747.859 745.525 749.02 745.827C752.096 746.406 758.321 746.822 761.542 744.47C762.218 743.958 762.77 743.3 763.156 742.545C763.541 741.789 763.75 740.957 763.767 740.109C764.166 736.399 758.719 730.392 730.545 722.774C729.856 722.587 729.21 722.267 728.645 721.831C728.08 721.395 727.606 720.852 727.251 720.232C726.895 719.613 726.665 718.93 726.574 718.222C726.483 717.514 726.532 716.795 726.718 716.106C726.905 715.417 727.225 714.771 727.661 714.206C728.097 713.64 728.64 713.167 729.26 712.811C729.879 712.456 730.562 712.226 731.27 712.135C731.978 712.043 732.697 712.092 733.386 712.279C755.733 718.34 776.199 726.031 774.552 741.231C774.374 743.584 773.692 745.871 772.552 747.938C771.413 750.005 769.842 751.803 767.947 753.209C763.834 755.943 758.969 757.322 754.032 757.154Z" fill="black"/>
<path d="M698.97 713.22C698.037 713.227 697.118 712.983 696.311 712.515C675.085 700.572 628.599 651.282 644.849 605.755C656.104 574.288 728.61 584.24 782.153 594.445C783.568 594.714 784.819 595.534 785.63 596.725C786.442 597.917 786.746 599.381 786.477 600.797C786.209 602.212 785.389 603.463 784.197 604.275C783.006 605.086 781.542 605.39 780.126 605.121C765.65 602.371 735.721 596.635 708.072 595.495C677.546 594.228 658.727 599.114 655.072 609.41C640.252 650.847 688.077 695.361 701.63 702.997C702.672 703.587 703.489 704.505 703.955 705.608C704.421 706.711 704.509 707.937 704.205 709.096C703.902 710.254 703.224 711.279 702.277 712.012C701.33 712.745 700.168 713.144 698.97 713.148V713.22Z" fill="black"/>
<path d="M731.957 722.92C730.926 722.914 729.918 722.615 729.051 722.057C728.184 721.499 727.493 720.706 727.061 719.77C726.628 718.834 726.47 717.794 726.607 716.772C726.744 715.75 727.168 714.788 727.832 713.999C731.596 709.823 735.067 705.391 738.218 700.735C740.281 696.375 739.105 693.208 737.802 692.159C737.476 691.887 736.481 691.091 734.454 692.629C725.407 699.541 702.535 712.027 701.576 712.533C700.949 712.903 700.255 713.144 699.533 713.24C698.812 713.336 698.079 713.286 697.377 713.094C696.675 712.901 696.02 712.569 695.449 712.117C694.878 711.666 694.404 711.104 694.054 710.466C693.705 709.828 693.487 709.126 693.414 708.402C693.342 707.678 693.415 706.946 693.631 706.251C693.846 705.556 694.199 704.912 694.669 704.356C695.139 703.8 695.715 703.344 696.365 703.015C696.6 702.889 719.436 690.349 727.868 683.962C730.203 681.986 733.151 680.882 736.21 680.835C739.268 680.789 742.248 681.804 744.642 683.708C750.45 688.413 751.88 697.334 748.008 705.422C746.506 708.552 740.77 715.628 736.137 721.002C735.623 721.608 734.983 722.094 734.261 722.425C733.538 722.757 732.752 722.926 731.957 722.92Z" fill="black"/>
<path d="M965.979 763.78C964.871 763.777 963.79 763.434 962.883 762.798C961.975 762.162 961.284 761.264 960.901 760.224C960.519 759.184 960.465 758.051 960.745 756.979C961.025 755.907 961.627 754.946 962.469 754.226C1020.72 704.881 1108.64 687.275 1112.35 686.497C1113.73 686.301 1115.14 686.646 1116.27 687.46C1117.41 688.274 1118.18 689.494 1118.44 690.867C1118.7 692.239 1118.42 693.658 1117.66 694.829C1116.9 696.001 1115.72 696.833 1114.36 697.155C1113.47 697.317 1025.44 715.032 969.399 762.495C968.442 763.306 967.233 763.76 965.979 763.78Z" fill="black"/>
<path d="M488.69 460.253C487.538 460.252 486.416 459.884 485.487 459.204C484.329 458.351 483.557 457.074 483.34 455.652C483.123 454.231 483.478 452.781 484.329 451.622C525.947 394.985 609.944 392.958 613.49 392.886C614.93 392.859 616.321 393.406 617.358 394.405C618.395 395.405 618.992 396.775 619.018 398.215C619.045 399.654 618.498 401.046 617.499 402.082C616.499 403.119 615.129 403.716 613.689 403.743C612.857 403.743 531.43 405.787 493.087 458.027C492.581 458.719 491.919 459.281 491.155 459.668C490.391 460.055 489.546 460.255 488.69 460.253Z" fill="black"/>
<path d="M472.35 412.738C471.265 412.766 470.196 412.468 469.281 411.883C468.367 411.298 467.649 410.452 467.22 409.454C466.792 408.457 466.672 407.354 466.877 406.288C467.082 405.221 467.601 404.241 468.369 403.473C500.741 369.744 547.987 350.075 604.823 346.637C630.53 344.996 656.342 346.681 681.618 351.649C682.331 351.787 683.01 352.067 683.614 352.472C684.218 352.878 684.734 353.4 685.132 354.009C685.53 354.617 685.802 355.3 685.931 356.015C686.06 356.731 686.044 357.465 685.884 358.174C685.724 358.884 685.423 359.554 684.999 360.144C684.575 360.735 684.037 361.235 683.416 361.613C682.795 361.992 682.105 362.242 681.386 362.349C680.666 362.456 679.933 362.417 679.229 362.235C677.944 361.945 549.941 334.115 476.204 411.001C475.71 411.533 475.115 411.961 474.453 412.26C473.791 412.558 473.076 412.721 472.35 412.738Z" fill="black"/>
<path d="M957.13 982.706C956.609 982.705 956.092 982.631 955.592 982.489L866.04 956.052C865.333 955.871 864.671 955.549 864.091 955.106C863.512 954.662 863.027 954.107 862.667 953.473C862.307 952.838 862.079 952.138 861.996 951.413C861.913 950.688 861.976 949.954 862.183 949.255C862.39 948.555 862.736 947.904 863.2 947.341C863.664 946.779 864.236 946.315 864.883 945.978C865.53 945.641 866.239 945.439 866.966 945.382C867.693 945.325 868.424 945.415 869.116 945.647L958.74 972.066C959.996 972.432 961.078 973.24 961.785 974.34C962.493 975.44 962.78 976.759 962.593 978.054C962.406 979.349 961.757 980.532 960.767 981.387C959.776 982.242 958.51 982.71 957.202 982.706H957.13Z" fill="black"/>
<path d="M1032.93 1034.17C1032.45 1034.17 1031.97 1034.1 1031.5 1033.97L914.771 1002.23C914.083 1002.05 913.438 1001.72 912.875 1001.29C912.311 1000.85 911.839 1000.31 911.485 999.688C911.131 999.069 910.903 998.386 910.813 997.678C910.723 996.971 910.774 996.253 910.962 995.565C911.149 994.877 911.471 994.233 911.907 993.669C912.344 993.105 912.887 992.633 913.507 992.28C914.126 991.926 914.809 991.698 915.516 991.608C916.223 991.518 916.942 991.568 917.63 991.756L1034.29 1023.49C1035.56 1023.83 1036.67 1024.62 1037.41 1025.72C1038.14 1026.82 1038.45 1028.14 1038.28 1029.45C1038.11 1030.76 1037.46 1031.96 1036.47 1032.83C1035.47 1033.7 1034.2 1034.18 1032.87 1034.17H1032.93Z" fill="black"/>
</svg>
