<svg width="2000" height="2000" viewBox="0 0 2000 2000" fill="none" xmlns="http://www.w3.org/2000/svg">
<path d="M201.572 580.811L331.965 447.275C331.965 447.275 396.645 479.172 446.707 542.502C496.769 605.833 505.14 640.279 505.14 640.279L366.393 743.545C366.393 743.545 336.142 635.068 201.572 580.811Z" fill="white"/>
<path d="M366.393 749.072C365.765 749.082 365.139 748.982 364.545 748.776C363.7 748.491 362.936 748.006 362.319 747.362C361.701 746.719 361.248 745.936 360.997 745.08C360.997 744.821 353.254 718.173 329.581 685.39C307.775 655.194 267.489 613.448 199.428 586.005C198.589 585.659 197.849 585.113 197.271 584.414C196.693 583.715 196.296 582.885 196.113 581.996C195.931 581.108 195.969 580.189 196.225 579.318C196.481 578.448 196.946 577.654 197.58 577.006L328.029 443.396C328.846 442.555 329.909 441.995 331.064 441.795C332.22 441.596 333.409 441.769 334.46 442.288C337.14 443.618 400.821 475.459 451.105 539.048C501.389 602.637 510.24 637.49 510.555 638.95C510.81 640.006 510.751 641.113 510.383 642.135C510.015 643.156 509.355 644.047 508.485 644.697L369.738 747.981C368.771 748.698 367.597 749.081 366.393 749.072ZM211.162 578.835C277.32 607.35 317.015 648.911 338.858 679.273C351.307 696.298 361.483 714.872 369.128 734.528L498.598 638.156C495.124 628.121 481.966 596.188 442.29 545.923C400.174 492.645 347.026 461.71 332.963 454.096L211.162 578.835Z" fill="black"/>
<path d="M362.105 500.589C361.02 500.586 359.96 500.264 359.056 499.665L331.983 481.776C331.332 481.396 330.765 480.888 330.317 480.281C329.869 479.675 329.55 478.984 329.378 478.249C329.206 477.515 329.186 476.754 329.319 476.012C329.451 475.27 329.734 474.563 330.149 473.933C330.565 473.304 331.104 472.766 331.734 472.353C332.364 471.939 333.072 471.658 333.815 471.527C334.557 471.397 335.318 471.419 336.052 471.592C336.786 471.766 337.476 472.087 338.081 472.536L365.154 490.406C366.154 491.061 366.916 492.021 367.325 493.143C367.735 494.266 367.772 495.49 367.429 496.635C367.086 497.78 366.383 498.783 365.423 499.495C364.464 500.208 363.3 500.591 362.105 500.589Z" fill="black"/>
<path d="M335.034 511.825C333.88 511.823 332.756 511.461 331.818 510.79L315.981 499.554C315.387 499.127 314.884 498.587 314.499 497.966C314.115 497.344 313.856 496.653 313.738 495.931C313.621 495.209 313.647 494.472 313.814 493.76C313.982 493.049 314.288 492.377 314.715 491.784C315.142 491.19 315.682 490.687 316.304 490.302C316.925 489.917 317.617 489.659 318.338 489.541C319.06 489.424 319.797 489.449 320.509 489.617C321.221 489.784 321.892 490.09 322.486 490.518L338.323 501.753C339.285 502.433 340.006 503.402 340.38 504.52C340.755 505.637 340.763 506.845 340.405 507.967C340.046 509.09 339.34 510.069 338.387 510.763C337.435 511.456 336.286 511.828 335.107 511.825H335.034Z" fill="black"/>
<path d="M276.709 605.685C275.634 605.69 274.581 605.382 273.679 604.798L240.415 583.14C239.733 582.696 239.157 582.108 238.728 581.418C238.299 580.727 238.027 579.95 237.932 579.142C237.837 578.334 237.921 577.516 238.177 576.744C238.434 575.972 238.857 575.266 239.417 574.676L258.969 554.09C259.903 553.087 261.175 552.467 262.54 552.347C263.905 552.228 265.266 552.618 266.361 553.443L297.555 576.265C298.181 576.723 298.704 577.307 299.091 577.98C299.478 578.652 299.719 579.398 299.799 580.17C299.879 580.941 299.796 581.721 299.556 582.459C299.316 583.197 298.924 583.876 298.405 584.452L280.904 603.856C280.375 604.442 279.728 604.908 279.004 605.224C278.281 605.539 277.498 605.697 276.709 605.685ZM252.057 577.485L275.767 592.916L285.986 581.588L263.662 565.27L252.057 577.485Z" fill="black"/>
<path d="M331.336 653.122C330.604 653.122 329.879 652.976 329.203 652.694C328.528 652.411 327.915 651.998 327.4 651.477L293.064 616.754C292.026 615.714 291.443 614.305 291.443 612.836C291.443 611.367 292.026 609.958 293.064 608.918L361.015 541.522C362.053 540.49 363.458 539.91 364.923 539.91C366.388 539.91 367.793 540.49 368.832 541.522L402.391 575.1C403.418 576.138 403.994 577.539 403.994 578.999C403.994 580.46 403.418 581.861 402.391 582.899L335.254 651.441C334.738 651.967 334.123 652.385 333.444 652.67C332.765 652.956 332.036 653.103 331.299 653.104L331.336 653.122ZM304.836 612.892L331.318 639.669L390.675 579.073L364.803 553.294L304.836 612.892Z" fill="black"/>
<path d="M373.859 709.447C373.57 709.474 373.28 709.474 372.991 709.447C372.22 709.324 371.485 709.04 370.832 708.613C370.179 708.187 369.624 707.627 369.202 706.971L343.903 667.572C343.191 666.461 342.898 665.132 343.077 663.825C343.257 662.517 343.897 661.317 344.883 660.439L431.516 583.248C432.093 582.736 432.771 582.349 433.506 582.114C434.241 581.878 435.018 581.799 435.785 581.881C436.55 581.961 437.291 582.199 437.959 582.581C438.627 582.963 439.208 583.48 439.666 584.098L470.065 625.382C470.907 626.528 471.276 627.953 471.098 629.363C470.919 630.773 470.205 632.06 469.104 632.959L377.37 708.191C376.38 709.002 375.14 709.446 373.859 709.447ZM355.749 665.502L375.116 695.661L457.979 627.711L434.307 595.574L355.749 665.502Z" fill="black"/>
<path d="M1103.28 343.068L1256.97 229.99C1256.97 229.99 1380.79 320.985 1389.47 470.339L1226.06 538.715C1226.06 538.715 1188.97 406.621 1103.28 343.068Z" fill="white"/>
<path d="M1226.15 544.201C1224.94 544.198 1223.77 543.801 1222.81 543.07C1221.85 542.34 1221.15 541.316 1220.83 540.154C1220.46 538.86 1183.2 409.224 1100.06 347.52C1099.36 347.005 1098.79 346.332 1098.4 345.557C1098.01 344.782 1097.81 343.926 1097.81 343.057C1097.81 342.189 1098.01 341.332 1098.4 340.557C1098.79 339.782 1099.36 339.109 1100.06 338.594L1253.7 225.516C1254.65 224.818 1255.8 224.441 1256.98 224.441C1258.16 224.441 1259.31 224.818 1260.26 225.516C1261.56 226.458 1292.2 249.189 1324.35 290.75C1354.05 329.151 1390.42 391.428 1395.02 470.004C1395.08 471.151 1394.79 472.289 1394.18 473.262C1393.57 474.235 1392.68 474.996 1391.62 475.438L1228.2 543.813C1227.55 544.068 1226.85 544.199 1226.15 544.201ZM1112.5 343.159C1185.31 401.204 1221.38 504.913 1229.61 531.173L1383.69 466.752C1374.27 337.227 1275.95 252.256 1256.88 236.955L1112.5 343.159Z" fill="black"/>
<path d="M1182.89 370.733C1182.52 370.733 1182.16 370.696 1181.8 370.622L1159.75 366.187C1158.31 365.895 1157.04 365.042 1156.23 363.815C1155.41 362.588 1155.12 361.088 1155.41 359.645C1155.7 358.201 1156.55 356.933 1157.78 356.119C1159.01 355.304 1160.51 355.01 1161.95 355.302L1177.35 358.425V331.962C1177.35 330.492 1177.93 329.081 1178.97 328.042C1180.01 327.002 1181.42 326.418 1182.89 326.418C1184.36 326.418 1185.77 327.002 1186.81 328.042C1187.85 329.081 1188.43 330.492 1188.43 331.962V365.226C1188.43 366.046 1188.25 366.856 1187.9 367.598C1187.55 368.339 1187.04 368.993 1186.4 369.513C1185.41 370.311 1184.17 370.742 1182.89 370.733Z" fill="black"/>
<path d="M1215.91 424.081C1215.37 424.084 1214.83 424.003 1214.3 423.841L1192.89 417.281C1191.47 416.864 1190.28 415.903 1189.58 414.608C1188.87 413.314 1188.71 411.792 1189.13 410.378C1189.54 408.964 1190.5 407.774 1191.8 407.069C1193.09 406.363 1194.61 406.201 1196.03 406.618L1211.05 411.201L1213.64 384.885C1213.78 383.415 1214.5 382.061 1215.64 381.122C1216.78 380.183 1218.25 379.735 1219.72 379.877C1221.19 380.02 1222.54 380.74 1223.48 381.88C1224.42 383.02 1224.87 384.487 1224.73 385.957L1221.49 419.018C1221.36 420.393 1220.72 421.669 1219.69 422.596C1218.67 423.522 1217.33 424.032 1215.95 424.026L1215.91 424.081Z" fill="black"/>
<path d="M1245.52 481.516C1244.97 481.51 1244.43 481.429 1243.91 481.276L1222.45 474.697C1221.76 474.485 1221.11 474.138 1220.55 473.675C1219.99 473.212 1219.52 472.643 1219.18 472.001C1218.84 471.358 1218.62 470.654 1218.55 469.929C1218.48 469.205 1218.56 468.473 1218.77 467.777C1218.98 467.08 1219.33 466.432 1219.79 465.87C1220.25 465.308 1220.82 464.842 1221.46 464.5C1222.11 464.158 1222.81 463.945 1223.54 463.875C1224.26 463.804 1224.99 463.878 1225.69 464.09L1240.71 468.691L1243.3 442.358C1243.44 440.887 1244.17 439.535 1245.31 438.597C1246.45 437.66 1247.92 437.214 1249.39 437.359C1250.86 437.503 1252.21 438.226 1253.15 439.368C1254.09 440.51 1254.53 441.978 1254.39 443.448L1251.15 476.508C1251.07 477.324 1250.81 478.112 1250.39 478.815C1249.97 479.518 1249.4 480.119 1248.71 480.574C1247.77 481.209 1246.65 481.538 1245.52 481.516Z" fill="black"/>
<path d="M1215.89 335.636C1214.71 335.646 1213.56 335.276 1212.6 334.581C1211.64 333.887 1210.93 332.904 1210.57 331.776C1210.21 330.649 1210.22 329.436 1210.6 328.315C1210.98 327.194 1211.71 326.224 1212.68 325.546L1258.23 293.428C1259.43 292.62 1260.9 292.314 1262.33 292.576C1263.75 292.838 1265.02 293.647 1265.85 294.831C1266.69 296.014 1267.03 297.477 1266.8 298.908C1266.57 300.338 1265.79 301.621 1264.63 302.484L1219.07 334.546C1218.15 335.23 1217.04 335.611 1215.89 335.636Z" fill="black"/>
<path d="M1250.17 391.022C1248.98 391.025 1247.82 390.641 1246.86 389.929C1245.9 389.217 1245.19 388.213 1244.85 387.069C1244.51 385.924 1244.54 384.699 1244.95 383.577C1245.36 382.454 1246.12 381.494 1247.12 380.84L1293.32 350.403C1293.93 349.954 1294.62 349.633 1295.35 349.459C1296.09 349.286 1296.85 349.264 1297.59 349.395C1298.33 349.525 1299.04 349.806 1299.67 350.22C1300.3 350.634 1300.84 351.171 1301.26 351.801C1301.67 352.43 1301.95 353.137 1302.09 353.879C1302.22 354.621 1302.2 355.383 1302.03 356.117C1301.86 356.851 1301.54 357.542 1301.09 358.148C1300.64 358.755 1300.07 359.263 1299.42 359.643L1253.22 390.08C1252.32 390.686 1251.26 391.014 1250.17 391.022Z" fill="black"/>
<path d="M1281.59 450.973C1280.37 450.981 1279.19 450.587 1278.21 449.853C1277.24 449.12 1276.54 448.086 1276.21 446.913C1275.89 445.739 1275.96 444.491 1276.41 443.361C1276.86 442.231 1277.68 441.282 1278.73 440.661L1327.79 411.204C1329.05 410.449 1330.56 410.227 1331.99 410.585C1333.41 410.944 1334.64 411.855 1335.39 413.117C1336.15 414.379 1336.37 415.889 1336.01 417.315C1335.65 418.741 1334.74 419.966 1333.48 420.721L1284.38 450.086C1283.55 450.626 1282.58 450.932 1281.59 450.973Z" fill="black"/>
<path d="M984.785 288.885L835.099 341.479C835.099 341.479 783.891 218.569 905.211 128.757L1067.83 118.52C1067.83 118.52 975.342 195.322 984.785 288.885Z" fill="white"/>
<path d="M835.097 347.022C834.001 347.021 832.93 346.697 832.019 346.088C831.108 345.48 830.398 344.615 829.978 343.603C829.442 342.309 816.709 311.226 819.13 268.482C821.348 229.028 837.517 171.981 901.92 124.339C902.779 123.698 903.806 123.319 904.877 123.249L1067.5 113.011C1068.67 112.937 1069.83 113.233 1070.82 113.859C1071.81 114.484 1072.57 115.406 1073 116.493C1073.44 117.58 1073.51 118.776 1073.23 119.91C1072.94 121.044 1072.3 122.057 1071.4 122.806C1070.49 123.563 981.272 198.887 990.309 288.367C990.432 289.606 990.134 290.85 989.464 291.9C988.793 292.949 987.789 293.742 986.613 294.151L836.926 346.745C836.338 346.945 835.718 347.039 835.097 347.022ZM907.168 134.189C859.231 170.133 833.249 215.371 830.181 268.63C828.902 290.878 831.695 313.173 838.423 334.418L978.87 285.077C973.714 211.158 1027.84 149.213 1052.53 125.023L907.168 134.189Z" fill="black"/>
<path d="M338.102 1847.05L473.67 1798.52L660.169 1809.31L543.782 1864.59L338.102 1847.05Z" fill="white"/>
<path d="M543.78 1870.23H543.3L337.619 1852.69C336.362 1852.58 335.181 1852.04 334.271 1851.16C333.361 1850.29 332.778 1849.13 332.616 1847.88C332.454 1846.62 332.725 1845.35 333.382 1844.28C334.04 1843.2 335.046 1842.38 336.233 1841.95L471.801 1793.42C472.499 1793.17 473.24 1793.05 473.982 1793.09L660.481 1803.7C661.714 1803.76 662.89 1804.24 663.823 1805.05C664.756 1805.86 665.391 1806.96 665.629 1808.17C665.867 1809.38 665.693 1810.64 665.135 1811.74C664.577 1812.84 663.668 1813.72 662.55 1814.25L546.127 1869.52C545.407 1869.93 544.605 1870.17 543.78 1870.23ZM363.934 1843.78L542.745 1859.03L638.212 1813.68L474.481 1804.22L363.934 1843.78Z" fill="black"/>
<path d="M212.881 1863.24L348.449 1814.69L534.948 1825.48L418.562 1880.76L212.881 1863.24Z" fill="white"/>
<path d="M418.58 1886.3H418.118L212.438 1868.78C211.171 1868.68 209.977 1868.15 209.056 1867.27C208.136 1866.4 207.543 1865.23 207.379 1863.97C207.214 1862.71 207.487 1861.43 208.153 1860.35C208.818 1859.27 209.835 1858.45 211.033 1858.02L346.509 1809.48C347.213 1809.23 347.961 1809.12 348.708 1809.16L535.207 1819.96C536.432 1820.03 537.597 1820.51 538.52 1821.32C539.443 1822.13 540.071 1823.23 540.305 1824.43C540.54 1825.63 540.368 1826.88 539.817 1827.98C539.265 1829.08 538.365 1829.96 537.258 1830.49L420.835 1885.76C420.128 1886.09 419.361 1886.28 418.58 1886.3ZM238.734 1859.87L417.546 1875.1L513.012 1829.77L349.262 1820.33L238.734 1859.87Z" fill="black"/>
<path d="M1393.85 1837.41L1553.74 1788.16L1773.69 1800.89L1636.42 1858.07L1393.85 1837.41Z" fill="white"/>
<path d="M1636.4 1863.61H1635.92L1393.37 1842.91C1392.1 1842.79 1390.9 1842.24 1389.99 1841.34C1389.07 1840.44 1388.5 1839.26 1388.36 1837.98C1388.22 1836.71 1388.53 1835.42 1389.23 1834.35C1389.94 1833.28 1390.99 1832.48 1392.21 1832.1L1552.1 1782.85C1552.73 1782.67 1553.4 1782.59 1554.06 1782.63L1773.97 1795.34C1775.22 1795.41 1776.41 1795.9 1777.35 1796.74C1778.28 1797.57 1778.91 1798.69 1779.12 1799.93C1779.34 1801.16 1779.13 1802.44 1778.53 1803.54C1777.93 1804.64 1776.97 1805.5 1775.82 1805.99L1638.55 1863.27C1637.86 1863.53 1637.13 1863.64 1636.4 1863.61ZM1422.76 1834.3L1635.53 1852.43L1749.32 1805.03L1554.41 1793.75L1422.76 1834.3Z" fill="black"/>
<path d="M923.19 270.902C915.277 270.935 907.452 269.236 900.265 265.925C893.078 262.613 886.702 257.769 881.586 251.732C876.469 245.695 872.736 238.611 870.647 230.978C868.559 223.345 868.166 215.348 869.496 207.547C870.827 199.746 873.848 192.33 878.348 185.821C882.848 179.312 888.718 173.866 895.546 169.866C902.374 165.865 909.995 163.408 917.873 162.665C925.752 161.923 933.698 162.913 941.153 165.567C942.539 166.053 943.676 167.069 944.314 168.393C944.951 169.717 945.037 171.239 944.553 172.626L934.87 200.198L957.637 181.885C958.779 180.961 960.242 180.529 961.702 180.683C963.154 180.848 964.482 181.578 965.398 182.716C971.811 190.685 975.839 200.305 977.019 210.466C978.198 220.627 976.48 230.914 972.063 240.14C967.646 249.366 960.71 257.155 952.056 262.608C943.402 268.061 933.382 270.955 923.153 270.958L923.19 270.902ZM923.19 173.532C913.65 173.552 904.385 176.734 896.846 182.581C889.307 188.428 883.919 196.61 881.527 205.846C879.134 215.082 879.871 224.85 883.622 233.623C887.373 242.395 893.927 249.676 902.258 254.326C910.589 258.976 920.226 260.733 929.662 259.321C939.097 257.909 947.799 253.409 954.404 246.524C961.009 239.64 965.145 230.759 966.165 221.273C967.185 211.787 965.03 202.231 960.039 194.1L926.775 220.933C925.836 221.687 924.678 222.114 923.474 222.151C922.27 222.188 921.087 221.832 920.104 221.137C919.12 220.441 918.39 219.445 918.024 218.298C917.657 217.151 917.674 215.915 918.071 214.779L932.245 174.4C929.265 173.799 926.231 173.508 923.19 173.532Z" fill="black"/>
<path d="M523.917 565.936C523.917 565.936 554.704 512.03 610.384 521.824C666.064 531.618 722.095 613.558 790.027 521.824L775.243 391.578C667.394 454.594 653.387 359.349 594.565 360.754C535.744 362.158 500.725 437.094 500.725 437.094L523.917 565.936Z" fill="white"/>
<path d="M523.915 571.476C523.595 571.503 523.273 571.503 522.954 571.476C521.832 571.281 520.797 570.746 519.991 569.942C519.184 569.139 518.644 568.106 518.445 566.986L495.271 438.033C495.066 436.907 495.214 435.745 495.696 434.707C497.193 431.51 532.877 356.648 594.434 355.243C617.737 354.689 634.591 367.994 650.89 380.856C678.443 402.607 706.939 425.097 772.45 386.825C773.246 386.362 774.145 386.104 775.066 386.075C775.987 386.046 776.9 386.247 777.724 386.66C778.547 387.073 779.255 387.684 779.783 388.439C780.311 389.194 780.643 390.068 780.748 390.983L795.532 521.229C795.693 522.628 795.316 524.035 794.478 525.166C769.235 559.242 745.211 570.497 722.407 570.497C698.79 570.497 676.54 558.392 655.695 547.027C639.58 538.249 624.371 529.952 609.365 527.328C558.287 518.328 529.902 566.671 528.664 568.741C528.177 569.569 527.483 570.257 526.651 570.737C525.818 571.216 524.875 571.471 523.915 571.476ZM597.095 515.094C601.872 515.104 606.64 515.53 611.343 516.369C628.123 519.326 644.865 528.437 661.054 537.251C701.21 559.132 739.168 579.755 784.259 520.25L770.75 400.5C746.264 413.714 726.509 418.759 709.914 418.759C681.123 418.759 661.867 403.568 644.089 389.523C628.658 377.345 614.078 365.851 594.766 366.294C544.612 367.495 511.884 427.481 506.581 437.904L527.056 552.072C538.551 537.824 562.501 515.094 597.021 515.094H597.095Z" fill="black"/>
<path d="M1680.53 824.358C1680.53 824.358 1702.34 774.666 1667.15 744.895C1631.97 715.124 1546.41 725.491 1575.59 631.115L1673.66 567.525C1684.75 671.105 1758.19 626.661 1787.2 664.692C1816.21 702.724 1781.93 766.849 1781.93 766.849L1680.53 824.358Z" fill="white"/>
<path d="M1680.53 829.902C1679.17 829.894 1677.85 829.381 1676.84 828.461C1675.98 827.679 1675.38 826.647 1675.14 825.509C1674.9 824.372 1675.02 823.187 1675.49 822.122C1676.32 820.274 1695.13 775.812 1663.59 749.127C1654.35 741.254 1640.86 736.283 1626.63 731.035C1591.52 718.099 1547.88 701.948 1570.28 629.488C1570.66 628.249 1571.47 627.183 1572.55 626.476L1670.65 562.868C1671.44 562.351 1672.36 562.046 1673.3 561.983C1674.25 561.92 1675.2 562.101 1676.05 562.509C1676.91 562.917 1677.65 563.538 1678.2 564.313C1678.74 565.088 1679.08 565.99 1679.18 566.934C1685.84 628.86 1714.3 633.979 1744.23 639.412C1761.71 642.572 1779.79 645.843 1791.6 661.329C1822.42 701.744 1788.29 766.664 1786.83 769.473C1786.33 770.396 1785.58 771.158 1784.67 771.672L1683.27 829.181C1682.43 829.654 1681.49 829.902 1680.53 829.902ZM1580.3 634.662C1562.24 695.424 1593.88 707.122 1630.47 720.631C1644.96 725.99 1659.93 731.534 1670.72 740.663C1696.59 762.617 1694.19 794.513 1689.96 812.642L1777.76 762.857C1782.34 753.617 1807.05 699.859 1782.78 668.056C1773.54 655.988 1759.07 653.272 1742.27 650.315C1713.91 645.196 1678.91 638.876 1669.32 576.95L1580.3 634.662Z" fill="black"/>
<path d="M643.035 1614.63H677.315V1337.58H643.035V1614.63Z" fill="white"/>
<path d="M677.299 1620.17H643.019C641.548 1620.17 640.138 1619.59 639.098 1618.55C638.059 1617.51 637.475 1616.1 637.475 1614.63V1337.58C637.475 1336.11 638.059 1334.7 639.098 1333.66C640.138 1332.62 641.548 1332.04 643.019 1332.04H677.299C678.769 1332.04 680.179 1332.62 681.219 1333.66C682.259 1334.7 682.843 1336.11 682.843 1337.58V1614.63C682.843 1616.1 682.259 1617.51 681.219 1618.55C680.179 1619.59 678.769 1620.17 677.299 1620.17ZM648.544 1609.09H671.755V1343.12H648.563L648.544 1609.09Z" fill="black"/>
<path d="M757.539 1717.56C756.069 1717.56 754.659 1716.98 753.619 1715.94C752.579 1714.9 751.995 1713.49 751.995 1712.02C751.995 1687.66 742.321 1664.31 725.1 1647.09C707.879 1629.87 684.523 1620.19 660.169 1620.19C635.815 1620.19 612.458 1629.87 595.238 1647.09C578.017 1664.31 568.342 1687.66 568.342 1712.02C568.342 1713.49 567.758 1714.9 566.719 1715.94C565.679 1716.98 564.269 1717.56 562.798 1717.56C561.328 1717.56 559.918 1716.98 558.878 1715.94C557.838 1714.9 557.254 1713.49 557.254 1712.02C557.254 1684.72 568.097 1658.55 587.397 1639.25C606.698 1619.95 632.874 1609.1 660.169 1609.1C687.463 1609.1 713.64 1619.95 732.94 1639.25C752.24 1658.55 763.083 1684.72 763.083 1712.02C763.083 1713.49 762.499 1714.9 761.459 1715.94C760.42 1716.98 759.009 1717.56 757.539 1717.56Z" fill="black"/>
<path d="M660.168 1717.56C658.698 1717.56 657.288 1716.98 656.248 1715.94C655.209 1714.9 654.625 1713.49 654.625 1712.02V1614.63C654.625 1613.16 655.209 1611.75 656.248 1610.71C657.288 1609.67 658.698 1609.09 660.168 1609.09C661.639 1609.09 663.049 1609.67 664.089 1610.71C665.128 1611.75 665.712 1613.16 665.712 1614.63V1712.02C665.712 1713.49 665.128 1714.9 664.089 1715.94C663.049 1716.98 661.639 1717.56 660.168 1717.56Z" fill="black"/>
<path d="M757.539 1777.83C750.718 1777.83 744.051 1775.8 738.381 1772.01C732.71 1768.23 728.29 1762.84 725.68 1756.54C723.07 1750.24 722.387 1743.3 723.718 1736.62C725.048 1729.93 728.333 1723.78 733.155 1718.96C737.978 1714.14 744.122 1710.85 750.811 1709.52C757.5 1708.19 764.434 1708.87 770.735 1711.48C777.036 1714.09 782.421 1718.51 786.21 1724.18C790 1729.86 792.022 1736.52 792.022 1743.34C792.012 1752.49 788.376 1761.25 781.911 1767.72C775.446 1774.18 766.681 1777.82 757.539 1777.83ZM757.539 1719.95C752.911 1719.95 748.388 1721.32 744.541 1723.89C740.693 1726.46 737.695 1730.11 735.924 1734.39C734.153 1738.66 733.69 1743.37 734.593 1747.91C735.495 1752.45 737.724 1756.61 740.995 1759.89C744.267 1763.16 748.436 1765.39 752.974 1766.29C757.513 1767.19 762.217 1766.73 766.492 1764.96C770.767 1763.19 774.421 1760.19 776.991 1756.34C779.562 1752.49 780.934 1747.97 780.934 1743.34C780.934 1737.13 778.47 1731.18 774.084 1726.79C769.698 1722.39 763.747 1719.92 757.539 1719.91V1719.95Z" fill="black"/>
<path d="M562.722 1777.83C555.901 1777.83 549.232 1775.81 543.559 1772.02C537.886 1768.24 533.463 1762.85 530.85 1756.55C528.238 1750.25 527.552 1743.32 528.881 1736.63C530.209 1729.94 533.492 1723.79 538.314 1718.97C543.135 1714.14 549.28 1710.86 555.969 1709.52C562.659 1708.19 569.594 1708.87 575.896 1711.48C582.198 1714.09 587.584 1718.51 591.374 1724.18C595.164 1729.85 597.187 1736.52 597.187 1743.34C597.177 1752.48 593.544 1761.24 587.083 1767.71C580.622 1774.17 571.861 1777.81 562.722 1777.83ZM562.722 1719.95C558.094 1719.94 553.569 1721.31 549.719 1723.88C545.869 1726.45 542.868 1730.1 541.094 1734.38C539.321 1738.65 538.855 1743.36 539.755 1747.9C540.656 1752.44 542.883 1756.61 546.154 1759.88C549.425 1763.15 553.594 1765.38 558.133 1766.29C562.671 1767.19 567.376 1766.73 571.652 1764.96C575.928 1763.19 579.583 1760.19 582.155 1756.34C584.727 1752.49 586.099 1747.97 586.099 1743.34C586.104 1737.14 583.644 1731.18 579.261 1726.79C574.877 1722.39 568.929 1719.92 562.722 1719.91V1719.95Z" fill="black"/>
<path d="M660.168 1777.83C653.347 1777.83 646.68 1775.8 641.009 1772.01C635.338 1768.23 630.919 1762.84 628.309 1756.54C625.699 1750.24 625.015 1743.3 626.346 1736.62C627.676 1729.93 630.96 1723.78 635.783 1718.96C640.606 1714.14 646.75 1710.85 653.439 1709.52C660.128 1708.19 667.063 1708.87 673.364 1711.48C679.665 1714.09 685.049 1718.51 688.838 1724.18C692.627 1729.86 694.65 1736.52 694.65 1743.34C694.64 1752.49 691.004 1761.25 684.539 1767.72C678.074 1774.18 669.31 1777.82 660.168 1777.83ZM660.168 1719.95C655.54 1719.95 651.016 1721.32 647.169 1723.89C643.321 1726.46 640.323 1730.11 638.552 1734.39C636.781 1738.66 636.318 1743.37 637.221 1747.91C638.123 1752.45 640.352 1756.61 643.624 1759.89C646.896 1763.16 651.065 1765.39 655.603 1766.29C660.142 1767.19 664.845 1766.73 669.12 1764.96C673.395 1763.19 677.048 1760.19 679.619 1756.34C682.19 1752.49 683.562 1747.97 683.562 1743.34C683.562 1737.13 681.099 1731.18 676.713 1726.79C672.326 1722.39 666.376 1719.92 660.168 1719.91V1719.95Z" fill="black"/>
<path d="M556.718 1092.1C535.744 1016.05 520.682 914.467 444.767 935.59C269.209 984.487 464.042 1345.97 555.997 1413.48C642.428 1476.92 759.904 1451.55 780.953 1446.15C802.001 1440.76 828.169 1387.14 828.169 1387.14L556.718 1092.1Z" fill="white"/>
<path d="M700.085 1461.25C697.701 1461.25 695.298 1461.25 692.877 1461.25C637.345 1460.06 590.185 1445.5 552.726 1418C515.637 1390.71 464.78 1321.37 425.973 1245.31C399.085 1192.55 355.934 1092.63 369.036 1015.92C376.576 971.77 401.524 942.96 443.214 930.283C459.846 925.219 475.185 926.439 488.675 933.979C525.339 954.306 542.377 1017.53 557.401 1073.3C558.861 1078.75 560.321 1084.15 561.763 1089.41L832.308 1383.46C833.065 1384.28 833.556 1385.32 833.717 1386.42C833.879 1387.52 833.703 1388.65 833.213 1389.66C830.404 1395.37 805.272 1445.74 782.394 1451.6C755.439 1458.08 727.807 1461.32 700.085 1461.25ZM462.692 938.266C457.154 938.328 451.656 939.206 446.374 940.872C409.045 952.237 386.685 978.09 379.847 1017.77C359.113 1139.29 489.063 1357.46 559.231 1408.98C645.754 1472.5 766.095 1444.21 779.529 1440.77C792.299 1437.5 811.222 1408.04 821.442 1388.07L552.634 1095.92C552.041 1095.27 551.61 1094.49 551.377 1093.64C549.806 1087.95 548.235 1082.11 546.646 1076.18C532.195 1022.59 515.803 961.735 483.242 943.681C476.974 940.136 469.893 938.277 462.692 938.284V938.266Z" fill="black"/>
<path d="M1291.42 644.75C1278.71 690.482 1258.25 733.697 1230.94 772.52C1223.4 856.178 1159.97 898.091 1089.53 917.476C1043.33 930.19 974.343 935.18 916.52 955.859C927.7 996.126 949.063 1041.66 989.829 1070.05C1093.93 1142.28 1157.04 1156.33 1159.97 1175.94C1162.82 1194.88 1008.83 1189.43 898.298 1107.8C863.778 1082.3 838.461 1058.63 819.962 1038.13C813.254 1055.26 809.909 1075.59 810.87 1099.61C814.566 1191.07 1067.85 1237.31 1100.36 1359C1143.64 1520.94 970.998 1684.02 970.998 1684.02C970.998 1684.02 1052.75 1738 1049.06 1750.05C1046.05 1759.84 977.133 1751.36 977.133 1751.36C977.133 1751.36 1000.1 1778.82 995.761 1784.33C984.858 1798.17 853.078 1754.6 849.974 1746.43C844.725 1732.66 918.127 1512.69 820.72 1451.6C677.852 1362.01 520.348 1429.42 480.506 1168.34C465.888 1072.5 494.846 982.156 528.553 900.068C508.659 884.679 490.347 867.345 473.89 848.324C414.57 780.319 415.346 713.865 415.346 713.865L439.61 695.94C439.61 695.94 436.561 662.417 452.379 660.588C468.198 658.758 430.739 716.027 531.325 791.795C543.988 801.309 557.712 809.321 572.221 815.671C636.901 713.348 733.55 633.33 838.775 590.752C858.109 582.896 877.849 576.08 897.91 570.332C915.429 541.891 939.804 491.94 941.338 432.491C944.553 306.624 886.915 310.302 898.187 299.029C909.46 287.756 935.886 312.094 935.886 312.094L961.869 302.854C961.869 302.854 1005.69 339.13 1029.82 430.014C1040.31 470.575 1045.52 512.322 1045.31 554.218C1116.95 560.981 1170.16 591.602 1199.08 634.143C1211.7 628.166 1223.26 620.17 1233.3 610.47C1280.22 563.642 1235.15 498.759 1248.23 495.248C1261.32 491.737 1274.66 524.225 1274.66 524.225L1296.37 515.262C1296.37 515.262 1312.32 567.523 1291.42 644.75Z" fill="#8800FF"/>
<path d="M1333.85 771.027L1162.73 829.571L1353.07 821.699C1353.07 821.699 1301.92 915.133 1383.4 937.66C1456.59 957.877 1462.4 876.861 1462.4 876.861C1462.4 876.861 1537.63 885.861 1544.39 826.189C1551.16 766.518 1489.23 771.027 1489.23 771.027C1489.23 771.027 1533.14 744.009 1511.74 703.483C1490.34 662.957 1453.19 684.338 1453.19 684.338C1453.19 684.338 1471.21 620.157 1402.54 615.667C1333.87 611.176 1348.49 673.084 1348.49 673.084C1348.49 673.084 1312.45 665.193 1293.32 704.61C1274.2 744.028 1333.85 771.027 1333.85 771.027Z" fill="white"/>
<path d="M1405.4 946.454C1397.46 946.358 1389.57 945.196 1381.94 942.999C1359.35 936.752 1344.14 924.722 1336.73 907.203C1324.63 878.615 1336.96 843.577 1344 827.61L1142.57 835.963C1141.21 836.025 1139.89 835.591 1138.83 834.742C1137.78 833.894 1137.07 832.689 1136.85 831.356C1136.62 830.023 1136.89 828.653 1137.6 827.503C1138.31 826.354 1139.42 825.505 1140.72 825.116L1319.75 769.676C1308.48 762.672 1292.4 750.235 1286.49 733.622C1284.6 728.543 1283.79 723.128 1284.11 717.72C1284.43 712.312 1285.87 707.029 1288.33 702.206C1303.56 670.79 1329.19 666.836 1341.93 667.002C1341 657.189 1341.28 639.615 1352.5 626.346C1362.88 614.076 1379.83 608.624 1402.85 610.121C1425.23 611.599 1441.5 619.268 1451.16 632.925C1461.29 647.247 1461.55 664.6 1460.4 675.429C1469.17 672.635 1478.55 672.417 1487.44 674.8C1499.52 678.293 1509.35 687.071 1516.65 700.876C1531.31 728.595 1518.5 752.305 1504.11 766.276C1514.38 767.81 1527.8 771.82 1537.63 782.058C1547.92 792.776 1552.04 807.837 1549.9 826.797C1548.05 843.577 1540.9 856.938 1528.81 866.51C1508.32 882.736 1479.31 883.327 1467.26 882.754C1465.41 894.452 1459.07 921.691 1438.02 936.568C1428.46 943.206 1417.05 946.665 1405.4 946.454ZM1353.01 816.153C1353.98 816.153 1354.92 816.404 1355.76 816.881C1356.59 817.358 1357.29 818.044 1357.78 818.871C1358.27 819.699 1358.54 820.64 1358.55 821.602C1358.57 822.564 1358.34 823.514 1357.87 824.358C1357.63 824.801 1333.15 870.373 1346.95 902.916C1352.98 917.127 1365.75 927.032 1384.89 932.317C1404.04 937.603 1419.69 936.013 1431.65 927.513C1454.12 911.657 1456.87 876.804 1456.89 876.471C1456.94 875.723 1457.15 874.993 1457.49 874.326C1457.83 873.659 1458.31 873.069 1458.89 872.59C1459.46 872.11 1460.13 871.753 1460.86 871.54C1461.58 871.327 1462.33 871.263 1463.08 871.352C1463.43 871.352 1499.76 875.436 1521.99 857.806C1531.66 850.137 1537.35 839.327 1538.9 825.578C1540.66 810.055 1537.55 798.024 1529.66 789.801C1515.45 775.017 1489.88 776.532 1489.62 776.551C1488.38 776.63 1487.16 776.296 1486.14 775.601C1485.12 774.906 1484.36 773.89 1483.98 772.714C1483.6 771.538 1483.63 770.27 1484.05 769.11C1484.48 767.95 1485.28 766.966 1486.33 766.313C1487.92 765.315 1525.52 741.457 1506.84 706.068C1501.02 694.98 1493.44 688.106 1484.35 685.463C1469.86 681.287 1456.1 689.067 1455.97 689.159C1455.01 689.712 1453.91 689.967 1452.81 689.892C1451.71 689.817 1450.66 689.415 1449.79 688.739C1448.92 688.062 1448.27 687.141 1447.92 686.094C1447.58 685.046 1447.55 683.919 1447.85 682.858C1447.85 682.617 1454.78 657.134 1442.11 639.301C1434.46 628.527 1421.02 622.447 1402.17 621.209C1382.86 619.952 1369.04 624.073 1361.05 633.479C1348.58 648.152 1353.83 671.603 1353.88 671.825C1354.1 672.737 1354.08 673.689 1353.83 674.591C1353.57 675.494 1353.1 676.318 1352.44 676.986C1351.78 677.654 1350.97 678.145 1350.07 678.412C1349.17 678.68 1348.22 678.715 1347.3 678.515C1346.03 678.238 1315.2 672.232 1298.31 707.048C1296.48 710.522 1295.4 714.344 1295.15 718.264C1294.89 722.184 1295.47 726.114 1296.84 729.796C1304.69 751.547 1335.83 765.851 1336.14 765.999C1337.17 766.462 1338.03 767.227 1338.61 768.191C1339.19 769.155 1339.46 770.273 1339.39 771.396C1339.32 772.519 1338.91 773.595 1338.22 774.479C1337.52 775.363 1336.57 776.015 1335.5 776.347L1184.61 823.138L1352.77 816.171L1353.01 816.153Z" fill="black"/>
<path d="M1430.69 808.096C1429.37 808.111 1428.09 807.655 1427.07 806.811C1426.06 805.966 1425.38 804.788 1425.16 803.488C1424.94 802.188 1425.18 800.851 1425.86 799.718C1426.53 798.584 1427.59 797.728 1428.84 797.304C1438.24 794.088 1450.29 788.064 1454.15 777.271C1457.2 768.826 1454.89 758.219 1447.28 745.856C1434.97 725.657 1419.26 726.581 1410.95 728.928C1398.35 732.458 1388.92 742.788 1388.92 749.644C1388.92 751.114 1388.34 752.525 1387.3 753.564C1386.26 754.604 1384.85 755.188 1383.38 755.188C1381.91 755.188 1380.5 754.604 1379.46 753.564C1378.42 752.525 1377.83 751.114 1377.83 749.644C1377.83 737.004 1391.34 722.922 1407.94 718.228C1417.07 715.66 1440.07 712.684 1456.78 739.979C1466.24 755.428 1468.86 769.233 1464.63 781.004C1460.4 792.776 1449.26 802.034 1432.46 807.782C1431.89 807.982 1431.29 808.089 1430.69 808.096Z" fill="black"/>
<path d="M1462.4 882.403H1461.82C1460.37 882.249 1459.03 881.525 1458.11 880.389C1457.18 879.254 1456.74 877.799 1456.89 876.341C1457.39 871.37 1457.5 857.159 1452.1 851.098C1451.12 849.998 1450.62 848.553 1450.71 847.082C1450.79 845.611 1451.46 844.233 1452.56 843.253C1453.66 842.273 1455.1 841.77 1456.57 841.855C1458.04 841.94 1459.42 842.606 1460.4 843.706C1469.97 854.48 1468.14 875.122 1467.92 877.432C1467.78 878.797 1467.14 880.062 1466.12 880.98C1465.1 881.899 1463.77 882.406 1462.4 882.403Z" fill="black"/>
<path d="M1365.06 691.212C1364.14 691.213 1363.24 690.986 1362.43 690.55C1361.62 690.115 1360.93 689.485 1360.42 688.717C1354.16 679.144 1348.52 678.608 1348.28 678.59H1348.49V667.502C1349.65 667.502 1360.05 667.927 1369.7 682.618C1370.25 683.455 1370.57 684.425 1370.61 685.425C1370.65 686.426 1370.43 687.42 1369.95 688.301C1369.47 689.182 1368.77 689.918 1367.91 690.431C1367.05 690.943 1366.06 691.213 1365.06 691.212Z" fill="black"/>
<path d="M1346.77 1711.72H1375.91L1375.41 1225.2H1346.25L1346.77 1711.72Z" fill="white"/>
<path d="M1375.93 1717.27H1346.77C1345.3 1717.27 1343.89 1716.68 1342.85 1715.64C1341.81 1714.6 1341.22 1713.19 1341.22 1711.72L1340.73 1225.28C1340.72 1224.55 1340.87 1223.82 1341.15 1223.15C1341.42 1222.47 1341.83 1221.86 1342.35 1221.34C1343.39 1220.31 1344.8 1219.73 1346.27 1219.73H1375.43C1376.9 1219.73 1378.31 1220.32 1379.35 1221.36C1380.39 1222.4 1380.97 1223.81 1380.97 1225.28L1381.49 1711.78C1381.49 1713.25 1380.91 1714.66 1379.87 1715.7C1378.83 1716.74 1377.42 1717.32 1375.95 1717.32L1375.93 1717.27ZM1352.31 1706.18H1370.29L1369.87 1230.82H1351.81L1352.31 1706.18Z" fill="black"/>
<path d="M1236.96 1764.39H1486.51L1377.3 1711.72H1344.35L1236.96 1764.39Z" fill="white"/>
<path d="M1486.51 1769.93H1237.03C1235.78 1769.93 1234.57 1769.5 1233.59 1768.73C1232.62 1767.95 1231.93 1766.86 1231.65 1765.64C1231.37 1764.42 1231.5 1763.15 1232.04 1762.02C1232.57 1760.89 1233.47 1759.97 1234.6 1759.42L1341.98 1706.73C1342.74 1706.36 1343.58 1706.17 1344.42 1706.18H1377.37C1378.21 1706.18 1379.03 1706.36 1379.79 1706.71L1488.93 1759.34C1490.06 1759.89 1490.97 1760.81 1491.52 1761.94C1492.06 1763.07 1492.2 1764.35 1491.92 1765.58C1491.64 1766.8 1490.95 1767.89 1489.97 1768.67C1488.99 1769.45 1487.77 1769.88 1486.51 1769.88V1769.93ZM1260.85 1758.85H1462.29L1376.06 1717.27H1345.64L1260.85 1758.85Z" fill="black"/>
<path d="M1061.35 1252.28H1660.83V1216.63H1061.35V1252.28Z" fill="white"/>
<path d="M1660.83 1257.82H1061.35C1059.88 1257.82 1058.47 1257.24 1057.43 1256.2C1056.39 1255.16 1055.8 1253.75 1055.8 1252.28V1216.63C1055.8 1215.16 1056.39 1213.75 1057.43 1212.71C1058.47 1211.67 1059.88 1211.09 1061.35 1211.09H1660.83C1662.3 1211.09 1663.71 1211.67 1664.75 1212.71C1665.79 1213.75 1666.38 1215.16 1666.38 1216.63V1252.28C1666.38 1253.75 1665.79 1255.16 1664.75 1256.2C1663.71 1257.24 1662.3 1257.82 1660.83 1257.82ZM1066.89 1246.73H1655.29V1222.17H1066.89V1246.73Z" fill="black"/>
<path d="M1321.95 1257.82H1061.38C1059.91 1257.82 1058.5 1257.24 1057.46 1256.2C1056.42 1255.16 1055.84 1253.75 1055.84 1252.28V1216.63C1055.84 1215.16 1056.42 1213.75 1057.46 1212.71C1058.5 1211.67 1059.91 1211.09 1061.38 1211.09H1321.95C1323.42 1211.09 1324.83 1211.67 1325.87 1212.71C1326.91 1213.75 1327.49 1215.16 1327.49 1216.63V1252.28C1327.49 1253.75 1326.91 1255.16 1325.87 1256.2C1324.83 1257.24 1323.42 1257.82 1321.95 1257.82ZM1066.93 1246.73H1316.41V1222.17H1066.93V1246.73Z" fill="black"/>
<path d="M1090.7 1215.58L1546.24 1216.69L1546.31 1189.36L1090.76 1188.25L1090.7 1215.58Z" fill="white"/>
<path d="M1546.31 1222.17L1090.77 1221.03C1089.3 1221.03 1087.89 1220.45 1086.85 1219.41C1085.81 1218.37 1085.22 1216.96 1085.22 1215.49V1188.15C1085.22 1186.68 1085.81 1185.27 1086.85 1184.23C1087.89 1183.19 1089.3 1182.61 1090.77 1182.61L1546.31 1183.74C1547.78 1183.74 1549.19 1184.32 1550.23 1185.36C1551.27 1186.4 1551.86 1187.81 1551.86 1189.28V1216.61C1551.86 1218.08 1551.27 1219.49 1550.23 1220.53C1549.19 1221.57 1547.78 1222.16 1546.31 1222.16V1222.17ZM1096.33 1209.96L1540.77 1211.07V1194.81L1096.31 1193.7L1096.33 1209.96Z" fill="black"/>
<path d="M1272.83 1188.59L1546.35 1189.28L1634.2 965.338L1360.68 964.654L1272.83 1188.59Z" fill="white"/>
<path d="M1546.35 1194.82L1272.85 1194.14C1271.95 1194.14 1271.06 1193.92 1270.26 1193.5C1269.47 1193.07 1268.79 1192.46 1268.28 1191.72C1267.77 1190.98 1267.45 1190.12 1267.35 1189.22C1267.25 1188.33 1267.37 1187.42 1267.69 1186.58L1355.51 962.642C1355.92 961.611 1356.64 960.729 1357.56 960.109C1358.48 959.49 1359.57 959.162 1360.68 959.168L1634.19 959.852C1635.09 959.855 1635.97 960.078 1636.77 960.502C1637.57 960.926 1638.25 961.538 1638.75 962.284C1639.26 963.031 1639.58 963.89 1639.68 964.786C1639.77 965.682 1639.65 966.589 1639.32 967.429L1551.53 1191.31C1551.12 1192.35 1550.4 1193.24 1549.48 1193.87C1548.56 1194.49 1547.47 1194.83 1546.35 1194.82ZM1280.96 1183.07L1542.58 1183.74L1626.07 970.866L1364.45 970.256L1280.96 1183.07Z" fill="black"/>
<path d="M1456.33 1121.79C1453.67 1121.8 1451.04 1121.16 1448.67 1119.94C1436.91 1113.81 1433.24 1093.96 1440.31 1074.74C1444.75 1062.69 1452.51 1053.51 1461.08 1050.18C1463.4 1049.2 1465.91 1048.75 1468.42 1048.84C1470.94 1048.93 1473.4 1049.57 1475.65 1050.72C1487.42 1056.83 1491.1 1076.59 1484.02 1095.9C1479.58 1107.97 1471.8 1117.15 1463.25 1120.46C1461.05 1121.33 1458.7 1121.78 1456.33 1121.79ZM1467.98 1059.92C1466.98 1059.93 1466 1060.13 1465.08 1060.51C1459.53 1062.64 1453.99 1069.75 1450.72 1078.57C1445.27 1093.35 1447.96 1107.04 1453.78 1110.07C1454.65 1110.49 1455.6 1110.71 1456.56 1110.71C1457.52 1110.71 1458.46 1110.49 1459.33 1110.07C1464.87 1107.95 1470.42 1100.83 1473.71 1092.02C1479.25 1077.23 1476.46 1063.52 1470.62 1060.49C1469.81 1060.05 1468.9 1059.83 1467.98 1059.83V1059.92Z" fill="black"/>
<path d="M1272.83 1221.58C1271.36 1221.58 1269.95 1221 1268.91 1219.96C1267.87 1218.92 1267.29 1217.51 1267.29 1216.04V1188.69C1267.29 1187.22 1267.87 1185.81 1268.91 1184.77C1269.95 1183.73 1271.36 1183.14 1272.83 1183.14C1274.3 1183.14 1275.71 1183.73 1276.75 1184.77C1277.79 1185.81 1278.37 1187.22 1278.37 1188.69V1216.04C1278.37 1217.51 1277.79 1218.92 1276.75 1219.96C1275.71 1221 1274.3 1221.58 1272.83 1221.58Z" fill="black"/>
<path d="M1238.47 773.663C1253.34 754.496 1249.15 726.349 1229.1 710.795C1209.06 695.24 1180.75 698.168 1165.88 717.335C1151.01 736.502 1155.2 764.648 1175.25 780.203C1195.29 795.757 1223.6 792.829 1238.47 773.663Z" fill="white"/>
<path d="M1204.12 795.806C1191.54 795.744 1179.38 791.204 1169.84 783C1160.29 774.796 1153.98 763.463 1152.03 751.03C1150.99 744.535 1151.29 737.895 1152.92 731.523C1154.55 725.151 1157.47 719.181 1161.51 713.984C1165.54 708.786 1170.59 704.472 1176.36 701.308C1182.13 698.144 1188.48 696.198 1195.03 695.59C1208.47 694.235 1221.92 698.136 1232.54 706.475C1254.96 723.883 1259.6 755.576 1242.87 777.123C1238.28 782.997 1232.39 787.737 1225.67 790.976C1218.95 794.216 1211.58 795.868 1204.12 795.806ZM1200.28 706.419C1198.88 706.42 1197.49 706.494 1196.1 706.641C1191.05 707.111 1186.15 708.612 1181.7 711.049C1177.25 713.487 1173.35 716.811 1170.23 720.815C1167.12 724.822 1164.85 729.423 1163.58 734.336C1162.31 739.249 1162.06 744.37 1162.84 749.385C1164.44 759.922 1170.06 769.428 1178.53 775.903C1196.12 789.56 1221.03 786.991 1233.97 770.359C1246.9 753.728 1243.21 728.928 1225.6 715.271C1218.37 709.591 1209.47 706.477 1200.28 706.419Z" fill="black"/>
<path d="M1205.64 773.205C1209.74 773.205 1213.07 769.879 1213.07 765.777C1213.07 761.674 1209.74 758.348 1205.64 758.348C1201.53 758.348 1198.21 761.674 1198.21 765.777C1198.21 769.879 1201.53 773.205 1205.64 773.205Z" fill="black"/>
<path d="M1179.97 741.71C1199.46 716.593 1193.97 679.706 1167.7 659.321C1141.42 638.936 1104.33 642.773 1084.84 667.89C1065.35 693.008 1070.85 729.894 1097.12 750.279C1123.39 770.664 1160.48 766.827 1179.97 741.71Z" fill="white"/>
<path d="M1134.93 768.954C1120 768.92 1105.51 763.913 1093.74 754.724C1065.1 732.548 1059.17 692.041 1080.49 664.561C1101.82 637.081 1142.49 632.776 1171.14 655.007C1184.86 665.5 1193.98 680.909 1196.58 697.991C1197.89 706.266 1197.49 714.721 1195.4 722.834C1193.32 730.948 1189.59 738.549 1184.46 745.17C1178.58 752.666 1171.06 758.71 1162.47 762.834C1153.88 766.958 1144.46 769.052 1134.93 768.954ZM1129.93 651.847C1122.11 651.772 1114.38 653.49 1107.33 656.87C1100.28 660.25 1094.1 665.201 1089.27 671.343C1071.7 694.018 1076.76 727.485 1100.56 745.965C1124.36 764.445 1158.05 761.044 1175.64 738.37C1179.86 732.92 1182.91 726.665 1184.62 719.992C1186.32 713.318 1186.65 706.365 1185.57 699.562C1183.45 686.304 1176.7 674.227 1166.51 665.479C1156.33 656.732 1143.37 651.882 1129.94 651.791L1129.93 651.847Z" fill="black"/>
<path d="M1122.57 680.789C1126.67 680.789 1130 677.463 1130 673.361C1130 669.258 1126.67 665.932 1122.57 665.932C1118.47 665.932 1115.14 669.258 1115.14 673.361C1115.14 677.463 1118.47 680.789 1122.57 680.789Z" fill="black"/>
<path d="M1134.88 878.984C1133.63 878.989 1132.39 878.852 1131.18 878.577C1121.83 876.508 1118.12 869.91 1115.42 865.087C1113.39 861.483 1112.02 859.229 1109.49 858.028C1101.69 854.332 1090.6 856.069 1090.49 856.18C1089.04 856.425 1087.55 856.083 1086.35 855.231C1085.15 854.378 1084.34 853.084 1084.1 851.634C1083.85 850.183 1084.19 848.694 1085.04 847.495C1085.9 846.296 1087.19 845.485 1088.64 845.24C1089.23 845.147 1103.22 842.893 1114.2 848.104C1120.04 850.857 1122.81 855.792 1125.03 859.746C1127.67 864.403 1129.24 866.898 1133.55 867.859C1139.09 869.06 1145.98 860.467 1150.86 846.33C1158.5 824.302 1157.74 799.761 1151.58 796.804C1143.25 792.794 1133.29 799.114 1122.02 807.153C1120.11 808.633 1117.9 809.681 1115.55 810.224C1113.2 810.766 1110.76 810.79 1108.4 810.294C1099.69 808.317 1094.63 799.52 1094.07 798.523C1093.36 797.236 1093.19 795.719 1093.59 794.305C1094 792.891 1094.95 791.696 1096.24 790.983C1097.52 790.27 1099.04 790.097 1100.45 790.502C1101.87 790.908 1103.06 791.858 1103.78 793.145C1104.57 794.568 1107.58 798.689 1110.87 799.483C1111.7 799.629 1112.56 799.583 1113.37 799.349C1114.18 799.116 1114.92 798.7 1115.55 798.134C1126.45 790.317 1141.42 779.655 1156.31 786.806C1172 794.346 1168.55 828.94 1161.27 849.952C1154.93 868.617 1145.39 878.984 1134.88 878.984Z" fill="black"/>
<path d="M1151.74 831.718C1153.41 822.904 1150.55 814.956 1145.33 813.964C1140.12 812.973 1134.53 819.313 1132.86 828.126C1131.18 836.939 1134.05 844.888 1139.26 845.88C1144.47 846.871 1150.06 840.531 1151.74 831.718Z" fill="black"/>
<path d="M652.98 835.187C623.043 835.187 577.564 823.785 575.642 823.304C574.216 822.944 572.991 822.032 572.237 820.769C571.483 819.506 571.262 817.995 571.623 816.569C571.983 815.142 572.895 813.918 574.158 813.164C575.421 812.41 576.932 812.189 578.358 812.549C578.82 812.679 624.429 824.099 652.98 824.099C678.852 824.099 696.408 811.828 715.017 798.837C732.739 786.493 751.053 773.723 776.536 772.614C777.265 772.584 777.991 772.697 778.676 772.948C779.36 773.198 779.988 773.581 780.524 774.075C781.061 774.568 781.494 775.162 781.801 775.823C782.108 776.484 782.281 777.199 782.311 777.927C782.342 778.655 782.228 779.382 781.978 780.066C781.727 780.751 781.344 781.379 780.851 781.915C780.358 782.451 779.763 782.885 779.102 783.192C778.441 783.498 777.727 783.672 776.998 783.702C754.823 784.663 738.523 795.973 721.356 807.948C702.155 821.327 682.289 835.187 652.98 835.187Z" fill="black"/>
<path d="M661.718 947.43C582.698 947.43 531.86 909.639 529.476 907.828C528.305 906.938 527.535 905.62 527.336 904.162C527.137 902.705 527.524 901.228 528.414 900.057C529.303 898.886 530.622 898.116 532.079 897.916C533.536 897.717 535.013 898.105 536.185 898.994C536.813 899.456 599.811 946.118 692.081 934.402C692.811 934.291 693.557 934.327 694.273 934.509C694.99 934.69 695.663 935.013 696.252 935.458C696.842 935.904 697.337 936.462 697.708 937.101C698.079 937.741 698.318 938.448 698.412 939.181C698.505 939.914 698.451 940.658 698.253 941.37C698.055 942.082 697.716 942.747 697.257 943.326C696.798 943.906 696.228 944.387 695.58 944.743C694.933 945.098 694.22 945.321 693.485 945.397C682.95 946.746 672.34 947.424 661.718 947.43Z" fill="black"/>
<path d="M913.654 957.433C912.794 957.433 911.945 957.233 911.175 956.848C910.405 956.463 909.736 955.904 909.219 955.215C895.932 937.475 887.875 915.872 880.76 896.837C870.522 869.395 861.689 845.704 841.306 840.326C840.601 840.14 839.939 839.818 839.359 839.376C838.779 838.935 838.291 838.384 837.924 837.754C837.182 836.482 836.976 834.968 837.351 833.544C837.726 832.12 838.651 830.904 839.923 830.162C841.195 829.42 842.709 829.214 844.133 829.589C870.005 836.445 880.317 863.888 891.146 892.957C898.335 912.194 905.745 932.097 918.089 948.563C918.707 949.386 919.083 950.366 919.176 951.391C919.268 952.417 919.073 953.447 918.613 954.368C918.153 955.289 917.445 956.064 916.569 956.605C915.693 957.146 914.684 957.433 913.654 957.433Z" fill="black"/>
<path d="M816.266 1039.81C815.495 1039.81 814.733 1039.64 814.029 1039.32C813.326 1039 812.697 1038.54 812.182 1037.97L775.241 997.976C774.244 996.893 773.718 995.458 773.778 993.987C773.839 992.516 774.481 991.129 775.564 990.132C776.648 989.134 778.083 988.608 779.554 988.669C781.025 988.729 782.412 989.372 783.409 990.455L820.369 1030.57C821.079 1031.37 821.545 1032.35 821.712 1033.4C821.879 1034.45 821.74 1035.53 821.312 1036.5C820.883 1037.48 820.183 1038.31 819.294 1038.9C818.406 1039.48 817.368 1039.8 816.303 1039.81H816.266Z" fill="black"/>
<path d="M973.531 1752.89C972.753 1752.89 971.984 1752.73 971.274 1752.41C970.564 1752.09 969.929 1751.63 969.41 1751.05C956.179 1736.26 925.058 1701.61 922.675 1696.75C920.827 1692.91 920.494 1692.41 953.425 1625.62C979.925 1571.9 1016.26 1498.33 1024.11 1469.56C1036.82 1423.14 1026.2 1388.25 988.574 1352.88C987.532 1351.86 986.931 1350.48 986.899 1349.03C986.867 1347.58 987.408 1346.17 988.403 1345.11C989.399 1344.05 990.771 1343.42 992.224 1343.37C993.676 1343.31 995.093 1343.83 996.169 1344.8C1037.21 1383.37 1048.76 1421.57 1034.79 1472.5C1026.62 1502.29 990.071 1576.41 963.386 1630.54C950.025 1657.59 936.257 1685.5 933.522 1693.11C938.419 1699.52 959.043 1722.96 977.652 1743.62C978.14 1744.16 978.517 1744.79 978.761 1745.48C979.005 1746.16 979.111 1746.89 979.073 1747.62C979.036 1748.35 978.855 1749.06 978.541 1749.72C978.227 1750.38 977.787 1750.96 977.246 1751.45C976.229 1752.38 974.905 1752.89 973.531 1752.89Z" fill="black"/>
<path d="M1136.15 1193.86C1134.68 1193.94 1133.24 1193.44 1132.14 1192.46C1131.04 1191.48 1130.38 1190.1 1130.3 1188.63C1130.21 1187.16 1130.72 1185.72 1131.7 1184.62C1132.68 1183.52 1134.05 1182.86 1135.53 1182.77C1136.6 1182.63 1141.6 1181.76 1142.1 1177.56C1139.13 1174.31 1123.62 1168.14 1107.93 1164.03C1107.23 1163.85 1106.57 1163.53 1105.99 1163.09C1105.41 1162.65 1104.92 1162.1 1104.55 1161.47C1104.18 1160.84 1103.94 1160.15 1103.84 1159.42C1103.74 1158.7 1103.79 1157.97 1103.97 1157.26C1104.16 1156.56 1104.48 1155.9 1104.92 1155.31C1105.36 1154.73 1105.91 1154.25 1106.54 1153.88C1107.17 1153.51 1107.86 1153.27 1108.58 1153.17C1109.3 1153.07 1110.04 1153.11 1110.74 1153.3C1153.25 1164.39 1153.25 1173.72 1153.25 1176.77C1153.25 1188.8 1142.51 1193.16 1136.78 1193.79L1136.15 1193.86Z" fill="black"/>
<path d="M903.085 574.159C901.766 574.174 900.485 573.718 899.472 572.874C898.459 572.029 897.781 570.851 897.558 569.551C897.335 568.251 897.584 566.915 898.258 565.781C898.932 564.648 899.989 563.792 901.237 563.367C960.742 542.817 1037.67 547.659 1040.93 547.881C1042.4 547.979 1043.77 548.657 1044.74 549.766C1045.71 550.875 1046.2 552.324 1046.1 553.794C1046 555.265 1045.32 556.636 1044.22 557.606C1043.11 558.577 1041.66 559.067 1040.19 558.969C1039.41 558.969 962.202 554.053 904.859 573.864C904.288 574.058 903.689 574.158 903.085 574.159Z" fill="black"/>
<path d="M1229.14 716.417C1227.76 716.423 1226.42 715.907 1225.39 714.973C1224.36 714.039 1223.72 712.754 1223.6 711.372C1221.05 686.438 1212.15 662.575 1197.73 642.073C1197.24 641.503 1196.87 640.84 1196.65 640.124C1196.42 639.408 1196.34 638.654 1196.42 637.907C1196.49 637.16 1196.72 636.436 1197.08 635.779C1197.44 635.122 1197.94 634.545 1198.53 634.084C1199.12 633.623 1199.8 633.288 1200.53 633.097C1201.25 632.907 1202.01 632.866 1202.75 632.977C1203.5 633.088 1204.21 633.349 1204.85 633.743C1205.49 634.138 1206.04 634.658 1206.47 635.272C1222.26 657.405 1231.95 683.308 1234.56 710.374C1234.62 711.1 1234.55 711.831 1234.33 712.527C1234.11 713.223 1233.76 713.869 1233.29 714.428C1232.83 714.988 1232.25 715.45 1231.61 715.788C1230.96 716.126 1230.26 716.333 1229.53 716.399L1229.14 716.417Z" fill="black"/>
<path d="M443.086 879.056C442.356 879.061 441.633 878.921 440.957 878.645C440.282 878.369 439.668 877.963 439.15 877.449C411.116 849.378 391.379 810.921 390.548 809.258C389.881 807.947 389.763 806.425 390.218 805.026C390.674 803.628 391.667 802.468 392.978 801.801C394.289 801.135 395.811 801.016 397.209 801.472C398.608 801.928 399.768 802.92 400.434 804.232C400.638 804.62 420.226 842.799 447.004 869.595C447.778 870.37 448.305 871.358 448.519 872.432C448.732 873.507 448.622 874.621 448.203 875.633C447.784 876.646 447.074 877.511 446.163 878.121C445.252 878.73 444.182 879.056 443.086 879.056Z" fill="black"/>
<path d="M387.922 865.991C387.121 865.991 386.329 865.818 385.602 865.483C384.875 865.148 384.229 864.659 383.708 864.051C350.555 825.243 333.351 772.816 332.63 770.598C332.207 769.207 332.348 767.705 333.023 766.417C333.697 765.128 334.85 764.157 336.234 763.711C337.618 763.265 339.122 763.38 340.422 764.033C341.721 764.685 342.712 765.822 343.182 767.198C343.348 767.715 360.46 819.792 392.135 856.844C392.824 857.649 393.267 858.635 393.413 859.685C393.559 860.735 393.401 861.804 392.957 862.767C392.514 863.729 391.804 864.545 390.911 865.116C390.019 865.688 388.981 865.991 387.922 865.991Z" fill="black"/>
<path d="M1126.62 1123.73C1126.03 1123.73 1125.44 1123.64 1124.88 1123.45C1089.49 1111.89 1046.73 1079.43 1044.92 1078.07C1044.34 1077.63 1043.85 1077.07 1043.49 1076.44C1043.12 1075.81 1042.88 1075.12 1042.79 1074.4C1042.69 1073.68 1042.74 1072.94 1042.92 1072.24C1043.11 1071.53 1043.43 1070.87 1043.87 1070.3C1044.32 1069.72 1044.87 1069.23 1045.5 1068.87C1046.13 1068.5 1046.82 1068.26 1047.54 1068.16C1048.27 1068.07 1049 1068.11 1049.7 1068.3C1050.41 1068.49 1051.07 1068.81 1051.65 1069.25C1052.07 1069.57 1094.74 1101.94 1128.34 1112.9C1129.6 1113.3 1130.68 1114.14 1131.38 1115.27C1132.08 1116.4 1132.35 1117.74 1132.14 1119.06C1131.93 1120.37 1131.26 1121.56 1130.25 1122.42C1129.23 1123.28 1127.95 1123.74 1126.62 1123.73Z" fill="black"/>
<path d="M1177.71 1114.05C1177.27 1114.05 1176.82 1113.99 1176.38 1113.88C1144.34 1105.92 1105.77 1082.98 1104.18 1082.04C1103.56 1081.67 1103.01 1081.17 1102.58 1080.59C1102.14 1080 1101.83 1079.34 1101.65 1078.63C1101.47 1077.93 1101.44 1077.19 1101.54 1076.47C1101.65 1075.75 1101.9 1075.06 1102.27 1074.44C1102.64 1073.81 1103.14 1073.27 1103.72 1072.83C1104.31 1072.4 1104.97 1072.08 1105.68 1071.9C1106.38 1071.73 1107.12 1071.69 1107.84 1071.8C1108.56 1071.9 1109.25 1072.15 1109.87 1072.52C1110.26 1072.74 1148.68 1095.57 1179.08 1103.13C1180.39 1103.45 1181.54 1104.25 1182.3 1105.36C1183.07 1106.48 1183.4 1107.83 1183.24 1109.17C1183.07 1110.51 1182.43 1111.75 1181.42 1112.65C1180.41 1113.54 1179.1 1114.04 1177.75 1114.05H1177.71Z" fill="black"/>
</svg>
