<svg width="168" height="168" viewBox="0 0 168 168" fill="none" xmlns="http://www.w3.org/2000/svg">
<path d="M29.7328 74.9817L32.2841 72.9531L42.8499 93.2845C43.0134 93.5961 43.0468 93.9598 42.9427 94.2958C42.8386 94.6327 42.6055 94.9141 42.2944 95.0787C41.9856 95.2408 41.6256 95.2753 41.2918 95.1745C40.958 95.0737 40.677 94.846 40.5092 94.5403L29.7328 74.9817Z" fill="#FBF6FF"/>
<path d="M32.938 89.35L43.4117 83.8467L46.8431 90.0665L35.8341 95.6845L32.938 89.35Z" fill="#FBF6FF"/>
<path d="M138.994 149.563C138.994 150.779 124.619 150.373 124.013 149.563C123.408 148.753 110.65 125.168 94.3446 124.56C78.0395 123.953 62.2618 145.013 62.4631 145.717C62.6644 146.42 71.6697 150.474 71.5745 151.491C71.4794 152.506 54.1631 151.185 53.4609 150.373C52.7587 149.562 53.968 141.166 58.0174 134.076C62.0667 126.985 74.0026 116.157 70.3606 104.314C66.7185 92.4697 57.5555 86.9484 54.1116 81.4826C50.6677 76.0163 48.494 68.7822 48.494 68.7822C48.494 68.7822 38.8333 77.4036 38.5571 78.2338C38.2809 79.0639 39.871 84.3192 38.9722 84.6628C38.0734 85.0064 37.9345 83.0743 37.0357 83.1429C36.1369 83.2116 35.4331 85.7565 34.2565 85.4289C33.0799 85.1013 33.7884 83.5096 33.7884 83.5096C33.7884 83.5096 32.682 84.0328 32.0953 83.3379C31.5554 82.6998 32.3341 81.8291 32.3341 81.8291C32.3341 81.8291 31.3868 81.8509 31.1778 81.4358C30.7471 80.5713 31.5554 79.9191 31.7317 79.7193C32.1999 79.2075 33.5653 78.2806 35.029 74.5699C41.1818 58.9436 48.3739 53.2744 48.3739 53.2744C48.3739 53.2744 51.7631 41.9035 59.5045 31.7029C68.3991 19.9824 82.571 9.85667 96.1749 21.0918C104.272 27.7861 101.036 36.3842 95.0922 41.1342C92.1942 43.4484 89.5104 45.9528 87.5019 48.6837C89.1173 50.099 93.2148 53.365 97.6903 54.3871C103.536 55.7182 107.888 49.3203 107.888 49.3203L117.859 50.7481C117.859 50.7481 117.959 51.9824 115.944 52.243C113.93 52.5036 111.917 52.1135 109.838 53.6068C107.759 55.1002 100.491 62.1487 95.4819 63.3518C90.8443 64.4644 86.5049 62.8634 84.4032 61.8538C85.1054 64.5892 86.6628 67.4917 89.3121 70.5783C106.549 90.6755 110.641 88.7108 119.834 108.118C128.337 126.072 124.695 141.794 129.084 144.397C130.288 145.11 138.994 148.349 138.994 149.563Z" fill="#8800FF"/>
<path d="M95.3198 37.4484C98.1708 37.4484 100.482 35.3022 100.482 32.6547C100.482 30.0073 98.1708 27.8611 95.3198 27.8611C92.4689 27.8611 90.158 30.0073 90.158 32.6547C90.158 35.3022 92.4689 37.4484 95.3198 37.4484Z" fill="#FBF6FF"/>
<path d="M95.3215 37.9166C92.216 37.9166 89.6901 35.5556 89.6901 32.6548C89.6885 32.0623 89.7943 31.4744 90.0018 30.9196C90.7821 28.8114 92.9241 27.3945 95.3181 27.3945C98.4219 27.3945 100.949 29.7539 100.949 32.6548C100.948 32.9071 100.929 33.159 100.891 33.4085C100.5 35.9786 98.1053 37.9166 95.3215 37.9166ZM95.3215 28.3308C93.3164 28.3308 91.5323 29.5027 90.8804 31.2488C90.7124 31.6979 90.6259 32.1736 90.6259 32.6533C90.6259 35.0391 92.7326 36.9788 95.3215 36.9788C97.6466 36.9788 99.6441 35.3824 99.9684 33.265C99.9995 33.0625 100.015 32.8581 100.015 32.6533C100.015 30.2704 97.9087 28.3308 95.3215 28.3308Z" fill="black"/>
<path d="M100.43 33.3367C100.43 33.3367 96.9805 28.6039 90.4436 31.085C91.1442 29.2125 93.0653 27.8627 95.3232 27.8627C98.1741 27.8627 100.485 30.0083 100.485 32.6548C100.484 32.8832 100.466 33.1112 100.43 33.3367Z" fill="#8800FF"/>
<path d="M100.43 33.8047H100.394C100.32 33.7988 100.246 33.7749 100.183 33.7349C100.119 33.695 100.066 33.6402 100.028 33.5753C99.6921 33.1415 96.5043 29.2826 90.6091 31.5249C90.5243 31.5572 90.4327 31.5644 90.3445 31.5457C90.2563 31.527 90.1749 31.4833 90.111 31.4196C90.0472 31.3559 90.0035 31.2752 89.9842 31.187C89.9649 31.0988 89.9716 31.007 90.0035 30.9226C90.7914 28.8128 92.9275 27.396 95.3215 27.396C98.4253 27.396 100.951 29.7554 100.951 32.6562C100.951 32.9085 100.932 33.1605 100.894 33.4099C100.876 33.5202 100.82 33.6206 100.735 33.693C100.65 33.7653 100.542 33.8049 100.43 33.8047ZM94.1103 29.9036C95.4996 29.897 96.8697 30.2268 98.1036 30.8649C98.7849 31.2198 99.4174 31.6614 99.9852 32.1787C99.7248 30.0191 97.7323 28.3354 95.3215 28.3354C94.5597 28.3264 93.807 28.4984 93.1241 28.8373C92.442 29.1761 91.8498 29.6721 91.3971 30.2843C92.2799 30.0345 93.193 29.9049 94.1103 29.8989V29.9036Z" fill="black"/>
<path d="M87.5507 34.407C90.5184 34.407 92.925 32.1728 92.925 29.4167C92.925 26.6606 90.5184 24.4264 87.5507 24.4264C84.5821 24.4264 82.1763 26.6606 82.1763 29.4167C82.1763 32.1728 84.5821 34.407 87.5507 34.407Z" fill="#FBF6FF"/>
<path d="M87.5507 34.8753C84.3284 34.8753 81.7065 32.427 81.7065 29.4137C81.7062 28.7991 81.8172 28.1895 82.0342 27.6145C82.8504 25.4299 85.066 23.9553 87.5507 23.9553C90.7712 23.9553 93.3912 26.4037 93.3912 29.4168C93.3912 29.6781 93.3719 29.9389 93.3316 30.1971C92.925 32.8639 90.4436 34.8753 87.5507 34.8753ZM87.5507 24.8885C85.4566 24.8885 83.5916 26.115 82.9112 27.9407C82.7335 28.4103 82.6426 28.9084 82.6428 29.4106C82.6428 31.9074 84.8442 33.9359 87.5507 33.9359C89.98 33.9359 92.0682 32.2662 92.4067 30.052C92.4386 29.8408 92.4554 29.6274 92.4546 29.4137C92.4546 26.9233 90.2546 24.8947 87.5507 24.8947V24.8885Z" fill="black"/>
<path d="M92.8687 30.1269C92.8687 30.1269 89.2794 25.199 82.4712 27.7862C83.1999 25.8326 85.1987 24.4297 87.5507 24.4297C90.515 24.4297 92.9233 26.6659 92.9233 29.4232C92.9225 29.6588 92.904 29.894 92.8687 30.1269Z" fill="#8800FF"/>
<path d="M92.8696 30.595H92.8343C92.7587 30.5892 92.6856 30.565 92.6218 30.5249C92.5571 30.4847 92.5042 30.4295 92.4655 30.364C92.1178 29.9146 88.7914 25.8825 82.635 28.2215C82.5509 28.2536 82.4594 28.2608 82.3713 28.2421C82.2832 28.2235 82.2024 28.1799 82.1386 28.1164C82.0746 28.053 82.0304 27.9726 82.011 27.8847C81.9917 27.7967 81.9981 27.7051 82.0295 27.6208C82.8473 25.4362 85.0634 23.96 87.5473 23.96C90.7679 23.96 93.3878 26.4083 93.3878 29.4216C93.3887 29.6828 93.3685 29.9436 93.329 30.2017C93.3114 30.3109 93.2551 30.4103 93.1711 30.4823C93.0871 30.5543 92.9804 30.5942 92.8696 30.595ZM86.2898 26.5753C87.733 26.5688 89.1568 26.9115 90.4386 27.574C91.1627 27.9514 91.833 28.4236 92.4311 28.9784C92.185 26.6954 90.0908 24.9071 87.5507 24.9071C86.7468 24.8969 85.9522 25.0797 85.234 25.44C84.5158 25.8002 83.8939 26.3277 83.4215 26.9779C84.3545 26.7132 85.3196 26.5777 86.2898 26.5753Z" fill="black"/>
<path d="M94.7308 32.4606C95.134 32.4606 95.4608 32.1336 95.4608 31.7303C95.4608 31.3269 95.134 31 94.7308 31C94.3276 31 94 31.3269 94 31.7303C94 32.1336 94.3276 32.4606 94.7308 32.4606Z" fill="black"/>
<path d="M88.73 33.4606C89.1332 33.4606 89.4608 33.1337 89.4608 32.7303C89.4608 32.327 89.1332 32 88.73 32C88.3268 32 88 32.327 88 32.7303C88 33.1337 88.3268 33.4606 88.73 33.4606Z" fill="black"/>
<path d="M79.6217 29.1312C79.6217 29.1312 79.1006 36.857 86.6435 37.4484C86.6435 37.4484 78.1971 42.1625 76.1295 36.4747C74.5269 32.0586 79.6217 29.1312 79.6217 29.1312Z" fill="#FBF6FF"/>
<path d="M80.3895 39.7501C79.6894 39.7608 78.9929 39.6467 78.3329 39.4131C77.0845 38.9449 76.1919 38.0087 75.6911 36.6338C73.9745 31.9041 79.3346 28.7567 79.3893 28.7256C79.4627 28.6832 79.5463 28.6617 79.6311 28.6632C79.7158 28.6647 79.7986 28.6892 79.8706 28.734C79.9425 28.7789 80.0008 28.8424 80.0395 28.9179C80.0781 28.9934 80.0956 29.0779 80.0899 29.1624C80.0696 29.4668 79.7014 36.4357 86.6813 36.9818C86.7812 36.9897 86.8762 37.0295 86.9526 37.0955C87.0282 37.1615 87.0803 37.2501 87.1021 37.3483C87.124 37.4464 87.113 37.549 87.0719 37.6407C87.0307 37.7323 86.961 37.8082 86.8728 37.8573C86.6981 37.9509 83.4386 39.7501 80.3895 39.7501ZM79.1692 29.9973C77.9037 30.9336 75.4522 33.2337 76.5711 36.314C76.98 37.4375 77.6635 38.1631 78.6574 38.5345C80.6688 39.2835 83.4402 38.3784 85.0693 37.6809C80.1211 36.5199 79.2926 31.9556 79.1692 29.9973Z" fill="black"/>
<path d="M83.0673 39.3489C83.0316 39.3485 82.996 39.3444 82.9612 39.3364C76.4884 37.829 77.1297 30.8023 77.1375 30.7306C77.1438 30.6691 77.1622 30.6095 77.1914 30.555C77.2207 30.5007 77.2604 30.4526 77.3083 30.4135C77.3562 30.3744 77.4113 30.3452 77.4705 30.3275C77.5297 30.3097 77.5918 30.3038 77.6533 30.31C77.7148 30.3163 77.7744 30.3346 77.8288 30.3639C77.8832 30.3932 77.9313 30.4329 77.9704 30.4808C78.0095 30.5287 78.0387 30.5839 78.0564 30.643C78.0741 30.7022 78.0801 30.7643 78.0738 30.8258C78.0474 31.0817 77.5136 37.105 83.1781 38.4252C83.2897 38.4515 83.3877 38.5178 83.4537 38.6117C83.5196 38.7055 83.5488 38.8203 83.5357 38.9342C83.5226 39.0481 83.4682 39.1533 83.3827 39.2298C83.2972 39.3062 83.1866 39.3486 83.072 39.3489H83.0673Z" fill="black"/>
<path d="M110.848 32.1913L109.003 29.7585L107.61 34.0263L110.479 33.708L110.848 32.1913Z" fill="#FBF6FF"/>
<path d="M107.608 34.4944C107.534 34.4944 107.462 34.4768 107.396 34.4432C107.33 34.4096 107.273 34.3609 107.229 34.3011C107.187 34.2413 107.158 34.1721 107.146 34.0991C107.134 34.0261 107.14 33.9514 107.164 33.8812L108.557 29.6134C108.583 29.5322 108.632 29.4598 108.697 29.4042C108.762 29.3485 108.84 29.3116 108.924 29.2975C109.008 29.2834 109.095 29.2925 109.175 29.3239C109.254 29.3554 109.323 29.408 109.375 29.476L111.219 31.9072C111.261 31.9627 111.291 32.027 111.305 32.0953C111.319 32.1635 111.318 32.2342 111.302 32.302L110.932 33.8172C110.909 33.9107 110.859 33.9949 110.787 34.0586C110.715 34.1223 110.625 34.1622 110.53 34.173L107.659 34.4851L107.608 34.4944ZM109.169 30.7493L108.279 33.4755L110.105 33.2851L110.344 32.302L109.169 30.7493Z" fill="black"/>
<path d="M105.745 38.5016C106.198 36.0752 109.959 29.8864 119.945 30.7899C126.187 31.3548 128.344 36.6198 127.436 41.2933C126.484 46.1665 122.325 50.4437 122.325 50.4437L116.863 50.7995L116.024 49.6121L114.904 50.7995L107.596 50.3313C107.596 50.3313 104.464 45.3769 105.745 38.5016Z" fill="#FBF6FF"/>
<path d="M116.856 51.2676C116.781 51.2678 116.707 51.2501 116.641 51.2159C116.574 51.1816 116.516 51.132 116.474 51.0711L115.963 50.3501L115.235 51.121C115.188 51.1713 115.13 51.2106 115.067 51.2359C115.003 51.2612 114.933 51.2721 114.864 51.2676L107.557 50.7918C107.483 50.7869 107.412 50.7648 107.349 50.7271C107.285 50.6894 107.231 50.6372 107.192 50.5748C107.061 50.3657 103.985 45.3911 105.285 38.4159C105.539 37.0536 106.662 34.8268 108.987 33.0276C110.938 31.5155 114.432 29.8209 119.987 30.3234C122.707 30.5699 124.903 31.7091 126.337 33.6191C127.885 35.6804 128.451 38.5111 127.898 41.3839C126.932 46.3367 122.838 50.5904 122.664 50.7698C122.581 50.8544 122.469 50.9046 122.351 50.9103L116.89 51.2676H116.856ZM107.868 49.8742L114.705 50.3189L115.674 49.2906C115.722 49.2401 115.781 49.2009 115.845 49.1759C115.91 49.1507 115.98 49.1403 116.049 49.1455C116.118 49.1503 116.185 49.1705 116.246 49.2044C116.306 49.2384 116.358 49.2855 116.398 49.3421L117.087 50.3158L122.107 49.9881C122.789 49.2469 126.15 45.4207 126.972 41.2043C127.482 38.5906 126.972 36.0315 125.588 34.1824C124.317 32.4909 122.353 31.4797 119.903 31.2581C114.651 30.7821 111.378 32.3613 109.559 33.7688C107.297 35.5196 106.387 37.6216 106.204 38.5906C105.112 44.4298 107.324 48.8896 107.868 49.8742Z" fill="black"/>
<path d="M130.967 38.4128C130.785 38.4101 130.607 38.3702 130.441 38.2956C130.276 38.221 130.128 38.1132 130.005 37.9789C129.52 37.4733 129.257 36.6931 129.258 35.8629C128.629 36.0339 128.068 36.394 127.651 36.8944C127.575 36.9932 127.463 37.0578 127.341 37.0741C127.217 37.0905 127.093 37.0573 126.994 36.9818C126.895 36.9063 126.831 36.7946 126.814 36.6714C126.798 36.5482 126.831 36.4236 126.906 36.3249C127.525 35.5546 128.407 35.0426 129.383 34.8892C129.383 34.8612 129.397 34.8346 129.405 34.8081C129.701 33.7423 130.411 32.987 131.351 32.7359C131.471 32.7038 131.599 32.7207 131.706 32.7828C131.814 32.8451 131.892 32.9474 131.924 33.0674C131.956 33.1875 131.939 33.3153 131.877 33.4228C131.814 33.5303 131.712 33.6088 131.593 33.6409C130.853 33.8375 130.511 34.4554 130.356 34.8892C130.612 34.9289 130.861 34.9954 131.102 35.0875C132.321 35.5478 132.463 36.4029 132.468 36.7477C132.471 37.0779 132.378 37.4019 132.199 37.6794C132.02 37.9569 131.764 38.1755 131.462 38.3082C131.305 38.375 131.137 38.4105 130.967 38.4128ZM130.197 35.8177C130.188 36.4247 130.354 36.9974 130.681 37.3313C130.728 37.3954 130.796 37.4416 130.874 37.4626C130.95 37.4835 131.032 37.4779 131.106 37.4468C131.233 37.385 131.341 37.2886 131.416 37.1686C131.491 37.0485 131.531 36.9097 131.531 36.768C131.531 36.4357 131.257 36.1532 130.771 35.969C130.586 35.8986 130.393 35.8478 130.197 35.8177Z" fill="black"/>
<path d="M129.277 46.1479C129.19 46.1479 129.103 46.1234 129.029 46.077C128.954 46.0306 128.895 45.9644 128.856 45.8856C128.817 45.8069 128.802 45.7191 128.811 45.6319C128.82 45.5448 128.854 45.4619 128.907 45.3926C129.911 44.0602 130.467 42.4437 130.496 40.7753C130.491 40.6511 130.535 40.5301 130.619 40.4388C130.703 40.3475 130.821 40.2934 130.945 40.2885C131.069 40.2834 131.19 40.328 131.281 40.4123C131.373 40.4966 131.426 40.6137 131.431 40.7379C131.421 42.6301 130.795 44.4674 129.646 45.9716C129.602 46.0271 129.546 46.0718 129.482 46.1024C129.418 46.1329 129.347 46.1485 129.277 46.1479Z" fill="black"/>
<path d="M130.121 48.5774C130.023 48.5774 129.928 48.5465 129.848 48.4893C129.768 48.432 129.709 48.3512 129.678 48.2583C129.646 48.1654 129.645 48.0651 129.674 47.9715C129.703 47.8778 129.761 47.7956 129.839 47.7364C133.061 45.2989 133.271 41.5149 133.271 41.4774C133.277 41.3533 133.332 41.2364 133.423 41.1526C133.515 41.0688 133.636 41.0248 133.761 41.0304C133.885 41.0359 134.002 41.0906 134.086 41.1823C134.169 41.2742 134.214 41.3955 134.208 41.5196C134.208 41.6928 133.978 45.7718 130.396 48.4839C130.316 48.5433 130.22 48.5761 130.121 48.5774Z" fill="black"/>
<path d="M102.821 47.4976C102.743 47.4977 102.666 47.4786 102.598 47.4418C102.53 47.405 102.472 47.3518 102.43 47.287C101.661 46.1201 101.265 44.7482 101.29 43.3516C101.298 43.2274 101.355 43.1115 101.448 43.0294C101.495 42.9888 101.549 42.9577 101.607 42.9379C101.665 42.918 101.727 42.9098 101.789 42.9138C101.85 42.9179 101.91 42.9339 101.966 42.9611C102.021 42.9884 102.07 43.0262 102.11 43.0724C102.152 43.1188 102.183 43.1726 102.203 43.2309C102.222 43.2892 102.231 43.3509 102.226 43.4124C102.22 44.6047 102.564 45.7726 103.214 46.772C103.26 46.8425 103.287 46.9243 103.291 47.0087C103.295 47.093 103.275 47.1768 103.235 47.2512C103.196 47.3255 103.136 47.3878 103.064 47.4311C102.992 47.4745 102.908 47.4975 102.824 47.4976H102.821Z" fill="black"/>
<path d="M101.348 49.2173C101.232 49.2153 101.121 49.1703 101.036 49.0909C98.4203 46.6472 98.3833 42.7726 98.3833 42.6103C98.3833 42.4862 98.432 42.3672 98.5202 42.2794C98.6076 42.1916 98.7269 42.1422 98.8512 42.1422C98.9755 42.1422 99.0939 42.1916 99.1821 42.2794C99.2703 42.3672 99.3191 42.4862 99.3191 42.6103C99.3191 42.6681 99.3611 46.2524 101.66 48.4058C101.728 48.4695 101.777 48.5522 101.798 48.6434C101.819 48.7345 101.812 48.8299 101.779 48.9172C101.745 49.0046 101.686 49.0799 101.609 49.1334C101.532 49.1869 101.442 49.2161 101.348 49.2173Z" fill="black"/>
<path d="M110.921 41.9878C111.117 40.4664 109.599 39.0166 107.529 38.7497C105.46 38.4828 103.623 39.4998 103.428 41.0212C103.231 42.5426 104.75 43.9924 106.819 44.2592C108.888 44.5262 110.725 43.5092 110.921 41.9878Z" fill="#FBF6FF"/>
<path d="M107.477 44.77C107.237 44.7699 106.997 44.7543 106.758 44.7232C105.711 44.6054 104.727 44.1591 103.949 43.4484C103.197 42.7321 102.847 41.8489 102.961 40.961C103.191 39.1852 105.266 37.9853 107.588 38.2849C109.91 38.5844 111.612 40.2713 111.383 42.0471C111.269 42.935 110.706 43.6996 109.798 44.2036C109.084 44.5844 108.286 44.7792 107.477 44.77ZM106.866 39.1743C105.314 39.1743 104.035 39.9545 103.89 41.0812C103.815 41.6648 104.064 42.2656 104.595 42.7712C105.239 43.3297 106.032 43.6858 106.877 43.7949C107.722 43.9041 108.58 43.7613 109.344 43.3844C109.985 43.0286 110.379 42.5121 110.455 41.927C110.61 40.6645 109.278 39.4474 107.468 39.2133C107.268 39.1874 107.067 39.1744 106.866 39.1743Z" fill="black"/>
<path d="M109.439 37.0198C110.04 35.8565 109.707 34.4903 108.695 33.968C107.683 33.4459 106.377 33.9657 105.776 35.1289C105.176 36.2922 105.509 37.6585 106.52 38.1807C107.533 38.7029 108.839 38.1831 109.439 37.0198Z" fill="#FBF6FF"/>
<path d="M107.362 38.8526C106.995 38.854 106.633 38.7668 106.307 38.5983C106.001 38.4372 105.734 38.2116 105.524 37.937C105.314 37.6625 105.166 37.3455 105.092 37.0083C104.926 36.301 105.022 35.5577 105.361 34.9156C106.081 33.5253 107.672 32.9136 108.913 33.5534C109.218 33.7145 109.486 33.9402 109.696 34.2148C109.906 34.4893 110.053 34.8062 110.128 35.1435C110.294 35.8507 110.198 36.594 109.859 37.2361C109.333 38.2535 108.342 38.8526 107.362 38.8526ZM107.852 34.2337C107.215 34.2337 106.552 34.6504 106.194 35.3448C105.959 35.7865 105.89 36.2982 106 36.7867C106.044 36.9937 106.133 37.1887 106.261 37.3579C106.389 37.527 106.551 37.6666 106.738 37.7666C107.517 38.1707 108.545 37.7401 109.025 36.8069C109.261 36.3657 109.33 35.8546 109.22 35.3666C109.176 35.1594 109.087 34.9644 108.959 34.7949C108.831 34.6254 108.669 34.4857 108.482 34.3851C108.287 34.2846 108.071 34.2326 107.852 34.2337Z" fill="black"/>
<path d="M112.835 38.0342C113.486 36.7714 113.124 35.2882 112.026 34.7214C110.928 34.1545 109.509 34.7188 108.857 35.9816C108.205 37.2445 108.567 38.7277 109.665 39.2945C110.764 39.8613 112.183 39.2971 112.835 38.0342Z" fill="#FBF6FF"/>
<path d="M110.573 39.984C110.181 39.9851 109.795 39.8919 109.447 39.7125C108.121 39.0275 107.67 37.2594 108.438 35.7693C109.208 34.279 110.912 33.6237 112.237 34.3071C112.564 34.479 112.85 34.7203 113.074 35.014C113.299 35.3078 113.456 35.647 113.536 36.008C113.713 36.766 113.61 37.5623 113.246 38.2504C112.691 39.3395 111.628 39.984 110.573 39.984ZM111.103 34.9719C110.399 34.9719 109.666 35.4307 109.271 36.1983C108.738 37.2298 109.009 38.4329 109.875 38.8808C110.741 39.3286 111.88 38.8527 112.415 37.8212C112.674 37.3334 112.75 36.7684 112.626 36.2296C112.578 35.9991 112.479 35.7821 112.337 35.5935C112.195 35.405 112.015 35.2493 111.807 35.1373C111.591 35.0275 111.352 34.9708 111.11 34.9719H111.103Z" fill="black"/>
<path d="M118.006 38.1225H117.939C117.816 38.1051 117.705 38.0396 117.63 37.9404C117.555 37.8412 117.524 37.7164 117.54 37.5935L117.907 35.0016L115.109 35.607C114.988 35.6333 114.861 35.6102 114.756 35.5428C114.652 35.4753 114.578 35.369 114.552 35.2473C114.526 35.1257 114.548 34.9986 114.615 34.8939C114.684 34.7894 114.789 34.7158 114.911 34.6895L118.366 33.9405C118.44 33.9243 118.516 33.9263 118.59 33.9463C118.663 33.9662 118.73 34.0036 118.785 34.0551C118.841 34.1067 118.883 34.1709 118.908 34.2422C118.933 34.3136 118.94 34.3899 118.93 34.4648L118.461 37.7199C118.446 37.8302 118.391 37.9315 118.307 38.0052C118.224 38.0791 118.117 38.1206 118.006 38.1225Z" fill="black"/>
<path d="M121.808 33.4631C121.729 33.4633 121.651 33.4434 121.582 33.4054C119.354 32.1773 115.169 33.1666 115.126 33.1775C115.006 33.2067 114.878 33.1867 114.773 33.1219C114.666 33.0571 114.59 32.9527 114.561 32.8319C114.531 32.7111 114.552 32.5835 114.616 32.4774C114.681 32.3714 114.786 32.2954 114.907 32.2663C115.093 32.2225 119.485 31.1818 122.034 32.5861C122.125 32.6365 122.196 32.7155 122.237 32.8106C122.278 32.9058 122.286 33.0117 122.26 33.1119C122.234 33.2121 122.175 33.301 122.094 33.3645C122.013 33.428 121.912 33.4627 121.808 33.4631Z" fill="black"/>
<path d="M105.436 41.8364C105.736 41.8364 105.979 41.5933 105.979 41.2934C105.979 40.9935 105.736 40.7504 105.436 40.7504C105.136 40.7504 104.893 40.9935 104.893 41.2934C104.893 41.5933 105.136 41.8364 105.436 41.8364Z" fill="black"/>
<path d="M107.497 42.047C107.797 42.047 108.041 41.8039 108.041 41.504C108.041 41.204 107.797 40.9609 107.497 40.9609C107.197 40.9609 106.955 41.204 106.955 41.504C106.955 41.8039 107.197 42.047 107.497 42.047Z" fill="black"/>
<path d="M107.497 36.9178C107.768 36.9178 107.988 36.6985 107.988 36.4278C107.988 36.1573 107.768 35.9379 107.497 35.9379C107.227 35.9379 107.008 36.1573 107.008 36.4278C107.008 36.6985 107.227 36.9178 107.497 36.9178Z" fill="black"/>
<path d="M110.015 37.4077C110.285 37.4077 110.505 37.1884 110.505 36.9177C110.505 36.6471 110.285 36.4277 110.015 36.4277C109.744 36.4277 109.524 36.6471 109.524 36.9177C109.524 37.1884 109.744 37.4077 110.015 37.4077Z" fill="black"/>
<path d="M110.506 50.9837C110.426 50.9842 110.347 50.9642 110.277 50.9254C110.206 50.8865 110.148 50.8303 110.105 50.7621C109.236 49.3577 108.785 46.797 108.767 46.6894C108.751 46.5697 108.783 46.449 108.856 46.3524C108.927 46.2557 109.034 46.1905 109.153 46.1704C109.271 46.1503 109.393 46.1768 109.493 46.2444C109.593 46.312 109.663 46.4155 109.688 46.5333C109.688 46.5583 110.128 49.0191 110.903 50.2784C110.935 50.3309 110.956 50.3893 110.966 50.4502C110.975 50.511 110.972 50.5731 110.958 50.633C110.944 50.6929 110.918 50.7493 110.881 50.799C110.845 50.8487 110.799 50.8908 110.746 50.9228C110.673 50.964 110.59 50.985 110.506 50.9837Z" fill="black"/>
<path d="M34.8136 64.6937C34.7375 64.693 34.6627 64.6743 34.5951 64.6391C34.5407 64.6104 34.4924 64.5712 34.4532 64.5238C34.4139 64.4764 34.3843 64.4217 34.3661 64.3628C34.3481 64.3039 34.3417 64.2421 34.3476 64.1808C34.3534 64.1196 34.3712 64.06 34.4001 64.0056C37.1699 58.775 41.5781 55.4231 41.7701 55.2874C41.8694 55.2129 41.9943 55.1809 42.1172 55.1984C42.2401 55.216 42.3509 55.2817 42.4254 55.381C42.5 55.4803 42.532 55.6052 42.5144 55.7281C42.4968 55.851 42.4312 55.9619 42.3319 56.0364C42.2881 56.0692 37.8955 59.4038 35.2271 64.4441C35.1874 64.5193 35.1279 64.5824 35.055 64.6263C34.9822 64.6704 34.8987 64.6936 34.8136 64.6937Z" fill="black"/>
<path d="M29.5128 66.0185C29.4533 66.0186 29.3944 66.0069 29.3396 65.9841C29.2243 65.938 29.1321 65.848 29.0832 65.7338C29.0343 65.6198 29.0328 65.4908 29.0789 65.3756C31.9455 58.2084 36.5691 54.4353 36.7626 54.2777C36.8594 54.1999 36.9832 54.1638 37.1067 54.1772C37.2302 54.1907 37.3433 54.2526 37.4211 54.3495C37.4989 54.4463 37.535 54.5701 37.5216 54.6936C37.5082 54.8171 37.4462 54.9302 37.3493 55.008C37.304 55.0439 32.7179 58.7968 29.9482 65.7236C29.9135 65.8107 29.8534 65.8854 29.7758 65.938C29.6982 65.9905 29.6065 66.0186 29.5128 66.0185Z" fill="black"/>
<path d="M48.8826 53.1917C48.7923 53.1915 48.7039 53.1652 48.6283 53.116C48.5526 53.0668 48.4928 52.9967 48.456 52.9143C48.4192 52.8318 48.4071 52.7405 48.421 52.6513C48.435 52.562 48.4744 52.4788 48.5346 52.4115C48.7983 52.115 55.0885 45.1242 60.9745 43.2673C61.0332 43.2483 61.095 43.2411 61.1565 43.246C61.218 43.251 61.278 43.268 61.3328 43.2962C61.3878 43.3242 61.4367 43.3629 61.4766 43.4099C61.5165 43.4569 61.547 43.5113 61.5659 43.57C61.5848 43.6287 61.5921 43.6905 61.5871 43.752C61.5822 43.8135 61.5651 43.8735 61.537 43.9284C61.5089 43.9833 61.4703 44.0322 61.4232 44.0722C61.3763 44.1121 61.3218 44.1425 61.2631 44.1614C55.6159 45.9403 49.3024 52.9639 49.2384 53.0341C49.1938 53.0844 49.139 53.1244 49.0777 53.1516C49.0163 53.1788 48.9497 53.1925 48.8826 53.1917Z" fill="black"/>
<path d="M48.8826 68.9788C48.7898 68.9785 48.6992 68.9505 48.6224 68.8986C48.5455 68.8466 48.4858 68.773 48.4508 68.687C48.4159 68.6011 48.4073 68.5068 48.4261 68.4159C48.4449 68.3251 48.4902 68.2418 48.5564 68.1768C48.7531 67.9849 53.4656 63.4315 61.4941 60.2341C61.5516 60.2087 61.6137 60.1952 61.6766 60.1944C61.7395 60.1935 61.8019 60.2054 61.8601 60.2292C61.9183 60.2529 61.9711 60.2883 62.0154 60.3329C62.0597 60.3776 62.0945 60.4308 62.1178 60.4891C62.1411 60.5476 62.1524 60.6101 62.151 60.673C62.1496 60.7358 62.1355 60.7978 62.1096 60.8551C62.0837 60.9125 62.0466 60.964 62.0003 61.0066C61.9541 61.0492 61.8997 61.0822 61.8405 61.1033C53.9962 64.2242 49.2571 68.801 49.2103 68.8462C49.1226 68.9316 49.0049 68.9792 48.8826 68.9788Z" fill="black"/>
<path d="M84.3075 61.9536C84.205 61.9536 84.1042 61.9195 84.0227 61.8566C83.9406 61.7937 83.8818 61.7055 83.8553 61.6057C81.652 53.3135 86.6233 48.8834 86.8359 48.6993C86.8821 48.6589 86.9358 48.628 86.9946 48.6085C87.0526 48.589 87.1147 48.5811 87.1761 48.5854C87.2374 48.5896 87.297 48.6059 87.3525 48.6334C87.4071 48.6609 87.4566 48.6989 87.4969 48.7453C87.5373 48.7917 87.5675 48.8456 87.5877 48.9039C87.607 48.9623 87.6145 49.0238 87.6103 49.0852C87.6061 49.1466 87.5902 49.2065 87.5625 49.2616C87.5347 49.3167 87.4969 49.3657 87.4507 49.4061C87.4272 49.4249 86.2395 50.4828 85.3222 52.4693C84.0891 55.1376 83.9006 58.1305 84.7602 61.3638C84.7762 61.4233 84.7804 61.4852 84.772 61.5461C84.7636 61.607 84.7434 61.6658 84.7132 61.719C84.6821 61.7722 84.6409 61.8187 84.5922 61.8561C84.5435 61.8934 84.4872 61.9207 84.4276 61.9365C84.3889 61.9474 84.3486 61.9532 84.3075 61.9536Z" fill="black"/>
</svg>
