<svg width="168" height="168" viewBox="0 0 168 168" fill="none" xmlns="http://www.w3.org/2000/svg">
<path d="M122.767 131.936C122.767 131.936 127.523 131.035 129.027 132.539C130.533 134.041 130.747 135.345 133.004 136.098C135.261 136.853 136.341 137.245 136.525 137.997C136.71 138.75 134.683 139.068 134.683 139.068C134.683 139.068 136.945 140.047 136.951 140.989C136.961 142.419 109.864 143.99 103.466 143.999C93.1282 144.013 89.927 141.554 89.927 141.554C89.927 141.554 80.4968 139.522 80.6872 132.375C81.0746 117.768 103.658 111.831 100.271 104.121C99.4593 102.273 97.8894 100.825 95.8641 99.5669C93.5348 100.929 88.9022 102.503 80.1413 102.112C65.2333 101.448 52.9826 87.7212 49.6609 81.7457C47.7945 78.3841 46.9732 75.6708 47.1557 73.9548C47.3078 72.514 48.049 71.7505 48.4859 71.9153C48.8062 72.037 48.6556 72.6725 48.55 73.4425C48.4555 74.1388 48.6717 74.5374 48.8942 74.5214C49.0446 74.5102 49.1631 73.8235 49.4561 72.9207C49.8034 71.8593 50.4293 71.2847 50.9047 71.2958C51.3305 71.3071 51.0841 71.9714 50.8279 72.6437C50.551 73.3705 50.6983 74.1004 50.988 74.1164C51.2777 74.1324 51.4922 73.5273 52.1614 73.0503C52.949 72.4884 54.1575 72.6341 54.0951 73.2296C54.0503 73.657 53.5716 73.5978 53.061 73.9723C52.4111 74.4526 52.283 75.4931 53.0834 75.7476C54.5673 76.2198 53.8838 73.745 54.881 73.7915C55.8784 73.8379 55.158 76.7785 55.4621 78.4817C55.723 79.9337 57.9769 87.0988 68.1835 90.5209C72.7761 92.0615 75.7216 91.7742 77.6089 90.8242C75.7024 89.607 73.9591 88.195 72.5152 86.5015C66.4915 79.4022 58.9455 62.0209 74.8844 54.4861C89.0417 47.774 98.5202 70.5643 106.255 69.503C118.797 67.7837 137.769 61.8385 147.302 89.8221C155.502 113.897 122.767 131.936 122.767 131.936Z" fill="#8800FF"/>
<path d="M97.8751 86.8988C95.3568 88.499 96.3127 97.4106 91.8523 103.227C87.3928 109.042 80.2245 114.776 77.0374 115.413C73.8503 116.05 70.1444 113.906 69.6658 114.784C69.1872 115.661 72.4192 116.289 71.702 116.925C70.9849 117.563 69.8099 117.483 69.0767 116.651C68.5837 116.094 69.0928 115.355 68.518 115.34C67.8665 115.32 67.5576 116.631 67.9946 117.635C68.4172 118.604 68.8174 118.837 68.8174 118.989C68.8174 119.069 68.057 119.002 67.4039 118.488C66.8532 118.054 67.0261 117.487 66.5507 117.528C66.0753 117.568 66.0096 119.004 66.8373 119.86C67.5544 120.601 68.7117 120.742 68.7262 120.902C68.7406 121.062 67.9818 121.278 67.223 121.05C66.698 120.889 66.2401 120.317 65.928 120.545C65.651 120.75 66.0497 121.881 67.1735 122.579C68.2492 123.247 69.9764 123.38 71.4715 123.189C74.4601 122.793 98.1406 115.135 107.742 105.074C117.344 95.0132 97.8751 86.8988 97.8751 86.8988Z" fill="#8800FF"/>
<path d="M69.6258 116.338C69.5536 116.338 69.4822 116.322 69.4171 116.291C69.352 116.259 69.2947 116.214 69.2497 116.158L64.0888 109.643C64.0496 109.593 64.0205 109.536 64.0031 109.476C63.9858 109.415 63.9806 109.351 63.9878 109.289C63.9951 109.226 64.0145 109.166 64.0452 109.11C64.0758 109.056 64.117 109.007 64.1664 108.967C64.2158 108.929 64.2724 108.899 64.3331 108.882C64.3937 108.865 64.4572 108.86 64.5199 108.867C64.5825 108.874 64.6431 108.893 64.6982 108.924C64.7534 108.955 64.802 108.996 64.8411 109.045L70.0021 115.56C70.0579 115.631 70.0928 115.716 70.1026 115.806C70.1124 115.896 70.0968 115.986 70.0576 116.067C70.0184 116.148 69.957 116.217 69.8807 116.264C69.8043 116.313 69.7161 116.338 69.6258 116.338Z" fill="black"/>
<path d="M61.4868 73.1298C61.4248 73.1668 61.3553 73.1896 61.2834 73.1963C61.2112 73.2022 61.1387 73.1926 61.0712 73.1673L53.3018 70.215C53.2427 70.1925 53.1885 70.1584 53.1426 70.1153C53.0968 70.0722 53.0596 70.0201 53.0339 69.963C53.0079 69.9052 52.9936 69.8433 52.9916 69.7799C52.9899 69.7174 53.0003 69.6544 53.0225 69.5952C53.0452 69.5367 53.0787 69.4825 53.1218 69.4363C53.1653 69.3908 53.2172 69.3539 53.2745 69.3276C53.3321 69.302 53.3941 69.2876 53.4569 69.2853C53.5202 69.2837 53.583 69.2942 53.642 69.3167L61.4115 72.269C61.4957 72.301 61.5691 72.356 61.6235 72.4282C61.678 72.5003 61.7111 72.5863 61.7187 72.6756C61.7267 72.7657 61.7089 72.8555 61.6678 72.9357C61.6272 73.0167 61.5643 73.0836 61.4868 73.1298Z" fill="black"/>
<path d="M65.4926 117.262C65.416 117.262 65.3407 117.243 65.2729 117.208C65.205 117.172 65.1466 117.12 65.1026 117.058C65.0586 116.995 65.0302 116.923 65.0198 116.847C65.0094 116.772 65.0173 116.695 65.0428 116.622L68.1563 108.253C68.2007 108.133 68.2907 108.037 68.4066 107.984C68.5225 107.93 68.6547 107.926 68.7742 107.969C68.8938 108.014 68.9907 108.104 69.0439 108.22C69.097 108.336 69.1019 108.468 69.0576 108.588L65.9504 116.95C65.9157 117.043 65.8531 117.123 65.7711 117.179C65.6891 117.235 65.5918 117.264 65.4926 117.262Z" fill="black"/>
<path d="M58.41 76.0404C58.3438 76.0789 58.2696 76.1016 58.1933 76.106C58.1165 76.1098 58.0401 76.0957 57.9705 76.0648C57.9004 76.0333 57.839 75.9858 57.7914 75.9262C57.7437 75.8666 57.7109 75.7961 57.6958 75.721L56.0835 66.9384C56.0601 66.8126 56.088 66.6835 56.1604 66.5787C56.2324 66.4731 56.3438 66.4018 56.4688 66.3781C56.5943 66.3551 56.7236 66.3827 56.8286 66.455C56.9336 66.5274 57.0058 66.6388 57.0288 66.764L58.6431 75.5375C58.6611 75.6354 58.6481 75.736 58.6066 75.8263C58.5645 75.9159 58.4961 75.991 58.41 76.0404Z" fill="black"/>
<path d="M62.6192 113.636C62.4918 113.644 62.3666 113.601 62.2709 113.517C62.1753 113.432 62.1172 113.313 62.1094 113.186C62.1015 113.058 62.1446 112.933 62.2291 112.837C62.3136 112.741 62.4326 112.683 62.56 112.676L71.4107 111.566C71.538 111.55 71.6665 111.586 71.7678 111.665C71.8692 111.743 71.935 111.859 71.9509 111.986C71.9669 112.114 71.9315 112.242 71.8527 112.344C71.7739 112.445 71.6581 112.511 71.5307 112.527L62.68 113.638L62.6192 113.636Z" fill="black"/>
<path d="M54.0846 74.3975C53.9796 74.4699 53.8496 74.4966 53.7244 74.4734C53.5989 74.4495 53.4879 74.3768 53.4162 74.2719C53.344 74.1663 53.3169 74.0367 53.3405 73.9112C53.364 73.7857 53.4365 73.6749 53.542 73.6032L60.5754 68.117C60.6766 68.038 60.805 68.0025 60.9324 68.0185C61.0599 68.0344 61.1759 68.1002 61.2545 68.201C61.3336 68.3025 61.369 68.431 61.3534 68.5586C61.3374 68.6856 61.2719 68.8019 61.1707 68.8808L54.1377 74.3678L54.0846 74.3975Z" fill="black"/>
<path d="M63.5605 141.919C63.4846 141.919 63.4097 141.901 63.3421 141.867C63.2746 141.832 63.216 141.782 63.1715 141.721L59.7378 136.971C59.6632 136.868 59.6324 136.739 59.6526 136.613C59.6727 136.487 59.742 136.375 59.8451 136.3C59.9483 136.225 60.0769 136.195 60.2027 136.214C60.3284 136.235 60.4411 136.304 60.5159 136.408L63.9495 141.159C64.0238 141.261 64.0541 141.39 64.034 141.515C64.014 141.641 63.945 141.753 63.8423 141.827C63.7603 141.887 63.6617 141.919 63.5605 141.919Z" fill="black"/>
<path d="M59.3298 141.996C59.2659 141.996 59.2028 141.983 59.144 141.958C59.0852 141.934 59.0318 141.897 58.9872 141.852C58.9424 141.807 58.9068 141.754 58.8827 141.695C58.8584 141.637 58.8459 141.574 58.8459 141.511C58.8459 141.448 58.8584 141.385 58.8827 141.327C58.9068 141.269 58.9424 141.216 58.9872 141.171L64.0136 136.27C64.0581 136.224 64.1117 136.187 64.1708 136.161C64.23 136.135 64.2937 136.122 64.3581 136.122C64.4225 136.121 64.4863 136.135 64.5458 136.159C64.6052 136.184 64.659 136.22 64.7039 136.266C64.749 136.313 64.7842 136.367 64.8077 136.427C64.8311 136.487 64.8423 136.551 64.8404 136.616C64.8386 136.68 64.8239 136.744 64.797 136.802C64.7702 136.86 64.7319 136.913 64.6844 136.957L59.6723 141.86C59.627 141.904 59.5734 141.939 59.5146 141.962C59.4558 141.985 59.393 141.997 59.3298 141.996Z" fill="black"/>
<path d="M66.2675 139.737H66.2467L57.3991 139.353C57.3361 139.35 57.2742 139.335 57.2169 139.308C57.1597 139.282 57.1083 139.244 57.0656 139.197C57.023 139.151 56.99 139.096 56.9683 139.037C56.9467 138.978 56.937 138.915 56.9397 138.852C56.9425 138.789 56.9576 138.727 56.9842 138.67C57.0109 138.613 57.0486 138.561 57.0951 138.518C57.1417 138.476 57.1961 138.443 57.2554 138.421C57.3147 138.399 57.3777 138.39 57.4408 138.392L66.2883 138.776C66.4156 138.78 66.5367 138.833 66.6248 138.924C66.7129 139.017 66.7608 139.14 66.7581 139.267C66.7554 139.395 66.7021 139.516 66.6101 139.604C66.5181 139.692 66.3949 139.74 66.2675 139.737Z" fill="black"/>
<path d="M34.3479 148.676C34.272 148.676 34.1972 148.658 34.1296 148.624C34.0619 148.588 34.0035 148.539 33.959 148.478L30.5253 143.727C30.4568 143.623 30.431 143.497 30.4533 143.375C30.4756 143.253 30.5441 143.144 30.6446 143.072C30.745 142.999 30.8698 142.968 30.9925 142.986C31.1152 143.002 31.2266 143.067 31.3032 143.165L34.7369 147.914C34.7888 147.985 34.82 148.07 34.8268 148.158C34.8336 148.247 34.8159 148.335 34.7757 148.414C34.7355 148.493 34.6742 148.559 34.5987 148.605C34.5232 148.651 34.4364 148.676 34.3479 148.676Z" fill="black"/>
<path d="M30.1186 148.752C30.023 148.753 29.9294 148.724 29.85 148.672C29.7705 148.618 29.7088 148.542 29.6727 148.454C29.6366 148.365 29.6277 148.268 29.6473 148.174C29.6669 148.08 29.7139 147.995 29.7824 147.928L34.8089 143.02C34.9001 142.931 35.023 142.882 35.1505 142.884C35.2779 142.886 35.3995 142.938 35.4884 143.029C35.5774 143.12 35.6264 143.243 35.6247 143.37C35.6231 143.498 35.5709 143.62 35.4797 143.709L30.4532 148.623C30.3626 148.708 30.2427 148.754 30.1186 148.752Z" fill="black"/>
<path d="M37.0564 146.492H37.034L28.1865 146.108C28.1235 146.105 28.0615 146.09 28.0043 146.063C27.9471 146.037 27.8957 146 27.8531 145.953C27.8104 145.906 27.7773 145.852 27.7557 145.792C27.7341 145.733 27.7244 145.67 27.7271 145.607C27.7298 145.544 27.745 145.482 27.7716 145.425C27.7983 145.368 27.8359 145.316 27.8825 145.274C27.929 145.231 27.9834 145.197 28.0428 145.176C28.1021 145.155 28.1651 145.144 28.2281 145.148L37.0757 145.532C37.203 145.534 37.3241 145.587 37.4124 145.68C37.5006 145.771 37.5488 145.895 37.5462 146.021C37.5437 146.149 37.4907 146.27 37.3988 146.358C37.3069 146.446 37.1838 146.494 37.0564 146.492Z" fill="black"/>
<path d="M45.563 146.3C45.4868 146.3 45.4117 146.283 45.3437 146.248C45.2759 146.214 45.2171 146.163 45.1724 146.102L41.7435 141.353C41.7065 141.301 41.68 141.243 41.6653 141.182C41.6507 141.121 41.6483 141.057 41.6582 140.995C41.6682 140.933 41.6903 140.873 41.7233 140.819C41.7564 140.766 41.7997 140.718 41.8508 140.682C41.9018 140.645 41.9597 140.618 42.0211 140.603C42.0824 140.589 42.1461 140.587 42.2083 140.597C42.2707 140.606 42.3303 140.629 42.3841 140.661C42.4378 140.694 42.4845 140.738 42.5215 140.789L45.9552 145.54C46.0294 145.643 46.0598 145.771 46.0397 145.896C46.0196 146.022 45.9506 146.134 45.8479 146.209C45.7654 146.27 45.6654 146.302 45.563 146.3Z" fill="black"/>
<path d="M41.3321 146.382C41.2365 146.382 41.1429 146.354 41.0634 146.3C40.984 146.247 40.9223 146.172 40.8862 146.083C40.8501 145.994 40.8412 145.897 40.8607 145.804C40.8803 145.71 40.9273 145.624 40.9959 145.558L46.0224 140.655C46.0669 140.609 46.1204 140.572 46.1795 140.547C46.2387 140.521 46.3024 140.508 46.3668 140.508C46.4313 140.508 46.495 140.52 46.5545 140.545C46.6139 140.57 46.6677 140.607 46.7127 140.653C46.7577 140.698 46.793 140.753 46.8164 140.813C46.8398 140.873 46.851 140.938 46.8492 141.001C46.8473 141.066 46.8326 141.129 46.8057 141.188C46.7789 141.247 46.7406 141.299 46.6931 141.343L41.6666 146.246C41.5771 146.333 41.457 146.382 41.3321 146.382Z" fill="black"/>
<path d="M48.2698 144.118H48.249L39.3999 143.734C39.3368 143.732 39.2749 143.716 39.2177 143.69C39.1605 143.663 39.1091 143.626 39.0664 143.579C39.0238 143.532 38.9907 143.478 38.9691 143.418C38.9475 143.359 38.9378 143.296 38.9405 143.233C38.9432 143.17 38.9583 143.108 38.985 143.051C39.0117 142.994 39.0493 142.942 39.0958 142.9C39.1424 142.857 39.1969 142.824 39.2562 142.803C39.3155 142.781 39.3785 142.771 39.4415 142.774L48.2906 143.158C48.418 143.16 48.539 143.214 48.6272 143.306C48.7153 143.398 48.7632 143.522 48.7605 143.648C48.7577 143.776 48.7044 143.897 48.6124 143.985C48.5205 144.073 48.3972 144.121 48.2698 144.118Z" fill="black"/>
<path d="M87.9404 150.432C87.8648 150.432 87.7893 150.414 87.7221 150.379C87.654 150.345 87.596 150.294 87.5515 150.233L84.1176 145.484C84.0428 145.38 84.0126 145.252 84.0328 145.126C84.0529 145.001 84.1218 144.888 84.2251 144.813C84.3284 144.739 84.457 144.708 84.583 144.728C84.7081 144.748 84.8207 144.817 84.8954 144.92L88.326 149.67C88.363 149.721 88.3899 149.779 88.4041 149.84C88.4193 149.901 88.4218 149.965 88.4117 150.027C88.4016 150.09 88.3798 150.149 88.3462 150.203C88.3134 150.257 88.2697 150.304 88.2193 150.341C88.1378 150.399 88.0404 150.431 87.9404 150.432Z" fill="black"/>
<path d="M83.7094 150.509C83.6454 150.509 83.582 150.496 83.5231 150.471C83.4642 150.446 83.4111 150.409 83.3669 150.363C83.278 150.272 83.2289 150.149 83.2304 150.022C83.2319 149.895 83.2839 149.773 83.3749 149.685L88.4016 144.781C88.4923 144.692 88.6158 144.643 88.7426 144.645C88.8703 144.646 88.9921 144.698 89.0811 144.79C89.1702 144.881 89.2189 145.004 89.2172 145.132C89.2155 145.259 89.1635 145.38 89.0719 145.469L84.0453 150.373C83.9556 150.46 83.8349 150.509 83.7094 150.509Z" fill="black"/>
<path d="M90.6469 148.248H90.6267L81.779 147.864C81.7159 147.862 81.654 147.847 81.5968 147.82C81.5396 147.793 81.4881 147.755 81.4455 147.709C81.4029 147.663 81.3698 147.608 81.3482 147.549C81.3265 147.489 81.3168 147.427 81.3195 147.363C81.3223 147.3 81.3374 147.239 81.364 147.181C81.3908 147.124 81.4284 147.072 81.4749 147.029C81.5215 146.987 81.5759 146.954 81.6352 146.933C81.6946 146.911 81.7575 146.901 81.8206 146.903L90.6679 147.288C90.7956 147.291 90.9165 147.344 91.0047 147.436C91.0929 147.528 91.1408 147.651 91.1383 147.779C91.1349 147.906 91.082 148.027 90.9896 148.116C90.898 148.203 90.7746 148.252 90.6469 148.248Z" fill="black"/>
<path d="M73.8043 67.8374C74.5786 65.322 73.2515 62.681 70.84 61.9387C68.4285 61.1964 65.8458 62.6338 65.0715 65.1492C64.2972 67.6647 65.6244 70.3056 68.0359 71.0479C70.4473 71.7902 73.03 70.3529 73.8043 67.8374Z" fill="white"/>
<path d="M69.3344 71.7199C68.846 71.7195 68.3604 71.6461 67.8937 71.5022C65.2332 70.6842 63.7605 67.7692 64.6105 65.0047C65.4605 62.2401 68.3179 60.6569 70.98 61.483C73.6421 62.3089 75.1132 65.2175 74.2616 67.9805C73.8644 69.2999 72.9702 70.4134 71.7676 71.086C71.0238 71.5012 70.1863 71.7195 69.3344 71.7199ZM69.5441 62.2209C67.7704 62.2209 66.0992 63.4295 65.5277 65.2864C64.8314 67.5451 66.0192 69.9287 68.1738 70.585C68.6907 70.7429 69.2344 70.7938 69.7716 70.7346C70.3089 70.6754 70.8284 70.5074 71.2986 70.2408C72.2843 69.6882 73.0172 68.7746 73.3427 67.6923C74.0375 65.4337 72.8497 63.0581 70.6951 62.3938C70.3222 62.2792 69.9342 62.2209 69.5441 62.2209Z" fill="black"/>
<path d="M82.3709 68.7912C83.3281 65.6818 81.5251 62.3671 78.3438 61.3878C75.1626 60.4086 71.8077 62.1354 70.8505 65.2448C69.8934 68.3543 71.6963 71.6689 74.8776 72.6481C78.0588 73.6274 81.4137 71.9006 82.3709 68.7912Z" fill="white"/>
<path d="M76.682 73.3974C75.4981 73.3965 74.3361 73.0783 73.3169 72.4758C72.2977 71.8733 71.4587 71.0086 70.8872 69.9717C70.4824 69.2344 70.2303 68.423 70.1462 67.5861C70.062 66.7491 70.1474 65.9038 70.3974 65.1006C71.4299 61.7389 75.0605 59.8692 78.491 60.9258C81.9214 61.9822 83.8696 65.568 82.8354 68.9296C81.9902 71.651 79.4434 73.3974 76.682 73.3974ZM76.5348 61.5916C75.3728 61.5827 74.2385 61.9458 73.2977 62.6278C72.357 63.3099 71.6593 64.2751 71.3066 65.3823C71.0965 66.064 71.0257 66.7809 71.0986 67.4905C71.1715 68.2 71.3865 68.8876 71.7308 69.5123C72.433 70.8002 73.6133 71.7604 75.0172 72.1856C77.9403 73.0853 81.033 71.4973 81.9102 68.6463C82.7874 65.7953 81.1226 62.7426 78.1996 61.843C77.6602 61.6771 77.0991 61.5924 76.5348 61.5916Z" fill="black"/>
<path d="M66.6835 66.367C67.0611 66.367 67.3671 66.061 67.3671 65.6835C67.3671 65.306 67.0611 65 66.6835 65C66.306 65 66 65.306 66 65.6835C66 66.061 66.306 66.367 66.6835 66.367Z" fill="black"/>
<path d="M79.6836 69.367C80.0611 69.367 80.3671 69.061 80.3671 68.6835C80.3671 68.306 80.0611 68 79.6836 68C79.3061 68 79 68.306 79 68.6835C79 69.061 79.3061 69.367 79.6836 69.367Z" fill="black"/>
<path d="M80.5705 78.3715C81.1221 78.1604 81.2601 77.182 80.8789 76.1863C80.4977 75.1905 79.7415 74.5546 79.19 74.7657C78.6385 74.9768 78.5005 75.9553 78.8816 76.9509C79.2629 77.9467 80.019 78.5827 80.5705 78.3715Z" fill="black"/>
<path d="M93.7364 99.3191C93.6928 99.3182 93.6491 99.3124 93.6071 99.3014C85.6304 97.0603 77.7001 91.4802 77.6201 91.4239C77.5685 91.3878 77.5248 91.3416 77.4911 91.2878C77.4575 91.2341 77.4347 91.1753 77.4241 91.1123C77.4135 91.0501 77.4152 90.9871 77.4292 90.9249C77.4432 90.8636 77.4692 90.8057 77.5056 90.7536C77.5421 90.7024 77.5884 90.6587 77.6418 90.6251C77.6951 90.5915 77.7547 90.5688 77.8168 90.5579C77.8791 90.5478 77.9428 90.5495 78.0043 90.5629C78.0658 90.5772 78.124 90.6032 78.1755 90.6394C78.254 90.6956 86.0546 96.18 93.8633 98.3758C93.975 98.4077 94.0716 98.4782 94.1354 98.5748C94.1993 98.6723 94.2262 98.789 94.2102 98.9041C94.1942 99.0192 94.1371 99.125 94.0498 99.2006C93.9624 99.2771 93.8498 99.3191 93.7339 99.3191H93.7364Z" fill="black"/>
<path d="M93.5819 100.854C93.4912 100.854 93.4021 100.828 93.3257 100.779C93.2719 100.745 93.2257 100.701 93.1896 100.65C93.1535 100.598 93.1274 100.54 93.114 100.478C93.0997 100.417 93.098 100.353 93.109 100.291C93.1199 100.229 93.1426 100.169 93.177 100.116C93.9288 98.9318 94.5311 96.2615 95.1124 93.6793C96.175 88.9568 96.9318 86.0706 98.4732 85.8068C98.5967 85.7917 98.7202 85.8245 98.8193 85.8984C98.9184 85.9723 98.9856 86.0815 99.0058 86.2033C99.0268 86.3251 98.999 86.4503 98.9302 86.5528C98.8604 86.6552 98.7546 86.7266 98.6336 86.7527C97.6206 86.9274 96.7126 90.9518 96.0515 93.891C95.424 96.6747 94.8318 99.3048 93.9918 100.63C93.9481 100.699 93.8876 100.756 93.8154 100.795C93.744 100.834 93.6634 100.855 93.5819 100.854Z" fill="black"/>
<path d="M92.3647 115.751C92.2547 115.751 92.1471 115.713 92.0615 115.642C91.9758 115.572 91.917 115.475 91.8951 115.366C91.8733 115.258 91.8893 115.146 91.9405 115.047C91.9926 114.95 92.0757 114.873 92.1774 114.829C92.2782 114.786 102.315 110.507 106.851 105.304C106.893 105.257 106.944 105.218 107.001 105.191C107.057 105.162 107.119 105.146 107.183 105.142C107.246 105.139 107.309 105.147 107.37 105.168C107.429 105.188 107.485 105.221 107.533 105.263C107.58 105.305 107.618 105.356 107.647 105.412C107.675 105.47 107.691 105.532 107.695 105.595C107.698 105.659 107.69 105.722 107.669 105.782C107.649 105.842 107.616 105.897 107.574 105.945C102.893 111.312 92.972 115.55 92.5503 115.721C92.4915 115.744 92.4285 115.755 92.3647 115.751Z" fill="black"/>
<path d="M89.9161 141.642C89.8321 141.642 89.7498 141.62 89.6776 141.578C87.3079 140.212 85.7934 137.56 85.6254 134.481C85.5347 132.717 85.8875 130.957 86.651 129.363C87.4146 127.769 88.5646 126.392 89.9976 125.357C90.1001 125.282 90.2294 125.251 90.3554 125.27C90.4814 125.289 90.594 125.358 90.6696 125.461C90.7452 125.564 90.7763 125.693 90.757 125.819C90.7376 125.945 90.6688 126.058 90.5654 126.134C89.2609 127.074 88.2134 128.328 87.5179 129.778C86.8224 131.229 86.5015 132.83 86.5847 134.437C86.735 137.19 88.0698 139.551 90.1555 140.754C90.2479 140.806 90.3193 140.887 90.3596 140.986C90.4008 141.083 90.4075 141.191 90.3798 141.294C90.3529 141.396 90.2924 141.486 90.2084 141.551C90.1244 141.615 90.022 141.65 89.9161 141.65V141.642Z" fill="black"/>
<path d="M134.153 139.465H134.091C131.021 139.062 129.734 137.896 128.597 136.867C128.062 136.387 127.557 135.925 126.895 135.577C126.104 135.159 125.285 135.374 124.044 135.697C122.936 136.014 121.797 136.214 120.648 136.297C117.415 136.482 112.531 135.468 112.323 135.425C112.211 135.401 112.111 135.338 112.042 135.248C111.972 135.157 111.937 135.044 111.943 134.929C111.948 134.815 111.996 134.707 112.074 134.623C112.153 134.541 112.259 134.489 112.373 134.477C116.445 134.056 122.519 131.519 122.583 131.494C122.641 131.47 122.703 131.458 122.766 131.457C122.829 131.457 122.892 131.468 122.95 131.493C123.009 131.516 123.062 131.552 123.107 131.596C123.152 131.64 123.188 131.693 123.212 131.751C123.236 131.809 123.249 131.872 123.25 131.935C123.25 131.998 123.238 132.06 123.214 132.119C123.19 132.177 123.155 132.23 123.111 132.275C123.067 132.32 123.014 132.355 122.956 132.38C122.754 132.466 118.889 134.082 115.195 134.954C116.855 135.201 118.974 135.434 120.596 135.342C121.681 135.262 122.753 135.069 123.798 134.765C125.098 134.428 126.22 134.135 127.341 134.725C128.108 135.13 128.683 135.651 129.239 136.155C130.321 137.134 131.44 138.147 134.213 138.511C134.34 138.519 134.459 138.578 134.543 138.674C134.627 138.77 134.67 138.895 134.661 139.023C134.653 139.149 134.595 139.269 134.499 139.353C134.403 139.437 134.277 139.48 134.15 139.471L134.153 139.465Z" fill="black"/>
<path d="M62.6208 100.412C62.5571 100.413 62.494 100.4 62.4352 100.376C57.6745 98.3909 55.6447 94.8848 55.5615 94.7361C55.5299 94.6806 55.5095 94.6201 55.5013 94.558C55.4932 94.495 55.4975 94.4311 55.514 94.3698C55.5305 94.3093 55.5588 94.2522 55.5975 94.2018C55.6361 94.1514 55.6843 94.1094 55.7391 94.0783C55.794 94.0464 55.8545 94.0263 55.9173 94.0179C55.98 94.0095 56.0438 94.0137 56.1048 94.0305C56.1659 94.0473 56.2232 94.0758 56.2734 94.1145C56.3234 94.1531 56.3655 94.201 56.397 94.2556C56.4162 94.2892 58.3612 97.6299 62.8002 99.4821C62.9026 99.5249 62.9872 99.6014 63.0395 99.6996C63.0917 99.7979 63.1084 99.9105 63.0867 100.02C63.065 100.128 63.0062 100.226 62.9204 100.297C62.8346 100.367 62.7271 100.406 62.616 100.406L62.6208 100.412Z" fill="black"/>
<path d="M57.4679 100.854C57.37 100.854 57.2745 100.824 57.1942 100.767C50.4005 96.0515 47.8536 88.7981 47.7496 88.4924C47.7071 88.3722 47.7142 88.2404 47.7693 88.1253C47.8244 88.0102 47.9229 87.9212 48.0433 87.8792C48.1637 87.8363 48.296 87.843 48.4111 87.8985C48.5262 87.9539 48.6148 88.0522 48.6573 88.1723C48.6829 88.2446 51.2185 95.44 57.7416 99.9701C57.826 100.028 57.8896 100.112 57.923 100.21C57.9565 100.306 57.9581 100.411 57.9274 100.509C57.8968 100.607 57.8358 100.693 57.753 100.753C57.6704 100.813 57.5704 100.846 57.4679 100.846V100.854Z" fill="black"/>
<path d="M149.594 83.5627C149.501 83.5624 149.409 83.5347 149.331 83.4829C149.252 83.4311 149.191 83.3575 149.154 83.2713C146.331 76.6825 141.062 72.6565 141.009 72.6165C140.957 72.5792 140.913 72.5319 140.88 72.4773C140.846 72.4227 140.823 72.362 140.813 72.2986C140.804 72.2353 140.807 72.1706 140.823 72.1084C140.839 72.0463 140.866 71.9879 140.905 71.9366C140.944 71.8855 140.992 71.8426 141.048 71.8104C141.103 71.7782 141.165 71.7575 141.228 71.7493C141.291 71.7412 141.356 71.7459 141.417 71.7632C141.48 71.7804 141.537 71.8099 141.587 71.8498C141.811 72.0179 147.108 76.0614 150.036 82.8951C150.061 82.9531 150.074 83.0155 150.075 83.0786C150.075 83.1417 150.064 83.2043 150.041 83.2629C150.017 83.3215 149.982 83.3748 149.938 83.4199C149.894 83.465 149.841 83.5011 149.783 83.5259C149.723 83.5512 149.659 83.5638 149.594 83.5627Z" fill="black"/>
<path d="M156.047 89.6263C155.935 89.6263 155.826 89.5868 155.74 89.5154C155.654 89.444 155.596 89.3441 155.575 89.234C154.057 80.6203 149.303 75.7875 149.255 75.7331C149.17 75.6421 149.124 75.5217 149.126 75.3973C149.129 75.2729 149.179 75.1542 149.266 75.0662C149.355 74.9782 149.473 74.9278 149.598 74.9256C149.722 74.9233 149.843 74.9696 149.933 75.0544C150.138 75.2577 154.947 80.1385 156.521 89.0677C156.532 89.1298 156.531 89.1937 156.517 89.255C156.503 89.3172 156.478 89.3751 156.442 89.4272C156.405 89.4793 156.358 89.523 156.306 89.5566C156.252 89.591 156.192 89.6137 156.13 89.6246C156.102 89.628 156.075 89.628 156.047 89.6263Z" fill="black"/>
</svg>
