<svg width="168" height="168" viewBox="0 0 168 168" fill="none" xmlns="http://www.w3.org/2000/svg">
<rect width="168" height="168" rx="5" fill="white"/>
<path d="M65.9929 59.6207C68.1811 63.248 72.5389 70.5848 72.1139 75.7909C71.6486 81.4978 66.4721 84.6384 62.4509 87.2978C62.4106 108.325 66.7187 108.863 65.5308 120.553C64.6747 128.986 58.3491 144.846 58.3491 146.141C58.3491 147.436 66.7962 149.998 66.7001 151.688C66.6644 152.29 51.8341 152.597 51.8357 151.688C51.8357 149.716 50.0647 127.157 50.0647 127.157C50.0647 127.157 45.7131 136.02 42.1634 138.921C38.6136 141.821 33.7891 145.687 33.4634 146.493C33.1377 147.3 40.2869 150.06 40.2869 151.801C40.2869 152.546 24.4238 152.384 24.444 151.688C24.4952 149.969 32.198 134.234 32.6632 129.898C33.2836 124.091 26.9764 114.913 28.1039 104.93C29.0002 97.0023 29.2143 91.7145 28.8622 83.5898C26.6353 82.1553 25.5063 79.2476 25.3047 76.1692C24.9682 71.0439 26.8555 65.5944 29.1042 62.1222C30.6146 51.2744 34.5599 39.1363 42.3309 30.4937C54.0564 17.4469 62.6556 18.4704 67.6724 21.5922C81.0124 29.8998 71.5634 41.7525 65.9929 59.6207Z" fill="#8800FF"/>
<path d="M143.028 88.8871H84.0874C83.9642 88.8871 83.8459 88.8384 83.7586 88.751C83.6713 88.6637 83.6223 88.5452 83.6223 88.4217V40.6667C83.6223 40.5433 83.6713 40.4251 83.7586 40.3378C83.8459 40.2505 83.9642 40.2015 84.0874 40.2015C84.2108 40.2015 84.3293 40.2505 84.4166 40.3378C84.504 40.4251 84.5527 40.5433 84.5527 40.6667V87.9564H143.028C143.152 87.9564 143.27 88.0059 143.358 88.0933C143.445 88.1798 143.494 88.2983 143.494 88.4217C143.494 88.5452 143.445 88.6637 143.358 88.751C143.27 88.8384 143.152 88.8871 143.028 88.8871Z" fill="black"/>
<path d="M86.6897 55.1143H84.0874C83.9642 55.1143 83.8459 55.0653 83.7586 54.9781C83.6713 54.8908 83.6223 54.7724 83.6223 54.649C83.6223 54.5257 83.6713 54.4074 83.7586 54.3201C83.8459 54.2328 83.9642 54.1838 84.0874 54.1838H86.6897C86.8132 54.1838 86.9316 54.2328 87.019 54.3201C87.1063 54.4074 87.155 54.5257 87.155 54.649C87.155 54.7724 87.1063 54.8908 87.019 54.9781C86.9316 55.0653 86.8132 55.1143 86.6897 55.1143Z" fill="black"/>
<path d="M86.6897 63.6279H84.0874C83.9642 63.6279 83.8459 63.5789 83.7586 63.4916C83.6713 63.4044 83.6223 63.2861 83.6223 63.1627C83.6223 63.0393 83.6713 62.9209 83.7586 62.8337C83.8459 62.7464 83.9642 62.6974 84.0874 62.6974H86.6897C86.8132 62.6974 86.9316 62.7464 87.019 62.8337C87.1063 62.9209 87.155 63.0393 87.155 63.1627C87.155 63.2861 87.1063 63.4044 87.019 63.4916C86.9316 63.5789 86.8132 63.6279 86.6897 63.6279Z" fill="black"/>
<path d="M86.6897 72.148H84.0874C83.9642 72.148 83.8459 72.099 83.7586 72.0118C83.6713 71.9245 83.6223 71.8062 83.6223 71.6828C83.6223 71.5594 83.6713 71.4411 83.7586 71.3538C83.8459 71.2666 83.9642 71.2175 84.0874 71.2175H86.6897C86.8132 71.2175 86.9316 71.2666 87.019 71.3538C87.1063 71.4411 87.155 71.5594 87.155 71.6828C87.155 71.8062 87.1063 71.9245 87.019 72.0118C86.9316 72.099 86.8132 72.148 86.6897 72.148Z" fill="black"/>
<path d="M86.6897 80.6525H84.0874C83.9642 80.6525 83.8459 80.6035 83.7586 80.5163C83.6713 80.4291 83.6223 80.3107 83.6223 80.1873C83.6223 80.0639 83.6713 79.9456 83.7586 79.8583C83.8459 79.7711 83.9642 79.722 84.0874 79.722H86.6897C86.8132 79.722 86.9316 79.7711 87.019 79.8583C87.1063 79.9456 87.155 80.0639 87.155 80.1873C87.155 80.3107 87.1063 80.4291 87.019 80.5163C86.9316 80.6035 86.8132 80.6525 86.6897 80.6525Z" fill="black"/>
<path d="M86.6897 46.602H84.0874C83.9642 46.602 83.8459 46.553 83.7586 46.4657C83.6713 46.3785 83.6223 46.2601 83.6223 46.1368C83.6223 46.0134 83.6713 45.895 83.7586 45.8078C83.8459 45.7206 83.9642 45.6715 84.0874 45.6715H86.6897C86.8132 45.6715 86.9316 45.7206 87.019 45.8078C87.1063 45.895 87.155 46.0134 87.155 46.1368C87.155 46.2601 87.1063 46.3785 87.019 46.4657C86.9316 46.553 86.8132 46.602 86.6897 46.602Z" fill="black"/>
<path d="M84.0874 88.4226C84.0874 88.4226 85.2071 86.1504 86.6897 86.0698C88.1723 85.9891 88.1723 87.1349 89.4071 86.8711C90.641 86.6082 90.2395 83.3666 92.2278 83.345C94.1892 83.3248 93.8146 85.7984 95.2258 86.0698C96.637 86.3411 97.1872 84.4679 98.5984 84.3797C100.01 84.2906 100.602 86.3486 102.01 85.8606C103.418 85.3717 103.651 78.1715 105.608 78.2289C107.846 78.2941 106.095 85.1206 111.055 83.8459C118.21 82.0051 117.568 15.8373 124.115 15.8373C131.33 15.8373 126.409 85.4818 136.819 88.4226H84.0874Z" fill="white"/>
<path d="M136.823 88.8871H84.0958C84.016 88.8871 83.9383 88.8669 83.8692 88.8291C83.8 88.7905 83.7418 88.735 83.7 88.6678C83.6582 88.6006 83.6343 88.5234 83.6305 88.4444C83.6267 88.3654 83.6431 88.2865 83.6782 88.2159C83.8054 87.9589 84.9668 85.6976 86.6729 85.606C87.3046 85.5607 87.9295 85.7589 88.4192 86.1613C88.7292 86.383 88.9014 86.5057 89.3172 86.4166C89.5927 86.3578 89.7994 85.7505 89.9825 85.2137C90.316 84.2351 90.7712 82.8951 92.2312 82.8796C93.613 82.8687 94.1044 83.8706 94.4622 84.6039C94.7461 85.1827 94.9385 85.5346 95.3215 85.6136C95.818 85.7085 96.1699 85.4153 96.7016 84.9281C97.1947 84.4771 97.755 83.9667 98.5765 83.9155C99.43 83.8613 100.011 84.3805 100.524 84.8349C101.067 85.3187 101.397 85.5842 101.869 85.4212C102.262 85.2851 102.731 83.4271 103.013 82.3198C103.606 79.9781 104.166 77.765 105.591 77.765H105.631C106.872 77.8008 107.194 79.1391 107.512 80.4325C107.782 81.5382 108.09 82.7912 108.922 83.2891C109.415 83.5852 110.079 83.6193 110.949 83.396C111.92 83.1463 113.373 80.9768 114.795 72.0551C115.849 65.4394 116.656 56.7239 117.431 48.2953C119.315 27.8822 120.649 15.3719 124.118 15.3719C125.95 15.3719 127.096 18.2595 127.949 25.0303C128.659 30.6752 129.061 38.2865 129.487 46.3459C130.432 64.2205 131.607 86.4662 136.948 87.974C137.056 88.0042 137.15 88.0723 137.212 88.1663C137.274 88.2604 137.3 88.3738 137.284 88.4855C137.269 88.5973 137.213 88.6989 137.128 88.7728C137.043 88.8467 136.935 88.8879 136.823 88.8871ZM84.9047 87.9572H135.186C130.515 83.4302 129.521 64.6299 128.558 46.3956C128.134 38.3532 127.731 30.7574 127.025 25.1497C126.055 17.4546 124.788 16.3101 124.118 16.3101C123.448 16.3101 122.165 17.5664 120.829 25.984C119.867 32.0322 119.132 39.9769 118.348 48.3868C117.572 56.8309 116.76 65.5619 115.701 72.2086C114.444 80.0898 113.046 83.8209 111.167 84.3049C110.043 84.593 109.151 84.5249 108.431 84.0957C107.264 83.3976 106.909 81.9445 106.594 80.662C106.298 79.4524 106.083 78.7173 105.591 78.7033C104.885 78.7033 104.299 81.0202 103.91 82.5555C103.369 84.6988 102.993 86.026 102.168 86.3116C101.159 86.6602 100.462 86.0403 99.9012 85.5363C99.4703 85.1516 99.0948 84.8181 98.6311 84.8492C98.1347 84.8803 97.7424 85.2398 97.3249 85.6245C96.7604 86.1411 96.122 86.7257 95.1401 86.5367C94.2841 86.3704 93.9322 85.6556 93.623 85.0231C93.2434 84.2477 93.0031 83.8085 92.2354 83.8193C91.4676 83.8303 91.2164 84.4678 90.8586 85.5254C90.5839 86.3335 90.2983 87.1693 89.5079 87.3381C88.6889 87.5137 88.2361 87.1827 87.8732 86.929C87.5633 86.7073 87.2962 86.5166 86.7174 86.5468C86.0152 86.5703 85.3406 87.3213 84.9047 87.9572Z" fill="black"/>
<path d="M121.908 78.1961C121.506 78.1961 121.113 78.0768 120.778 77.8533C120.443 77.6296 120.183 77.3119 120.028 76.9401C119.875 76.5683 119.834 76.1592 119.913 75.7645C119.991 75.3699 120.186 75.0073 120.469 74.7227C120.754 74.4382 121.117 74.2444 121.511 74.1659C121.906 74.0874 122.315 74.1277 122.687 74.2817C123.059 74.4357 123.377 74.6965 123.6 75.0311C123.824 75.3657 123.943 75.759 123.943 76.1615C123.943 76.7009 123.728 77.2183 123.346 77.5997C122.965 77.9812 122.448 78.1957 121.908 78.1961ZM121.908 75.0588C121.69 75.0588 121.477 75.1237 121.295 75.2451C121.113 75.3664 120.972 75.539 120.888 75.7408C120.805 75.9427 120.783 76.1648 120.826 76.3791C120.868 76.5933 120.973 76.79 121.128 76.9444C121.283 77.0987 121.48 77.2038 121.694 77.2462C121.908 77.2886 122.13 77.2665 122.332 77.1827C122.534 77.0989 122.706 76.9571 122.827 76.7754C122.948 76.5936 123.013 76.3799 123.013 76.1615C123.012 75.8692 122.895 75.5891 122.688 75.3827C122.481 75.1763 122.201 75.0604 121.908 75.0604V75.0588Z" fill="black"/>
<path d="M81.4916 150.391C80.9746 150.391 80.4536 150.373 79.9284 150.34C76.4701 150.115 72.818 149.153 69.0729 147.481C65.1443 145.706 61.4765 143.404 58.1707 140.638C58.125 140.597 58.0878 140.548 58.0611 140.493C58.0345 140.437 58.019 140.377 58.0154 140.316C58.0119 140.256 58.0204 140.194 58.0405 140.136C58.0607 140.078 58.092 140.025 58.1328 139.979C58.1734 139.934 58.2228 139.896 58.2779 139.87C58.333 139.843 58.3929 139.827 58.454 139.824C58.5151 139.821 58.5764 139.829 58.6342 139.849C58.692 139.869 58.7453 139.9 58.7911 139.941C62.03 142.651 65.6245 144.906 69.4745 146.642C72.7808 148.114 77.0098 149.433 81.5117 149.433C85.0021 149.465 88.4411 148.591 91.4928 146.897C101.272 141.435 97.792 133.276 94.4252 125.388C92.5646 121.021 90.8023 116.897 91.2584 113.302C92.1329 106.402 101.767 101.553 109.508 97.6559C113.317 95.739 116.606 94.0892 118.193 92.5504C122.876 87.9992 121.47 76.3386 121.45 76.2223C121.442 76.1612 121.446 76.0992 121.462 76.0399C121.479 75.9805 121.507 75.9249 121.545 75.8763C121.582 75.8277 121.629 75.7871 121.683 75.7566C121.736 75.7262 121.796 75.7066 121.856 75.6989C121.918 75.6913 121.98 75.6958 122.039 75.7121C122.098 75.7284 122.154 75.7563 122.202 75.7941C122.251 75.8319 122.291 75.8789 122.322 75.9324C122.353 75.9859 122.372 76.0449 122.38 76.106C122.442 76.6023 123.86 88.3436 118.842 93.2173C117.163 94.8486 113.813 96.5345 109.935 98.49C102.392 102.288 93.0031 107.019 92.1908 113.423C91.7675 116.767 93.4794 120.779 95.2921 125.026C98.6555 132.908 102.467 141.841 91.9582 147.712C88.7594 149.496 85.1533 150.418 81.4916 150.391Z" fill="black"/>
<path d="M60.0503 117.143H44.6075V152.242H60.0503V117.143Z" fill="white"/>
<path d="M60.0488 152.707H44.6075C44.4842 152.707 44.3659 152.658 44.2786 152.571C44.1913 152.484 44.1423 152.365 44.1423 152.242V117.143C44.1423 117.02 44.1913 116.901 44.2786 116.814C44.3659 116.726 44.4842 116.678 44.6075 116.678H60.0488C60.1722 116.678 60.2906 116.726 60.3778 116.814C60.465 116.901 60.5141 117.02 60.5141 117.143V152.242C60.5141 152.365 60.465 152.484 60.3778 152.571C60.2906 152.658 60.1722 152.707 60.0488 152.707ZM45.0728 151.777H59.5836V117.608H45.0728V151.777Z" fill="black"/>
<path d="M53.7665 95.8843H50.8882V117.143H53.7665V95.8843Z" fill="white"/>
<path d="M53.7681 117.608H50.8882C50.7648 117.608 50.6465 117.559 50.5593 117.472C50.472 117.385 50.4229 117.267 50.4229 117.143V95.8843C50.4229 95.7608 50.472 95.6432 50.5593 95.5559C50.6465 95.4685 50.7648 95.4198 50.8882 95.4198H53.7681C53.8915 95.4198 54.0097 95.4685 54.097 95.5559C54.1843 95.6432 54.2333 95.7608 54.2333 95.8843V117.143C54.2333 117.267 54.1843 117.385 54.097 117.472C54.0097 117.559 53.8915 117.608 53.7681 117.608ZM51.3535 116.678H53.3028V96.3497H51.3535V116.678Z" fill="black"/>
<path d="M65.0965 92.2942H39.972V95.8827H65.0965V92.2942Z" fill="white"/>
<path d="M65.0965 96.3496H39.9736C39.8503 96.3496 39.7319 96.3009 39.6446 96.2136C39.5574 96.1262 39.5084 96.0078 39.5084 95.8843V92.2941C39.5084 92.1706 39.5574 92.053 39.6446 91.9657C39.7319 91.8783 39.8503 91.8296 39.9736 91.8296H65.0965C65.2199 91.8296 65.3382 91.8783 65.4255 91.9657C65.5127 92.053 65.5617 92.1706 65.5617 92.2941V95.8843C65.5617 96.0078 65.5127 96.1262 65.4255 96.2136C65.3382 96.3009 65.2199 96.3496 65.0965 96.3496ZM40.4389 95.4189H64.6313V92.7595H40.4389V95.4189Z" fill="black"/>
<path d="M60.0488 127.468H44.6075C44.4842 127.468 44.3659 127.419 44.2786 127.332C44.1913 127.245 44.1423 127.126 44.1423 127.003C44.1423 126.879 44.1913 126.761 44.2786 126.674C44.3659 126.586 44.4842 126.538 44.6075 126.538H60.0488C60.1722 126.538 60.2906 126.586 60.3778 126.674C60.465 126.761 60.5141 126.879 60.5141 127.003C60.5141 127.126 60.465 127.245 60.3778 127.332C60.2906 127.419 60.1722 127.468 60.0488 127.468Z" fill="black"/>
<path d="M60.0488 130.26H44.6075C44.4842 130.26 44.3659 130.21 44.2786 130.123C44.1913 130.036 44.1423 129.918 44.1423 129.794C44.1423 129.671 44.1913 129.552 44.2786 129.465C44.3659 129.378 44.4842 129.329 44.6075 129.329H60.0488C60.1722 129.329 60.2906 129.378 60.3778 129.465C60.465 129.552 60.5141 129.671 60.5141 129.794C60.5141 129.918 60.465 130.036 60.3778 130.123C60.2906 130.21 60.1722 130.26 60.0488 130.26Z" fill="black"/>
<path d="M52.5335 123.884C52.1753 123.884 51.8251 123.778 51.5272 123.579C51.2293 123.38 50.9972 123.097 50.8601 122.766C50.723 122.435 50.6871 122.07 50.757 121.719C50.8269 121.368 50.9994 121.046 51.2528 120.792C51.506 120.538 51.8288 120.366 52.1802 120.296C52.5315 120.227 52.8957 120.262 53.2267 120.4C53.5577 120.537 53.8406 120.768 54.0396 121.067C54.2386 121.364 54.3449 121.714 54.3449 122.073C54.3445 122.553 54.1535 123.014 53.8139 123.353C53.4743 123.693 53.0138 123.884 52.5335 123.884ZM52.5335 121.192C52.3593 121.192 52.189 121.244 52.0441 121.341C51.8993 121.437 51.7864 121.575 51.7197 121.735C51.6531 121.897 51.6356 122.074 51.6697 122.244C51.7036 122.416 51.7875 122.573 51.9107 122.695C52.0339 122.819 52.1908 122.903 52.3617 122.937C52.5326 122.971 52.7097 122.953 52.8706 122.887C53.0316 122.82 53.1691 122.707 53.2659 122.562C53.3628 122.417 53.4144 122.247 53.4144 122.073C53.414 121.839 53.321 121.615 53.156 121.451C52.9908 121.285 52.767 121.193 52.5335 121.192Z" fill="black"/>
<path d="M58.1676 35.6037C58.1485 35.6052 58.1293 35.6052 58.1102 35.6037L52.7801 34.9291C52.6567 34.9136 52.5445 34.8499 52.4682 34.7517C52.3918 34.6536 52.3576 34.5291 52.373 34.4057C52.3884 34.2823 52.4523 34.1701 52.5504 34.0937C52.6486 34.0173 52.773 33.9832 52.8964 33.9986L57.372 34.5646L55.1156 29.9479C55.0658 29.8377 55.0608 29.7123 55.1019 29.5984C55.143 29.4845 55.2267 29.3912 55.3355 29.3381C55.4443 29.285 55.5694 29.2765 55.6844 29.3142C55.7994 29.3518 55.8953 29.4329 55.9515 29.5401L58.5878 34.9306C58.6223 35.0016 58.6381 35.0801 58.6338 35.1588C58.6296 35.2375 58.6055 35.314 58.5635 35.3808C58.5217 35.4476 58.4636 35.5026 58.3945 35.5409C58.3256 35.579 58.248 35.5991 58.1692 35.599L58.1676 35.6037Z" fill="black"/>
<path d="M65.3958 39.7707C65.3029 39.7704 65.2122 39.7424 65.1354 39.6901L59.7432 36.0146C59.6707 35.965 59.6138 35.8958 59.579 35.8151C59.5442 35.7344 59.533 35.6455 59.5466 35.5588C59.5603 35.4719 59.5982 35.3908 59.656 35.3246C59.7139 35.2585 59.7893 35.2101 59.8735 35.185L65.2703 33.5908C65.3869 33.5608 65.5107 33.5773 65.6155 33.6368C65.7203 33.6962 65.7979 33.794 65.8321 33.9095C65.8662 34.025 65.8542 34.1493 65.7986 34.2562C65.743 34.363 65.6481 34.4442 65.5339 34.4825L61.0831 35.7976L65.6641 38.9209C65.7465 38.9769 65.8087 39.058 65.8416 39.1519C65.8745 39.246 65.8762 39.3482 65.8468 39.4433C65.8172 39.5384 65.7579 39.6216 65.6776 39.6806C65.5973 39.7395 65.5002 39.7711 65.4006 39.7707H65.3958Z" fill="black"/>
<path d="M48.1975 44.9316C50.9595 41.937 49.5157 38.4834 49.5157 38.4834C56.8153 39.7442 64.301 43.9562 64.301 43.9562C64.301 43.9562 61.3932 46.1955 60.3868 50.4943C60.3868 50.4943 57.1533 47.5881 53.8735 46.3072C50.5935 45.0262 48.1975 44.9316 48.1975 44.9316Z" fill="white"/>
<path d="M60.3868 50.9596C60.2723 50.9593 60.1618 50.9167 60.0767 50.8401C60.0456 50.8122 56.865 47.9743 53.706 46.7382C50.5471 45.5023 48.2038 45.3968 48.1806 45.3953C48.0919 45.3918 48.0063 45.3631 47.9334 45.3126C47.8606 45.262 47.8038 45.1917 47.7695 45.1099C47.7352 45.0278 47.7251 44.9375 47.7405 44.8498C47.7559 44.7621 47.7961 44.6807 47.8564 44.6152C50.3873 41.8719 49.0971 38.6943 49.0893 38.6633C49.0573 38.5865 49.0466 38.5025 49.0581 38.4202C49.0696 38.3378 49.103 38.26 49.1548 38.195C49.2066 38.1299 49.2748 38.0799 49.3525 38.0501C49.4302 38.0204 49.5144 38.0121 49.5964 38.0259C56.8851 39.2836 64.4545 43.5079 64.5306 43.5514C64.5975 43.5892 64.6541 43.6428 64.6953 43.7079C64.7365 43.7728 64.7608 43.8469 64.7663 43.9236C64.7718 44.0002 64.7582 44.077 64.7269 44.147C64.6955 44.2172 64.6472 44.2783 64.5864 44.3253C64.5585 44.3469 61.7949 46.5274 60.8412 50.5997C60.8231 50.6781 60.7851 50.7504 60.7307 50.8097C60.6764 50.8689 60.6076 50.9131 60.5311 50.9378C60.4844 50.9523 60.4357 50.9596 60.3868 50.9596ZM49.1079 44.5532C50.7991 44.796 52.4556 45.2385 54.0426 45.8714C56.5765 46.8639 59.0407 48.7621 60.1248 49.66C60.7485 47.5321 61.9083 45.6001 63.4931 44.0492C61.6833 43.097 55.9237 40.2265 50.1826 39.0867C50.4082 40.0214 50.429 40.994 50.2435 41.9376C50.058 42.8811 49.6706 43.7734 49.1079 44.5532Z" fill="black"/>
<path d="M61.9345 47.2081C61.8343 47.2078 61.737 47.1752 61.6569 47.1152C61.5902 47.0655 54.9373 42.1418 49.7902 42.3806C49.6668 42.3863 49.5462 42.3429 49.4548 42.2596C49.3635 42.1765 49.309 42.0605 49.3033 41.9371C49.2975 41.8137 49.341 41.693 49.4242 41.6017C49.5073 41.5103 49.6234 41.4558 49.7468 41.4501C55.2319 41.1942 61.9314 46.1583 62.2136 46.3708C62.2917 46.4294 62.3494 46.511 62.3786 46.6042C62.4076 46.6974 62.4067 46.7975 62.3759 46.89C62.345 46.9827 62.2857 47.0632 62.2065 47.1204C62.1273 47.1775 62.0322 47.2081 61.9345 47.2081Z" fill="black"/>
<path d="M65.4935 45.1397C65.4094 45.1395 65.3268 45.1164 65.2547 45.0731L64.0606 44.355C63.9589 44.2896 63.8865 44.1871 63.8591 44.0693C63.8316 43.9515 63.8511 43.8276 63.9134 43.7239C63.9757 43.6203 64.076 43.5449 64.193 43.5139C64.3099 43.4829 64.4343 43.4987 64.5398 43.5579L65.7339 44.2759C65.8211 44.3284 65.8886 44.408 65.9261 44.5025C65.9638 44.597 65.9694 44.7012 65.9421 44.7992C65.9148 44.8972 65.8562 44.9835 65.7752 45.045C65.6941 45.1065 65.5953 45.1398 65.4935 45.1397Z" fill="black"/>
<path d="M49.5173 38.9488C49.4941 38.9504 49.4708 38.9504 49.4475 38.9488L48.5062 38.8093C48.4436 38.8031 48.3829 38.7842 48.3278 38.7539C48.2726 38.7236 48.2242 38.6823 48.1855 38.6327C48.1468 38.5831 48.1186 38.5262 48.1024 38.4653C48.0864 38.4045 48.0828 38.3411 48.0919 38.2788C48.101 38.2165 48.1227 38.1568 48.1556 38.1031C48.1884 38.0495 48.2319 38.0031 48.2833 37.9667C48.3346 37.9303 48.3927 37.9048 48.4543 37.8915C48.5158 37.8783 48.5794 37.8777 48.6411 37.8897L49.584 38.0277C49.7074 38.0365 49.8222 38.0941 49.9032 38.1875C49.9842 38.281 50.0248 38.4029 50.0159 38.5263C50.007 38.6496 49.9496 38.7645 49.856 38.8455C49.7625 38.9265 49.6407 38.967 49.5173 38.9582V38.9488Z" fill="black"/>
<path d="M48.1976 45.397H48.1619L47.2314 45.3273C47.108 45.3182 46.9933 45.2605 46.9125 45.1669C46.8316 45.0732 46.7913 44.9513 46.8003 44.8279C46.8093 44.7045 46.867 44.5898 46.9607 44.5089C47.0544 44.4281 47.1763 44.3878 47.2996 44.3967L48.2302 44.465C48.3535 44.4696 48.4701 44.5229 48.5541 44.6134C48.6382 44.7038 48.6829 44.824 48.6783 44.9473C48.6738 45.0707 48.6205 45.1873 48.53 45.2713C48.4395 45.3554 48.3194 45.4 48.196 45.3955L48.1976 45.397Z" fill="black"/>
<path d="M61.0257 51.7134C60.9584 51.7132 60.8919 51.6984 60.8309 51.67C60.7698 51.6416 60.7157 51.6003 60.6721 51.549L60.0317 50.7953C59.9891 50.7492 59.9563 50.695 59.9353 50.6359C59.9143 50.5768 59.9054 50.5141 59.9093 50.4515C59.9131 50.3889 59.9295 50.3278 59.9576 50.2717C59.9857 50.2156 60.0247 50.1658 60.0725 50.1253C60.1203 50.0846 60.1758 50.0541 60.2357 50.0355C60.2956 50.017 60.3586 50.0107 60.421 50.0171C60.4834 50.0234 60.5438 50.0424 60.5987 50.0727C60.6536 50.1031 60.7018 50.1442 60.7404 50.1935L61.3808 50.9457C61.4412 51.0132 61.4806 51.0968 61.4941 51.1863C61.5077 51.2758 61.4948 51.3674 61.4572 51.4497C61.4195 51.532 61.3586 51.6016 61.2819 51.6498C61.2053 51.698 61.1162 51.7228 61.0257 51.7211V51.7134Z" fill="black"/>
<path d="M29.5321 62.1022C29.4491 62.1027 29.3675 62.0801 29.2964 62.0371C29.1905 61.9745 29.1137 61.8723 29.0829 61.7531C29.0521 61.634 29.0698 61.5074 29.132 61.4013C30.9062 58.3866 34.2714 55.2121 38.3934 55.3532C38.4545 55.3554 38.5146 55.3695 38.5702 55.3948C38.6258 55.4202 38.676 55.4562 38.7176 55.5009C38.7593 55.5457 38.7918 55.5982 38.8132 55.6554C38.8346 55.7127 38.8445 55.7736 38.8424 55.8347C38.8403 55.8958 38.8261 55.9559 38.8007 56.0115C38.7753 56.0672 38.7393 56.1172 38.6946 56.1589C38.6499 56.2006 38.5974 56.2331 38.5401 56.2545C38.4828 56.2759 38.4219 56.2858 38.3609 56.2836C34.6482 56.1596 31.5715 59.0891 29.9338 61.8665C29.8935 61.9377 29.8351 61.9969 29.7646 62.0382C29.6941 62.0796 29.6139 62.1017 29.5321 62.1022Z" fill="black"/>
<path d="M39.9721 69.3738C37.4272 72.1838 35.5012 77.6426 37.5885 79.2477C39.6759 80.8528 45.6837 82.3229 48.1975 85.3481C50.5532 88.1865 50.502 90.6788 50.2725 92.2941C50.1174 93.3802 49.2009 95.8616 48.4037 95.7776C47.6067 95.6936 48.5806 92.0555 48.3619 91.901C48.2068 91.7968 47.2593 95.996 46.2714 95.8801C45.2836 95.7633 46.6374 92.0429 46.3133 91.8808C46.1226 91.7842 44.4694 95.9447 43.7452 95.6491C42.5046 95.14 45.2091 90.1672 42.4643 88.1815C38.2119 85.1062 31.3993 85.5825 28.8622 83.579L39.9721 69.3738Z" fill="#8800FF"/>
<path d="M43.2335 92.7595H43.1915C43.1306 92.7545 43.0714 92.7369 43.0172 92.7083C42.9631 92.6797 42.915 92.6411 42.8759 92.5941C42.8366 92.547 42.8072 92.4933 42.7889 92.4345C42.7707 92.3765 42.7642 92.3152 42.7698 92.2539C42.793 92.0044 42.8303 91.7473 42.8644 91.497C43.0319 90.3059 43.1745 89.2777 42.1913 88.5646C39.938 86.935 36.8783 86.3268 34.1783 85.7901C31.832 85.3255 29.8051 84.9223 28.5738 83.9496C28.4769 83.8731 28.4144 83.7613 28.4 83.6386C28.3856 83.5161 28.4205 83.3928 28.497 83.2959C28.5735 83.1991 28.6853 83.1366 28.808 83.1222C28.9305 83.1078 29.0538 83.1427 29.1507 83.2191C30.2052 84.0538 32.2243 84.4595 34.3598 84.8787C37.1512 85.4322 40.318 86.0614 42.7341 87.8111C44.1732 88.8519 43.9577 90.3916 43.7824 91.6272C43.7483 91.8759 43.7142 92.1111 43.694 92.3395C43.6829 92.4538 43.6296 92.5605 43.5446 92.6377C43.4595 92.7159 43.3486 92.7587 43.2335 92.7595Z" fill="black"/>
<path d="M50.7501 92.7595C50.7279 92.7612 50.7057 92.7612 50.6835 92.7595C50.5614 92.7419 50.4511 92.6772 50.3769 92.5789C50.3027 92.4798 50.2707 92.3563 50.288 92.2337C50.4539 91.0753 50.3547 88.6813 47.8393 85.6506C46.3382 83.8441 43.508 82.6065 41.0158 81.5163C39.465 80.8417 38.136 80.2586 37.3094 79.6213C36.7015 79.156 36.3495 78.424 36.2626 77.4501C36.0238 74.7936 37.7871 71.0996 39.6309 69.0635C39.7157 68.9822 39.828 68.9359 39.9454 68.934C40.0629 68.9322 40.1766 68.9748 40.264 69.0532C40.3513 69.1318 40.4058 69.2404 40.4163 69.3573C40.4269 69.4742 40.3928 69.5908 40.3211 69.6837C38.4043 71.8021 36.9977 75.2465 37.1885 77.3633C37.2521 78.0658 37.4831 78.5744 37.877 78.8768C38.6136 79.4444 39.9612 80.0338 41.388 80.6571C43.981 81.7893 46.9181 83.0733 48.5589 85.0508C51.3053 88.3571 51.4015 91.0493 51.2139 92.358C51.1984 92.4697 51.1429 92.5722 51.0576 92.6461C50.9723 92.7201 50.863 92.7604 50.7501 92.7595Z" fill="black"/>
<path d="M65.8131 60.0072C65.8131 60.0072 63.1674 67.0897 62.6153 76.931C62.392 80.9072 59.5059 83.004 55.5235 85.9505C52.7166 88.0211 52.6344 90.9132 52.8531 92.4471C52.9988 93.4719 53.9246 95.8449 54.6784 95.7735C55.432 95.7021 54.4039 92.0078 54.6101 91.8717C54.7652 91.7734 55.8151 95.8852 56.7486 95.7752C57.6822 95.6643 56.2756 92.0531 56.5858 91.8977C56.7657 91.8078 58.1583 95.7886 58.8438 95.5097C60.0209 95.0276 57.6497 90.4311 60.2395 88.5528C60.7895 88.1454 61.3848 87.8036 62.0136 87.5339L65.8131 60.0072Z" fill="#8800FF"/>
<path d="M59.4269 92.7041C59.3123 92.7049 59.2015 92.6638 59.1157 92.5873C59.0298 92.5117 58.975 92.4067 58.9616 92.2933C58.9492 92.1908 58.9352 92.0842 58.9213 91.9733C58.7756 90.8662 58.5568 89.182 59.9603 88.1756C60.535 87.7498 61.1569 87.3911 61.8135 87.1072C61.9266 87.0576 62.0549 87.0551 62.1701 87.0996C62.2852 87.1441 62.3779 87.2331 62.4276 87.3457C62.4774 87.4591 62.4802 87.5876 62.4354 87.7027C62.3907 87.8178 62.302 87.9102 62.1888 87.9606C61.5915 88.2168 61.0263 88.5419 60.5046 88.9291C59.5525 89.6196 59.706 90.8057 59.844 91.854C59.858 91.9674 59.8735 92.0791 59.8859 92.1849C59.893 92.2454 59.8881 92.3068 59.8715 92.3656C59.8549 92.4244 59.8268 92.479 59.7889 92.5268C59.751 92.5756 59.7041 92.615 59.6507 92.6453C59.5974 92.6747 59.5387 92.694 59.478 92.7007C59.4611 92.7032 59.4439 92.7041 59.4269 92.7041Z" fill="black"/>
<path d="M52.3412 92.6293C52.222 92.6293 52.1073 92.584 52.0208 92.5025C51.9342 92.4202 51.8824 92.3084 51.8761 92.1892C51.7954 90.7032 52.1273 87.8699 55.2459 85.5674C58.6576 83.0502 61.8399 79.6741 64.7058 75.5257C64.7761 75.4244 64.8838 75.3551 65.0052 75.3331C65.1266 75.3111 65.2519 75.3383 65.3533 75.4086C65.4546 75.479 65.5239 75.5867 65.5459 75.7081C65.5678 75.8296 65.5407 75.9547 65.4703 76.0561C62.5409 80.2867 59.2842 83.7388 55.7933 86.3159C53.0237 88.3588 52.729 90.8418 52.7988 92.1396C52.8051 92.2622 52.7622 92.3832 52.6797 92.4748C52.5971 92.5663 52.4815 92.6218 52.3583 92.6276L52.3412 92.6293Z" fill="black"/>
<path d="M62.7766 79.0089H62.7502C62.627 79.0021 62.5115 78.9466 62.4293 78.8547C62.347 78.7628 62.3046 78.642 62.3113 78.5188C62.8603 68.7395 65.34 59.9666 65.3649 59.8783C65.3817 59.8195 65.4099 59.7646 65.4478 59.7168C65.4858 59.669 65.5329 59.6291 65.5864 59.5994C65.6398 59.5698 65.6985 59.5509 65.7592 59.5439C65.82 59.537 65.8815 59.542 65.9402 59.5588C65.9989 59.5756 66.0538 59.6039 66.1016 59.6418C66.1495 59.6799 66.1894 59.7269 66.219 59.7803C66.2487 59.8338 66.2676 59.8925 66.2746 59.9532C66.2815 60.0139 66.2764 60.0754 66.2596 60.1341C66.2348 60.221 63.7783 68.8977 63.2402 78.57C63.2335 78.6885 63.1818 78.8 63.0956 78.8815C63.0093 78.9631 62.8953 79.0087 62.7766 79.0089Z" fill="black"/>
<path d="M43.2056 26.1577C43.1158 26.1578 43.0277 26.1319 42.9523 26.0831C42.8769 26.0343 42.8171 25.9647 42.7804 25.8827C42.7436 25.8006 42.7315 25.7098 42.7452 25.621C42.7591 25.5322 42.7983 25.4493 42.8582 25.3823C47.8813 19.7312 54.4613 17.8144 54.7389 17.7353C54.7977 17.7187 54.8593 17.7137 54.92 17.7208C54.9809 17.7279 55.0396 17.7469 55.093 17.7767C55.1464 17.8065 55.1935 17.8465 55.2314 17.8945C55.2694 17.9425 55.2975 17.9975 55.3142 18.0563C55.3309 18.1152 55.3358 18.1768 55.3288 18.2375C55.3216 18.2983 55.3027 18.3571 55.2728 18.4105C55.243 18.4639 55.203 18.511 55.1551 18.5489C55.107 18.5869 55.0521 18.615 54.9932 18.6317C54.9281 18.6503 48.3899 20.5578 43.553 26.0011C43.5094 26.0502 43.456 26.0896 43.3961 26.1166C43.3362 26.1436 43.2713 26.1576 43.2056 26.1577Z" fill="black"/>
<path d="M35.8238 30.9202C35.743 30.92 35.6636 30.8989 35.5935 30.8586C35.5233 30.8185 35.4649 30.7607 35.4239 30.691C35.3829 30.6214 35.3607 30.5422 35.3596 30.4614C35.3585 30.3806 35.3784 30.3009 35.4175 30.2301C38.7843 24.12 45.0479 19.7917 45.3131 19.6103C45.4159 19.5406 45.5423 19.5145 45.6643 19.5379C45.7863 19.5614 45.894 19.6323 45.9637 19.7351C46.0334 19.8379 46.0595 19.9642 46.036 20.0862C46.0126 20.2083 45.9417 20.316 45.8389 20.3857C45.7753 20.4275 39.4899 24.7744 36.2317 30.686C36.1906 30.7578 36.1312 30.8173 36.0595 30.8585C35.9879 30.8996 35.9065 30.921 35.8238 30.9202Z" fill="black"/>
<path d="M72.6598 80.9582C72.5578 80.9574 72.4588 80.9237 72.3775 80.862C72.329 80.8248 72.2884 80.7784 72.2578 80.7254C72.2272 80.6724 72.2075 80.6139 72.1995 80.5533C72.1916 80.4926 72.1957 80.431 72.2116 80.372C72.2276 80.3129 72.255 80.2576 72.2922 80.2092C74.6681 77.1076 73.4461 72.8553 73.4336 72.8119C73.4137 72.7526 73.406 72.6899 73.4109 72.6276C73.4157 72.5653 73.4331 72.5046 73.4619 72.4491C73.4908 72.3937 73.5306 72.3445 73.5788 72.3048C73.6271 72.2651 73.6829 72.2354 73.7428 72.2177C73.8027 72.2 73.8657 72.1945 73.9278 72.2017C73.9899 72.2088 74.0499 72.2284 74.1043 72.2592C74.1586 72.29 74.2063 72.3315 74.2442 72.3812C74.2822 72.4309 74.3098 72.4877 74.3254 72.5482C74.3828 72.7405 75.6916 77.303 73.0304 80.7752C72.9869 80.8322 72.9308 80.8783 72.8666 80.9101C72.8023 80.9419 72.7315 80.9583 72.6598 80.9582Z" fill="black"/>
<path d="M71.9946 87.4407C71.8871 87.4407 71.783 87.4029 71.6999 87.3348C71.6045 87.2567 71.5441 87.1442 71.5319 87.0215C71.5197 86.8989 71.5567 86.7763 71.6348 86.6805C75.9181 81.4406 76.1321 76.6191 76.1321 76.5711C76.1362 76.4477 76.1892 76.331 76.2793 76.2467C76.3694 76.1623 76.4895 76.1172 76.6129 76.1214C76.7363 76.1255 76.8529 76.1785 76.9373 76.2686C77.0216 76.3587 77.0667 76.4787 77.0626 76.6021C77.0626 76.8115 76.8393 81.7895 72.3574 87.2685C72.3137 87.3223 72.2583 87.3659 72.1956 87.3953C72.1327 87.4256 72.0641 87.4407 71.9946 87.4407Z" fill="black"/>
</svg>
