<svg width="168" height="168" viewBox="0 0 168 168" fill="none" xmlns="http://www.w3.org/2000/svg">
<path d="M148.504 17.4285H70.9V80.2555H148.504V17.4285Z" fill="white"/>
<path d="M148.504 80.7177H70.8999C70.7776 80.7177 70.6606 80.6692 70.5741 80.5828C70.4878 80.4965 70.4392 80.3793 70.4392 80.2571V17.4286C70.4392 17.3065 70.4878 17.1893 70.5741 17.1029C70.6606 17.0166 70.7776 16.968 70.8999 16.968H148.504C148.625 16.968 148.743 17.0166 148.83 17.1029C148.916 17.1893 148.964 17.3065 148.964 17.4286V80.2571C148.964 80.3793 148.916 80.4965 148.83 80.5828C148.743 80.6692 148.625 80.7177 148.504 80.7177ZM71.3604 79.7966H148.043V17.8892H71.3604V79.7966Z" fill="black"/>
<path d="M104.042 48.4251H83.3167C83.1946 48.4251 83.0774 48.3766 82.9911 48.2902C82.9047 48.2038 82.8562 48.0867 82.8562 47.9646V34.9149C82.8562 34.7928 82.9047 34.6756 82.9911 34.5892C83.0774 34.5029 83.1946 34.4543 83.3167 34.4543H90.1841L93.3492 31.1228C93.3929 31.0777 93.4441 31.0418 93.5012 31.0173C93.5592 30.9928 93.6205 30.9801 93.6827 30.9801H104.049C104.171 30.9801 104.288 31.0286 104.374 31.1149C104.461 31.2014 104.509 31.3185 104.509 31.4407V47.9646C104.509 48.0256 104.497 48.0859 104.473 48.1422C104.45 48.1985 104.415 48.2496 104.373 48.2924C104.329 48.3353 104.278 48.369 104.22 48.3918C104.164 48.4146 104.104 48.4259 104.042 48.4251ZM83.7773 47.5039H103.582V31.8981H93.875L90.7091 35.2281C90.6662 35.2737 90.6142 35.31 90.5562 35.3347C90.4991 35.3596 90.4369 35.3724 90.3739 35.3724H83.7727L83.7773 47.5039Z" fill="black"/>
<path d="M136.093 48.4251H115.367C115.245 48.4251 115.128 48.3766 115.041 48.2902C114.955 48.2038 114.906 48.0867 114.906 47.9646V34.9149C114.906 34.7928 114.955 34.6756 115.041 34.5893C115.128 34.5029 115.245 34.4543 115.367 34.4543H122.234L125.4 31.1228C125.443 31.0775 125.495 31.0416 125.552 31.017C125.61 30.9925 125.672 30.9799 125.735 30.9801H136.1C136.223 30.9801 136.34 31.0286 136.426 31.115C136.513 31.2014 136.561 31.3185 136.561 31.4407V47.9646C136.561 48.0256 136.549 48.0862 136.525 48.1426C136.502 48.1989 136.467 48.2501 136.424 48.2929C136.38 48.3359 136.329 48.3696 136.272 48.3923C136.214 48.415 136.154 48.4261 136.093 48.4251ZM115.828 47.504H135.632V31.8981H125.924L122.758 35.2281C122.715 35.2735 122.664 35.3096 122.606 35.3345C122.548 35.3593 122.487 35.3722 122.424 35.3724H115.823L115.828 47.504Z" fill="black"/>
<path d="M101.468 65.468H85.2499C85.1273 65.468 85.0105 65.4195 84.924 65.3331C84.8375 65.2468 84.7888 65.1297 84.7888 65.0074V52.7255C84.7888 52.6033 84.8375 52.4862 84.924 52.3998C85.0105 52.3134 85.1273 52.2649 85.2499 52.2649H101.468C101.59 52.2649 101.707 52.3134 101.794 52.3998C101.88 52.4862 101.929 52.6033 101.929 52.7255V65.0074C101.929 65.1297 101.88 65.2468 101.794 65.3331C101.707 65.4195 101.59 65.468 101.468 65.468ZM85.7153 64.5469H101.007V53.186H85.7102L85.7153 64.5469Z" fill="black"/>
<path d="M104.042 72.9387H83.3108V59.8844H90.3748L93.6768 56.4102H104.042V72.9387Z" fill="white"/>
<path d="M104.042 73.3932H83.3167C83.1946 73.3932 83.0774 73.3446 82.9911 73.2583C82.9047 73.1719 82.8562 73.0547 82.8562 72.9326V59.8829C82.8562 59.7608 82.9047 59.6436 82.9911 59.5573C83.0774 59.4709 83.1946 59.4224 83.3167 59.4224H90.1841L93.3492 56.0909C93.3929 56.0458 93.4441 56.0099 93.5012 55.9853C93.5592 55.9608 93.6205 55.9481 93.6827 55.9481H104.049C104.171 55.9481 104.288 55.9967 104.374 56.083C104.461 56.1694 104.509 56.2866 104.509 56.4087V72.9326C104.509 72.9936 104.497 73.054 104.473 73.1102C104.45 73.1665 104.415 73.2176 104.373 73.2604C104.329 73.3033 104.278 73.337 104.22 73.3599C104.164 73.3827 104.104 73.394 104.042 73.3932ZM83.7773 72.472H103.582V56.8708H93.875L90.7091 60.2023C90.6654 60.2476 90.6142 60.2836 90.5562 60.3081C90.4991 60.3327 90.4369 60.3453 90.3739 60.3451H83.7727L83.7773 72.472Z" fill="black"/>
<path d="M136.093 73.3932H115.367C115.245 73.3932 115.128 73.3446 115.041 73.2583C114.955 73.1719 114.906 73.0547 114.906 72.9326V59.8829C114.906 59.7608 114.955 59.6436 115.041 59.5573C115.128 59.4709 115.245 59.4224 115.367 59.4224H122.234L125.4 56.0909C125.443 56.0456 125.495 56.0096 125.552 55.9851C125.61 55.9605 125.672 55.948 125.735 55.9481H136.1C136.223 55.9481 136.34 55.9967 136.426 56.083C136.513 56.1694 136.561 56.2866 136.561 56.4087V72.9326C136.561 72.9937 136.549 73.0542 136.525 73.1106C136.502 73.167 136.467 73.2181 136.424 73.261C136.38 73.3039 136.329 73.3376 136.272 73.3603C136.214 73.383 136.154 73.3942 136.093 73.3932ZM115.828 72.472H135.632V56.8708H125.924L122.758 60.2023C122.715 60.2474 122.663 60.2833 122.606 60.3078C122.548 60.3323 122.487 60.345 122.424 60.3451H115.823L115.828 72.472Z" fill="black"/>
<path d="M148.504 26.3669H70.8999C70.7776 26.3669 70.6606 26.3184 70.5741 26.232C70.4878 26.1457 70.4392 26.0285 70.4392 25.9064C70.4392 25.7842 70.4878 25.6671 70.5741 25.5807C70.6606 25.4943 70.7776 25.4458 70.8999 25.4458H148.504C148.625 25.4458 148.743 25.4943 148.83 25.5807C148.916 25.6671 148.964 25.7842 148.964 25.9064C148.964 26.0285 148.916 26.1457 148.83 26.232C148.743 26.3184 148.625 26.3669 148.504 26.3669Z" fill="black"/>
<path d="M84.4696 21.9619H74.5215C74.3994 21.9619 74.2822 21.9134 74.1958 21.827C74.1094 21.7407 74.0609 21.6236 74.0609 21.5013C74.0609 21.3792 74.1094 21.2621 74.1958 21.1757C74.2822 21.0893 74.3994 21.0408 74.5215 21.0408H84.4696C84.5922 21.0408 84.709 21.0893 84.7955 21.1757C84.882 21.2621 84.9307 21.3792 84.9307 21.5013C84.9307 21.6236 84.882 21.7407 84.7955 21.827C84.709 21.9134 84.5922 21.9619 84.4696 21.9619Z" fill="black"/>
<path d="M141.279 23.9965C141.187 23.9964 141.097 23.9689 141.021 23.9175C140.945 23.8662 140.886 23.7932 140.852 23.7081C140.818 23.6229 140.809 23.5295 140.829 23.4397C140.848 23.35 140.893 23.268 140.96 23.2043L144.69 19.6102C144.733 19.5662 144.785 19.5313 144.841 19.5074C144.898 19.4836 144.96 19.4716 145.021 19.4718C145.083 19.4721 145.144 19.4847 145.201 19.5088C145.257 19.5331 145.308 19.5685 145.351 19.6128C145.394 19.6573 145.428 19.7098 145.449 19.7673C145.471 19.8249 145.481 19.8863 145.48 19.9479C145.478 20.0095 145.463 20.0701 145.437 20.126C145.412 20.1819 145.375 20.2321 145.328 20.2735L141.598 23.8675C141.513 23.951 141.398 23.9974 141.279 23.9965Z" fill="black"/>
<path d="M145.009 23.9965C144.89 23.9974 144.776 23.951 144.69 23.8675L140.96 20.2735C140.913 20.2321 140.877 20.1819 140.851 20.126C140.825 20.0701 140.811 20.0095 140.808 19.9479C140.807 19.8863 140.817 19.8249 140.839 19.7673C140.861 19.7098 140.894 19.6573 140.937 19.6128C140.98 19.5685 141.031 19.5331 141.088 19.5088C141.144 19.4847 141.206 19.4721 141.267 19.4718C141.328 19.4716 141.39 19.4836 141.447 19.5074C141.504 19.5313 141.555 19.5662 141.598 19.6102L145.328 23.2043C145.395 23.268 145.44 23.35 145.459 23.4397C145.479 23.5295 145.47 23.6229 145.436 23.7081C145.402 23.7932 145.343 23.8662 145.267 23.9175C145.191 23.9689 145.102 23.9964 145.009 23.9965Z" fill="black"/>
<path d="M94.4059 54.4557C93.7045 55.2494 91.2954 53.7771 89.2214 54.8763C81.777 58.8204 72.455 75.6022 67.0632 79.5478C66.7255 80.1916 66.3857 80.8118 66.0438 81.4085C61.6867 89.0265 52.3401 98.1263 51.112 105.745C49.8039 113.838 59.3532 119.951 59.2273 126.345C59.1014 132.739 47.4642 138.566 47.4642 138.566C47.4642 138.566 53.2306 141.627 53.2306 142.906C53.2306 144.185 44.145 143.95 44.145 143.95C44.145 143.95 43.4634 145.066 36.154 145.124C32.8977 145.15 29.9056 145.556 29.4849 143.95C28.8079 141.368 34.9289 129.719 34.9289 128.582C34.9289 127.445 13.635 120.536 15.7751 102.022C18.0212 82.6014 32.1578 81.1429 40.8964 66.0576C46.6613 56.1015 46.4341 49.6411 48.8798 42.4777C50.7558 36.9891 57.5278 32.3266 64.9062 34.5128C74.2589 37.2855 76.4206 45.3808 76.0153 51.7675C75.8817 53.8508 75.418 56.4361 74.7149 59.2672C79.425 55.0882 85.8732 49.5291 89.2995 49.6641C94.059 49.8499 94.4076 52.2541 94.4076 52.2541C94.4076 52.2541 92.4991 52.2173 92.4428 52.5612C92.3093 53.3672 95.1073 53.6619 94.4059 54.4557Z" fill="#8800FF"/>
<path d="M45.4438 62.0507C45.4438 62.0507 32.5001 54.3744 25.8248 61.63C17.8415 70.318 26.1411 80.7915 28.8953 83.5841C31.5436 86.2604 33.2816 87.7648 34.1321 87.2684C34.2439 87.2163 34.3429 87.1407 34.4224 87.0458C34.5018 86.9517 34.5596 86.8408 34.592 86.7216C34.6242 86.6023 34.6302 86.478 34.6094 86.3562C34.5885 86.2344 34.5414 86.1193 34.4713 86.0176C34.4713 86.0176 35.3649 86.7148 36.0066 86.068C36.4979 85.5766 36.0757 84.8492 36.0757 84.8492C36.0757 84.8492 37.006 85.4078 37.4958 84.5418C38.0116 83.6363 35.5445 82.2884 35.4724 81.5084C35.4155 80.8698 37.9364 81.49 37.6493 80.2618C37.3423 78.9584 33.3814 79.9778 32.19 78.788C30.9986 77.5982 28.8969 75.6346 30.7883 70.8047L36.9554 65.7599L43.3206 69.6655L45.4438 62.0507Z" fill="#8800FF"/>
<path d="M25.8248 61.6298C17.8415 70.3178 26.1411 80.7912 28.8953 83.5838C31.5436 86.2596 33.2816 87.764 34.1321 87.2684C34.2439 87.2163 34.3429 87.1399 34.4224 87.0458C34.5018 86.9509 34.5596 86.8408 34.592 86.7216C34.6242 86.6023 34.6302 86.478 34.6094 86.3562C34.5885 86.2344 34.5414 86.1184 34.4713 86.0168C34.4713 86.0168 35.3649 86.714 36.0066 86.068C36.4979 85.5766 36.0757 84.8492 36.0757 84.8492C36.0757 84.8492 37.006 85.4078 37.4958 84.5418C38.0116 83.6361 35.5445 82.2881 35.4724 81.5082C35.4155 80.8695 37.9364 81.4898 37.6493 80.2615C37.3423 78.9581 33.3814 79.9775 32.19 78.7878C30.9986 77.5979 29.5647 75.8447 30.7883 70.8044C31.4147 68.2728 32.5001 54.3695 25.8248 61.6298Z" fill="#8800FF"/>
<path d="M76.5028 50.6131C77.2168 48.4469 75.9591 46.0856 73.6938 45.3391C71.4286 44.5925 69.0134 45.7434 68.2996 47.9097C67.5857 50.0759 68.8433 52.4372 71.1085 53.1837C73.3738 53.9302 75.7889 52.7793 76.5028 50.6131Z" fill="white"/>
<path d="M72.5132 53.8754C71.9879 53.8747 71.466 53.7902 70.9673 53.6251C68.4602 52.8008 67.0785 50.1724 67.8645 47.7682C68.0554 47.1893 68.3629 46.6557 68.7679 46.2002C69.173 45.7448 69.667 45.3771 70.2196 45.1199C71.355 44.588 72.6507 44.5103 73.8415 44.9027C75.0323 45.2952 76.028 46.1281 76.6247 47.2309C76.916 47.7665 77.0947 48.3561 77.1496 48.9634C77.2045 49.5706 77.1346 50.1827 76.944 50.7619C76.3146 52.6672 74.4922 53.8754 72.5132 53.8754ZM72.286 45.5743C71.7061 45.5727 71.1332 45.7013 70.6095 45.9505C70.1705 46.1564 69.7781 46.4498 69.4566 46.8128C69.135 47.1758 68.8911 47.6007 68.7396 48.0614C68.1056 49.9836 69.234 52.0884 71.2543 52.7546C73.2748 53.421 75.4348 52.4 76.0689 50.4779C76.22 50.0168 76.2753 49.5298 76.2312 49.0466C76.1871 48.5635 76.0446 48.0945 75.8125 47.6684C75.331 46.772 74.5211 46.0969 73.5526 45.7847C73.1445 45.647 72.7168 45.576 72.286 45.5743Z" fill="black"/>
<path d="M74.5214 51.3622C74.9072 51.3622 75.22 51.0494 75.22 50.6636C75.22 50.2778 74.9072 49.9651 74.5214 49.9651C74.1356 49.9651 73.8229 50.2778 73.8229 50.6636C73.8229 51.0494 74.1356 51.3622 74.5214 51.3622Z" fill="black"/>
<path d="M70.3151 49.6244C71.2508 46.785 69.6025 43.6899 66.6333 42.7114C63.6643 41.7329 60.4987 43.2415 59.563 46.081C58.6272 48.9204 60.2755 52.0155 63.2447 52.994C66.2138 53.9725 69.3793 52.4639 70.3151 49.6244Z" fill="white"/>
<path d="M65.0951 53.7557C64.4169 53.7555 63.7432 53.6466 63.0993 53.4333C59.8937 52.3771 58.1113 49.0149 59.1246 45.9383C59.3694 45.1982 59.7628 44.5161 60.2808 43.9337C60.7988 43.3513 61.4304 42.8809 62.1367 42.5515C63.5899 41.8627 65.2535 41.7642 66.7778 42.2767C69.9833 43.3329 71.7658 46.6951 70.7525 49.7718C70.5078 50.5117 70.1143 51.1939 69.5963 51.7763C69.0783 52.3587 68.4467 52.829 67.7404 53.1586C66.9141 53.5522 66.0104 53.7563 65.0951 53.7557ZM64.7881 42.8754C64.0096 42.8751 63.2407 43.0482 62.5374 43.382C61.9436 43.6586 61.4127 44.0536 60.977 44.5428C60.5414 45.0321 60.2104 45.6051 60.0042 46.2269C59.1491 48.8215 60.669 51.6617 63.3925 52.5582C64.6915 52.9958 66.1095 52.9133 67.3489 52.328C67.9426 52.0514 68.4737 51.6564 68.9093 51.1672C69.3449 50.678 69.6759 50.1049 69.882 49.4831C70.7372 46.8901 69.2173 44.0498 66.4937 43.1517C65.9425 42.9693 65.3657 42.876 64.785 42.8754H64.7881Z" fill="black"/>
<path d="M64.6985 45.3971C65.0844 45.3971 65.3971 45.0844 65.3971 44.6985C65.3971 44.3127 65.0844 44 64.6985 44C64.3128 44 64 44.3127 64 44.6985C64 45.0844 64.3128 45.3971 64.6985 45.3971Z" fill="black"/>
<path d="M70.3194 58.24C70.3194 58.24 67.5069 61.5532 63.9251 63.0286C61.5178 64.0203 58.762 64.1815 56.278 61.9446C54.0473 59.935 53.6681 57.6014 54.055 55.4766C54.6875 52.0054 57.3681 49.0977 57.3681 49.0977C57.3681 49.0977 57.4985 53.7571 61.7634 56.1874C66.0284 58.6177 70.3194 58.24 70.3194 58.24Z" fill="black"/>
<path d="M60.6934 64.1909C58.9586 64.1909 57.3788 63.5552 55.971 62.2872C53.903 60.4264 53.1062 58.1066 53.6021 55.3939C54.2515 51.8321 56.9151 48.9075 57.0288 48.7847C57.0913 48.7165 57.1727 48.6688 57.2627 48.6477C57.3527 48.6266 57.4468 48.633 57.5331 48.6661C57.6194 48.6992 57.6937 48.7575 57.7464 48.8334C57.7991 48.9093 57.8278 48.9993 57.8286 49.0917C57.8286 49.1347 58.0128 53.5286 61.9922 55.7945C64.5203 57.2076 67.3884 57.898 70.2825 57.7904C70.3736 57.7824 70.4649 57.8016 70.5449 57.8457C70.6249 57.8897 70.6901 57.9565 70.732 58.0376C70.774 58.1187 70.7909 58.2105 70.7806 58.3013C70.7702 58.392 70.7332 58.4777 70.6741 58.5473C70.5574 58.6854 67.7494 61.9632 64.1048 63.4601C63.0265 63.9251 61.8674 64.1734 60.6934 64.1909ZM57.0472 50.2201C56.2366 51.2947 54.9163 53.3197 54.5078 55.5597C54.0734 57.9362 54.7735 59.9704 56.5866 61.604C58.5824 63.4018 60.9943 63.7364 63.7501 62.6019C66.1359 61.6209 68.1946 59.7678 69.2386 58.7177C66.5363 58.6393 63.8932 57.9082 61.5347 56.5867C58.3537 54.7736 57.3573 51.8213 57.0472 50.2201Z" fill="black"/>
<path d="M63.9251 63.0285C61.5178 64.0203 58.762 64.1815 56.278 61.9447C54.0473 59.935 53.6681 57.6015 54.055 55.4767C54.055 55.4767 59.0629 54.164 60.1008 58.1281C60.1024 58.1281 64.8171 57.7918 63.9251 63.0285Z" fill="white"/>
<path d="M60.6934 64.1908C58.9586 64.1908 57.3788 63.5551 55.971 62.287C53.903 60.4263 53.1062 58.1066 53.6021 55.3938C53.6146 55.3302 53.6403 55.2701 53.6776 55.2171C53.7149 55.1642 53.7629 55.1198 53.8185 55.0867C53.866 55.059 53.918 55.0397 53.9721 55.0299C54.8806 54.8208 55.8177 54.7648 56.7448 54.8641C58.6254 55.0928 59.8966 56.0601 60.4431 57.672C61.1171 57.6951 62.5511 57.8809 63.5305 58.9617C64.3995 59.9181 64.6835 61.3152 64.378 63.1068C64.3648 63.1839 64.3322 63.2563 64.2833 63.3173C64.2345 63.3782 64.1709 63.4257 64.0986 63.4554C63.0227 63.9211 61.8657 64.171 60.6934 64.1908ZM54.4588 55.8605C54.1348 58.1081 54.8502 60.0394 56.5866 61.6038C58.5256 63.3494 60.8546 63.7163 63.5106 62.6969C63.701 61.3152 63.4814 60.2743 62.855 59.5788C61.8678 58.4857 60.15 58.5855 60.1331 58.5871C60.0263 58.5942 59.9204 58.5639 59.8335 58.5014C59.7468 58.439 59.6843 58.3482 59.6571 58.2448C58.8711 55.2449 55.4797 55.6609 54.4588 55.8605Z" fill="black"/>
<path d="M60.3034 60.1698C60.1908 60.1708 60.0817 60.1304 59.9968 60.0562C59.9119 59.9821 59.8571 59.8795 59.8429 59.7677L59.6418 58.1848C59.6325 58.1241 59.6356 58.0622 59.6507 58.0026C59.6657 57.9432 59.6925 57.8872 59.7295 57.8383C59.7665 57.7892 59.813 57.7481 59.866 57.7173C59.9191 57.6865 59.9779 57.6666 60.0388 57.6588C60.0997 57.6511 60.1616 57.6556 60.2207 57.672C60.2798 57.6885 60.3351 57.7166 60.3831 57.7548C60.4313 57.7929 60.4713 57.8403 60.5008 57.894C60.5304 57.9479 60.5489 58.007 60.5553 58.0681L60.7564 59.651C60.772 59.7721 60.739 59.8945 60.6644 59.9913C60.5898 60.0879 60.4798 60.1511 60.3587 60.1668C60.3404 60.1692 60.3219 60.1702 60.3034 60.1698Z" fill="black"/>
<path d="M47.0744 64.7219C46.9659 64.7217 46.8611 64.6832 46.7783 64.6133C46.6954 64.5434 46.6398 64.4465 46.6214 64.3397C46.2791 62.3791 43.8089 61.6315 43.7843 61.6238C43.6703 61.587 43.5753 61.5073 43.5191 61.4015C43.463 61.2957 43.4503 61.1723 43.4836 61.0573C43.517 60.9423 43.5937 60.8448 43.6977 60.7855C43.8017 60.7261 43.9247 60.7097 44.0407 60.7395C44.165 60.7763 47.0881 61.6514 47.5288 64.1815C47.5497 64.3019 47.522 64.4255 47.4518 64.5255C47.3815 64.6253 47.2744 64.6933 47.1542 64.7142C47.1279 64.7191 47.1012 64.7217 47.0744 64.7219Z" fill="black"/>
<path d="M67.3672 79.5001C67.2854 79.5001 67.2052 79.4783 67.1347 79.437C67.0642 79.3956 67.006 79.3363 66.966 79.2651C66.9259 79.1938 66.9056 79.1132 66.9071 79.0315C66.9085 78.9498 66.9316 78.8699 66.9741 78.8001C71.4264 71.5123 74.0455 59.7292 74.0716 59.6095C74.0978 59.4902 74.1705 59.3862 74.2734 59.3204C74.3763 59.2546 74.5012 59.2325 74.6205 59.2587C74.7398 59.285 74.8438 59.3575 74.9095 59.4604C74.9753 59.5634 74.9976 59.6882 74.9713 59.8075C74.9451 59.9273 72.2861 71.8577 67.7556 79.2775C67.7151 79.3447 67.6582 79.4003 67.5903 79.4392C67.5223 79.4782 67.4455 79.4991 67.3672 79.5001Z" fill="black"/>
<path d="M44.165 144.154C44.1375 144.157 44.1097 144.157 44.0821 144.154C43.9621 144.132 43.8556 144.064 43.7858 143.964C43.7162 143.863 43.6892 143.74 43.7106 143.62C43.8396 142.909 41.5613 141.765 40.3331 141.151C38.8669 140.414 38.1316 140.044 38.1837 139.463C38.2236 139.048 38.6781 138.695 41.2189 136.916C44.2894 134.766 49.4141 131.169 50.4074 128.794C51.7983 125.467 49.5262 120.797 44.3293 116.303C44.2369 116.223 44.1801 116.11 44.1712 115.988C44.1625 115.866 44.2025 115.745 44.2825 115.653C44.3625 115.561 44.476 115.503 44.5979 115.495C44.7198 115.487 44.8402 115.526 44.9327 115.606C47.5334 117.855 49.5015 120.235 50.6223 122.487C51.8398 124.93 52.0593 127.232 51.2579 129.148C50.1617 131.771 45.0985 135.321 41.7486 137.671C40.7123 138.397 39.6468 139.144 39.2262 139.513C39.7168 139.813 40.2226 140.087 40.7414 140.335C42.6712 141.303 44.8574 142.403 44.6072 143.789C44.5857 143.89 44.5303 143.983 44.4499 144.049C44.3696 144.115 44.2692 144.152 44.165 144.154Z" fill="black"/>
<path d="M21.7766 63.2605C21.7015 63.2604 21.6276 63.2421 21.5613 63.207C21.4949 63.1719 21.4382 63.1211 21.396 63.059C21.3537 62.997 21.3273 62.9255 21.319 62.8509C21.3106 62.7763 21.3207 62.7009 21.3483 62.631C23.4393 57.3236 28.871 56.2214 29.1058 56.183C29.1657 56.1705 29.2273 56.17 29.2873 56.1815C29.3473 56.1931 29.4043 56.2164 29.4552 56.2502C29.506 56.2841 29.5497 56.3276 29.5836 56.3785C29.6174 56.4293 29.6408 56.4863 29.6524 56.5463C29.664 56.6062 29.6636 56.6679 29.6511 56.7277C29.6387 56.7875 29.6145 56.8442 29.5799 56.8946C29.5453 56.9449 29.5011 56.9878 29.4497 57.0209C29.3984 57.054 29.341 57.0766 29.2809 57.0873C29.2056 57.1026 24.1025 58.162 22.2064 62.9749C22.1715 63.06 22.1118 63.1327 22.0352 63.1836C21.9586 63.2345 21.8686 63.2613 21.7766 63.2605Z" fill="black"/>
<path d="M18.1779 66.1328C18.0557 66.1328 17.9385 66.0843 17.8522 65.9979C17.7658 65.9116 17.7173 65.7944 17.7173 65.6722C17.7173 60.087 22.538 56.2105 22.7422 56.0478C22.838 55.9718 22.9601 55.9371 23.0817 55.9512C23.2032 55.9653 23.3141 56.0271 23.3901 56.123C23.466 56.2189 23.5007 56.341 23.4866 56.4626C23.4725 56.584 23.4107 56.6949 23.3148 56.7708C23.2672 56.8077 18.6384 60.5384 18.6384 65.6753C18.6376 65.797 18.5887 65.9133 18.5024 65.999C18.4162 66.0848 18.2995 66.1328 18.1779 66.1328Z" fill="black"/>
<path d="M63.8115 125.885H63.787C63.665 125.878 63.5506 125.824 63.4688 125.733C63.3871 125.642 63.3447 125.523 63.351 125.401C63.6166 120.086 60.3327 116.982 60.2989 116.957C60.2089 116.874 60.1555 116.759 60.1505 116.637C60.1454 116.515 60.1891 116.395 60.272 116.306C60.3548 116.216 60.4701 116.162 60.5923 116.157C60.7145 116.152 60.8337 116.196 60.9237 116.279C61.0772 116.416 64.5592 119.692 64.2706 125.453C64.2631 125.57 64.2116 125.68 64.1264 125.76C64.0411 125.84 63.9285 125.885 63.8115 125.885Z" fill="black"/>
<path d="M66.0484 122.266C65.9343 122.267 65.824 122.225 65.7389 122.149C65.6538 122.073 65.6 121.968 65.5878 121.855C65.1027 117.464 63.3248 114.759 61.9201 113.257C60.3956 111.634 58.9632 111.04 58.9494 111.035C58.8392 110.987 58.7522 110.898 58.7068 110.786C58.6613 110.675 58.6611 110.551 58.7062 110.439C58.7512 110.328 58.838 110.238 58.9479 110.19C59.0579 110.142 59.1824 110.138 59.2949 110.181C59.5481 110.282 65.5141 112.78 66.5028 121.75C66.5162 121.871 66.4808 121.993 66.4045 122.089C66.3283 122.184 66.2173 122.245 66.096 122.259L66.0484 122.266Z" fill="black"/>
</svg>
